<svg t="1702710540110" class="icon" viewBox="0 0 1024 1024" version="1.1" xmlns="http://www.w3.org/2000/svg" p-id="33773" width="200" height="200"><path d="M741.486703 273.989189h-116.699099V249.081081a18.45045 18.45045 0 0 0-36.900901 0v24.908108h-149.448649V249.081081a18.45045 18.45045 0 0 0-36.900901 0v24.908108h-116.699099a65.037838 65.037838 0 0 0-65.037838 65.037838v401.297297a65.037838 65.037838 0 0 0 65.037838 65.037838h456.648649a65.037838 65.037838 0 0 0 65.037838-65.037838v-401.297297a65.037838 65.037838 0 0 0-65.037838-65.037838z m28.136937 455.264865a39.207207 39.207207 0 0 1-39.207208 39.207207h-434.508108a39.188757 39.188757 0 0 1-39.207207-39.207207V448.345946h512.922523z m0-317.809009h-512.922523v-61.347748a39.188757 39.188757 0 0 1 39.207207-39.207207h105.628829V333.953153a18.45045 18.45045 0 0 0 36.900901 0v-23.063063h149.448649V333.953153a18.45045 18.45045 0 0 0 36.900901 0v-23.063063h105.628828a39.207207 39.207207 0 0 1 39.207208 39.207207z" p-id="33774" fill="#3263fe"></path><path d="M327.735351 533.218018m18.450451 0l52.343928 0q18.45045 0 18.45045 18.45045l0 2.767568q0 18.45045-18.45045 18.45045l-52.343928 0q-18.45045 0-18.450451-18.45045l0-2.767568q0-18.45045 18.450451-18.45045Z" p-id="33775" fill="#3263fe"></path><path d="M468.530739 533.218018m18.45045 0l52.343928 0q18.45045 0 18.450451 18.45045l0 2.767568q0 18.45045-18.450451 18.45045l-52.343928 0q-18.45045 0-18.45045-18.45045l0-2.767568q0-18.45045 18.45045-18.45045Z" p-id="33776" fill="#3263fe"></path><path d="M609.344577 533.218018m18.45045 0l52.343928 0q18.45045 0 18.45045 18.45045l0 2.767568q0 18.45045-18.45045 18.45045l-52.343928 0q-18.45045 0-18.45045-18.45045l0-2.767568q0-18.45045 18.45045-18.45045Z" p-id="33777" fill="#3263fe"></path><path d="M327.735351 618.496m18.450451 0l52.343928 0q18.45045 0 18.45045 18.45045l0 2.767568q0 18.45045-18.45045 18.45045l-52.343928 0q-18.45045 0-18.450451-18.45045l0-2.767568q0-18.45045 18.450451-18.45045Z" p-id="33778" fill="#3263fe"></path><path d="M468.530739 618.496m18.45045 0l52.343928 0q18.45045 0 18.450451 18.45045l0 2.767568q0 18.45045-18.450451 18.45045l-52.343928 0q-18.45045 0-18.45045-18.45045l0-2.767568q0-18.45045 18.45045-18.45045Z" p-id="33779" fill="#3263fe"></path><path d="M609.344577 618.496m18.45045 0l52.343928 0q18.45045 0 18.45045 18.45045l0 2.767568q0 18.45045-18.45045 18.45045l-52.343928 0q-18.45045 0-18.45045-18.45045l0-2.767568q0-18.45045 18.45045-18.45045Z" p-id="33780" fill="#3263fe"></path></svg>
