<?xml version="1.0" standalone="no"?><!DOCTYPE svg PUBLIC "-//W3C//DTD SVG 1.1//EN" "http://www.w3.org/Graphics/SVG/1.1/DTD/svg11.dtd"><svg t="1758880189166" class="icon" viewBox="0 0 1064 1024" version="1.1" xmlns="http://www.w3.org/2000/svg" p-id="4576" width="33.25" height="32" xmlns:xlink="http://www.w3.org/1999/xlink"><path d="M453.298096 880.727555c-236.399534 0-427.827439-191.427905-427.827439-427.827438S217.296541 25.072678 453.298096 25.072678s427.827439 191.427905 427.827438 427.827439c0 10.745433-8.755538 19.500972-19.500971 19.500971s-19.500972-8.755538-19.500972-19.500971c0-214.908667-174.314808-389.223475-389.223474-389.223475S63.676642 237.99145 63.676642 452.900117s174.314808 389.223475 389.223475 389.223474c10.745433 0 19.500972 8.755538 19.500971 19.500972s-7.95958 19.102993-19.102992 19.102992z" fill="#3473d1" p-id="4577"></path><path d="M454.492033 576.67159c-8.755538 0-16.31714-5.969685-18.307035-14.327245L368.130587 321.169063l-64.074621 139.690634c-3.183832 7.163622-10.347454 11.541391-17.909056 11.541391H74.024096c-10.745433 0-19.500972-8.755538-19.500971-19.500971s8.755538-19.500972 19.500971-19.500972h199.387486l81.187718-176.304703c3.581811-7.561601 11.143412-11.93937 19.500972-11.143412 7.95958 0.795958 15.123202 6.367664 17.113098 13.929265l64.870579 228.837933 35.420132-112.628061c2.387874-7.95958 9.551496-13.531286 17.909055-13.531286 7.95958 0 15.521182 4.775748 18.307035 12.337349l23.082783 58.502915h158.793626c10.745433 0 19.500972 8.755538 19.500971 19.500972s-8.755538 19.500972-19.500971 19.500971h-172.722892c-7.95958 0-15.123202-4.775748-17.909055-12.337349l-7.561602-19.500972-38.603964 122.577536c-2.387874 7.561601-9.551496 13.133307-18.307034 13.531287z" fill="#3473d1" p-id="4578"></path><path d="M772.875243 874.359891h-125.363389c-12.735328 0-23.480762 6.765643-27.062573 16.715119l-32.2363 94.719005c-3.183832 9.949475-14.327244 16.715119-27.062573 16.715118-18.705014 0-31.838321-14.327244-26.664594-29.052468l141.28255-393.601243c3.581811-9.551496 14.327244-16.31714 27.062573-16.31714h21.888845c12.735328 0 23.480762 6.765643 27.062573 16.715119l136.108823 393.601243c5.173727 14.327244-8.357559 28.654489-27.062573 28.654489h-3.183832c-12.735328 0-23.878741-6.765643-27.062573-16.715118l-30.644384-93.923047c-3.183832-10.745433-14.327244-17.511077-27.062573-17.511077z m-92.72911-52.53323h57.308978c18.307035 0 31.838321-13.929265 27.062573-28.256509l-27.062573-84.76953c-7.163622-22.286825-46.165565-22.684804-54.125146-0.397979l-30.246405 84.76953c-4.775748 14.327244 8.357559 28.654489 27.062573 28.654488zM1037.133307 586.223086V979.028372c0 12.735328-12.735328 22.684804-28.256509 22.684803-15.521182 0-28.25651-10.347454-28.25651-22.684803v-393.203265c0-12.735328 12.735328-22.684804 28.25651-22.684804 15.521182 0 28.25651 10.347454 28.256509 23.082783z" fill="#3473d1" p-id="4579"></path></svg>