<svg fill="none" xmlns="http://www.w3.org/2000/svg" viewBox="0 0 16 16" class="design-iconfont">
  <path d="M11.4011 7.75942C9.41335 7.75942 7.80166 9.38002 7.80166 11.3796C7.80166 13.3793 9.41333 15 11.4011 15C13.3887 15 15 13.3793 15 11.3796C15 9.38002 13.3887 7.75942 11.4011 7.75942ZM13.2012 11.7792H11.2902C11.2498 11.7792 11.2108 11.771 11.1752 11.756C11.0696 11.7109 10.9952 11.6055 10.9952 11.4826V9.56027C10.9952 9.39632 11.1273 9.2635 11.2902 9.2635C11.4534 9.2635 11.5853 9.39632 11.5853 9.56027V11.1855H13.2012C13.3642 11.1855 13.4963 11.3184 13.4963 11.4824C13.4963 11.6464 13.3642 11.7792 13.2012 11.7792ZM3.14118 11.9512C3.01453 11.9512 2.90698 11.9064 2.81891 11.8185C2.73146 11.7299 2.68704 11.6217 2.68704 11.4942C2.68704 11.3566 2.73146 10.5077 2.81891 10.4239C2.90696 10.3405 3.01453 10.2989 3.14118 10.2989H7.04059C7.19376 9.67104 7.47781 9.09521 7.86179 8.60124H3.14118C3.01453 8.60124 2.90698 8.55738 2.81891 8.46855C2.73146 8.37987 2.68704 7.50649 2.68704 7.37892C2.68704 7.25136 2.73146 7.14319 2.81891 7.05454C2.90696 6.96677 3.01453 6.92204 3.14118 6.92204H9.55508C9.68191 6.92204 9.78967 6.96677 9.87772 7.05454C9.89605 7.07312 9.91152 7.09302 9.92599 7.11344C10.3882 6.95179 10.8843 6.86283 11.4011 6.86283C11.8832 6.86283 12.3472 6.94015 12.7824 7.08148V2.89956C12.7824 2.36918 12.6212 1.91972 12.2995 1.55149C11.9771 1.18317 11.5035 1 10.8787 1H2.8298C2.2444 1 1.79266 1.1714 1.47523 1.51511C1.15883 1.85889 1 2.32012 1 2.89956V12.5602C1 12.8549 1.0563 13.1226 1.16786 13.3627C1.28044 13.6037 1.42398 13.8094 1.60048 13.9819C1.77577 14.1531 1.97559 14.2858 2.20075 14.3796C2.4251 14.4726 2.64926 14.519 2.8742 14.519H8.17381C7.51621 13.8352 7.07194 12.9436 6.94731 11.9512H3.14118ZM2.81893 3.6522C2.90698 3.56363 3.01455 3.51961 3.1412 3.51961H10.4631C10.5898 3.51961 10.6974 3.56363 10.7856 3.6522C10.8736 3.74096 10.9175 3.98082 10.9175 4.10831C10.9175 4.24602 10.8736 4.99194 10.7856 5.08061C10.6974 5.16848 10.5898 5.2133 10.4631 5.2133H3.14118C3.01453 5.2133 2.90698 5.16846 2.81891 5.08061C2.73146 4.99194 2.68704 4.24604 2.68704 4.10831C2.68706 3.9808 2.73148 3.74096 2.81893 3.6522Z" fill="#fff"/>
</svg>
