<svg fill="none" xmlns="http://www.w3.org/2000/svg" viewBox="0 0 18 18" class="design-iconfont">
  <path d="M11.5787 10.9053H6.41953C6.05918 10.9053 5.76562 11.1988 5.76562 11.5592C5.76562 11.9195 6.05918 12.2131 6.41953 12.2131H11.5805C11.9408 12.2131 12.2344 11.9195 12.2344 11.5592C12.2344 11.1988 11.9408 10.9053 11.5787 10.9053Z" fill="#FF813B"/>
  <path d="M15.7072 4.19785H13.7807V2.27129C13.7807 1.62617 13.2551 1.10059 12.61 1.10059H5.38535C4.74023 1.10059 4.21465 1.62617 4.21465 2.27129V4.19785H2.28984C1.64473 4.19785 1.11914 4.72344 1.11914 5.36855V10.5295C1.11914 11.1746 1.64473 11.7002 2.28984 11.7002H3.69961V15.6904C3.69961 16.3355 4.2252 16.8611 4.87031 16.8611H13.1268C13.7719 16.8611 14.2975 16.3355 14.2975 15.6904V11.7002H15.7072C16.3523 11.7002 16.8779 11.1746 16.8779 10.5295V5.36855C16.8779 4.72344 16.3523 4.19785 15.7072 4.19785ZM5.52422 2.78809C5.52422 2.57891 5.69297 2.41016 5.90215 2.41016H12.0949C12.3041 2.41016 12.4729 2.57891 12.4729 2.78809V4.19785H5.52422V2.78809ZM12.9896 15.1736C12.9896 15.3828 12.8209 15.5516 12.6117 15.5516H5.38711C5.17793 15.5516 5.00918 15.3828 5.00918 15.1736V10.0127C5.00918 9.80351 5.17793 9.63476 5.38711 9.63476H12.6117C12.8209 9.63476 12.9896 9.80351 12.9896 10.0127V15.1736ZM15.5701 10.0127C15.5701 10.2219 15.4014 10.3906 15.1922 10.3906H14.2975V9.4959C14.2975 8.85078 13.7719 8.32519 13.1268 8.32519H4.87031C4.2252 8.32519 3.69961 8.85078 3.69961 9.4959V10.3906H2.80488C2.5957 10.3906 2.42695 10.2219 2.42695 10.0127V5.88359C2.42695 5.67441 2.5957 5.50566 2.80488 5.50566H15.1904C15.3996 5.50566 15.5684 5.67441 15.5684 5.88359V10.0127H15.5701Z" fill="#3473D1"/>
  <path d="M11.5787 12.9707H6.41953C6.05918 12.9707 5.76562 13.2643 5.76562 13.6246C5.76562 13.985 6.05918 14.2785 6.41953 14.2785H11.5805C11.9408 14.2785 12.2344 13.985 12.2344 13.6246C12.2344 13.2643 11.9408 12.9707 11.5787 12.9707Z" fill="#FF813B"/>
  <path d="M13.2383 6.89258C13.2383 7.00338 13.2601 7.1131 13.3025 7.21547C13.3449 7.31784 13.4071 7.41085 13.4854 7.4892C13.5638 7.56755 13.6568 7.6297 13.7591 7.6721C13.8615 7.7145 13.9712 7.73633 14.082 7.73633C14.1928 7.73633 14.3026 7.7145 14.4049 7.6721C14.5073 7.6297 14.6003 7.56755 14.6787 7.4892C14.757 7.41085 14.8192 7.31784 14.8616 7.21547C14.904 7.1131 14.9258 7.00338 14.9258 6.89258C14.9258 6.78178 14.904 6.67206 14.8616 6.56969C14.8192 6.46732 14.757 6.37431 14.6787 6.29596C14.6003 6.21761 14.5073 6.15546 14.4049 6.11305C14.3026 6.07065 14.1928 6.04883 14.082 6.04883C13.9712 6.04883 13.8615 6.07065 13.7591 6.11305C13.6568 6.15546 13.5638 6.21761 13.4854 6.29596C13.4071 6.37431 13.3449 6.46732 13.3025 6.56969C13.2601 6.67206 13.2383 6.78178 13.2383 6.89258Z" fill="#FF813B"/>
</svg>
