<?xml version="1.0" encoding="UTF-8"?>
<svg xmlns="http://www.w3.org/2000/svg" width="32" height="32" viewBox="0 0 32 32">
  <defs>
    <style>
      .cls-1 {
        fill: #fff;
        opacity: 0;
      }

      .cls-2 {
        fill: #333;
      }
    </style>
  </defs>
  <g id="删除" transform="translate(-75 -66)">
    <rect id="矩形_1" data-name="矩形 1" class="cls-1" width="32" height="32" transform="translate(75 66)"></rect>
    <path id="删除-2" data-name="删除" class="cls-2" d="M102.537,104.832V94.614a.941.941,0,0,1,1.882,0v10.218a.941.941,0,0,1-1.882,0m-5.621,0V94.614a.941.941,0,0,1,1.882,0v10.218a.941.941,0,0,1-1.882,0m15.921-14.859h-4.68V88.114a2.79,2.79,0,0,0-2.784-2.782H95.988a2.805,2.805,0,0,0-1.986.81,2.774,2.774,0,0,0-.824,1.972v1.859H88.5a.935.935,0,0,0,0,1.859h24.339a.935.935,0,0,0,0-1.859m-17.79-1.859a.952.952,0,0,1,.941-.923h9.385a.9.9,0,0,1,.656.267.894.894,0,0,1,.259.656v1.859H95.047V88.114M107.2,111.332H94.132a2.805,2.805,0,0,1-1.986-.81,2.774,2.774,0,0,1-.824-1.972V94.614a.907.907,0,0,1,.268-.657.918.918,0,0,1,.66-.266.931.931,0,0,1,.665.266.92.92,0,0,1,.276.657V108.55a.952.952,0,0,0,.941.923H107.2a.952.952,0,0,0,.941-.923v-13.9a.942.942,0,0,1,1.869,0v13.9a2.774,2.774,0,0,1-.824,1.972A2.805,2.805,0,0,1,107.2,111.332Z" transform="translate(-9.667 -16.332)"></path>
  </g>
</svg>
