<svg fill="none" xmlns="http://www.w3.org/2000/svg" viewBox="0 0 18 18" class="design-iconfont">
  <g clip-path="url(#cp5v4zvk0__clip0_1617_57563)">
    <path d="M9 0.599609C8.7 0.599609 8.4 0.824609 8.4 1.19961V4.04961C8.4 4.34961 8.625 4.64961 9 4.64961C9.375 4.64961 9.6 4.42461 9.6 4.04961V1.19961C9.6 0.899609 9.3 0.599609 9 0.599609ZM9 9.44961C8.7 9.44961 8.4 9.67461 8.4 10.0496V12.1496C8.4 12.4496 8.625 12.7496 9 12.7496C9.375 12.7496 9.6 12.5246 9.6 12.1496V10.0496C9.6 9.67461 9.3 9.44961 9 9.44961ZM9 5.39961C8.7 5.39961 8.4 5.62461 8.4 5.99961V8.09961C8.4 8.39961 8.625 8.69961 9 8.69961C9.375 8.69961 9.6 8.47461 9.6 8.09961V5.92461C9.6 5.62461 9.3 5.39961 9 5.39961ZM9 13.4246C8.7 13.4246 8.4 13.6496 8.4 14.0246V16.8746C8.4 17.1746 8.625 17.4746 9 17.4746C9.375 17.4746 9.6 17.2496 9.6 16.8746V14.0246C9.6 13.6496 9.3 13.4246 9 13.4246ZM2.625 2.24961H6.75C7.2 2.24961 7.5 1.94961 7.5 1.49961C7.5 1.04961 7.2 0.749609 6.75 0.749609H2.625C1.575 0.749609 0.75 1.57461 0.75 2.62461V15.3746C0.75 16.4246 1.575 17.2496 2.625 17.2496H6.75C7.2 17.2496 7.5 16.9496 7.5 16.4996C7.5 16.0496 7.2 15.7496 6.75 15.7496H2.625C2.4 15.7496 2.25 15.5996 2.25 15.3746V2.62461C2.25 2.39961 2.4 2.24961 2.625 2.24961ZM15.375 0.749609H11.25C10.8 0.749609 10.5 1.04961 10.5 1.49961C10.5 1.94961 10.8 2.24961 11.25 2.24961H15.375C15.6 2.24961 15.75 2.39961 15.75 2.62461V15.3746C15.75 15.5996 15.6 15.7496 15.375 15.7496H11.25C10.8 15.7496 10.5 16.0496 10.5 16.4996C10.5 16.9496 10.8 17.2496 11.25 17.2496H15.375C16.425 17.2496 17.25 16.4246 17.25 15.3746V2.62461C17.25 1.57461 16.425 0.749609 15.375 0.749609Z" fill="#3473D1"/>
    <path d="M9 0.599609C8.7 0.599609 8.4 0.824609 8.4 1.19961V4.04961C8.4 4.34961 8.625 4.64961 9 4.64961C9.375 4.64961 9.6 4.42461 9.6 4.04961V1.19961C9.6 0.899609 9.3 0.599609 9 0.599609ZM9 9.44961C8.7 9.44961 8.4 9.67461 8.4 10.0496V12.1496C8.4 12.4496 8.625 12.7496 9 12.7496C9.375 12.7496 9.6 12.5246 9.6 12.1496V10.0496C9.6 9.67461 9.3 9.44961 9 9.44961ZM9 5.39961C8.7 5.39961 8.4 5.62461 8.4 5.99961V8.09961C8.4 8.39961 8.625 8.69961 9 8.69961C9.375 8.69961 9.6 8.47461 9.6 8.09961V5.92461C9.6 5.62461 9.3 5.39961 9 5.39961ZM9 13.4246C8.7 13.4246 8.4 13.6496 8.4 14.0246V16.8746C8.4 17.1746 8.625 17.4746 9 17.4746C9.375 17.4746 9.6 17.2496 9.6 16.8746V14.0246C9.6 13.6496 9.3 13.4246 9 13.4246ZM2.625 2.24961H6.75C7.2 2.24961 7.5 1.94961 7.5 1.49961C7.5 1.04961 7.2 0.749609 6.75 0.749609H2.625C1.575 0.749609 0.75 1.57461 0.75 2.62461V15.3746C0.75 16.4246 1.575 17.2496 2.625 17.2496H6.75C7.2 17.2496 7.5 16.9496 7.5 16.4996C7.5 16.0496 7.2 15.7496 6.75 15.7496H2.625C2.4 15.7496 2.25 15.5996 2.25 15.3746V2.62461C2.25 2.39961 2.4 2.24961 2.625 2.24961Z" fill="#FF813B"/>
  </g>
  <defs>
    <clipPath id="cp5v4zvk0__clip0_1617_57563">
      <path fill="#fff" d="M0 0H18V18H0z"/>
    </clipPath>
  </defs>
</svg>
