<svg fill="none" xmlns="http://www.w3.org/2000/svg" viewBox="0 0 16 16" class="design-iconfont">
  <g clip-path="url(#n2jy4nkku__clip0_1615_56707)">
    <path d="M6.44537 13.2908C5.82683 12.9877 5.16141 12.7916 4.47737 12.7108L4.54403 12.2108C4.61265 12.1707 4.67192 12.1164 4.7179 12.0516C4.76388 11.9867 4.79552 11.9128 4.8107 11.8348C4.82937 11.6822 4.8487 11.5162 4.8647 11.3682C4.88409 11.3927 4.91232 11.4088 4.94337 11.4128C4.96084 11.4145 4.97846 11.4127 4.99523 11.4075C5.012 11.4023 5.02759 11.3939 5.04109 11.3827C5.05459 11.3715 5.06575 11.3577 5.07392 11.3422C5.08209 11.3266 5.08711 11.3096 5.0887 11.2922L5.16137 10.5788C5.16513 10.5439 5.15499 10.509 5.13315 10.4815C5.11131 10.4541 5.07953 10.4363 5.0447 10.4322C5.0183 10.4291 4.99163 10.4347 4.9687 10.4482C4.9847 10.3115 4.99737 10.1775 5.01603 10.0408C5.05194 9.86611 5.04818 9.68556 5.00503 9.51249C4.96188 9.33941 4.88043 9.17823 4.7667 9.04082C4.47171 8.794 4.09933 8.65875 3.7147 8.65875C3.33007 8.65875 2.95769 8.794 2.6627 9.04082C2.54645 9.17673 2.4636 9.33794 2.42077 9.51157C2.37794 9.68521 2.37632 9.86645 2.41603 10.0408L2.46337 10.4482C2.44037 10.4349 2.41376 10.4293 2.38737 10.4322C2.35254 10.4363 2.32076 10.4541 2.29892 10.4815C2.27708 10.509 2.26694 10.5439 2.2707 10.5788L2.33737 11.2922C2.33896 11.3096 2.34398 11.3266 2.35215 11.3422C2.36032 11.3577 2.37148 11.3715 2.38498 11.3827C2.39848 11.3939 2.41406 11.4023 2.43083 11.4075C2.4476 11.4127 2.46523 11.4145 2.4827 11.4128C2.51167 11.4093 2.53853 11.3959 2.5587 11.3748C2.5747 11.5315 2.59337 11.6935 2.60937 11.8415C2.62565 11.9182 2.65778 11.9907 2.7037 12.0543C2.74962 12.1179 2.80832 12.1712 2.87603 12.2108L2.9427 12.7108C2.26094 12.793 1.59776 12.9888 0.9807 13.2902C0.88026 13.3549 0.79858 13.4449 0.743828 13.5511C0.689076 13.6574 0.66317 13.7761 0.6687 13.8955C0.6907 14.1468 0.716033 14.3982 0.741367 14.6468C0.753749 14.7572 0.798916 14.8614 0.871042 14.9459C0.943169 15.0303 1.03895 15.0913 1.14603 15.1208C2.84879 15.404 4.58661 15.404 6.28937 15.1208C6.39552 15.0892 6.49011 15.0272 6.56152 14.9425C6.63294 14.8578 6.67807 14.7541 6.69137 14.6442C6.71337 14.3962 6.7387 14.1442 6.75803 13.8928C6.76337 13.7731 6.73694 13.6541 6.68145 13.5479C6.62595 13.4418 6.54335 13.3521 6.44203 13.2882L6.44537 13.2908ZM15.0034 13.2908C14.3859 12.987 13.7214 12.7902 13.038 12.7088C13.06 12.5402 13.0827 12.3902 13.1047 12.2088C13.1724 12.1676 13.231 12.113 13.2768 12.0484C13.3227 11.9837 13.3549 11.9104 13.3714 11.8328L13.422 11.3662C13.432 11.3787 13.4444 11.3891 13.4585 11.3968C13.4726 11.4045 13.4881 11.4092 13.504 11.4108C13.5213 11.4126 13.5388 11.4109 13.5554 11.4057C13.5721 11.4006 13.5875 11.3921 13.6007 11.3808C13.6274 11.3579 13.6439 11.3253 13.6467 11.2902L13.7194 10.5768C13.7231 10.5419 13.713 10.507 13.6911 10.4795C13.6693 10.4521 13.6375 10.4343 13.6027 10.4302C13.5763 10.4273 13.5497 10.4329 13.5267 10.4462L13.574 10.0388C13.6108 9.86572 13.6085 9.68659 13.5672 9.51451C13.5259 9.34242 13.4467 9.18173 13.3354 9.04416C13.0399 8.79708 12.6669 8.66171 12.2817 8.66171C11.8965 8.66171 11.5236 8.79708 11.228 9.04416C11.1118 9.18006 11.0289 9.34127 10.9861 9.5149C10.9433 9.68854 10.9417 9.86978 10.9814 10.0442C10.9878 10.1809 11.0036 10.317 11.0287 10.4515C11.0047 10.4382 10.9773 10.4326 10.95 10.4355C10.9329 10.4375 10.9164 10.4429 10.9014 10.4513C10.8864 10.4598 10.8732 10.4712 10.8627 10.4848C10.8414 10.5125 10.8318 10.5475 10.836 10.5822L10.9087 11.2955C10.9119 11.3302 10.9286 11.3622 10.9551 11.3847C10.9817 11.4073 11.016 11.4186 11.0507 11.4162C11.0662 11.4147 11.0812 11.4099 11.0948 11.4022C11.1084 11.3945 11.1201 11.3841 11.1294 11.3715C11.148 11.5282 11.164 11.6902 11.1834 11.8382C11.2005 11.9146 11.233 11.9867 11.2788 12.0502C11.3247 12.1137 11.3829 12.1672 11.45 12.2075C11.472 12.3728 11.4947 12.5262 11.5167 12.7075C10.8329 12.789 10.1676 12.9849 9.5487 13.2868C9.44824 13.3525 9.36639 13.4429 9.31105 13.5494C9.2557 13.6559 9.22872 13.7749 9.2327 13.8948L9.3087 14.6462C9.32075 14.756 9.36522 14.8597 9.43647 14.9441C9.50771 15.0285 9.60248 15.0898 9.7087 15.1202C11.4115 15.4033 13.1493 15.4033 14.852 15.1202C14.9589 15.0903 15.0545 15.0293 15.1266 14.9448C15.1987 14.8604 15.244 14.7564 15.2567 14.6462C15.282 14.3982 15.304 14.1462 15.3294 13.8948C15.3329 13.7746 15.3043 13.6556 15.2465 13.5502C15.1888 13.4447 15.1039 13.3566 15.0007 13.2948L15.0034 13.2908ZM10.7227 5.33349C10.1047 5.03111 9.44038 4.83439 8.75737 4.75149L8.82403 4.25149C8.89287 4.21164 8.95232 4.15742 8.99833 4.09254C9.04434 4.02766 9.07585 3.95363 9.0907 3.87549C9.10937 3.71882 9.1287 3.55682 9.1447 3.41416C9.16628 3.43721 9.19533 3.45186 9.2267 3.45549C9.26144 3.4579 9.29574 3.44663 9.32228 3.42408C9.34881 3.40153 9.36548 3.3695 9.3687 3.33482L9.44137 2.60149C9.44513 2.56661 9.43499 2.53166 9.41315 2.5042C9.39131 2.47675 9.35953 2.45901 9.3247 2.45482C9.29998 2.44696 9.27342 2.44696 9.2487 2.45482C9.2487 2.31816 9.28003 2.18416 9.29337 2.04749C9.33063 1.87324 9.3281 1.69283 9.28596 1.51969C9.24383 1.34655 9.16319 1.18514 9.05003 1.04749C8.75452 0.80041 8.38157 0.665039 7.99637 0.665039C7.61117 0.665039 7.23822 0.80041 6.9427 1.04749C6.82749 1.184 6.7453 1.34524 6.70252 1.51867C6.65974 1.6921 6.65752 1.87306 6.69603 2.04749C6.71203 2.18416 6.7307 2.31816 6.74337 2.45482C6.71868 2.44673 6.69205 2.44673 6.66737 2.45482C6.63254 2.45901 6.60076 2.47675 6.57892 2.5042C6.55708 2.53166 6.54694 2.56661 6.5507 2.60149L6.61737 3.31482C6.61958 3.34026 6.62905 3.36452 6.64465 3.38473C6.66025 3.40494 6.68132 3.42024 6.70537 3.42882C6.72948 3.43694 6.75541 3.43799 6.7801 3.43185C6.80479 3.42571 6.8272 3.41263 6.8447 3.39416C6.8607 3.54682 6.87603 3.71282 6.89537 3.85549C6.91157 3.93235 6.94366 4.00497 6.98958 4.06869C7.0355 4.1324 7.09425 4.18582 7.16203 4.22549L7.2287 4.72549C6.54731 4.81002 5.88485 5.00785 5.2687 5.31082C5.1671 5.3751 5.08438 5.46519 5.02898 5.57189C4.97358 5.67859 4.94748 5.79808 4.95337 5.91816C4.97537 6.16949 5.0007 6.42082 5.02603 6.66949C5.03808 6.7793 5.08256 6.88303 5.1538 6.96745C5.22504 7.05187 5.31982 7.11316 5.42603 7.14349C7.12879 7.42661 8.86661 7.42661 10.5694 7.14349C10.6763 7.11362 10.7719 7.05259 10.8439 6.96816C10.916 6.88374 10.9613 6.77976 10.974 6.66949C10.9994 6.42149 11.0247 6.16949 11.0467 5.91816C11.0493 5.7985 11.0206 5.68023 10.9636 5.57502C10.9065 5.4698 10.8231 5.38127 10.7214 5.31816L10.7227 5.33349ZM10.0374 11.4135L8.3707 10.4202V8.43016C8.37068 8.33133 8.33141 8.23656 8.26152 8.16669C8.19164 8.09682 8.09686 8.05757 7.99803 8.05757C7.89921 8.05757 7.80443 8.09682 7.73455 8.16669C7.66466 8.23656 7.62539 8.33133 7.62537 8.43016V10.4162L5.9587 11.4162C5.87205 11.4688 5.80952 11.5533 5.78459 11.6516C5.75965 11.7498 5.77429 11.8539 5.82537 11.9415C5.85626 11.9988 5.90176 12.047 5.95726 12.081C6.01275 12.1151 6.07627 12.1339 6.14137 12.1355C6.20629 12.1347 6.26974 12.1161 6.3247 12.0815L7.99137 11.0882L9.65803 12.0815C9.71435 12.1158 9.77878 12.1344 9.8447 12.1355C9.90988 12.1342 9.97353 12.1156 10.0291 12.0815C10.0846 12.0474 10.1301 11.999 10.1607 11.9415C10.2109 11.8546 10.2261 11.7519 10.203 11.6542C10.18 11.5565 10.1205 11.4714 10.0367 11.4162L10.0374 11.4135Z" fill="#fff"/>
  </g>
  <defs>
    <clipPath id="n2jy4nkku__clip0_1615_56707">
      <path fill="#fff" d="M0 0H16V16H0z"/>
    </clipPath>
  </defs>
</svg>
