<svg fill="none" xmlns="http://www.w3.org/2000/svg" viewBox="0 0 16 16" class="design-iconfont">
  <path d="M11 3H5V1H11V3Z" fill="#fff"/>
  <path d="M2.66667 2H4.66667V3.40541C4.66667 3.49859 4.70179 3.58796 4.7643 3.65385C4.82681 3.71974 4.91159 3.75676 5 3.75676H11C11.0884 3.75676 11.1732 3.71974 11.2357 3.65385C11.2982 3.58796 11.3333 3.49859 11.3333 3.40541V2H13.3333C13.5101 2 13.6797 2.07403 13.8047 2.20582C13.9298 2.3376 14 2.51633 14 2.7027V14.2973C14 14.4837 13.9298 14.6624 13.8047 14.7942C13.6797 14.926 13.5101 15 13.3333 15H2.66667C2.48986 15 2.32029 14.926 2.19526 14.7942C2.07024 14.6624 2 14.4837 2 14.2973V2.7027C2 2.51633 2.07024 2.3376 2.19526 2.20582C2.32029 2.07403 2.48986 2 2.66667 2ZM7.47133 11.6319L11.6093 7.27027L10.6667 6.27665L7 10.1415L5.33333 8.38476L4.39067 9.37838L6.52867 11.6319C6.65369 11.7637 6.82322 11.8377 7 11.8377C7.17678 11.8377 7.34631 11.7637 7.47133 11.6319Z" fill="#fff"/>
</svg>
