<svg fill="none" xmlns="http://www.w3.org/2000/svg" viewBox="0 0 18 18" class="design-iconfont">
  <path d="M11.4 4C12.0896 4 12.7509 4.27393 13.2385 4.76152C13.7261 5.24912 14 5.91044 14 6.6V14.4C14 15.0896 13.7261 15.7509 13.2385 16.2385C12.7509 16.7261 12.0896 17 11.4 17H3.6C2.91044 17 2.24912 16.7261 1.76152 16.2385C1.27393 15.7509 1 15.0896 1 14.4V6.6C1 5.91044 1.27393 5.24912 1.76152 4.76152C2.24912 4.27393 2.91044 4 3.6 4H11.4ZM11.4 5.3H3.6C3.28159 5.30004 2.97426 5.41694 2.73632 5.62853C2.49837 5.84012 2.34635 6.13167 2.3091 6.4479L2.3 6.6V14.4C2.30004 14.7184 2.41694 15.0257 2.62853 15.2637C2.84012 15.5016 3.13167 15.6536 3.4479 15.6909L3.6 15.7H11.4C11.7184 15.7 12.0257 15.5831 12.2637 15.3715C12.5016 15.1599 12.6536 14.8683 12.6909 14.5521L12.7 14.4V6.6C12.7 6.28159 12.5831 5.97426 12.3715 5.73632C12.1599 5.49837 11.8683 5.34635 11.5521 5.3091L11.4 5.3Z" fill="#3473D1"/>
  <path d="M14.4 1C15.0896 1 15.7509 1.28095 16.2385 1.78105C16.7261 2.28115 17 2.95942 17 3.66667V10.3333C17 11.0406 16.7261 11.7189 16.2385 12.219C15.7509 12.719 15.0896 13 14.4 13V11.6667C14.7184 11.6666 15.0257 11.5467 15.2637 11.3297C15.5016 11.1127 15.6536 10.8137 15.6909 10.4893L15.7 10.3333V3.66667C15.7 3.34009 15.5831 3.02488 15.3715 2.78084C15.1599 2.53679 14.8683 2.38088 14.5521 2.34267L14.4 2.33333H6.6C6.28159 2.33338 5.97426 2.45327 5.73632 2.67029C5.49837 2.8873 5.34635 3.18633 5.3091 3.51067L5.3 3.66667H4C4 2.95942 4.27393 2.28115 4.76152 1.78105C5.24912 1.28095 5.91044 1 6.6 1H14.4Z" fill="#FF813B"/>
  <path d="M9.8021 7.27734C9.90225 7.1385 10.0481 7.04386 10.2111 7.0119C10.374 6.97993 10.5425 7.01293 10.6836 7.10445C10.8247 7.19597 10.9283 7.33944 10.9741 7.50686C11.0199 7.67428 11.0046 7.85362 10.9313 8.00988L10.8687 8.11773L6.869 13.7204C6.77533 13.8513 6.64092 13.9437 6.48917 13.9813C6.33741 14.0189 6.17791 13.9994 6.0384 13.9263L5.93574 13.8605L3.26928 11.7595C3.13527 11.655 3.04346 11.5014 3.01197 11.3293C2.98049 11.1571 3.01163 10.9787 3.09923 10.8295C3.18684 10.6803 3.32455 10.571 3.48513 10.5233C3.64572 10.4755 3.81751 10.4928 3.96656 10.5717L4.06922 10.6389L6.20105 12.3183L9.80077 7.27593L9.8021 7.27734Z" fill="#3473D1"/>
</svg>
