<svg fill="none" xmlns="http://www.w3.org/2000/svg" viewBox="0 0 16 16" class="design-iconfont">
  <g clip-path="url(#ev6os7n3v__clip0_1617_57731)" fill="#3473D1">
    <path d="M1.60078 8.72402H14.4008C14.613 8.72402 14.8164 8.63974 14.9665 8.48971C15.1165 8.33968 15.2008 8.1362 15.2008 7.92402C15.2008 7.71185 15.1165 7.50837 14.9665 7.35834C14.8164 7.20831 14.613 7.12402 14.4008 7.12402H1.60078C1.38861 7.12402 1.18512 7.20831 1.0351 7.35834C0.885067 7.50837 0.800781 7.71185 0.800781 7.92402C0.800781 8.1362 0.885067 8.33968 1.0351 8.48971C1.18512 8.63974 1.38861 8.72402 1.60078 8.72402Z"/>
    <path d="M7.19922 14.3246V1.52461C7.19922 1.31244 7.2835 1.10895 7.43353 0.958924C7.58356 0.808895 7.78705 0.724609 7.99922 0.724609C8.21139 0.724609 8.41488 0.808895 8.5649 0.958924C8.71493 1.10895 8.79922 1.31244 8.79922 1.52461V14.3246C8.79922 14.5368 8.71493 14.7403 8.5649 14.8903C8.41488 15.0403 8.21139 15.1246 7.99922 15.1246C7.78705 15.1246 7.58356 15.0403 7.43353 14.8903C7.2835 14.7403 7.19922 14.5368 7.19922 14.3246Z"/>
  </g>
  <defs>
    <clipPath id="ev6os7n3v__clip0_1617_57731">
      <path fill="#fff" d="M0 0H16V16H0z"/>
    </clipPath>
  </defs>
</svg>
