<?xml version="1.0" standalone="no"?><!DOCTYPE svg PUBLIC "-//W3C//DTD SVG 1.1//EN" "http://www.w3.org/Graphics/SVG/1.1/DTD/svg11.dtd"><svg t="1700187763834" class="icon" viewBox="0 0 1024 1024" version="1.1" xmlns="http://www.w3.org/2000/svg" p-id="5126" xmlns:xlink="http://www.w3.org/1999/xlink" width="200" height="200"><path d="M0 0h1024v1024H0z" fill="#FFFFFF" fill-opacity=".01" p-id="5127"></path><path d="M142.933333 309.333333h-2.133333c-2.133333 0-2.133333 0-4.266667-2.133333-2.133333 0-2.133333-2.133333-2.133333-4.266667s-2.133333-2.133333-2.133333-4.266666V142.933333c0-6.4 4.266667-10.666667 10.666666-10.666666s10.666667 4.266667 10.666667 10.666666v119.466667C234.666667 145.066667 369.066667 74.666667 512 74.666667c6.4 0 10.666667 4.266667 10.666667 10.666666s-4.266667 10.666667-10.666667 10.666667c-140.8 0-275.2 72.533333-349.866667 192H298.666667c6.4 0 10.666667 4.266667 10.666666 10.666667s-4.266667 10.666667-10.666666 10.666666H142.933333zM298.666667 891.733333H142.933333c-6.4 0-10.666667-4.266667-10.666666-10.666666s4.266667-10.666667 10.666666-10.666667h119.466667C145.066667 789.333333 74.666667 654.933333 74.666667 512c0-6.4 4.266667-10.666667 10.666666-10.666667s10.666667 4.266667 10.666667 10.666667c0 140.8 72.533333 275.2 192 349.866667V725.333333c0-6.4 4.266667-10.666667 10.666667-10.666666s10.666667 4.266667 10.666666 10.666666V883.2c0 2.133333 0 2.133333-2.133333 4.266667 0 2.133333-2.133333 2.133333-4.266667 2.133333 0 2.133333-2.133333 2.133333-4.266666 2.133333zM512 949.333333c-6.4 0-10.666667-4.266667-10.666667-10.666666s4.266667-10.666667 10.666667-10.666667c140.8 0 275.2-72.533333 349.866667-192H725.333333c-6.4 0-10.666667-4.266667-10.666666-10.666667s4.266667-10.666667 10.666666-10.666666H883.2c2.133333 0 2.133333 0 4.266667 2.133333 2.133333 0 2.133333 2.133333 2.133333 4.266667s2.133333 2.133333 2.133333 4.266666V883.2c0 6.4-4.266667 10.666667-10.666666 10.666667s-10.666667-4.266667-10.666667-10.666667v-119.466667C789.333333 878.933333 654.933333 949.333333 512 949.333333zM938.666667 522.666667c-6.4 0-10.666667-4.266667-10.666667-10.666667 0-140.8-72.533333-275.2-192-349.866667V298.666667c0 6.4-4.266667 10.666667-10.666667 10.666666s-10.666667-4.266667-10.666666-10.666666V142.933333v-2.133333c0-2.133333 0-2.133333 2.133333-4.266667 0-2.133333 2.133333-2.133333 4.266667-2.133333s2.133333-2.133333 4.266666-2.133333H883.2c6.4 0 10.666667 4.266667 10.666667 10.666666s-4.266667 10.666667-10.666667 10.666667h-119.466667c117.333333 81.066667 187.733333 215.466667 187.733334 358.4-2.133333 6.4-6.4 10.666667-12.8 10.666667zM640 522.666667H384c-6.4 0-10.666667-4.266667-10.666667-10.666667s4.266667-10.666667 10.666667-10.666667h256c6.4 0 10.666667 4.266667 10.666667 10.666667s-4.266667 10.666667-10.666667 10.666667z" fill="#333333" p-id="5128"></path><path d="M512 650.666667c-6.4 0-10.666667-4.266667-10.666667-10.666667V384c0-6.4 4.266667-10.666667 10.666667-10.666667s10.666667 4.266667 10.666667 10.666667v256c0 6.4-4.266667 10.666667-10.666667 10.666667z" fill="#333333" p-id="5129"></path></svg>