<svg fill="none" xmlns="http://www.w3.org/2000/svg" viewBox="0 0 16 16" class="design-iconfont">
  <path d="M10.975 10.5696C11.15 10.5696 11.325 10.481 11.5 10.3038C11.7625 10.038 11.675 9.59494 11.4125 9.41772C10.975 9.06329 10.45 8.70886 9.925 8.62025C9.8375 8.62025 9.8375 8.53165 9.75 8.53165C10.8 7.73418 11.5 6.49367 11.5 5.16456C11.5 2.86076 9.6625 1 7.3875 1C5.1125 1 3.275 2.86076 3.275 5.16456C3.275 6.31646 3.8 7.37975 4.5875 8.08861C4.7625 8.17722 4.85 8.35443 5.025 8.44304C2.575 9.41772 1 11.7215 1 14.3797C1 14.7342 1.2625 15 1.6125 15C1.9625 15 2.225 14.7342 2.225 14.3797C2.3125 11.5443 4.5 9.24051 7.3875 9.24051C8.525 9.24051 9.6625 9.68355 10.5375 10.3924C10.7125 10.481 10.8 10.5696 10.975 10.5696ZM7.3 2.24051C8.875 2.24051 10.1 3.48101 10.1 5.07595C10.1875 6.67089 8.875 7.91139 7.3875 8H7.3C5.8125 7.91139 4.5 6.67089 4.5 5.07595C4.5 3.56962 5.8125 2.24051 7.3 2.24051Z" fill="#3473D1"/>
  <path d="M14.1963 14.3742C14.3123 14.4942 14.3973 14.6042 14.4513 14.7042C14.5053 14.8042 14.4963 14.9182 14.4243 15.0462C14.4083 15.0702 14.3863 15.0992 14.3583 15.1332C14.3303 15.1672 14.3013 15.2002 14.2713 15.2322C14.2413 15.2642 14.2113 15.2932 14.1813 15.3192C14.1513 15.3452 14.1263 15.3642 14.1063 15.3762C14.0063 15.4362 13.8883 15.4522 13.7523 15.4242C13.6163 15.3962 13.4943 15.3282 13.3863 15.2202L13.1343 14.9682L12.7983 14.6322L12.4023 14.2362L11.9703 13.8042L11.2023 14.5722C10.9663 14.8082 10.7743 15.0022 10.6263 15.1542C10.4743 15.3062 10.3233 15.4002 10.1733 15.4362C10.0233 15.4722 9.89025 15.4382 9.77425 15.3342L9.73225 15.2922L9.66625 15.2262L9.60025 15.1602C9.57625 15.1362 9.56225 15.1202 9.55825 15.1122C9.51425 15.0562 9.48825 14.9992 9.48025 14.9412C9.47225 14.8832 9.47725 14.8262 9.49525 14.7702C9.51325 14.7142 9.54025 14.6602 9.57625 14.6082C9.61225 14.5562 9.65225 14.5082 9.69625 14.4642C9.73225 14.4322 9.79625 14.3722 9.88825 14.2842L10.2123 13.9482C10.3443 13.8202 10.4913 13.6762 10.6533 13.5162C10.8153 13.3562 10.9843 13.1882 11.1603 13.0122C10.9683 12.8202 10.7853 12.6382 10.6113 12.4662C10.4373 12.2942 10.2813 12.1402 10.1433 12.0042C10.0053 11.8682 9.89225 11.7572 9.80425 11.6712C9.71625 11.5852 9.66225 11.5322 9.64225 11.5122C9.53825 11.4082 9.48525 11.3052 9.48325 11.2032C9.48125 11.1012 9.51625 10.9982 9.58825 10.8942C9.62025 10.8542 9.66625 10.8072 9.72625 10.7532C9.78625 10.6992 9.82825 10.6642 9.85225 10.6482C9.97225 10.5682 10.0803 10.5332 10.1763 10.5432C10.2723 10.5532 10.3683 10.6082 10.4643 10.7082L10.6503 10.8942C10.7423 10.9862 10.8563 11.0982 10.9923 11.2302C11.1283 11.3622 11.2813 11.5112 11.4513 11.6772C11.6213 11.8432 11.7983 12.0162 11.9823 12.1962C12.1343 12.0442 12.2833 11.8962 12.4293 11.7522C12.5753 11.6082 12.7113 11.4732 12.8373 11.3472C12.9633 11.2212 13.0773 11.1082 13.1793 11.0082C13.2813 10.9082 13.3663 10.8242 13.4343 10.7562C13.5303 10.6642 13.6343 10.6032 13.7463 10.5732C13.8583 10.5432 13.9663 10.5682 14.0703 10.6482C14.0743 10.6522 14.0873 10.6622 14.1093 10.6782C14.1313 10.6942 14.1533 10.7122 14.1753 10.7322C14.1973 10.7522 14.2183 10.7712 14.2383 10.7892C14.2583 10.8072 14.2723 10.8182 14.2803 10.8222C14.3883 10.9262 14.4413 11.0392 14.4393 11.1612C14.4373 11.2832 14.3843 11.3962 14.2803 11.5002C14.2083 11.5722 14.1193 11.6622 14.0133 11.7702C13.9073 11.8782 13.7893 11.9962 13.6593 12.1242C13.5293 12.2522 13.3923 12.3882 13.2483 12.5322L12.7923 12.9882C12.9403 13.1322 13.0853 13.2732 13.2273 13.4112C13.3693 13.5492 13.5013 13.6782 13.6233 13.7982C13.7453 13.9182 13.8553 14.0282 13.9533 14.1282C14.0513 14.2282 14.1323 14.3102 14.1963 14.3742Z" fill="#FF813B"/>
</svg>
