<?xml version="1.0" standalone="no"?><!DOCTYPE svg PUBLIC "-//W3C//DTD SVG 1.1//EN" "http://www.w3.org/Graphics/SVG/1.1/DTD/svg11.dtd"><svg t="1640572796216" class="icon" viewBox="0 0 1024 1024" version="1.1" xmlns="http://www.w3.org/2000/svg" p-id="1915" width="32" height="32" xmlns:xlink="http://www.w3.org/1999/xlink"><defs><style type="text/css"></style></defs><path d="M128 373.333333V64a21.333333 21.333333 0 0 1 42.666667 0v309.333333a10.666667 10.666667 0 0 0 10.666666 10.666667h661.333334a10.666667 10.666667 0 0 0 10.666666-10.666667V64a21.333333 21.333333 0 0 1 42.666667 0v309.333333a53.393333 53.393333 0 0 1-53.333333 53.333334H181.333333a53.393333 53.393333 0 0 1-53.333333-53.333334z m714.666667 266.666667H181.333333a53.393333 53.393333 0 0 0-53.333333 53.333333v266.666667a21.333333 21.333333 0 0 0 42.666667 0v-266.666667a10.666667 10.666667 0 0 1 10.666666-10.666666h661.333334a10.666667 10.666667 0 0 1 10.666666 10.666666v266.666667a21.333333 21.333333 0 0 0 42.666667 0v-266.666667a53.393333 53.393333 0 0 0-53.333333-53.333333zM490.666667 512a21.333333 21.333333 0 0 0 0 42.666667h42.666666a21.333333 21.333333 0 0 0 0-42.666667z m128 0a21.333333 21.333333 0 0 0 0 42.666667h42.666666a21.333333 21.333333 0 0 0 0-42.666667z m128 0a21.333333 21.333333 0 0 0 0 42.666667h42.666666a21.333333 21.333333 0 0 0 0-42.666667z m-576 21.333333a21.333333 21.333333 0 0 0-21.333334-21.333333h-42.666666a21.333333 21.333333 0 0 0 0 42.666667h42.666666a21.333333 21.333333 0 0 0 21.333334-21.333334z m746.666666-21.333333h-42.666666a21.333333 21.333333 0 0 0 0 42.666667h42.666666a21.333333 21.333333 0 0 0 0-42.666667z m-554.666666 0a21.333333 21.333333 0 0 0 0 42.666667h42.666666a21.333333 21.333333 0 0 0 0-42.666667z m-128 0a21.333333 21.333333 0 0 0 0 42.666667h42.666666a21.333333 21.333333 0 0 0 0-42.666667z" fill="#5C5C66" p-id="1916"></path></svg>