<svg fill="none" xmlns="http://www.w3.org/2000/svg" viewBox="0 0 16 16" class="design-iconfont">
  <path d="M14.0832 14H1.91385C0.85783 14 0 13.1445 0 12.0914V5.12684C0 4.07375 0.85783 3.21829 1.91385 3.21829H4.60566L4.93104 2C5.00785 1.71341 5.17731 1.46008 5.41316 1.27929C5.649 1.09849 5.93806 1.00033 6.23553 1H9.90054C10.1976 1.00015 10.4864 1.0979 10.7222 1.27812C10.958 1.45834 11.1277 1.71101 11.205 1.99705L11.5304 3.21534H14.0862C15.1422 3.21534 16 4.0708 16 5.12389V12.0914C15.997 13.1445 15.1392 14 14.0832 14ZM1.91385 4.39823C1.51155 4.39823 1.18321 4.72566 1.18321 5.12684V12.0944C1.18321 12.4956 1.51155 12.823 1.91385 12.823H14.0862C14.4884 12.823 14.8168 12.4956 14.8168 12.0944V5.12684C14.8168 4.72566 14.4884 4.39823 14.0862 4.39823H10.6193L10.0603 2.30678C10.0509 2.27153 10.0303 2.24031 10.0014 2.21793C9.97253 2.19555 9.9371 2.18323 9.90054 2.18289H6.23553C6.16158 2.18289 6.09355 2.23304 6.0758 2.30678L5.51673 4.40118H1.91385V4.39823Z" fill="#3473D1"/>
  <path d="M8.26719 10.4001C6.94452 10.4001 5.86719 9.32276 5.86719 8.0001C5.86719 6.67743 6.94452 5.6001 8.26719 5.6001C9.58985 5.6001 10.6672 6.67743 10.6672 8.0001C10.6672 9.32276 9.58985 10.4001 8.26719 10.4001ZM8.26719 6.66676C7.53119 6.66676 6.93385 7.2641 6.93385 8.0001C6.93385 8.7361 7.53119 9.33343 8.26719 9.33343C9.00319 9.33343 9.60052 8.7361 9.60052 8.0001C9.60052 7.2641 9.00319 6.66676 8.26719 6.66676Z" fill="#FF813B"/>
</svg>
