<svg fill="none" xmlns="http://www.w3.org/2000/svg" viewBox="0 0 160 204" class="design-iconfont">
  <path fill="#EAF4FE" d="M0 0H160V203.75H0z"/>
  <mask id="mmffmnrdl__pfq95xmqva" style="mask-type:alpha" maskUnits="userSpaceOnUse" x="0" y="0" width="160" height="203">
    <path fill="#EAF4FE" d="M0 0H160V202.143H0z"/>
  </mask>
  <g mask="url(#mmffmnrdl__pfq95xmqva)">
    <path d="M101.648 125.14C117.655 130.009 131.715 140.144 141.72 154.026C151.725 167.909 157.136 184.791 157.144 202.143H2.85742C2.86084 184.79 8.27182 167.906 18.2773 154.022C28.2829 140.14 42.3446 130.005 58.3535 125.14L80.001 158.924L101.648 125.14ZM80.001 41.6172C90.2307 41.6172 100.041 45.846 107.274 53.3721C114.508 60.8981 118.572 71.1055 118.572 81.749C118.572 92.3924 114.508 102.6 107.274 110.126C100.041 117.652 90.2305 121.88 80.001 121.88C69.7712 121.88 59.9601 117.652 52.7266 110.126C45.4931 102.6 41.4298 92.3924 41.4297 81.749C41.4297 71.1057 45.4932 60.8981 52.7266 53.3721C59.9601 45.846 69.7712 41.6172 80.001 41.6172Z" fill="#85AEF5"/>
  </g>
</svg>
