<svg fill="none" xmlns="http://www.w3.org/2000/svg" viewBox="0 0 16 16" class="design-iconfont">
  <g clip-path="url(#zrh1fnr8u__clip0_1602_32029)">
    <path d="M14.8032 0.763184H1.20025C0.538516 0.763184 0 1.34731 0 2.06587V5.22174C0 5.94029 0.538516 6.52441 1.20025 6.52441H2.56054V5.40417H1.20025C1.17232 5.38324 1.15028 5.35544 1.13626 5.32348C1.12224 5.29151 1.11672 5.25647 1.12024 5.22174V2.06587C1.1168 2.03115 1.12235 1.99612 1.13636 1.96417C1.15038 1.93222 1.17238 1.90441 1.20025 1.88342H14.8032C14.8311 1.90436 14.8531 1.93216 14.8672 1.96412C14.8812 1.99609 14.8867 2.03114 14.8832 2.06587V5.22174C14.8866 5.25646 14.8811 5.29148 14.8671 5.32343C14.8531 5.35538 14.831 5.38319 14.8032 5.40417H13.4429V6.52441H14.8032C15.4649 6.52441 16.0034 5.94029 16.0034 5.22174V2.06587C16.0034 1.34731 15.4649 0.763184 14.8032 0.763184Z" fill="#3473D1"/>
    <path d="M14.0026 3.63433C14.0026 3.56078 13.9881 3.48794 13.9599 3.41999C13.9318 3.35203 13.8905 3.29028 13.8385 3.23827C13.7865 3.18626 13.7248 3.145 13.6568 3.11685C13.5888 3.08871 13.516 3.07422 13.4425 3.07422H2.56012C2.41157 3.07422 2.2691 3.13323 2.16406 3.23827C2.05901 3.34332 2 3.48579 2 3.63434C2 3.78289 2.05901 3.92536 2.16406 4.0304C2.2691 4.13545 2.41157 4.19446 2.56012 4.19446H3.28026V14.4366C3.28026 14.5417 3.30096 14.6458 3.34117 14.7429C3.38139 14.84 3.44033 14.9282 3.51464 15.0025C3.58894 15.0768 3.67715 15.1357 3.77424 15.1759C3.87132 15.2161 3.97538 15.2368 4.08046 15.2368H11.9221C12.1343 15.2368 12.3379 15.1525 12.4879 15.0025C12.638 14.8524 12.7223 14.6489 12.7223 14.4366V4.19446H13.4424C13.516 4.19446 13.5888 4.17998 13.6568 4.15183C13.7247 4.12368 13.7865 4.08242 13.8385 4.03041C13.8905 3.9784 13.9318 3.91665 13.9599 3.84869C13.9881 3.78073 14.0026 3.70789 14.0026 3.63433ZM8.32135 14.1166H4.4005V4.19446H8.32135V14.1166ZM11.6021 14.1166H9.60163V4.19446H11.6021V14.1166Z" fill="#FF813B"/>
    <path d="M5.75977 10.0254H6.88001V12.586H5.75977V10.0254Z" fill="#FF813B"/>
  </g>
  <defs>
    <clipPath id="zrh1fnr8u__clip0_1602_32029">
      <path fill="#fff" d="M0 0H16V16H0z"/>
    </clipPath>
  </defs>
</svg>
