<?xml version="1.0" encoding="UTF-8"?>
<svg xmlns="http://www.w3.org/2000/svg" width="32" height="32" viewBox="0 0 32 32">
  <defs>
    <style>
      .cls-1 {
        fill: #fff;
        opacity: 0;
      }

      .cls-2 {
        fill: #333;
      }
    </style>
  </defs>
  <g id="重做" transform="translate(-75 -66)">
    <rect id="矩形_1" data-name="矩形 1" class="cls-1" width="32" height="32" transform="translate(75 66)"></rect>
    <path id="撤销_1_" data-name="撤销 (1)" class="cls-2" d="M153.382,207.16h12.636l-2.879-1.884a.909.909,0,1,1,.99-1.525l5.4,3.588a.815.815,0,0,1,.36.718,1.106,1.106,0,0,1-.36.718l-5.4,3.588c-.09.179-.27.179-.45.179a1.112,1.112,0,0,1-.72-.359.881.881,0,0,1,.27-1.256l2.969-1.973H153.382a7.176,7.176,0,1,0,0,14.352h12.179a.9.9,0,1,1,0,1.794H153.382a8.97,8.97,0,1,1,0-17.94Z" transform="translate(-66.086 -132.3)"></path>
  </g>
</svg>
