<svg fill="none" xmlns="http://www.w3.org/2000/svg" viewBox="0 0 16 16" class="design-iconfont">
  <path d="M10.975 10.5696C11.15 10.5696 11.325 10.481 11.5 10.3038C11.7625 10.038 11.675 9.59494 11.4125 9.41772C10.975 9.06329 10.45 8.70886 9.925 8.62025C9.8375 8.62025 9.8375 8.53165 9.75 8.53165C10.8 7.73418 11.5 6.49367 11.5 5.16456C11.5 2.86076 9.6625 1 7.3875 1C5.1125 1 3.275 2.86076 3.275 5.16456C3.275 6.31646 3.8 7.37975 4.5875 8.08861C4.7625 8.17722 4.85 8.35443 5.025 8.44304C2.575 9.41772 1 11.7215 1 14.3797C1 14.7342 1.2625 15 1.6125 15C1.9625 15 2.225 14.7342 2.225 14.3797C2.3125 11.5443 4.5 9.24051 7.3875 9.24051C8.525 9.24051 9.6625 9.68355 10.5375 10.3924C10.7125 10.481 10.8 10.5696 10.975 10.5696ZM7.3 2.24051C8.875 2.24051 10.1 3.48101 10.1 5.07595C10.1875 6.67089 8.875 7.91139 7.3875 8H7.3C5.8125 7.91139 4.5 6.67089 4.5 5.07595C4.5 3.56962 5.8125 2.24051 7.3 2.24051ZM14.825 10.6582C14.7375 10.5696 14.5625 10.481 14.3875 10.481C14.2125 10.481 14.0375 10.5696 13.95 10.6582L11.4125 13.3165L10.1 11.9873C10.0125 11.8987 9.8375 11.8101 9.6625 11.8101C9.4875 11.8101 9.3125 11.8987 9.225 11.9873C9.1375 12.076 9.05 12.2532 9.05 12.4304C9.05 12.6076 9.1375 12.7848 9.225 12.8734L10.975 14.6456C11.0625 14.7342 11.2375 14.8228 11.4125 14.8228C11.5875 14.8228 11.7625 14.7342 11.85 14.6456L14.825 11.6329C14.9125 11.5443 15 11.3671 15 11.1899C15 10.9241 14.9125 10.7468 14.825 10.6582Z" fill="#3473D1"/>
  <path d="M14.8258 10.6582C14.7383 10.5696 14.5633 10.481 14.3883 10.481C14.2133 10.481 14.0383 10.5696 13.9508 10.6582L11.4133 13.3164L10.1008 11.9873C10.0133 11.8987 9.83828 11.8101 9.66328 11.8101C9.48828 11.8101 9.31328 11.8987 9.22578 11.9873C9.13828 12.0759 9.05078 12.2531 9.05078 12.4303C9.05078 12.6075 9.13828 12.7848 9.22578 12.8734L10.9758 14.6455C11.0633 14.7341 11.2383 14.8227 11.4133 14.8227C11.5883 14.8227 11.7633 14.7341 11.8508 14.6455L14.8258 11.6329C14.9133 11.5442 15.0008 11.367 15.0008 11.1898C15.0008 10.924 14.9133 10.7468 14.8258 10.6582Z" fill="#FF813B"/>
</svg>
