<svg xmlns="http://www.w3.org/2000/svg" viewBox="0 0 32 32" class="design-iconfont">
  <g fill="#676aff">
    <path d="M105.436,88.333l-7.769-7.769A1.926,1.926,0,0,0,96.3,80H81.926A1.926,1.926,0,0,0,80,81.926v22.148A1.926,1.926,0,0,0,81.926,106h22.148A1.926,1.926,0,0,0,106,104.074V89.7a1.926,1.926,0,0,0-.564-1.361ZM86.259,81.926h5.778V85.3H86.259Zm17.815,22.148H81.926V81.926h2.407v4.333a.963.963,0,0,0,.963.963H93a.963.963,0,0,0,.963-.963V81.926H96.3l7.769,7.769Z" transform="translate(-77 -77)"/>
    <path data-name="联合 73" d="M5251.259,21210.361a.885.885,0,0,1,.271-1.258l2.677-1.75h-12.434a.988.988,0,0,1,0-1.928h12.434l-2.677-1.752a.908.908,0,1,1,.99-1.521l2.827,1.879a25.688,25.688,0,0,1,2.571,1.576,1.088,1.088,0,0,1,.356.719c0,.021,0,.043,0,.064s0,.045,0,.068a1.115,1.115,0,0,1-.356.719,25.857,25.857,0,0,1-2.576,1.576l-2.822,1.879a1.048,1.048,0,0,1-.527.15A.841.841,0,0,1,5251.259,21210.361Z" transform="translate(-5233.639 -21185.998)"/>
  </g>
</svg>
