<svg fill="none" xmlns="http://www.w3.org/2000/svg" viewBox="0 0 16 16" class="design-iconfont">
  <g clip-path="url(#9rx96ynkr__clip0_1602_33593)">
    <path d="M15.8251 6.43883C15.7316 5.94501 15.43 5.62594 15.0568 5.62594C15.0521 5.62594 15.0472 5.62599 15.0446 5.62608H14.9759C13.8965 5.62608 13.0184 4.74797 13.0184 3.66861C13.0184 3.31834 13.1874 2.92565 13.1888 2.92226C13.3822 2.48685 13.2334 1.95293 12.843 1.68053L12.8194 1.66389L10.8356 0.561872L10.8105 0.55087C10.6813 0.4947 10.5399 0.466217 10.3902 0.466217C10.0833 0.466217 9.78152 0.589378 9.58303 0.795465C9.36544 1.02006 8.61442 1.66114 8.03733 1.66114C7.45503 1.66114 6.69956 1.00746 6.48104 0.778712C6.2815 0.568419 5.9773 0.442871 5.66735 0.442871C5.52055 0.442871 5.38168 0.470354 5.25468 0.524524L5.2289 0.535458L3.17514 1.6636L3.15089 1.68042C2.75919 1.95256 2.60955 2.48601 2.80277 2.92119C2.80448 2.9251 2.97369 3.31566 2.97369 3.66857C2.97369 4.74792 2.09558 5.62603 1.01623 5.62603H0.948601C0.943895 5.62594 0.939212 5.62587 0.934552 5.62587C0.561704 5.62587 0.260416 5.94496 0.166988 6.43888C0.160169 6.47509 0 7.33367 0 8.00519C0 8.67669 0.160169 9.53523 0.167011 9.57153C0.260507 10.0654 0.561977 10.3845 0.935075 10.3845C0.939803 10.3845 0.944691 10.3844 0.94751 10.3843H1.01623C2.09558 10.3843 2.97369 11.2624 2.97369 12.3417C2.97369 12.6924 2.80477 13.0847 2.80327 13.0881C2.61 13.5231 2.75838 14.057 3.14859 14.3302L3.17175 14.3463L5.11772 15.4345L5.14245 15.4454C5.27161 15.5021 5.41264 15.5309 5.5616 15.5309C5.87278 15.5309 6.17675 15.4024 6.37472 15.1871C6.65109 14.8868 7.40095 14.2666 7.95477 14.2666C8.55441 14.2666 9.32341 14.9618 9.54531 15.2051C9.74372 15.4241 10.0498 15.5548 10.3641 15.5549H10.3642C10.5102 15.5549 10.6487 15.5271 10.7759 15.4723L10.8011 15.4614L12.8182 14.3465L12.8421 14.3298C13.2332 14.0574 13.3824 13.5239 13.1896 13.0897C13.1878 13.0858 13.0184 12.69 13.0184 12.3418C13.0184 11.2624 13.8965 10.3843 14.9759 10.3843L15.0425 10.3843C15.047 10.3844 15.0514 10.3844 15.0558 10.3844C15.4297 10.3844 15.7316 10.0653 15.8249 9.57181C15.8266 9.5631 15.9921 8.69347 15.9921 8.00515C15.9921 7.33056 15.8319 6.47495 15.8251 6.43883ZM5.57176 14.4009L3.86951 13.449C3.94452 13.2564 4.09737 12.8067 4.09737 12.3418C4.09737 10.7273 2.85492 9.39245 1.25475 9.26968C1.21568 9.04197 1.12377 8.45835 1.12377 8.00522C1.12377 7.55272 1.21563 6.96858 1.25469 6.74069C2.85492 6.618 4.09737 5.28319 4.09737 3.66859C4.09737 3.20488 3.94534 2.75645 3.87049 2.56373L5.68187 1.56885C5.68192 1.56885 5.68194 1.56887 5.68199 1.56887C5.74727 1.63557 6.00851 1.89478 6.3692 2.15181C6.95856 2.57191 7.51979 2.78493 8.03731 2.78493C8.54973 2.78493 9.1065 2.57605 9.69214 2.16406C10.0506 1.91196 10.3105 1.65775 10.3757 1.59217C10.3758 1.59215 10.3759 1.5921 10.3761 1.59208L12.1222 2.56221C12.0473 2.75491 11.8947 3.20427 11.8947 3.66861C11.8947 5.28321 13.1371 6.61803 14.7373 6.74071C14.7764 6.96894 14.8683 7.5541 14.8683 8.00524C14.8683 8.45819 14.7764 9.04202 14.7374 9.26979C13.1372 9.39245 11.8947 10.7273 11.8947 12.3419C11.8947 12.8061 12.047 13.2548 12.1219 13.4475L10.3539 14.4246C10.2776 14.3435 10.0202 14.0797 9.66397 13.8152C9.06322 13.3691 8.48815 13.1428 7.95474 13.1428C7.42645 13.1428 6.85573 13.3648 6.2584 13.8025C5.90731 14.0599 5.64821 14.3212 5.57176 14.4009ZM10.7937 7.99485C10.7937 6.43317 9.52311 5.16267 7.96138 5.16267C6.3997 5.16267 5.1292 6.43317 5.1292 7.99485C5.1292 9.55653 6.3997 10.8271 7.96138 10.8271C9.52313 10.8271 10.7937 9.55653 10.7937 7.99485ZM7.96138 6.28646C8.90346 6.28646 9.66988 7.05284 9.66988 7.99485C9.66988 8.93693 8.90346 9.70336 7.96138 9.70336C7.01937 9.70336 6.25299 8.93693 6.25299 7.99485C6.25299 7.05282 7.01937 6.28646 7.96138 6.28646Z" fill="#3473D1"/>
    <path d="M10.7934 7.99478C10.7934 6.4331 9.52282 5.1626 7.96109 5.1626C6.39941 5.1626 5.12891 6.4331 5.12891 7.99478C5.12891 9.55646 6.39941 10.827 7.96109 10.827C9.52284 10.827 10.7934 9.55646 10.7934 7.99478ZM7.96109 6.28639C8.90317 6.28639 9.6696 7.05277 9.6696 7.99478C9.6696 8.93686 8.90317 9.70329 7.96109 9.70329C7.01908 9.70329 6.2527 8.93686 6.2527 7.99478C6.2527 7.05275 7.01908 6.28639 7.96109 6.28639Z" fill="#FF813B"/>
  </g>
  <defs>
    <clipPath id="9rx96ynkr__clip0_1602_33593">
      <path fill="#fff" d="M0 0H16V16H0z"/>
    </clipPath>
  </defs>
</svg>
