<?xml version="1.0" encoding="UTF-8"?>
<svg xmlns="http://www.w3.org/2000/svg" width="32" height="32" viewBox="0 0 32 32">
  <defs>
    <style>
      .cls-1 {
        fill: #fff;
        opacity: 0;
      }

      .cls-2 {
        fill: #333;
      }
    </style>
  </defs>
  <g id="插入表格" transform="translate(-75 -66)">
    <rect id="矩形_1" data-name="矩形 1" class="cls-1" width="32" height="32" transform="translate(75 66)"></rect>
    <g id="表格" transform="translate(-20 -29)">
      <path id="路径_18" data-name="路径 18" class="cls-2" d="M121.494,100a.5.5,0,0,1,.5.5v20.988a.5.5,0,0,1-.5.5H100.506a.5.5,0,0,1-.5-.5V100.506a.5.5,0,0,1,.5-.5h20.988m0-2H100.506A2.506,2.506,0,0,0,98,100.506v20.988A2.506,2.506,0,0,0,100.506,124h20.988A2.506,2.506,0,0,0,124,121.494V100.506A2.506,2.506,0,0,0,121.494,98Z"></path>
      <path id="路径_19" data-name="路径 19" class="cls-2" d="M137.4,352.67H113v2.007h24.4Z" transform="translate(-14.53 -246.693)"></path>
      <path id="路径_20" data-name="路径 20" class="cls-2" d="M355.677,374H353.67v17.371h2.007Zm8.016,0h-2.007v17.371h2.007Z" transform="translate(-247.666 -267.371)"></path>
      <path id="路径_21" data-name="路径 21" class="cls-2" d="M150.4,607.33H126v2.007h24.4Z" transform="translate(-27.122 -493.376)"></path>
    </g>
  </g>
</svg>
