<svg fill="none" xmlns="http://www.w3.org/2000/svg" viewBox="0 0 16 16" class="design-iconfont">
  <path d="M14.0667 8.875H13.1333V2.75C13.1333 1.7875 12.2933 1 11.2667 1H4.73333C3.70667 1 2.86667 1.7875 2.86667 2.75V8.875H1.93333C1.37333 8.875 1 9.225 1 9.75V14.125C1 14.65 1.37333 15 1.93333 15H14.0667C14.6267 15 15 14.65 15 14.125V9.75C15 9.225 14.6267 8.875 14.0667 8.875ZM5.66667 2.75H10.3333V3.625H5.66667V2.75ZM5.66667 5.375H10.3333V6.25H5.66667V5.375ZM10.3333 12.375H5.66667V11.5H10.3333V12.375ZM3.8 8.875V8H12.2V8.875H3.8Z" fill="#fff"/>
</svg>
