<svg fill="none" xmlns="http://www.w3.org/2000/svg" viewBox="0 0 18 18" class="design-iconfont">
  <path d="M16.8372 14.9529L14.589 12.7074C15.6442 11.2556 15.5066 9.24539 14.2319 7.97907C13.5397 7.28708 12.6221 6.91016 11.6466 6.91016C10.6711 6.91016 9.75348 7.29304 9.06124 7.97907C8.38101 8.67105 8 9.58841 8 10.5636C8 11.5388 8.383 12.4561 9.06924 13.1482C9.76143 13.8401 10.6791 14.2171 11.6546 14.2171C12.4266 14.2171 13.1647 13.9738 13.799 13.5051L16.0452 15.7446C16.1509 15.8503 16.2886 15.9102 16.4402 15.9102C16.5918 15.9102 16.7314 15.8503 16.8352 15.7446C17.0546 15.5273 17.0546 15.1723 16.8372 14.9529V14.9529ZM13.4479 12.3584C12.4904 13.3076 10.8147 13.3076 9.85921 12.3584C8.86977 11.3692 8.86977 9.76587 9.85921 8.77674C10.34 8.29615 10.9743 8.03886 11.6546 8.03886C12.3348 8.03886 12.9672 8.30212 13.4499 8.77674C14.4374 9.76589 14.4374 11.3693 13.4479 12.3584Z" fill="#FF813B"/>
  <path d="M10.5729 15.8026H3.5313C2.75845 15.8026 2.13196 15.1878 2.13196 14.4335V3.38683C2.13196 2.63065 2.76039 2.01768 3.5313 2.01768H11.4687C12.2416 2.01768 12.868 2.63255 12.868 3.38683V5.63435C12.868 5.93988 13.1218 6.18811 13.434 6.18811C13.7463 6.18811 14 5.93988 14 5.63435V3.38683C14 2.02152 12.8641 0.910156 11.4687 0.910156H3.5313C2.13588 0.910156 1 2.0215 1 3.38683V14.4335C1 15.7988 2.13586 16.9102 3.5313 16.9102H10.5729C10.8852 16.9102 11.1389 16.6619 11.1389 16.3564C11.1389 16.0509 10.8852 15.8026 10.5729 15.8026Z" fill="#3473D1"/>
  <path d="M9.99998 4.44522C9.99998 4.15064 9.73339 3.91016 9.40684 3.91016H3.59316C3.26661 3.91016 3.00002 4.15064 3.00002 4.44522C3.00002 4.7398 3.26661 4.98029 3.59316 4.98029H9.40463C9.73341 4.98029 9.99998 4.7378 9.99998 4.44522ZM7.74515 7.40916C7.74515 7.11458 7.47856 6.87409 7.15201 6.87409H3.59316C3.26661 6.87409 3.00002 7.11458 3.00002 7.40916C3.00002 7.70374 3.26661 7.94422 3.59316 7.94422H7.15201C7.47856 7.94422 7.74515 7.70374 7.74515 7.40916ZM3.59314 9.84003C3.26659 9.84003 3 10.0805 3 10.3751C3 10.6697 3.26659 10.9102 3.59314 10.9102H5.5303C5.85685 10.9102 6.12344 10.6697 6.12344 10.3751C6.12344 10.0805 5.85685 9.84003 5.5303 9.84003H3.59314Z" fill="#3473D1"/>
</svg>
