<svg fill="none" xmlns="http://www.w3.org/2000/svg" viewBox="0 0 16 16" class="design-iconfont">
  <g clip-path="url(#qr8hgbv03__clip0_1615_56700)" fill="#fff">
    <path d="M7 15.7504H3C2.59 15.7504 2.25 15.4104 2.25 15.0004C2.25 14.5904 2.59 14.2504 3 14.2504H7C7.41 14.2504 7.75 14.5904 7.75 15.0004C7.75 15.4104 7.41 15.7504 7 15.7504ZM11 15.7504C10.81 15.7504 10.62 15.6804 10.47 15.5304L8.47 13.5304C8.18 13.2404 8.18 12.7604 8.47 12.4704C8.76 12.1804 9.24 12.1804 9.53 12.4704L11 13.9404L14.47 10.4704C14.76 10.1804 15.24 10.1804 15.53 10.4704C15.82 10.7604 15.82 11.2404 15.53 11.5304L11.53 15.5304C11.38 15.6804 11.19 15.7504 11 15.7504Z"/>
    <path d="M10.4102 11.59L11.0002 12.18L13.5902 9.58999C14.0302 9.14999 14.6102 8.96999 15.1802 9.01999C14.7702 8.54999 14.1702 8.24999 13.5002 8.24999H11.2502C10.9802 8.24999 10.7502 8.02999 10.7502 7.74999V7.02999C10.7502 6.73999 10.8602 6.43999 11.0702 6.12999C11.6402 5.31999 11.8602 4.31999 11.6902 3.32999C11.4202 1.80999 10.1802 0.559993 8.66023 0.299993C7.55023 0.109993 6.43023 0.409993 5.58023 1.11999C4.73023 1.82999 4.24023 2.87999 4.24023 3.98999C4.24023 4.77999 4.49023 5.52999 4.95023 6.16999C5.14023 6.42999 5.24023 6.71999 5.24023 7.01999V7.73999C5.24023 8.00999 5.02023 8.23999 4.74023 8.23999H2.49023C1.25023 8.23999 0.240234 9.24999 0.240234 10.49C0.240234 11.73 1.25023 12.74 2.49023 12.74H7.01023C7.06024 12.31 7.25023 11.9 7.57023 11.58C8.35023 10.8 9.62023 10.8 10.4002 11.58L10.4102 11.59Z"/>
  </g>
  <defs>
    <clipPath id="qr8hgbv03__clip0_1615_56700">
      <path fill="#fff" d="M0 0H16V16H0z"/>
    </clipPath>
  </defs>
</svg>
