<svg xmlns="http://www.w3.org/2000/svg" fill="none" viewBox="0 0 14 14" class="design-iconfont">
  <path d="M11.7937 2.35312H8.66611C8.60591 1.54952 7.93531 0.916016 7.11631 0.916016H6.8839C6.0649 0.916016 5.39431 1.54952 5.33411 2.35312H2.20651C1.93211 2.35312 1.71021 2.57572 1.71021 2.84942C1.71021 3.12312 1.93281 3.34572 2.20651 3.34572H11.7937C11.9253 3.34572 12.0516 3.29343 12.1446 3.20035C12.2377 3.10728 12.29 2.98104 12.29 2.84942C12.29 2.71779 12.2377 2.59155 12.1446 2.49848C12.0516 2.4054 11.9253 2.35312 11.7937 2.35312ZM9.3885 12.9931H4.61171C3.26841 12.9931 2.17921 11.9039 2.17921 10.5606V4.32432C2.17921 4.11992 2.34511 3.95402 2.54951 3.95402H11.4507C11.6551 3.95402 11.821 4.11992 11.821 4.32432V10.5606C11.821 11.9039 10.7325 12.9931 9.3885 12.9931Z" fill="#F7264E"/>
  <path d="M9.27784 12.5422H4.54584C3.40694 12.5422 2.48364 11.6189 2.48364 10.48V4.50273C2.48364 4.35783 2.60124 4.24023 2.74614 4.24023H11.0768C11.2217 4.24023 11.3393 4.35783 11.3393 4.50273V10.48C11.34 11.6189 10.4167 12.5422 9.27784 12.5422Z" fill="#F92B5C"/>
  <path d="M8.77863 12.0706H4.79633C3.65743 12.0706 2.73413 11.1473 2.73413 10.0084V4.7171C2.73413 4.5813 2.84473 4.4707 2.98053 4.4707H10.5944C10.7302 4.4707 10.8408 4.5813 10.8408 4.7171V10.0077C10.8408 11.1473 9.91753 12.0706 8.77863 12.0706Z" fill="#FC4C66"/>
  <path d="M8.40984 11.7246H4.97284C3.83394 11.7246 2.91064 10.8013 2.91064 9.66236V4.89536C2.91064 4.76516 3.01564 4.66016 3.14584 4.66016H10.2368C10.367 4.66016 10.472 4.76516 10.472 4.89536V9.66236C10.472 10.8013 9.54874 11.7246 8.40984 11.7246Z" fill="#FF5F7E"/>
  <path d="M11.7558 2.50125H8.19634C8.15294 1.92375 7.67134 1.46875 7.08334 1.46875H6.91674C6.32874 1.46875 5.84714 1.92375 5.80374 2.50125H2.24424C2.04754 2.50125 1.88794 2.66085 1.88794 2.85825C1.88794 3.05495 2.04754 3.21525 2.24424 3.21525H11.7565C11.9532 3.21525 12.1128 3.05565 12.1128 2.85825C12.1128 2.66155 11.9532 2.50125 11.7558 2.50125Z" fill="#FC4C66"/>
  <path d="M11.5562 2.65082H7.74121C7.72814 2.47694 7.64981 2.31444 7.52193 2.19591C7.39405 2.07738 7.22608 2.01158 7.05171 2.01172H6.94811C6.58341 2.01172 6.28521 2.29382 6.25861 2.65082H2.44361C2.38495 2.65082 2.32868 2.67412 2.2872 2.71561C2.24572 2.75709 2.22241 2.81335 2.22241 2.87202C2.22241 2.93068 2.24572 2.98695 2.2872 3.02843C2.32868 3.06991 2.38495 3.09322 2.44361 3.09322H11.5562C11.6149 3.09322 11.6711 3.06991 11.7126 3.02843C11.7541 2.98695 11.7774 2.93068 11.7774 2.87202C11.7774 2.81335 11.7541 2.75709 11.7126 2.71561C11.6711 2.67412 11.6149 2.65082 11.5562 2.65082Z" fill="#FF5F7E"/>
  <path d="M4.60737 7.09847C4.09497 7.09847 3.67847 7.51497 3.67847 8.02737V10.3017C3.67847 10.8141 4.09497 11.2306 4.60737 11.2306C5.11977 11.2306 5.53627 10.8141 5.53627 10.3017V8.02737C5.53627 7.51567 5.11907 7.09847 4.60737 7.09847ZM9.36107 7.09847C8.84867 7.09847 8.43217 7.51497 8.43217 8.02737V10.3017C8.43217 10.8141 8.84867 11.2306 9.36107 11.2306C9.87347 11.2306 10.29 10.8141 10.29 10.3017V8.02737C10.2893 7.51567 9.87277 7.09847 9.36107 7.09847ZM6.98387 5.63477C6.47147 5.63477 6.05497 6.05127 6.05497 6.56367V10.3017C6.05497 10.8141 6.47147 11.2306 6.98387 11.2306C7.49627 11.2306 7.91277 10.8141 7.91277 10.3017V6.56367C7.91277 6.05127 7.49627 5.63477 6.98387 5.63477Z" fill="#F92B5C"/>
  <path d="M4.6073 10.9409C4.2538 10.9409 3.9668 10.6539 3.9668 10.3004V8.02608C3.9668 7.67258 4.2538 7.38557 4.6073 7.38557C4.9608 7.38557 5.2478 7.67258 5.2478 8.02608V10.3004C5.2478 10.6539 4.9608 10.9409 4.6073 10.9409ZM9.361 10.9409C9.0075 10.9409 8.7205 10.6539 8.7205 10.3004V8.02608C8.7205 7.67258 9.0075 7.38557 9.361 7.38557C9.7145 7.38557 10.0015 7.67258 10.0015 8.02608V10.3004C10.0015 10.6539 9.7145 10.9409 9.361 10.9409ZM6.9838 10.9409C6.6303 10.9409 6.3433 10.6539 6.3433 10.3004V6.56238C6.3433 6.20888 6.6303 5.92188 6.9838 5.92188C7.3373 5.92188 7.6243 6.20888 7.6243 6.56238V10.3004C7.6243 10.6539 7.338 10.9409 6.9838 10.9409Z" fill="#F9F1E8"/>
  <path d="M4.60742 10.7492C4.48861 10.7492 4.37466 10.702 4.29064 10.618C4.20662 10.534 4.15942 10.4201 4.15942 10.3012V8.02693C4.15942 7.90812 4.20662 7.79417 4.29064 7.71015C4.37466 7.62613 4.48861 7.57893 4.60742 7.57893C4.72624 7.57893 4.84019 7.62613 4.92421 7.71015C5.00822 7.79417 5.05542 7.90812 5.05542 8.02693V10.3012C5.05542 10.4201 5.00822 10.534 4.92421 10.618C4.84019 10.702 4.72624 10.7492 4.60742 10.7492ZM9.36112 10.7492C9.24231 10.7492 9.12836 10.702 9.04434 10.618C8.96032 10.534 8.91312 10.4201 8.91312 10.3012V8.02693C8.91312 7.90812 8.96032 7.79417 9.04434 7.71015C9.12836 7.62613 9.24231 7.57893 9.36112 7.57893C9.47994 7.57893 9.59389 7.62613 9.67791 7.71015C9.76192 7.79417 9.80912 7.90812 9.80912 8.02693V10.3012C9.80912 10.5483 9.60822 10.7492 9.36112 10.7492ZM6.98392 10.7492C6.86511 10.7492 6.75116 10.702 6.66714 10.618C6.58312 10.534 6.53592 10.4201 6.53592 10.3012V6.56323C6.53592 6.44442 6.58312 6.33047 6.66714 6.24645C6.75116 6.16243 6.86511 6.11523 6.98392 6.11523C7.10274 6.11523 7.21669 6.16243 7.30071 6.24645C7.38472 6.33047 7.43192 6.44442 7.43192 6.56323V10.3012C7.43262 10.5483 7.23172 10.7492 6.98392 10.7492Z" fill="#fff"/>
</svg>
