<svg xmlns="http://www.w3.org/2000/svg" fill="none" viewBox="0 0 18 18" class="design-iconfont">
  <path d="M8.99992 16.423C8.68175 16.423 8.38117 16.2842 8.17374 16.0434L2.84406 9.83828C2.56281 9.51133 2.50128 9.06484 2.68058 8.67285C2.85988 8.28086 3.23956 8.03828 3.67023 8.03828H5.62492V3.26758C5.62492 2.3377 6.38253 1.58008 7.31242 1.58008H10.6874C11.6173 1.58008 12.3749 2.3377 12.3749 3.26758V8.03652H14.3296C14.7603 8.03652 15.14 8.2791 15.3193 8.67109C15.4985 9.06309 15.437 9.50957 15.1558 9.83652L9.82609 16.0434C9.61867 16.2859 9.31808 16.423 8.99992 16.423ZM3.74757 9.16328L8.99992 15.2805L14.2523 9.16328H11.2499V3.26758C11.2499 2.9582 10.9968 2.70508 10.6874 2.70508H7.31242C7.00304 2.70508 6.74992 2.9582 6.74992 3.26758V9.16152H3.74757V9.16328Z" fill="#3263FE"/>
</svg>
