<?xml version="1.0" standalone="no"?><!DOCTYPE svg PUBLIC "-//W3C//DTD SVG 1.1//EN" "http://www.w3.org/Graphics/SVG/1.1/DTD/svg11.dtd"><svg t="1692007325882" class="icon" viewBox="0 0 1024 1024" version="1.1" xmlns="http://www.w3.org/2000/svg" p-id="4982" xmlns:xlink="http://www.w3.org/1999/xlink" width="200" height="200"><path d="M512 934.3c-18.1 0-35.2-7.9-47-21.6l-303.2-353c-16-18.6-19.5-44-9.3-66.3 10.2-22.3 31.8-36.1 56.3-36.1H320V185.9c0-52.9 43.1-96 96-96h192c52.9 0 96 43.1 96 96v271.3h111.2c24.5 0 46.1 13.8 56.3 36.1 10.2 22.3 6.7 47.7-9.3 66.3L559 912.7c-11.8 13.8-28.9 21.6-47 21.6z m-298.8-413l298.8 348 298.8-348H640V185.9c0-17.6-14.4-32-32-32H416c-17.6 0-32 14.4-32 32v335.3H213.2z" p-id="4983"></path></svg>