<svg fill="none" xmlns="http://www.w3.org/2000/svg" viewBox="0 0 14 14" class="design-iconfont">
  <path d="M11.0656 4.12992H2.94702V2.79852C2.94702 1.79332 3.76182 0.978516 4.76702 0.978516H9.24562C10.2508 0.978516 11.0656 1.79332 11.0656 2.79852V4.12992Z" fill="#95C9FC"/>
  <path d="M11.8146 9.80699H2.19799C1.50219 9.80699 0.937988 9.24279 0.937988 8.54699V5.87859C0.937988 4.87339 1.75279 4.05859 2.75799 4.05859H11.2546C12.2598 4.05859 13.0746 4.87339 13.0746 5.87859V8.54699C13.0746 9.24279 12.5104 9.80699 11.8146 9.80699Z" fill="#80B7F9"/>
  <path d="M9.93867 12.9753H4.07337C3.45457 12.9753 2.95337 12.4741 2.95337 11.8553V8.9657C2.95337 8.3469 3.45457 7.8457 4.07337 7.8457H9.93867C10.5575 7.8457 11.0587 8.3469 11.0587 8.9657V11.8553C11.0587 12.4741 10.5575 12.9753 9.93867 12.9753Z" fill="#80B7F9"/>
  <path d="M11.0587 9.8078V8.9657C11.0587 8.3469 10.5575 7.8457 9.93867 7.8457H4.07337C3.45457 7.8457 2.95337 8.3469 2.95337 8.9657V9.8078H11.0587Z" fill="#3E8BF8"/>
  <path d="M10.9074 6.34656H9.51022C9.20082 6.34656 8.95022 6.09596 8.95022 5.78656C8.95022 5.47716 9.20082 5.22656 9.51022 5.22656H10.9074C11.2168 5.22656 11.4674 5.47716 11.4674 5.78656C11.4674 6.09596 11.2168 6.34656 10.9074 6.34656ZM8.27122 11.3614H4.56122C4.25182 11.3614 4.00122 11.1108 4.00122 10.8014C4.00122 10.492 4.25182 10.2414 4.56122 10.2414H8.27192C8.58132 10.2414 8.83192 10.492 8.83192 10.8014C8.83192 11.1108 8.58062 11.3614 8.27122 11.3614Z" fill="#fff"/>
</svg>
