<svg xmlns="http://www.w3.org/2000/svg" fill="none" viewBox="0 0 18 18" class="design-iconfont">
  <path d="M9.82609 1.95977L15.1558 8.1666C15.437 8.49356 15.4985 8.94004 15.3193 9.33203C15.14 9.72402 14.7603 9.9666 14.3296 9.9666H12.3749V14.7355C12.3749 15.6654 11.6173 16.423 10.6874 16.423H7.31242C6.38253 16.423 5.62492 15.6654 5.62492 14.7355V9.9666H3.67023C3.23956 9.9666 2.85988 9.72402 2.68058 9.33203C2.50128 8.94004 2.56281 8.49356 2.84406 8.1666L8.17374 1.95977C8.38117 1.71895 8.68175 1.58008 8.99992 1.58008C9.31808 1.58008 9.61867 1.71895 9.82609 1.95977ZM6.74992 8.8416V14.7355C6.74992 15.0449 7.00304 15.298 7.31242 15.298H10.6874C10.9968 15.298 11.2499 15.0449 11.2499 14.7355V8.8416H14.2523L8.99992 2.72441L3.74757 8.8416H6.74992Z" fill="#3263FE"/>
</svg>
