<?xml version="1.0" encoding="UTF-8"?>
<svg xmlns="http://www.w3.org/2000/svg" width="32" height="32" viewBox="0 0 32 32">
  <defs>
    <style>
      .cls-1 {
        fill: #fff;
        opacity: 0;
      }

      .cls-2, .cls-3, .cls-5 {
        fill: none;
      }

      .cls-2, .cls-3 {
        stroke: #333;
        stroke-width: 2px;
      }

      .cls-3 {
        stroke-linecap: round;
      }

      .cls-4 {
        stroke: none;
      }
    </style>
  </defs>
  <g id="段落" transform="translate(-77 -70)">
    <rect id="矩形_1" data-name="矩形 1" class="cls-1" width="32" height="32" transform="translate(77 70)"></rect>
    <g id="组_21" data-name="组 21" transform="translate(-4.5 2)">
      <g id="矩形_17" data-name="矩形 17" class="cls-2" transform="translate(86.5 75)">
        <path class="cls-4" d="M5.224,0H12a0,0,0,0,1,0,0V10.448a0,0,0,0,1,0,0H5.224A5.224,5.224,0,0,1,0,5.224v0A5.224,5.224,0,0,1,5.224,0Z"></path>
        <path class="cls-5" d="M5.224,1h5.306A.469.469,0,0,1,11,1.469v7.51a.469.469,0,0,1-.469.469H5.224A4.224,4.224,0,0,1,1,5.224v0A4.224,4.224,0,0,1,5.224,1Z"></path>
      </g>
      <line id="直线_12" data-name="直线 12" class="cls-3" y2="12" transform="translate(97.5 80.999)"></line>
      <line id="直线_13" data-name="直线 13" class="cls-3" y2="16" transform="translate(103.5 76.999)"></line>
      <line id="直线_14" data-name="直线 14" class="cls-3" y2="10" transform="translate(108.5 75.999) rotate(90)"></line>
    </g>
  </g>
</svg>
