<svg xmlns="http://www.w3.org/2000/svg" viewBox="0 0 32 32" class="design-iconfont">
  <path data-name="保存" d="M105.436,88.333l-7.769-7.769A1.926,1.926,0,0,0,96.3,80H81.926A1.926,1.926,0,0,0,80,81.926v22.148A1.926,1.926,0,0,0,81.926,106h22.148A1.926,1.926,0,0,0,106,104.074V89.7a1.926,1.926,0,0,0-.564-1.361ZM86.259,81.926h5.778V85.3H86.259Zm13.481,22.148H86.259V99.741H99.741Zm4.333,0h-2.407v-5.3a.963.963,0,0,0-.963-.963H85.3a.963.963,0,0,0-.963.963v5.3H81.926V81.926h2.407v4.333a.963.963,0,0,0,.963.963H93a.963.963,0,0,0,.963-.963V81.926H96.3l7.769,7.769Z" transform="translate(-77 -77)" fill="#39f"/>
</svg>
