<?xml version="1.0" encoding="UTF-8"?>
<svg xmlns="http://www.w3.org/2000/svg" width="32" height="32" viewBox="0 0 32 32">
  <defs>
    <style>
      .cls-1 {
        fill: #fff;
        opacity: 0;
      }

      .cls-2 {
        fill: #333;
      }
    </style>
  </defs>
  <g id="批注" transform="translate(-77 -70)">
    <rect id="矩形_1" data-name="矩形 1" class="cls-1" width="32" height="32" transform="translate(77 70)"></rect>
    <path id="批注-2" data-name="批注" class="cls-2" d="M151.19,58.536l-10.3,8.648a1.786,1.786,0,0,0-.624,1.123L139,77.495a1.778,1.778,0,0,0,.468,1.462,1.844,1.844,0,0,0,1.445.575l9.441-.509a1.847,1.847,0,0,0,1.219-.55l9.91-10.145a1.777,1.777,0,0,0-.074-2.544l-7.778-7.191a1.852,1.852,0,0,0-2.44-.057Zm1.174,1.848,7.269,6.72-9.546,9.772-8.856.477,1.194-8.621,9.938-8.349Zm-11.7,21.608,18.541.039a1.036,1.036,0,0,1,.127,2.066l-.133.008-18.541-.039A1.036,1.036,0,0,1,140.532,82Z" transform="translate(-57.48 14.895)"></path>
  </g>
</svg>
