<?xml version="1.0" encoding="UTF-8"?>
<svg xmlns="http://www.w3.org/2000/svg" width="32" height="32" viewBox="0 0 32 32">
  <defs>
    <style>
      .cls-1 {
        fill: #fff;
        opacity: 0;
      }

      .cls-2 {
        fill: #333;
      }
    </style>
  </defs>
  <g id="审阅模式" transform="translate(-77 -70)">
    <rect id="矩形_1" data-name="矩形 1" class="cls-1" width="32" height="32" transform="translate(77 70)"></rect>
    <g id="查看" transform="translate(14.4 6.8)">
      <path id="路径_46" data-name="路径 46" class="cls-2" d="M80.66,92.2h-11A2.742,2.742,0,0,1,67.1,89.311V69.089A2.742,2.742,0,0,1,69.656,66.2H87.544A2.742,2.742,0,0,1,90.1,69.089V81.571a.858.858,0,1,1-1.7,0V69.089a.915.915,0,0,0-.852-.963H69.656a.915.915,0,0,0-.852.963V89.311a.915.915,0,0,0,.852.963h11a.97.97,0,0,1,0,1.926Z"></path>
      <path id="路径_47" data-name="路径 47" class="cls-2" d="M226.105,260.226H214.663a.963.963,0,0,1,0-1.926h11.442a.963.963,0,1,1,0,1.926Zm-7.145,6.256h-4.3a.963.963,0,0,1,0-1.926h4.294a.963.963,0,0,1,0,1.926Zm-1.639,6.253h-2.658a.963.963,0,0,1,0-1.926h2.655a.963.963,0,0,1,0,1.926Z" transform="translate(-142.188 -186.319)"></path>
      <path id="路径_48" data-name="路径 48" class="cls-2" d="M457.276,458.852a5.176,5.176,0,1,1,5.176-5.176A5.183,5.183,0,0,1,457.276,458.852Zm0-8.426a3.25,3.25,0,1,0,3.25,3.25A3.252,3.252,0,0,0,457.276,450.426Z" transform="translate(-374.737 -369.301)"></path>
      <path id="路径_49" data-name="路径 49" class="cls-2" d="M704.726,704.19l-3.319-3.319a.964.964,0,0,1,1.363-1.363l3.316,3.319a.963.963,0,0,1-1.36,1.363Z" transform="translate(-616.269 -612.482)"></path>
    </g>
  </g>
</svg>
