<?xml version="1.0" encoding="UTF-8"?>
<svg xmlns="http://www.w3.org/2000/svg" width="32" height="32" viewBox="0 0 32 32">
  <defs>
    <style>
      .cls-1 {
        fill: #fff;
        opacity: 0;
      }

      .cls-2 {
        fill: #333;
        stroke: #333;
        stroke-width: 0.3px;
      }
    </style>
  </defs>
  <g id="打印" transform="translate(-75 -66)">
    <rect id="矩形_1" data-name="矩形 1" class="cls-1" width="32" height="32" transform="translate(75 66)"></rect>
    <g id="打印监控" transform="translate(78.2 69)">
      <path id="路径_9" data-name="路径 9" class="cls-2" d="M410.318,381.671a.771.771,0,0,1,.1,1.536l-.1.006h-1.491a.771.771,0,0,1-.1-1.537l.1-.006h1.491Zm-5.3,11.728a.771.771,0,0,1,.1,1.537l-.1.006h-6.96a.771.771,0,0,1-.1-1.537l.1-.006Z" transform="translate(-388.906 -373.094)"></path>
      <path id="路径_10" data-name="路径 10" class="cls-2" d="M269.32,658.664a.774.774,0,0,1,.77.675l.006.1V664.1c0,.149.04.207.165.22l.059,0h14c.15,0,.209-.039.221-.164l0-.059v-5.169a.776.776,0,0,1,1.545-.1l.006.1v5.17a1.705,1.705,0,0,1-1.637,1.761l-.138,0h-14a1.708,1.708,0,0,1-1.771-1.628l0-.137v-4.668a.774.774,0,0,1,.776-.771Z" transform="translate(-264.568 -639.868)"></path>
      <path id="路径_11" data-name="路径 11" class="cls-2" d="M172.516,287.488h-19.96a2.77,2.77,0,0,0-2.77,2.76V298.7a2.77,2.77,0,0,0,2.77,2.76h2.994l.138-.005a1.7,1.7,0,0,0,1.635-1.76v-1.218H167.75v1.217a1.712,1.712,0,0,0,1.772,1.766h2.994a2.771,2.771,0,0,0,2.77-2.76v-8.451a2.771,2.771,0,0,0-2.77-2.76Zm-19.96,1.543h19.96a1.225,1.225,0,0,1,1.222,1.217V298.7a1.224,1.224,0,0,1-1.222,1.216h-2.994c-.171,0-.224-.053-.224-.223v-1.989a.773.773,0,0,0-.774-.771H156.548a.773.773,0,0,0-.774.771v1.989c0,.17-.053.223-.224.223h-2.995a1.225,1.225,0,0,1-1.222-1.217v-8.451a1.224,1.224,0,0,1,1.222-1.217Z" transform="translate(-149.786 -282.049)"></path>
      <path id="路径_12" data-name="路径 12" class="cls-2" d="M325.875,124.135a1.776,1.776,0,0,1,1.774,1.8l0,.141v4.174a.777.777,0,0,1-1.547.1l-.006-.1v-4.175c0-.266-.066-.372-.179-.392l-.045,0H314.867c-.127,0-.206.077-.222.3l0,.092v4.3a.777.777,0,0,1-1.547.1l-.006-.1v-4.3a1.8,1.8,0,0,1,1.641-1.933l.136-.005h11.009Z" transform="translate(-307.621 -124.134)"></path>
    </g>
  </g>
</svg>
