<svg xmlns="http://www.w3.org/2000/svg" fill="none" viewBox="0 0 17 16" class="design-iconfont">
  <path d="M10.02 9.50367C10.0873 9.49813 10.1551 9.50665 10.219 9.52868C10.2829 9.55071 10.3416 9.58577 10.3912 9.63165C10.4408 9.67753 10.4804 9.73322 10.5074 9.7952C10.5344 9.85717 10.5482 9.92408 10.548 9.99167C10.5417 10.1261 10.4828 10.2526 10.384 10.3439C10.2852 10.4353 10.1544 10.484 10.02 10.4797H8.75596V11.6717C8.76489 11.7415 8.75883 11.8125 8.73819 11.8799C8.71755 11.9472 8.6828 12.0094 8.63625 12.0623C8.5897 12.1152 8.53243 12.1575 8.46823 12.1865C8.40404 12.2155 8.33441 12.2305 8.26396 12.2305C8.19352 12.2305 8.12388 12.2155 8.05969 12.1865C7.9955 12.1575 7.93822 12.1152 7.89167 12.0623C7.84513 12.0094 7.81038 11.9472 7.78973 11.8799C7.76909 11.8125 7.76303 11.7415 7.77196 11.6717V10.4477H6.51596C6.38654 10.4477 6.26241 10.3963 6.17089 10.3047C6.07938 10.2132 6.02796 10.0891 6.02796 9.95967C6.02796 9.83025 6.07938 9.70612 6.17089 9.6146C6.26241 9.52309 6.38654 9.47167 6.51596 9.47167H7.77996V8.79967H6.51596C6.4486 8.80521 6.38081 8.7967 6.31691 8.77467C6.253 8.75264 6.19437 8.71757 6.14473 8.67169C6.09509 8.62581 6.05553 8.57012 6.02854 8.50814C6.00155 8.44617 5.98774 8.37927 5.98796 8.31167C5.9942 8.17727 6.05309 8.05072 6.1519 7.9594C6.2507 7.86808 6.38149 7.81932 6.51596 7.82367H7.21996L6.97196 7.33567L6.65996 6.70367C6.62533 6.64655 6.60241 6.58311 6.59251 6.51704C6.58262 6.45098 6.58596 6.38361 6.60234 6.31885C6.61871 6.25408 6.6478 6.19322 6.68791 6.1398C6.72802 6.08638 6.77834 6.04147 6.83596 6.00767C6.95786 5.9611 7.09256 5.96059 7.21481 6.00625C7.33705 6.05191 7.43844 6.14059 7.49996 6.25567L7.74796 6.74367L7.99596 7.23167L8.24396 7.75967L8.49996 7.26367L8.74796 6.77567L8.99596 6.28767C9.0517 6.16724 9.15269 6.07366 9.277 6.02723C9.40132 5.9808 9.53892 5.98527 9.65996 6.03967C9.77019 6.11337 9.84919 6.2253 9.8817 6.35385C9.9142 6.4824 9.89791 6.61844 9.83596 6.73567L9.65996 7.32767L9.41196 7.85567H10.076C10.2054 7.85567 10.3295 7.90709 10.421 7.9986C10.5125 8.09012 10.564 8.21425 10.564 8.34367C10.564 8.4731 10.5125 8.59722 10.421 8.68874C10.3295 8.78026 10.2054 8.83167 10.076 8.83167H8.79596V9.53567L10.02 9.50367ZM13.348 4.39167H3.19596C3.1286 4.38613 3.06081 4.39465 2.99691 4.41668C2.933 4.43871 2.87437 4.47377 2.82473 4.51965C2.77509 4.56553 2.73553 4.62122 2.70854 4.6832C2.68155 4.74517 2.66774 4.81208 2.66796 4.87967V13.0397C2.66359 13.1117 2.67401 13.1838 2.69858 13.2516C2.72315 13.3194 2.76135 13.3814 2.81082 13.4339C2.8603 13.4864 2.91999 13.5281 2.98623 13.5566C3.05247 13.5852 3.12385 13.5998 3.19596 13.5997H13.348C13.4201 13.5998 13.4915 13.5852 13.5577 13.5566C13.6239 13.5281 13.6836 13.4864 13.7331 13.4339C13.7826 13.3814 13.8208 13.3194 13.8453 13.2516C13.8699 13.1838 13.8803 13.1117 13.876 13.0397V4.88767C13.8773 4.81941 13.8643 4.75162 13.8378 4.68869C13.8113 4.62576 13.7719 4.56909 13.7222 4.52234C13.6724 4.4756 13.6134 4.43981 13.5489 4.4173C13.4845 4.39479 13.416 4.38606 13.348 4.39167ZM4.03596 3.38367H12.5C12.5673 3.38921 12.6351 3.3807 12.699 3.35867C12.7629 3.33664 12.8216 3.30157 12.8712 3.25569C12.9208 3.20981 12.9604 3.15412 12.9874 3.09214C13.0144 3.03017 13.0282 2.96327 13.028 2.89567C13.0259 2.82842 13.0106 2.76224 12.9829 2.70091C12.9553 2.63959 12.9158 2.58431 12.8668 2.53824C12.8177 2.49218 12.7601 2.45623 12.6972 2.43245C12.6342 2.40868 12.5672 2.39754 12.5 2.39967H4.03596C3.90548 2.39967 3.78033 2.45151 3.68807 2.54378C3.5958 2.63604 3.54396 2.76119 3.54396 2.89167C3.54396 3.02216 3.5958 3.1473 3.68807 3.23957C3.78033 3.33184 3.90548 3.38367 4.03596 3.38367Z" fill="#39A5A5"/>
</svg>
