<svg xmlns="http://www.w3.org/2000/svg" fill="none" viewBox="0 0 14 14" class="design-iconfont">
  <path d="M6.61147 3.87237L9.26353 3.35C9.51508 3.86641 10.0476 4.22884 10.6525 4.22884C11.494 4.22885 12.1953 3.52757 12.1953 2.68604C12.1953 1.84449 11.494 1.14323 10.6525 1.14323C9.90365 1.14323 9.26587 1.69859 9.13449 2.41393L6.43347 2.94595C6.13536 2.32194 5.50056 1.89647 4.75595 1.89647C3.72014 1.89647 2.89681 2.71982 2.89681 3.75563C2.89681 4.79144 3.72016 5.61479 4.75595 5.61479C5.03686 5.61479 5.30208 5.55412 5.53954 5.4452L7.51438 7.42005C7.13772 7.8233 6.90729 8.36496 6.90729 8.96128C6.90729 9.027 6.91026 9.09202 6.91574 9.15631L4.1732 10.0436C3.89651 9.69074 3.46726 9.46094 2.99201 9.46094C2.17286 9.46094 1.49023 10.1436 1.49023 10.9627C1.49023 11.7819 2.17286 12.4645 2.99201 12.4645C3.81119 12.4645 4.49381 11.7819 4.49381 10.9627C4.49381 10.9523 4.49362 10.9419 4.49341 10.9315L7.19105 10.0587C7.57632 10.7511 8.31514 11.2189 9.16486 11.2189C10.4131 11.2189 11.4224 10.2096 11.4224 8.96129C11.4224 7.71301 10.4131 6.70374 9.16486 6.70374C8.85928 6.70374 8.56811 6.76436 8.30248 6.87401L6.27029 4.84182C6.46681 4.5667 6.58961 4.23442 6.61147 3.87237ZM2.99201 11.5684C2.65286 11.5684 2.38634 11.3019 2.38634 10.9627C2.38634 10.6236 2.65286 10.3571 2.99201 10.3571C3.33122 10.3571 3.5977 10.6236 3.5977 10.9627C3.5977 11.3019 3.33121 11.5684 2.99201 11.5684ZM10.6525 2.05066C11.0083 2.05066 11.2879 2.33023 11.2879 2.68605C11.2879 3.04187 11.0083 3.32142 10.6525 3.32142C10.2967 3.32142 10.0171 3.04186 10.0171 2.68605C10.0171 2.33024 10.2967 2.05066 10.6525 2.05066ZM3.80587 3.75564C3.80587 3.2331 4.23343 2.80556 4.75595 2.80556C5.27851 2.80556 5.70604 3.2331 5.70604 3.75564C5.70604 4.27818 5.27851 4.70573 4.75595 4.70573C4.23344 4.70573 3.80587 4.27818 3.80587 3.75564ZM10.4456 8.9613C10.4456 9.65991 9.86345 10.2421 9.16483 10.2421C8.46621 10.2421 7.88404 9.65991 7.88404 8.9613C7.88404 8.26271 8.46621 7.68052 9.16483 7.68052C9.86345 7.68052 10.4456 8.2627 10.4456 8.9613Z" fill="currentColor"/>
</svg>
