<svg xmlns="http://www.w3.org/2000/svg" fill="none" viewBox="0 0 18 18" class="design-iconfont">
  <path d="M15.3749 13.4999C15.4241 13.4999 15.4729 13.5096 15.5184 13.5284C15.5639 13.5473 15.6052 13.5749 15.64 13.6097C15.6749 13.6445 15.7025 13.6859 15.7213 13.7314C15.7402 13.7769 15.7499 13.8256 15.7499 13.8749V14.6249C15.7499 14.7243 15.7104 14.8197 15.64 14.8901C15.5697 14.9604 15.4743 14.9999 15.3749 14.9999H9.37488C9.32563 14.9999 9.27687 14.9902 9.23137 14.9713C9.18588 14.9525 9.14454 14.9249 9.10972 14.8901C9.07489 14.8552 9.04727 14.8139 9.02843 14.7684C9.00958 14.7229 8.99988 14.6741 8.99988 14.6249V13.8749C8.99988 13.8256 9.00958 13.7769 9.02843 13.7314C9.04727 13.6859 9.07489 13.6445 9.10972 13.6097C9.14454 13.5749 9.18588 13.5473 9.23137 13.5284C9.27687 13.5096 9.32563 13.4999 9.37488 13.4999H15.3749ZM10.6836 2.19964C10.754 2.12934 10.8493 2.08984 10.9488 2.08984C11.0482 2.08984 11.1436 2.12934 11.2139 2.19964L14.9264 5.91214C14.9967 5.98246 15.0362 6.07783 15.0362 6.17726C15.0362 6.2767 14.9967 6.37207 14.9264 6.44239L6.84738 14.5221C6.80838 14.5611 6.76128 14.5909 6.70943 14.6096C6.65758 14.6283 6.60225 14.6353 6.54738 14.6301L3.14538 14.3204C3.05805 14.3125 2.97624 14.2743 2.91417 14.2124C2.8521 14.1504 2.81369 14.0687 2.80563 13.9814L2.49663 10.5779C2.49171 10.5233 2.49883 10.4682 2.51749 10.4166C2.53615 10.3651 2.5659 10.3182 2.60463 10.2794L10.6836 2.19964ZM10.9484 4.05664L4.03788 10.9671L4.21488 12.9119L6.15963 13.0881L10.7204 8.52664L8.63088 6.43714L9.69138 5.37664L11.7809 7.46614L13.0694 6.17764L10.9484 4.05664Z" fill="#B5B5B5"/>
</svg>
