<svg xmlns="http://www.w3.org/2000/svg" fill="none" viewBox="0 0 14 14" class="design-iconfont">
  <path d="M3.14509 7.64955C3.12581 7.90508 3.31736 8.12766 3.57288 8.14693H10.7899C11.0186 8.12971 11.2004 7.94787 11.2177 7.71914C11.2369 7.46361 11.0454 7.24103 10.7899 7.22176H3.57275C3.34402 7.23898 3.16218 7.42082 3.14509 7.64955ZM10.8508 10.4601H3.51177C3.28304 10.4773 3.1012 10.6591 3.08398 10.8879C3.0647 11.1434 3.25624 11.366 3.51177 11.3853H10.8508C11.0796 11.368 11.2614 11.1862 11.2786 10.9575C11.2978 10.7021 11.1062 10.4794 10.8508 10.4601Z" fill="currentColor"/>
  <path d="M13.2751 4.76725C13.2751 4.5969 13.2539 4.46455 13.1395 4.36078L8.42435 0.0881861C8.34806 0.011897 8.15201 0.0266626 7.95294 0.0266626C7.94201 0.0266626 7.93326 0.0267994 7.92382 0.0267994H2.62419C1.71365 0.0534595 0.99765 0.767952 1.02376 1.62422V12.3795C0.997787 13.2357 1.71365 13.9502 2.62433 13.9769H11.6461C12.5567 13.9504 13.2727 13.2357 13.2467 12.3795L13.2751 4.76725ZM8.56995 1.58553L11.4795 4.24881L9.6529 4.25045C9.03863 4.22844 8.55437 3.71233 8.57214 3.09723C8.57228 3.09272 8.57228 3.08834 8.57228 3.08383L8.56995 1.58553ZM12.1951 12.854C12.0548 13.0029 11.8497 13.093 11.6311 13.102H2.6391C2.42048 13.093 2.2154 13.003 2.07513 12.854C1.99091 12.7646 1.89193 12.6144 1.89822 12.4061L1.89863 12.3929V1.61096L1.89822 1.5977C1.89193 1.38948 1.99091 1.23922 2.07513 1.14981C2.2154 1.00092 2.42048 0.910823 2.6391 0.901799H7.69372L7.69728 3.07891C7.66925 4.17471 8.53605 5.09196 9.63253 5.12518C9.63704 5.12531 9.64142 5.12531 9.64593 5.12531H9.6462L12.3989 5.12285L12.3717 12.3762V12.3911L12.3721 12.406C12.3784 12.6144 12.2793 12.7646 12.1951 12.854Z" fill="currentColor"/>
  <path d="M6.09031 3.93681H3.52588C3.2843 3.93681 3.08838 3.7409 3.08838 3.49931C3.08838 3.25773 3.2843 3.06181 3.52588 3.06181H6.09031C6.33189 3.06181 6.52781 3.25773 6.52781 3.49931C6.52781 3.7409 6.33189 3.93681 6.09031 3.93681Z" fill="currentColor"/>
  <path d="M4.80798 5.2191C4.5664 5.2191 4.37048 5.02318 4.37048 4.7816V2.21716C4.37048 1.97558 4.5664 1.77966 4.80798 1.77966C5.04957 1.77966 5.24548 1.97558 5.24548 2.21716V4.7816C5.24548 5.02318 5.0497 5.2191 4.80798 5.2191Z" fill="currentColor"/>
</svg>
