<svg xmlns="http://www.w3.org/2000/svg" fill="none" viewBox="0 0 14 14" class="design-iconfont">
  <g clip-path="url(#jpo8narh6__clip0_48_414)" fill="currentColor">
    <path d="M10.773 11.659C10.6446 11.659 10.5166 11.6067 10.4239 11.5037C10.25 11.311 10.2656 11.0139 10.4583 10.8403C11.5447 9.86102 12.1677 8.46127 12.1677 6.99995C12.1677 4.15046 9.84947 1.83223 6.99999 1.83223C4.15052 1.83223 1.83239 4.15046 1.83239 6.99995C1.83239 8.4614 2.45541 9.86113 3.54191 10.8403C3.73462 11.0139 3.74997 11.311 3.57632 11.5037C3.40221 11.6966 3.1054 11.7117 2.91281 11.5381C1.62904 10.3813 0.892822 8.72714 0.892822 6.99995C0.892822 3.63238 3.63257 0.892654 6.99999 0.892654C10.3677 0.892654 13.1073 3.63239 13.1073 6.99995C13.1073 8.72704 12.3709 10.3811 11.0873 11.5381C11.0012 11.616 10.8891 11.6591 10.773 11.659Z"/>
    <path d="M9.34894 9.81871H4.65103C4.13283 9.81871 3.71143 9.39719 3.71143 8.87911V7.93951C3.71143 7.42143 4.13282 6.99992 4.65103 6.99992H9.34894C9.86713 6.99992 10.2885 7.42143 10.2885 7.93951V8.87911C10.2885 9.39719 9.86713 9.81871 9.34894 9.81871ZM9.34894 8.87911V9.34889L9.34916 8.87911H9.34894ZM4.65103 7.93952V8.87912H9.34757L9.34896 7.93952H4.65103Z"/>
    <path d="M8.64409 13.1074H5.35555C4.83736 13.1074 4.41595 12.686 4.41595 12.1678V9.81871C4.41595 9.30061 4.83734 8.87911 5.35555 8.87911H8.64409C9.16228 8.87911 9.58367 9.30061 9.58367 9.81871V12.1678C9.58366 12.686 9.16228 13.1074 8.64409 13.1074ZM5.35555 9.81871V12.1678H8.64272L8.6441 9.81871H5.35555ZM9.43347 5.26368C8.95153 4.43053 7.96124 3.88282 6.99988 3.88282C6.04355 3.88282 5.04963 4.42328 4.56629 5.25001L3.65186 4.74457C4.34507 3.55896 5.62782 2.82251 6.99981 2.82251C8.37892 2.82251 9.6651 3.56471 10.3565 4.75949L9.43347 5.26368Z"/>
  </g>
  <defs>
    <clipPath id="jpo8narh6__clip0_48_414">
      <path fill="#fff" d="M0 0H14V14H0z"/>
    </clipPath>
  </defs>
</svg>
