<svg xmlns="http://www.w3.org/2000/svg" fill="none" viewBox="0 0 14 14" class="design-iconfont">
  <path d="M5.49764 9.51685C5.24413 9.51685 5.00556 9.4181 4.82617 9.23883L2.61793 7.03061C2.24767 6.66035 2.24767 6.05795 2.61793 5.68769L7.13532 1.17031C7.50559 0.800048 8.108 0.800158 8.47824 1.17019L10.6865 3.37841C11.0565 3.74878 11.0565 4.35107 10.6867 4.7211L9.38093 6.02674C9.1974 6.21026 8.9001 6.21026 8.71659 6.02674C8.53305 5.84333 8.53305 5.5458 8.71659 5.36238L10.0221 4.05685L7.8139 1.83464L3.2823 6.35205L5.49052 8.57438L7.01581 7.06309C7.19934 6.87955 7.49664 6.87955 7.68016 7.06309C7.86369 7.24649 7.86369 7.54401 7.68016 7.72744L6.16887 9.23873C5.9897 9.41799 5.75133 9.51687 5.49763 9.51687L5.49764 9.51685ZM12.4116 13.1074H2.27108C2.01163 13.1074 1.80127 12.897 1.80127 12.6375C1.80127 12.3781 2.01163 12.1677 2.27108 12.1677H12.4116C12.671 12.1677 12.8814 12.3781 12.8814 12.6375C12.8814 12.897 12.671 13.1074 12.4116 13.1074Z" fill="currentColor"/>
  <path d="M8.18191 12.883C8.05162 12.883 7.92199 12.8292 7.82908 12.7237C7.65772 12.529 7.67653 12.2322 7.87105 12.0606C8.75404 11.2829 9.23533 10.4662 9.26262 9.69877C9.28579 9.05588 9.00065 8.42824 8.41544 7.83317C8.23352 7.64817 8.23605 7.35073 8.42095 7.16882C8.60585 6.98657 8.90316 6.9893 9.08531 7.17433C9.84784 7.9496 10.2339 8.83416 10.2018 9.7324C10.1642 10.779 9.58908 11.7995 8.4923 12.7658C8.40661 12.8414 8.29621 12.8831 8.18191 12.883Z" fill="currentColor"/>
  <path d="M8.12584 8.14904C7.20113 8.14904 6.44892 7.39672 6.44892 6.472C6.44892 5.54727 7.20113 4.79507 8.12584 4.79507C9.05055 4.79507 9.80278 5.54729 9.80278 6.472C9.80278 7.39671 9.05058 8.14904 8.12584 8.14904ZM8.12584 5.7347C7.71935 5.7347 7.38855 6.06549 7.38855 6.472C7.38855 6.87863 7.71934 7.20942 8.12584 7.20942C8.53235 7.20942 8.86315 6.87863 8.86315 6.472C8.86315 6.06551 8.53236 5.7347 8.12584 5.7347ZM3.42908 10.5954L1.25626 8.42258C1.07278 8.2391 1.07278 7.94163 1.25626 7.75815L1.75449 7.25992L4.59173 10.0972L4.0935 10.5954C3.91003 10.7789 3.61255 10.7789 3.42908 10.5954Z" fill="#currentColor"/>
</svg>
