<svg xmlns="http://www.w3.org/2000/svg" fill="none" viewBox="0 0 14 14" class="design-iconfont">
  <path d="M6.78103 3.94042H5.98835V3.142H5.24326V3.94042H4.44482V4.66968H5.24326V5.47821H5.98835V4.66968H6.78103V3.94042Z" fill="currentColor"/>
  <path d="M11.2369 11.8513V5.83354C11.2369 5.66606 11.1012 5.5303 10.9337 5.5303H9.42587V4.62063H11.0847C11.6712 4.62063 12.1466 5.09608 12.1466 5.68251V11.8513H12.9111C13.1627 11.8513 13.3667 12.0552 13.3667 12.3068C13.3667 12.5584 13.1627 12.7624 12.9111 12.7624H1.08718C0.835684 12.7624 0.631836 12.5585 0.631836 12.307C0.631836 12.0555 0.835684 11.8517 1.08718 11.8517L1.84505 11.8513V2.26618C1.84505 1.72437 2.28427 1.28516 2.82608 1.28516H2.82629L8.44485 1.28576C8.98666 1.28576 9.42589 1.72498 9.42589 2.26678V11.8513H11.2369ZM8.51619 11.8507V2.19483H2.75491V11.8507H8.51619ZM7.60652 7.25491C7.60652 7.50612 7.40287 7.70975 7.15167 7.70975H4.11942C3.86823 7.70975 3.66459 7.50612 3.66459 7.25491C3.66459 7.00372 3.86823 6.80008 4.11942 6.80008H7.15168C7.40287 6.80008 7.60652 7.00371 7.60652 7.25491ZM7.60652 9.61438C7.60652 9.8656 7.40286 10.0692 7.15167 10.0692H4.11942C3.86823 10.0692 3.66459 9.8656 3.66459 9.61438C3.66459 9.36318 3.86823 9.15954 4.11942 9.15954H7.15168C7.40287 9.15954 7.60652 9.36318 7.60652 9.61438Z" fill="currentColor"/>
</svg>
