<svg fill="none" xmlns="http://www.w3.org/2000/svg" viewBox="0 0 44 44" class="design-iconfont">
  <g clip-path="url(#trnhzdxib__clip0_2815_835)">
    <path d="M22 44C34.1503 44 44 34.1503 44 22C44 9.84974 34.1503 0 22 0C9.84974 0 0 9.84974 0 22C0 34.1503 9.84974 44 22 44Z" fill="#D1E3F9"/>
    <mask id="trnhzdxib__37pzvvz0pa" style="mask-type:alpha" maskUnits="userSpaceOnUse" x="0" y="0" width="44" height="44">
      <path d="M22 44C34.1503 44 44 34.1503 44 22C44 9.84974 34.1503 0 22 0C9.84974 0 0 9.84974 0 22C0 34.1503 9.84974 44 22 44Z" fill="#E6ECF3"/>
    </mask>
    <g mask="url(#trnhzdxib__37pzvvz0pa)">
      <path d="M22 45.3746C30.3533 45.3746 37.125 42.6044 37.125 39.1871C37.125 35.7698 30.3533 32.9996 22 32.9996C13.6467 32.9996 6.875 35.7698 6.875 39.1871C6.875 42.6044 13.6467 45.3746 22 45.3746Z" fill="#ABBDD2"/>
      <path d="M20.1855 33.5683V29.7136H24.4032V33.5683H20.1855Z" fill="snow"/>
      <path d="M23.312 33.1409H21.0401L20.646 37.3823L21.7971 39.5937H22.918L23.9608 37.3823L23.312 33.1409Z" fill="#9DAFBF"/>
      <path d="M13.5176 20.7125C13.5176 20.2342 13.9053 19.8465 14.3835 19.8465H15.7855V25.1659C14.533 25.1659 13.5176 24.1505 13.5176 22.898V20.7125Z" fill="snow"/>
      <path d="M30.4828 20.7125C30.4828 20.2342 30.095 19.8465 29.6168 19.8465H28.2148V25.1659C29.4673 25.1659 30.4828 24.1505 30.4828 22.898V20.7125Z" fill="snow"/>
      <path d="M29.3252 20.9392C29.3252 25.8934 26.093 30.6108 22.2819 30.6108C18.4708 30.6108 14.7967 25.9123 14.7967 20.958C14.7967 16.0038 14.1506 13.6177 22.1444 13.6177C30.1383 13.6177 29.3252 15.9848 29.3252 20.9392Z" fill="#FFF9F9"/>
      <path d="M19.6466 31.1115L18.314 32.5049L20.3525 36.6599C20.468 36.8953 20.8161 36.8508 20.8689 36.594L21.6461 32.8078L19.6466 31.1115Z" fill="#fff"/>
      <path d="M25.0087 31.1115L26.3415 32.5049L24.3027 36.6599C24.1874 36.8953 23.8392 36.8508 23.7866 36.594L23.0093 32.8078L25.0087 31.1115Z" fill="#fff"/>
      <path d="M13.5295 18.1779C13.6217 19.6578 14.5543 22.3922 15.094 23.3555C14.7082 18.5768 16.3173 16.5754 16.8827 16.2126C19.1949 18.5635 25.3994 17.6771 27.6346 16.2126C29.1143 17.1684 29.1231 21.2873 29.0588 23.3555C31.0627 18.3072 30.7174 16.2126 29.2916 14.5168C29.1374 12.8212 28.3538 11.1642 27.9813 10.5478H25.3994C25.0654 10.0853 24.3049 9.05251 23.935 8.62077C21.6998 8.19687 16.3432 11.3184 15.9193 11.8193C15.5802 12.3434 15.7779 13.091 15.9193 13.3994L14.1464 14.5168C13.9023 15.1206 13.4373 16.6981 13.5295 18.1779Z" fill="#1A233D"/>
    </g>
  </g>
  <defs>
    <clipPath id="trnhzdxib__clip0_2815_835">
      <rect width="44" height="44" rx="3" fill="#fff"/>
    </clipPath>
  </defs>
</svg>
