<svg xmlns="http://www.w3.org/2000/svg" fill="none" viewBox="0 0 18 18" class="design-iconfont">
  <path d="M12.3786 16.4511H4.33707C3.04467 16.4511 1.99707 15.4035 1.99707 14.1111V3.8232C1.99707 2.5308 3.04467 1.4832 4.33707 1.4832H12.3786C13.671 1.4832 14.7186 2.5308 14.7186 3.8232V14.1111C14.7186 15.4035 13.671 16.4511 12.3786 16.4511Z" fill="#FFAC3E"/>
  <path d="M11.24 5.7312H5.52591C5.12811 5.7312 4.80591 5.409 4.80591 5.0112C4.80591 4.6134 5.12811 4.2912 5.52591 4.2912H11.2409C11.6387 4.2912 11.9609 4.6134 11.9609 5.0112C11.9609 5.409 11.6378 5.7312 11.24 5.7312ZM11.24 8.586H5.52591C5.12811 8.586 4.80591 8.2638 4.80591 7.866C4.80591 7.4682 5.12811 7.146 5.52591 7.146H11.2409C11.6387 7.146 11.9609 7.4682 11.9609 7.866C11.9609 8.2638 11.6378 8.586 11.24 8.586ZM8.26191 11.4408H5.52591C5.12811 11.4408 4.80591 11.1186 4.80591 10.7208C4.80591 10.323 5.12811 10.0008 5.52591 10.0008H8.26191C8.65971 10.0008 8.98191 10.323 8.98191 10.7208C8.98191 11.1186 8.65971 11.4408 8.26191 11.4408Z" fill="#fff"/>
  <path d="M9.84863 13.0626C9.84863 13.5011 9.935 13.9353 10.1028 14.3404C10.2706 14.7455 10.5165 15.1136 10.8266 15.4236C11.1367 15.7337 11.5047 15.9796 11.9099 16.1474C12.315 16.3152 12.7491 16.4016 13.1876 16.4016C13.6261 16.4016 14.0603 16.3152 14.4654 16.1474C14.8705 15.9796 15.2386 15.7337 15.5487 15.4236C15.8587 15.1136 16.1047 14.7455 16.2725 14.3404C16.4403 13.9353 16.5266 13.5011 16.5266 13.0626C16.5266 12.6241 16.4403 12.1899 16.2725 11.7848C16.1047 11.3797 15.8587 11.0116 15.5487 10.7016C15.2386 10.3915 14.8705 10.1456 14.4654 9.97777C14.0603 9.80997 13.6261 9.7236 13.1876 9.7236C12.7491 9.7236 12.315 9.80997 11.9099 9.97777C11.5047 10.1456 11.1367 10.3915 10.8266 10.7016C10.5165 11.0116 10.2706 11.3797 10.1028 11.7848C9.935 12.1899 9.84863 12.6241 9.84863 13.0626Z" fill="#FFAC3E"/>
  <path d="M13.1876 9.7173C11.3435 9.7173 9.84863 11.2122 9.84863 13.0563C9.84863 14.814 11.2067 16.2531 12.9311 16.3845C13.9571 16.137 14.7203 15.2127 14.7203 14.1102V10.089C14.2464 9.84466 13.7209 9.71721 13.1876 9.7173Z" fill="#FF7C0E"/>
  <path d="M10.719 13.0626C10.719 13.2304 10.7857 13.3913 10.9043 13.51C11.023 13.6286 11.1839 13.6953 11.3517 13.6953C11.5195 13.6953 11.6804 13.6286 11.7991 13.51C11.9177 13.3913 11.9844 13.2304 11.9844 13.0626C11.9844 12.8948 11.9177 12.7339 11.7991 12.6152C11.6804 12.4966 11.5195 12.4299 11.3517 12.4299C11.1839 12.4299 11.023 12.4966 10.9043 12.6152C10.7857 12.7339 10.719 12.8948 10.719 13.0626Z" fill="#fff"/>
  <path d="M12.5623 13.0626C12.5623 13.2304 12.6289 13.3913 12.7476 13.51C12.8662 13.6286 13.0272 13.6953 13.195 13.6953C13.3628 13.6953 13.5237 13.6286 13.6423 13.51C13.761 13.3913 13.8277 13.2304 13.8277 13.0626C13.8277 12.8948 13.761 12.7339 13.6423 12.6152C13.5237 12.4966 13.3628 12.4299 13.195 12.4299C13.0272 12.4299 12.8662 12.4966 12.7476 12.6152C12.6289 12.7339 12.5623 12.8948 12.5623 13.0626Z" fill="#fff"/>
  <path d="M14.4055 13.0626C14.4055 13.2304 14.4722 13.3913 14.5908 13.51C14.7095 13.6286 14.8704 13.6953 15.0382 13.6953C15.206 13.6953 15.367 13.6286 15.4856 13.51C15.6043 13.3913 15.6709 13.2304 15.6709 13.0626C15.6709 12.8948 15.6043 12.7339 15.4856 12.6152C15.367 12.4966 15.206 12.4299 15.0382 12.4299C14.8704 12.4299 14.7095 12.4966 14.5908 12.6152C14.4722 12.7339 14.4055 12.8948 14.4055 13.0626Z" fill="#fff"/>
</svg>
