<svg fill="none" xmlns="http://www.w3.org/2000/svg" viewBox="0 0 18 18" class="design-iconfont">
  <path d="M12.2013 16.4511H4.15982C2.86742 16.4511 1.81982 15.4035 1.81982 14.1111V3.8232C1.81982 2.5308 2.86742 1.4832 4.15982 1.4832H12.2013C13.4937 1.4832 14.5413 2.5308 14.5413 3.8232V14.1111C14.5413 15.4035 13.4937 16.4511 12.2013 16.4511Z" fill="#4BE2AC"/>
  <path d="M11.0627 5.7312H5.34769C4.94989 5.7312 4.62769 5.409 4.62769 5.0112C4.62769 4.6134 4.94989 4.2912 5.34769 4.2912H11.0627C11.4605 4.2912 11.7827 4.6134 11.7827 5.0112C11.7827 5.409 11.4605 5.7312 11.0627 5.7312ZM11.0627 8.586H5.34769C4.94989 8.586 4.62769 8.2638 4.62769 7.866C4.62769 7.4682 4.94989 7.146 5.34769 7.146H11.0627C11.4605 7.146 11.7827 7.4682 11.7827 7.866C11.7827 8.2638 11.4605 8.586 11.0627 8.586ZM8.08459 11.4408H5.34769C4.94989 11.4408 4.62769 11.1186 4.62769 10.7208C4.62769 10.323 4.94989 10.0008 5.34769 10.0008H8.08459C8.48239 10.0008 8.80459 10.323 8.80459 10.7208C8.80459 11.1186 8.48149 11.4408 8.08459 11.4408Z" fill="#fff"/>
  <path d="M9.66602 13.0518C9.66602 13.9374 10.0178 14.7866 10.644 15.4128C11.2702 16.039 12.1195 16.3908 13.005 16.3908C13.8906 16.3908 14.7399 16.039 15.366 15.4128C15.9922 14.7866 16.344 13.9374 16.344 13.0518C16.344 12.1662 15.9922 11.317 15.366 10.6908C14.7399 10.0646 13.8906 9.7128 13.005 9.7128C12.1195 9.7128 11.2702 10.0646 10.644 10.6908C10.0178 11.317 9.66602 12.1662 9.66602 13.0518Z" fill="#4BE2AC"/>
  <path d="M13.0094 9.7173C11.1653 9.7173 9.67041 11.2122 9.67041 13.0563C9.67041 14.814 11.0285 16.2531 12.7529 16.3845C13.7789 16.137 14.5421 15.2127 14.5421 14.1102V10.089C14.0682 9.84446 13.5427 9.717 13.0094 9.7173Z" fill="#06CC76"/>
  <path d="M12.4192 14.9229H12.4066C12.2356 14.9193 12.0727 14.8464 11.9566 14.7204L10.8172 13.4856C10.704 13.3628 10.6442 13.2 10.6509 13.0331C10.6577 12.8662 10.7304 12.7088 10.8532 12.5955C10.976 12.4823 11.1388 12.4224 11.3057 12.4292C11.4726 12.4359 11.63 12.5087 11.7433 12.6315L12.4381 13.3839L14.0698 11.7522C14.3155 11.5065 14.7151 11.5065 14.9608 11.7522C15.2065 11.9979 15.2065 12.3975 14.9608 12.6432L12.8656 14.7384C12.7469 14.8563 12.5865 14.9226 12.4192 14.9229Z" fill="#fff"/>
</svg>
