<svg xmlns="http://www.w3.org/2000/svg" fill="none" viewBox="0 0 18 18" class="design-iconfont">
  <path d="M9.12405 9.09756C9.66031 8.68094 10.053 8.10718 10.2472 7.45647C10.4414 6.80576 10.4274 6.11063 10.2072 5.46826C9.98698 4.82588 9.57155 4.26837 9.01898 3.87366C8.46641 3.47894 7.80431 3.26675 7.12524 3.26675C6.44617 3.26675 5.78407 3.47894 5.2315 3.87366C4.67893 4.26837 4.2635 4.82588 4.0433 5.46826C3.82309 6.11063 3.80911 6.80576 4.00331 7.45647C4.19751 8.10718 4.59018 8.68094 5.12643 9.09756C4.04485 9.50389 3.11271 10.2301 2.45413 11.1794C1.79555 12.1287 1.44179 13.2561 1.43994 14.4115V14.94H12.8105V14.4115C12.8087 13.2561 12.4549 12.1287 11.7964 11.1794C11.1378 10.2301 10.2056 9.50389 9.12405 9.09756ZM12.558 8.64C13.5352 8.17533 14.133 7.32672 14.133 6.28506C14.133 4.49091 12.5557 3.10887 10.8465 2.99106C10.3155 2.92734 9.3333 3.03147 9.3333 3.03147C9.3333 3.03147 10.0576 3.65877 10.3342 3.96747C10.5852 4.24728 12.022 6.12504 10.7257 8.36118L10.3387 8.94348L10.8679 9.25479C12.7652 10.3708 13.571 12.4748 13.7327 14.3513L13.7577 14.8142H16.5599V14.272C16.5599 11.844 14.7088 9.45 12.558 8.64Z" fill="#39A5A5"/>
</svg>
