<svg xmlns="http://www.w3.org/2000/svg" fill="none" viewBox="0 0 18 18" class="design-iconfont">
  <path d="M3.80431 5.5458C3.67111 5.5458 3.53791 5.4972 3.43351 5.3991L2.53711 4.554C2.43299 4.45574 2.37213 4.32016 2.36791 4.17706C2.36369 4.03395 2.41645 3.89502 2.51461 3.7908C2.61287 3.68668 2.74845 3.62582 2.89155 3.6216C3.03466 3.61738 3.17358 3.67015 3.27781 3.7683L4.17421 4.6134C4.27833 4.71166 4.33919 4.84724 4.34341 4.99034C4.34762 5.13345 4.29486 5.27237 4.19671 5.3766C4.14632 5.4301 4.08551 5.47271 4.01802 5.50181C3.95053 5.53091 3.8778 5.54588 3.80431 5.5458ZM13.8249 5.5458C13.6818 5.5458 13.5378 5.4891 13.4316 5.3766C13.3335 5.27237 13.2807 5.13345 13.2849 4.99034C13.2891 4.84724 13.35 4.71166 13.4541 4.6134L14.3505 3.7683C14.4547 3.67015 14.5937 3.61738 14.7368 3.6216C14.8799 3.62582 15.0154 3.68668 15.1137 3.7908C15.2119 3.89502 15.2646 4.03395 15.2604 4.17706C15.2562 4.32016 15.1953 4.45574 15.0912 4.554L14.1948 5.3991C14.0949 5.49367 13.9625 5.5462 13.8249 5.5458ZM8.81461 3.9789C8.51671 3.9789 8.27461 3.7368 8.27461 3.4389V2.07C8.27461 1.7721 8.51671 1.53 8.81461 1.53C9.11251 1.53 9.35461 1.7721 9.35461 2.07V3.4389C9.35461 3.7368 9.11251 3.9789 8.81461 3.9789ZM14.9103 14.8581H14.0391V9.5643C14.0391 6.7185 11.7234 4.4028 8.87761 4.4028C6.03181 4.4028 3.71611 6.7185 3.71611 9.5643V14.8581H3.02401C2.72611 14.8581 2.48401 15.1002 2.48401 15.3981C2.48401 15.696 2.72611 15.9381 3.02401 15.9381H14.9103C15.2082 15.9381 15.4503 15.696 15.4503 15.3981C15.4503 15.1002 15.2082 14.8581 14.9103 14.8581ZM10.9602 10.8522L8.85421 13.0914C8.80387 13.1453 8.74296 13.1882 8.67529 13.2175C8.60762 13.2467 8.53464 13.2617 8.46091 13.2615C8.32861 13.2615 8.19541 13.2129 8.09101 13.1148C7.87411 12.9105 7.86331 12.5685 8.06761 12.3516L9.31771 11.0223H7.26121C7.04161 11.0223 6.84451 10.89 6.76171 10.6866C6.67891 10.4832 6.72661 10.2501 6.88321 10.0971L8.93791 8.082C9.04028 7.98181 9.17821 7.92631 9.32145 7.92766C9.46468 7.92901 9.60154 7.9871 9.70201 8.0892C9.80219 8.19158 9.8577 8.3295 9.85635 8.47274C9.855 8.61597 9.79691 8.75283 9.69481 8.8533L8.58421 9.9423H10.5678C10.7829 9.9423 10.9782 10.0701 11.0637 10.2681C11.1483 10.4652 11.1078 10.6947 10.9602 10.8522Z" fill="#FF5757"/>
</svg>
