<svg xmlns="http://www.w3.org/2000/svg" fill="none" viewBox="0 0 18 18" class="design-iconfont">
  <path d="M3.84771 7.52481L8.68971 10.2533C8.77373 10.3012 8.86873 10.3264 8.96542 10.3265C9.06211 10.3267 9.15718 10.3017 9.24132 10.2541L14.151 7.50348V4.84263C14.151 4.83867 14.1521 4.83507 14.1522 4.8312V3.07683C14.1519 2.76177 14.0264 2.45973 13.8034 2.23716C13.5804 2.01459 13.2782 1.88971 12.9631 1.89H5.03715C4.88109 1.8898 4.72653 1.92035 4.58228 1.9799C4.43803 2.03945 4.30693 2.12684 4.19647 2.23707C4.086 2.3473 3.99834 2.47821 3.93848 2.62233C3.87862 2.76645 3.84775 2.92095 3.84762 3.07701V7.52481H3.84771ZM7.5081 5.44734H8.44266V4.51485C8.44266 4.36703 8.50138 4.22526 8.60591 4.12073C8.71044 4.0162 8.85221 3.95748 9.00003 3.95748C9.14785 3.95748 9.28962 4.0162 9.39415 4.12073C9.49868 4.22526 9.5574 4.36703 9.5574 4.51485V5.44734H10.492C10.6395 5.44734 10.7809 5.50594 10.8853 5.61025C10.9896 5.71456 11.0482 5.85603 11.0482 6.00354C11.0482 6.15105 10.9896 6.29253 10.8853 6.39683C10.7809 6.50114 10.6395 6.55974 10.492 6.55974H9.5574V7.49241C9.5574 7.64024 9.49868 7.782 9.39415 7.88653C9.28962 7.99106 9.14785 8.04978 9.00003 8.04978C8.85221 8.04978 8.71044 7.99106 8.60591 7.88653C8.50138 7.782 8.44266 7.64024 8.44266 7.49241V6.55974H7.5081C7.36059 6.55974 7.21911 6.50114 7.11481 6.39683C7.0105 6.29253 6.9519 6.15105 6.9519 6.00354C6.9519 5.85603 7.0105 5.71456 7.11481 5.61025C7.21911 5.50594 7.36059 5.44734 7.5081 5.44734ZM16.0445 6.74802L15.2661 6.05961V8.05275C15.217 8.14627 15.142 8.22369 15.0501 8.27577L9.24006 11.5338C9.15594 11.5814 9.06089 11.6064 8.96422 11.6063C8.86754 11.6062 8.77255 11.581 8.68854 11.5331L2.91603 8.27748C2.84253 8.23505 2.77982 8.17622 2.73279 8.10558V6.1002L1.97346 6.74676C1.83447 6.86504 1.72283 7.01209 1.64627 7.17776C1.5697 7.34343 1.53004 7.52375 1.53003 7.70625V14.9232C1.53531 15.2426 1.66706 15.547 1.89639 15.7695C2.12572 15.9919 2.43392 16.1144 2.7534 16.11H15.2467C15.5661 16.1144 15.8743 15.9919 16.1037 15.7695C16.333 15.547 16.4647 15.2426 16.47 14.9232V7.69194C16.47 7.51344 16.4321 7.33698 16.3587 7.17425C16.2853 7.01152 16.1783 6.86624 16.0445 6.74802Z" fill="#FF813B"/>
</svg>
