<svg fill="none" xmlns="http://www.w3.org/2000/svg" viewBox="0 0 15 14" class="design-iconfont">
  <path d="M5.04514 10.7073C5.04525 10.7438 5.05618 10.7795 5.07654 10.8098C5.09691 10.8401 5.1258 10.8637 5.15956 10.8776C5.19333 10.8915 5.23045 10.8951 5.26625 10.8879C5.30205 10.8807 5.33491 10.863 5.36069 10.8372C5.38647 10.8113 5.40401 10.7784 5.41109 10.7426C5.41817 10.7068 5.41448 10.6697 5.40048 10.6359C5.38649 10.6022 5.36281 10.5734 5.33244 10.5531C5.30207 10.5329 5.26638 10.522 5.22987 10.522C5.18082 10.5222 5.13382 10.5417 5.09919 10.5765C5.06456 10.6112 5.04512 10.6583 5.04514 10.7073ZM10.7756 2.0808C10.7258 2.04153 9.53396 1.11914 7.50641 1.11914C5.48614 1.11914 4.22621 2.0339 4.17357 2.07282L4.0034 2.19882V5.63092C4.0034 6.55016 4.36856 7.43174 5.01856 8.08174C5.66856 8.73174 6.55014 9.0969 7.46938 9.0969C8.38862 9.0969 9.2702 8.73174 9.9202 8.08174C10.5702 7.43174 10.9354 6.55016 10.9354 5.63092V2.20687L10.7756 2.0808ZM6.72731 2.60384H7.08781V2.24229C7.08781 2.18732 7.09864 2.13289 7.11967 2.0821C7.14071 2.03131 7.17154 1.98517 7.21041 1.9463C7.24929 1.90743 7.29543 1.87659 7.34622 1.85555C7.39701 1.83452 7.45144 1.82369 7.50641 1.82369C7.56138 1.82369 7.61581 1.83452 7.6666 1.85555C7.71739 1.87659 7.76353 1.90743 7.8024 1.9463C7.84128 1.98517 7.87211 2.03131 7.89315 2.0821C7.91418 2.13289 7.92501 2.18732 7.92501 2.24229V2.60384H8.28558C8.39483 2.607 8.49854 2.65261 8.5747 2.731C8.65085 2.80939 8.69346 2.91437 8.69346 3.02367C8.69346 3.13296 8.65085 3.23794 8.5747 3.31633C8.49854 3.39472 8.39483 3.44034 8.28558 3.44349H7.92501V3.80504C7.92501 3.86001 7.91418 3.91444 7.89315 3.96523C7.87211 4.01602 7.84128 4.06217 7.8024 4.10104C7.76353 4.13991 7.71739 4.17074 7.6666 4.19178C7.61581 4.21281 7.56138 4.22364 7.50641 4.22364C7.45144 4.22364 7.39701 4.21281 7.34622 4.19178C7.29543 4.17074 7.24929 4.13991 7.21041 4.10104C7.17154 4.06217 7.14071 4.01602 7.11967 3.96523C7.09864 3.91444 7.08781 3.86001 7.08781 3.80504V3.44314H6.72731C6.61898 3.43872 6.51655 3.39257 6.44147 3.31435C6.36638 3.23614 6.32445 3.13191 6.32445 3.02349C6.32445 2.91507 6.36638 2.81085 6.44147 2.73263C6.51655 2.65441 6.61898 2.60827 6.72731 2.60384ZM10.2664 5.6074C10.2442 5.65778 10.2123 5.70326 10.1724 5.74124C10.1325 5.77922 10.0855 5.80893 10.0341 5.82868C9.98274 5.84842 9.92795 5.85781 9.87291 5.85629C9.81787 5.85478 9.76367 5.84239 9.71344 5.81985C9.00508 5.51468 8.24041 5.36204 7.46917 5.37185C6.69853 5.36196 5.93442 5.51424 5.22644 5.8188C5.12473 5.86398 5.00924 5.8669 4.90537 5.82693C4.80151 5.78696 4.71778 5.70736 4.6726 5.60565C4.62742 5.50394 4.6245 5.38845 4.66447 5.28459C4.70444 5.18072 4.78404 5.09699 4.88575 5.05181C5.70097 4.6995 6.58113 4.52247 7.46917 4.5322C8.35799 4.52254 9.23889 4.70003 10.0546 5.05314C10.1561 5.09864 10.2354 5.18255 10.2752 5.28647C10.3149 5.39038 10.3117 5.5058 10.2664 5.6074ZM10.6346 8.54201C10.4125 8.78237 10.1649 8.99782 9.89607 9.18454C9.94876 9.37642 9.9793 9.57371 9.98707 9.77254C10.1674 9.8535 10.3205 9.98482 10.4279 10.1507C10.5354 10.3166 10.5926 10.51 10.5928 10.7077V11.3055C10.5928 11.4165 10.5487 11.523 10.4702 11.6015C10.3917 11.68 10.2852 11.7241 10.1742 11.7241C10.0632 11.7241 9.95669 11.68 9.87818 11.6015C9.79968 11.523 9.75558 11.4165 9.75558 11.3055V10.7077C9.75558 10.6587 9.73612 10.6117 9.70147 10.577C9.66683 10.5424 9.61984 10.5229 9.57085 10.5229C9.52186 10.5229 9.47487 10.5424 9.44023 10.577C9.40558 10.6117 9.38612 10.6587 9.38612 10.7077V11.3055C9.38684 11.3609 9.37654 11.4159 9.35582 11.4673C9.3351 11.5188 9.30438 11.5656 9.26544 11.605C9.22649 11.6445 9.1801 11.6758 9.12895 11.6972C9.0778 11.7185 9.02292 11.7296 8.96748 11.7296C8.91205 11.7296 8.85716 11.7185 8.80602 11.6972C8.75487 11.6758 8.70848 11.6445 8.66953 11.605C8.63059 11.5656 8.59986 11.5188 8.57915 11.4673C8.55843 11.4159 8.54813 11.3609 8.54885 11.3055V10.7077C8.549 10.5113 8.60551 10.3192 8.71165 10.154C8.81779 9.98888 8.96911 9.85766 9.14763 9.77597C9.14448 9.71997 9.13825 9.66397 9.12992 9.60916C8.58352 9.84391 7.99371 9.96063 7.39908 9.95168C6.80446 9.94273 6.21842 9.80831 5.67934 9.55722C5.66546 9.62922 5.65611 9.70203 5.65134 9.7752C5.86434 9.87174 6.03779 10.0384 6.14275 10.2474C6.2477 10.4564 6.2778 10.695 6.22804 10.9235C6.17827 11.152 6.05165 11.3566 5.86929 11.503C5.68694 11.6494 5.45989 11.7288 5.22603 11.7281C4.99217 11.7273 4.76566 11.6463 4.58429 11.4987C4.40292 11.3511 4.27766 11.1457 4.22942 10.9169C4.18119 10.688 4.21289 10.4496 4.31924 10.2413C4.42559 10.033 4.60015 9.86751 4.81379 9.7724C4.82328 9.54839 4.86177 9.32655 4.92831 9.11244C4.70651 8.94928 4.50008 8.76619 4.31161 8.56546C3.63786 8.85323 3.06344 9.3325 2.65962 9.9438C2.2558 10.5551 2.04036 11.2715 2.04004 12.0041C2.04004 12.2358 2.13191 12.458 2.2955 12.622C2.4591 12.7861 2.68107 12.8785 2.91273 12.8791H12.0873C12.319 12.8785 12.541 12.7861 12.7046 12.622C12.8682 12.458 12.96 12.2358 12.96 12.0041C12.9598 11.2614 12.7386 10.5356 12.3244 9.91901C11.9103 9.30245 11.3221 8.82308 10.6346 8.54194V8.54201Z" fill="#fff"/>
</svg>
