<svg fill="none" xmlns="http://www.w3.org/2000/svg" viewBox="0 0 80 80" class="design-iconfont">
  <path d="M48.3176 74.798L55.0608 58.9273L71.202 74.0617L74.8942 70.119L58.7477 54.9846L74.1576 47.2297L33.8897 34.9459L48.3176 74.798ZM37.7771 19.2906C37.7771 21.2343 36.2091 22.8074 34.2704 22.8074C32.3267 22.8074 30.7536 21.2343 30.7536 19.2906V10.2581C30.7486 8.31436 32.3216 6.74631 34.2704 6.74631C36.2091 6.74631 37.7771 8.31444 37.7771 10.2581V19.2906ZM24.0506 22.1912C25.4233 23.5588 25.4233 25.7831 24.0506 27.1558C22.683 28.5234 20.4537 28.5234 19.0859 27.1558L12.6986 20.7685C11.3309 19.4008 11.3309 17.1764 12.6986 15.8089C14.0713 14.4362 16.2956 14.4362 17.6632 15.8089L24.0506 22.1912ZM43.2128 20.8636C41.8451 22.2362 41.8451 24.4605 43.2128 25.8332C44.5803 27.2009 46.8097 27.2009 48.1825 25.8332L54.5597 19.4459C55.9323 18.0782 55.9323 15.8489 54.5597 14.4813C53.1921 13.1086 50.9678 13.1086 49.6001 14.4813L43.2128 20.8636ZM17.3025 33.1072C19.2413 33.1072 20.8143 34.6754 20.8143 36.6192C20.8143 38.5579 19.2462 40.131 17.3025 40.131L8.27008 40.1259C6.32628 40.1259 4.7583 38.5579 4.7583 36.6141C4.7583 34.6754 6.32628 33.1072 8.27008 33.1072H17.3025ZM21.5257 45.321C22.8933 43.9534 25.1176 43.9534 26.4904 45.3309C27.8629 46.6937 27.8629 48.923 26.4954 50.2906L20.1081 56.6729C18.7403 58.0456 16.511 58.0456 15.1434 56.6729C13.7708 55.3004 13.7708 53.076 15.1434 51.7084L21.5257 45.321Z" fill="#E2E2E2"/>
</svg>
