<svg xmlns="http://www.w3.org/2000/svg" fill="none" viewBox="0 0 14 14" class="design-iconfont">
  <path d="M9.9252 6.69541C9.59131 6.69541 9.27393 6.76904 8.98828 6.89853C8.97939 6.88711 8.97178 6.87568 8.96162 6.86553L7.15762 5.06152L9.604 2.61514C9.7627 2.45645 9.74746 2.1835 9.56973 2.00576C9.47451 1.91055 9.35137 1.8623 9.2333 1.8623C9.13174 1.8623 9.03272 1.89912 8.95908 1.97275L6.51396 4.41787L4.06885 1.97275C3.99521 1.89912 3.89746 1.8623 3.79463 1.8623C3.67656 1.8623 3.55469 1.91055 3.4582 2.00576C3.28047 2.1835 3.26523 2.45645 3.42393 2.61514L5.86904 5.06025L4.06631 6.86426C4.05488 6.87568 4.04727 6.88711 4.03838 6.8998C3.75146 6.77031 3.43535 6.69541 3.1002 6.69541C1.84336 6.69541 0.825195 7.71357 0.825195 8.97041C0.825195 10.2272 1.84336 11.2454 3.1002 11.2454C4.35703 11.2454 5.3752 10.2272 5.3752 8.97041C5.3752 8.38008 5.14795 7.84307 4.77852 7.43935L6.5127 5.70518L8.24687 7.43935C7.87744 7.84434 7.6502 8.38008 7.6502 8.97168C7.6502 10.2285 8.66836 11.2467 9.9252 11.2467C11.182 11.2467 12.2002 10.2272 12.2002 8.97041C12.2002 7.71357 11.182 6.69541 9.9252 6.69541ZM3.1002 10.3364C2.34736 10.3364 1.73545 9.72451 1.73545 8.97168C1.73545 8.21885 2.34736 7.60693 3.1002 7.60693C3.85303 7.60693 4.46494 8.21885 4.46494 8.97168C4.46494 9.72324 3.85303 10.3364 3.1002 10.3364ZM9.9252 10.3364C9.17236 10.3364 8.56045 9.72451 8.56045 8.97168C8.56045 8.21885 9.17236 7.60693 9.9252 7.60693C10.678 7.60693 11.2899 8.21885 11.2899 8.97168C11.2899 9.72324 10.678 10.3364 9.9252 10.3364Z" fill="currentColor"/>
</svg>
