<svg xmlns="http://www.w3.org/2000/svg" fill="none" viewBox="0 0 14 14" class="design-iconfont">
  <path d="M5.19175 5.27897L3.03341 7.40814L1.80841 6.2123L1.16675 6.85397L3.03341 8.72064L5.83341 5.92064L5.19175 5.27897ZM5.19175 1.4873L3.03341 3.61647L1.80841 2.42064L1.16675 3.0623L3.03341 4.92897L5.83341 2.12897L5.19175 1.4873ZM5.19175 9.07064L3.03341 11.1998L1.80841 10.004L1.16675 10.6456L3.03341 12.5123L5.83341 9.7123L5.19175 9.07064Z" fill="currentColor"/>
  <path d="M7 6.41667H12.8333V7.58333H7V6.41667ZM7 2.625H12.8333V3.79167H7V2.625ZM7 10.2083H12.8333V11.375H7V10.2083Z" fill="currentColor"/>
</svg>
