<svg xmlns="http://www.w3.org/2000/svg" fill="none" viewBox="0 0 14 14" class="design-iconfont">
  <path d="M6.99449 2.28857L2.14592 7.13743C0.862492 8.42057 0.862492 10.5009 2.14592 11.784C3.42878 13.0671 5.50935 13.0671 6.79249 11.784L11.6411 6.93543C12.9242 5.65229 12.9242 3.57172 11.6411 2.28857C10.3582 1.00572 8.27764 1.00572 6.99449 2.28857ZM2.75164 7.74343L7.60049 2.89486C8.05704 2.44484 8.67299 2.19359 9.31404 2.19588C9.95508 2.19818 10.5692 2.45384 11.0225 2.90711C11.4758 3.36038 11.7316 3.9745 11.7339 4.61554C11.7362 5.25659 11.485 5.87256 11.0351 6.32915L6.18649 11.178C5.72995 11.628 5.114 11.8793 4.47295 11.877C3.8319 11.8747 3.21777 11.619 2.76446 11.1658C2.31115 10.7125 2.05544 10.0984 2.05309 9.45732C2.05074 8.81627 2.30194 8.2003 2.75192 7.74372L2.75164 7.74343Z" fill="currentColor"/>
  <path d="M8.38313 3.51429C8.35824 3.40339 8.37843 3.28715 8.43924 3.19113C8.50005 3.09511 8.59652 3.02718 8.70741 3.00229C9.01315 2.93322 9.33139 2.94273 9.63246 3.02991C9.93353 3.11709 10.2076 3.27911 10.4291 3.50086C10.6519 3.72335 10.8144 3.99886 10.9013 4.30145C10.9882 4.60405 10.9967 4.92378 10.926 5.23057C10.8995 5.34017 10.8308 5.43491 10.7349 5.49424C10.639 5.55357 10.5236 5.57272 10.4137 5.54753C10.3038 5.52235 10.2082 5.45486 10.1477 5.35969C10.0873 5.26453 10.0667 5.14935 10.0906 5.03914C10.1288 4.8738 10.1243 4.70144 10.0775 4.53832C10.0306 4.37521 9.94299 4.22671 9.82284 4.10686C9.70356 3.98735 9.55592 3.90004 9.39373 3.85307C9.23155 3.8061 9.0601 3.80101 8.89541 3.83829C8.84048 3.8507 8.78364 3.85216 8.72815 3.84259C8.67265 3.83302 8.61958 3.81261 8.57198 3.78252C8.52438 3.75243 8.48317 3.71325 8.45072 3.66722C8.41826 3.6212 8.3952 3.56923 8.38284 3.51429H8.38313ZM4.98284 4.84C5.05781 4.76497 5.15793 4.7204 5.26384 4.71491C5.36976 4.70942 5.47395 4.74341 5.55627 4.81029L5.58884 4.83971L9.30313 8.554C9.38177 8.6315 9.42747 8.73635 9.43071 8.84672C9.43394 8.95708 9.39445 9.06443 9.32048 9.1464C9.24651 9.22836 9.14376 9.27862 9.03364 9.28669C8.92353 9.29476 8.81455 9.26002 8.72941 9.18971L8.69684 9.16028L4.98256 5.446C4.94273 5.4062 4.91114 5.35894 4.88958 5.30693C4.86803 5.25491 4.85693 5.19916 4.85693 5.14286C4.85693 5.08655 4.86803 5.0308 4.88958 4.97879C4.91114 4.92677 4.94273 4.87951 4.98256 4.83971L4.98284 4.84Z" fill="currentColor"/>
</svg>
