<svg xmlns="http://www.w3.org/2000/svg" fill="none" viewBox="0 0 15 15" class="design-iconfont">
  <g clip-path="url(#voctoxpdk__clip0_757_2889)" fill="#3263FE">
    <path d="M4.05228 1.37504H11.0522V3.12502H11.9273V1.37504C11.9273 0.892262 11.5359 0.5 11.0522 0.5H4.05228C3.56953 0.5 3.17724 0.892262 3.17724 1.37504V3.12502H4.05228V1.37504ZM13.6773 4.00003H1.42728C0.944536 4.00003 0.552246 4.39217 0.552246 4.87498V9.24999C0.552246 9.73368 0.944508 10.125 1.42728 10.125H3.17727V13.625C3.17727 14.1087 3.56953 14.5 4.0523 14.5H11.0522C11.536 14.5 11.9273 14.1087 11.9273 13.625V10.125H13.6773C14.1609 10.125 14.5522 9.73368 14.5522 9.24999V4.87498C14.5522 4.39217 14.1609 4.00003 13.6773 4.00003ZM11.0522 13.625H4.05228V7.5H11.0522V13.625ZM12.8023 6.62505C12.3186 6.62505 11.9273 6.23368 11.9273 5.75001C11.9273 5.26727 12.3186 4.87498 12.8023 4.87498C13.286 4.87498 13.6773 5.26724 13.6773 5.75001C13.6773 6.23365 13.286 6.62505 12.8023 6.62505Z"/>
    <path d="M4.92725 8.375H8.42727V9.25004H4.92725V8.375ZM4.92725 10.1251H10.1773V10.9999H4.92725V10.1251ZM4.92725 11.8751H10.1773V12.75H4.92725V11.8751Z"/>
  </g>
  <defs>
    <clipPath id="voctoxpdk__clip0_757_2889">
      <path fill="#fff" transform="translate(.552246 .5)" d="M0 0H14V14H0z"/>
    </clipPath>
  </defs>
</svg>
