<svg xmlns="http://www.w3.org/2000/svg" fill="none" viewBox="0 0 14 14" class="design-iconfont">
  <g clip-path="url(#1h3swperr__clip0_48_418)" fill="currentColor">
    <path d="M5.46621 12.7578C5.22556 12.7578 4.98495 12.6662 4.80188 12.4829L1.51698 9.19793C1.33944 9.0206 1.2417 8.78467 1.2417 8.5336C1.2417 8.28253 1.33943 8.04661 1.51698 7.86916L7.28415 2.10198C7.46767 1.91846 7.76496 1.91846 7.94848 2.10198C8.132 2.28539 8.132 2.5829 7.94848 2.76631L2.18131 8.5336L5.46623 11.8186L11.2334 6.05132C11.4169 5.8678 11.7142 5.8678 11.8977 6.05132C12.0812 6.23473 12.0812 6.53225 11.8977 6.71565L6.13054 12.4829C5.94749 12.6662 5.70685 12.7578 5.46621 12.7578Z"/>
    <path d="M1.36237 13.1074C1.24217 13.1074 1.12198 13.0615 1.03022 12.9697C0.846699 12.7862 0.846699 12.4889 1.03022 12.3054L3.06652 10.2689C3.25005 10.0853 3.54733 10.0853 3.73086 10.2689C3.91437 10.4523 3.91437 10.7497 3.73086 10.9332L1.69453 12.9697C1.60278 13.0615 1.48259 13.1074 1.36237 13.1074ZM12.6375 7.92514C12.5173 7.92514 12.3971 7.87927 12.3053 7.78751L6.21243 1.69461C6.02891 1.5112 6.02891 1.21369 6.21243 1.03029C6.39595 0.846775 6.69324 0.846775 6.87676 1.03029L12.9696 7.12318C13.1532 7.30658 13.1532 7.60411 12.9696 7.78751C12.8779 7.87927 12.7577 7.92514 12.6375 7.92514Z"/>
    <path d="M9.81647 4.65308C9.69627 4.65308 9.57607 4.60721 9.48432 4.51544C9.3008 4.33203 9.3008 4.03452 9.48432 3.85112L10.7077 2.62789C10.8912 2.44437 11.1885 2.44437 11.372 2.62789C11.5555 2.81128 11.5555 3.10881 11.372 3.2922L10.1486 4.51544C10.0569 4.60721 9.93666 4.65308 9.81647 4.65308ZM7.43401 10.8541L7.03475 11.2534C6.88856 11.3996 6.64932 11.3996 6.50311 11.2534L5.01829 9.76859C4.87151 9.6218 4.87151 9.38375 5.01829 9.23695L5.41754 8.83771L7.43401 10.8541ZM8.84395 9.60433L8.44469 10.0036C8.2985 10.1498 8.05926 10.1498 7.91305 10.0036L6.42823 8.51877C6.28145 8.37199 6.28145 8.13394 6.42823 7.98714L6.82747 7.58789L8.84395 9.60433Z"/>
  </g>
  <defs>
    <clipPath id="1h3swperr__clip0_48_418">
      <path fill="#fff" d="M0 0H14V14H0z"/>
    </clipPath>
  </defs>
</svg>
