<svg fill="none" xmlns="http://www.w3.org/2000/svg" viewBox="0 0 15 15" class="design-iconfont">
  <g clip-path="url(#y03uz5mtr__clip0_793_121)" fill="#fff">
    <path d="M0.549853 0.703857H6.04839C6.41496 0.703857 6.59824 0.887142 6.59824 1.25371V6.75224C6.59824 7.11881 6.41496 7.3021 6.04839 7.3021H0.549853C0.183284 7.3021 0 7.11881 0 6.75224V1.25371C0 0.887142 0.183284 0.703857 0.549853 0.703857Z"/>
    <path d="M7.15565 3.61184L10.6082 0.159246C10.8674 -0.0999571 11.1266 -0.0999571 11.3858 0.159246L14.8384 3.61184C15.0976 3.87104 15.0976 4.13024 14.8384 4.38944L11.3858 7.84203C11.1266 8.10124 10.8674 8.10124 10.6082 7.84203L7.15565 4.38944C6.89644 4.13024 6.89644 3.87104 7.15565 3.61184Z"/>
    <path d="M0.549853 8.40173H6.04839C6.41496 8.40173 6.59824 8.58502 6.59824 8.95159V14.4501C6.59824 14.8167 6.41496 15 6.04839 15H0.549853C0.183284 15 0 14.8167 0 14.4501V8.95159C0 8.58502 0.183284 8.40173 0.549853 8.40173Z"/>
    <path d="M8.24779 8.40173H13.7463C14.1129 8.40173 14.2962 8.58502 14.2962 8.95159V14.4501C14.2962 14.8167 14.1129 15 13.7463 15H8.24779C7.88122 15 7.69794 14.8167 7.69794 14.4501V8.95159C7.69794 8.58502 7.88122 8.40173 8.24779 8.40173Z"/>
  </g>
  <defs>
    <clipPath id="y03uz5mtr__clip0_793_121">
      <path fill="#fff" d="M0 0H15V15H0z"/>
    </clipPath>
  </defs>
</svg>
