<svg xmlns="http://www.w3.org/2000/svg" fill="none" viewBox="0 0 15 14" class="design-iconfont">
  <path d="M7.5 12.8801C6.33704 12.8801 5.20021 12.5353 4.23325 11.8892C3.26628 11.2431 2.51263 10.3247 2.06759 9.2503C1.62254 8.17587 1.5061 6.9936 1.73298 5.85299C1.95986 4.71238 2.51988 3.66466 3.34221 2.84233C4.16454 2.02 5.21226 1.45998 6.35287 1.2331C7.49348 1.00622 8.67575 1.12266 9.75018 1.56771C10.8246 2.01275 11.7429 2.76641 12.389 3.73337C13.0351 4.70033 13.38 5.83717 13.38 7.00012C13.3782 8.55905 12.7582 10.0536 11.6558 11.156C10.5535 12.2583 9.05893 12.8784 7.5 12.8801ZM7.5 2.01465C6.51397 2.01465 5.55008 2.30704 4.73022 2.85485C3.91036 3.40266 3.27136 4.18129 2.89402 5.09226C2.51669 6.00324 2.41796 7.00565 2.61032 7.97274C2.80269 8.93982 3.27751 9.82815 3.97474 10.5254C4.67197 11.2226 5.56029 11.6974 6.52738 11.8898C7.49447 12.0822 8.49688 11.9834 9.40785 11.6061C10.3188 11.2288 11.0975 10.5898 11.6453 9.7699C12.1931 8.95004 12.4855 7.98615 12.4855 7.00012C12.484 5.67834 11.9583 4.41112 11.0236 3.47648C10.089 2.54184 8.82178 2.01611 7.5 2.01465Z" fill="#3263FE"/>
  <path d="M10.4615 6.55277H7.94681V4.03809H7.05319V6.55277H4.53851V7.44639H7.05319V9.96107H7.94681V7.44639H10.4615V6.55277Z" fill="#FF813B"/>
</svg>
