<svg xmlns="http://www.w3.org/2000/svg" fill="none" viewBox="0 0 15 14" class="design-iconfont">
  <path d="M13.2056 5.45297L13.2091 5.44898L11.574 3.98094V2.42526C11.5743 2.17256 11.4743 1.93007 11.296 1.75099C11.1177 1.5719 10.8757 1.47084 10.623 1.46997H4.44702C4.19432 1.47084 3.95229 1.5719 3.774 1.75099C3.59572 1.93007 3.49574 2.17256 3.496 2.42526V4.04044L1.85653 5.45563L1.85996 5.45962C1.75146 5.57239 1.69059 5.72264 1.69 5.87913V11.7148C1.69331 11.9709 1.79807 12.2154 1.98132 12.3944C2.16457 12.5735 2.41135 12.6726 2.66755 12.67H12.4025C12.6587 12.6726 12.9054 12.5735 13.0887 12.3945C13.272 12.2154 13.3767 11.9709 13.38 11.7148V5.87836C13.3803 5.79948 13.3651 5.72131 13.3351 5.64832C13.3052 5.57533 13.2612 5.50895 13.2056 5.45297ZM12.0091 5.60697L11.574 5.85491V5.21665L12.0091 5.60697ZM4.44702 2.39131H10.623C10.632 2.39135 10.6406 2.39494 10.6469 2.4013C10.6532 2.40767 10.6568 2.41628 10.6568 2.42526V6.37795L7.52079 8.16582L4.413 6.38446V2.42526C4.41299 2.42079 4.41387 2.41637 4.41557 2.41224C4.41728 2.40811 4.41979 2.40436 4.42295 2.40121C4.42611 2.39805 4.42987 2.39555 4.434 2.39386C4.43813 2.39216 4.44256 2.39129 4.44702 2.39131ZM3.496 5.85855L3.076 5.61789L3.496 5.2555V5.85848V5.85855ZM12.463 11.7148C12.4581 11.7262 12.4496 11.7358 12.4387 11.7419C12.4278 11.748 12.4152 11.7504 12.4029 11.7486H2.66755C2.6552 11.7504 2.6426 11.748 2.63173 11.7419C2.62086 11.7358 2.61231 11.7262 2.60742 11.7148V6.41015L7.5196 9.22597L12.4626 6.40805V11.7148L12.463 11.7148Z" fill="#3263FE"/>
  <path d="M9.10908 4.41772H7.97151V3.27588H7.05451V4.41772H5.91687V5.33787H7.05451V6.47936H7.97151V5.33787H9.10908V4.41772Z" fill="#FF813B"/>
</svg>
