<svg xmlns="http://www.w3.org/2000/svg" fill="none" viewBox="0 0 13 12" class="design-iconfont">
  <g clip-path="url(#875wyho8d__clip0_2902_2791)">
    <path d="M2.1401 0.00732526H9.95896C10.2018 -0.00848887 10.4456 0.00131894 10.6864 0.0365864C10.9442 0.102447 11.1826 0.228726 11.3819 0.404984C11.4478 0.465393 11.5053 0.534269 11.5531 0.609811C11.6842 0.796908 11.7708 1.01149 11.8062 1.23717C11.8194 1.34882 11.823 1.4614 11.817 1.57367V6.3681C11.817 6.66832 11.8612 7.07037 11.7313 7.24594C11.6817 7.30443 11.6186 7.35006 11.5475 7.37892C11.4765 7.40778 11.3994 7.41903 11.3231 7.4117C11.2467 7.40437 11.1732 7.37868 11.109 7.33683C11.0447 7.29497 10.9914 7.23819 10.9538 7.17132C10.8978 6.87721 10.8834 6.57668 10.9111 6.27856V2.56562L10.9076 1.34309C10.8909 1.25735 10.8555 1.17633 10.804 1.10579C10.6369 0.879891 10.3809 0.89657 9.99085 0.89657H2.57199C2.41249 0.882953 2.25191 0.888948 2.09387 0.914419C1.98149 0.945711 1.88172 1.0114 1.80857 1.10228C1.69812 1.32101 1.65941 1.56899 1.69796 1.81098V10.1419C1.69796 10.4731 1.67485 10.7181 1.82291 10.9027C1.89728 10.9893 1.99714 11.0501 2.1082 11.0765C2.21219 11.0911 2.31744 11.0946 2.42218 11.087H5.9101L6.25626 11.0941C6.33307 11.1058 6.40544 11.1376 6.46613 11.1861C6.52683 11.2346 6.57372 11.2982 6.60212 11.3706C6.64346 11.4792 6.64173 11.5995 6.59729 11.7069C6.55285 11.8142 6.46906 11.9006 6.36306 11.9482C6.14844 11.9919 5.9284 12.0027 5.71054 11.9801H2.78443C2.51934 11.9988 2.25309 11.9928 1.98911 11.9622C1.73544 11.9112 1.49796 11.7994 1.29709 11.6363C1.04738 11.4234 0.879661 11.1302 0.822765 10.807C0.802456 10.6579 0.796479 10.5072 0.804915 10.357V1.67257C0.795771 1.51542 0.800569 1.35777 0.819253 1.20147C0.845019 1.06859 0.885655 0.939022 0.940394 0.815224C1.02045 0.647103 1.13286 0.496405 1.27118 0.37174C1.4095 0.247074 1.57103 0.150886 1.74654 0.0886711C1.83226 0.0588299 1.92036 0.0363156 2.00989 0.0213706L2.1401 0.00732526ZM3.18501 2.93782H9.14579C9.29305 2.92472 9.44146 2.93669 9.58471 2.97323C9.67937 3.01406 9.75556 3.08848 9.79861 3.18215C9.83955 3.25928 9.8558 3.34713 9.84513 3.4338C9.78105 3.82092 9.54286 3.8379 9.09605 3.8379H3.53644C3.37554 3.85331 3.21325 3.84493 3.0548 3.81302C2.99273 3.78818 2.93675 3.75023 2.89069 3.70177C2.84463 3.6533 2.80957 3.59547 2.7879 3.53222C2.76623 3.46897 2.75847 3.40179 2.76514 3.33526C2.77182 3.26874 2.79277 3.20444 2.82656 3.14675C2.87942 3.06116 2.95996 2.99622 3.0548 2.9627L3.18501 2.93782ZM3.18501 5.22341H5.21427C5.48435 5.22341 5.90864 5.18244 6.08098 5.28369C6.16313 5.33325 6.2273 5.40775 6.26415 5.49633C6.30099 5.58492 6.30858 5.68295 6.28581 5.77615C6.19422 6.16796 5.85421 6.12348 5.37872 6.12348H3.82788C3.56277 6.12348 3.14317 6.16415 2.9755 6.0632C2.92087 6.02616 2.87452 5.97818 2.83938 5.92231C2.80424 5.86644 2.78106 5.80388 2.77133 5.7386C2.76159 5.67331 2.76551 5.60672 2.78282 5.54302C2.80014 5.47933 2.83047 5.41992 2.87192 5.36854C2.92749 5.30739 2.9992 5.26317 3.0788 5.24097L3.18501 5.22341ZM7.48639 6.78595C7.55978 6.78069 7.6335 6.78912 7.7038 6.81082C7.81728 6.85528 7.90846 6.94298 7.95729 7.05464C8.00613 7.1663 8.00862 7.29279 7.96423 7.40629C7.912 7.50154 7.84174 7.58572 7.75735 7.65413L7.25435 8.15742H9.62275C10.0444 8.12467 10.4685 8.14492 10.8851 8.2177C11.1156 8.28931 11.3295 8.40608 11.5145 8.56121C11.6994 8.71635 11.8516 8.90673 11.9622 9.12128C12.1561 9.47982 12.2346 9.88952 12.1869 10.2944C12.1561 10.5502 12.08 10.7985 11.9622 11.0276C11.8401 11.2598 11.6691 11.4627 11.461 11.6224C11.253 11.782 11.0127 11.8947 10.7569 11.9526C10.446 11.9937 10.1317 12.0035 9.8188 11.9818H9.04572C8.91236 11.9928 8.77816 11.9868 8.6463 11.964C8.5439 11.9338 8.45628 11.8668 8.40032 11.7759C8.34435 11.685 8.32399 11.5766 8.34316 11.4715C8.41456 11.0698 8.69224 11.0853 9.15984 11.0853H10.4725C10.6855 11.0586 10.8828 10.9596 11.0315 10.8048C11.1801 10.65 11.2711 10.4488 11.2892 10.235C11.3363 9.98967 11.2929 9.73562 11.167 9.5199C11.0411 9.30418 10.8412 9.14145 10.6045 9.06188C10.4711 9.04132 10.3359 9.03543 10.2012 9.04432H7.25465L7.75764 9.54732C7.82792 9.60745 7.89026 9.67628 7.94316 9.75215C7.97096 9.8055 7.98785 9.86386 7.99283 9.92382C7.99782 9.98377 7.9908 10.0441 7.97219 10.1013C7.95359 10.1585 7.92376 10.2115 7.88446 10.257C7.84516 10.3026 7.79717 10.3398 7.74331 10.3666C7.66479 10.4014 7.5784 10.4144 7.49313 10.4045C7.40785 10.3945 7.32681 10.3618 7.25845 10.3099L6.26679 9.32465L5.95282 9.01301C5.87941 8.95082 5.81579 8.87792 5.76409 8.79677C5.74576 8.74786 5.73491 8.69647 5.7319 8.64432C5.72361 8.54939 5.74191 8.45403 5.78475 8.36891C5.82759 8.2838 5.89329 8.21229 5.97447 8.16239L6.81251 7.33313L7.12999 7.01799C7.18232 6.95735 7.2412 6.90269 7.30556 6.85501C7.36425 6.82778 7.42448 6.80471 7.48639 6.78595Z" fill="#F33D21"/>
  </g>
  <defs>
    <clipPath id="875wyho8d__clip0_2902_2791">
      <path fill="#fff" transform="translate(.5)" d="M0 0H12V12H0z"/>
    </clipPath>
  </defs>
</svg>
