<svg xmlns="http://www.w3.org/2000/svg" fill="none" viewBox="0 0 12 12" class="design-iconfont">
  <g clip-path="url(#s57zkvj68__clip0_2902_2793)">
    <path d="M9.74402 11.04H2.25602C1.91241 11.0396 1.58298 10.9029 1.34002 10.66C1.09705 10.417 0.960387 10.0876 0.960022 9.74396V2.25596C0.960371 1.91235 1.09703 1.58291 1.34 1.33994C1.58297 1.09697 1.91241 0.96031 2.25602 0.959961H9.74402C10.0876 0.960326 10.4171 1.09699 10.66 1.33995C10.903 1.58292 11.0397 1.91235 11.04 2.25596V9.74396C11.0396 10.0876 10.903 10.417 10.66 10.6599C10.417 10.9029 10.0876 11.0396 9.74402 11.04ZM2.25602 1.75316C2.12271 1.75329 1.99489 1.8063 1.90063 1.90057C1.80636 1.99483 1.75335 2.12265 1.75322 2.25596V9.74396C1.75335 9.87727 1.80636 10.0051 1.90063 10.0994C1.99489 10.1936 2.12271 10.2466 2.25602 10.2468H9.74402C9.87731 10.2466 10.0051 10.1936 10.0993 10.0993C10.1936 10.0051 10.2466 9.87731 10.2468 9.74402V2.25596C10.2466 2.12266 10.1936 1.99487 10.0994 1.90061C10.0051 1.80635 9.87732 1.75332 9.74402 1.75316H2.25602Z" fill="#3263FE"/>
    <path d="M8.03503 3.80202L7.40659 3.31836L6.00955 5.1384L4.61245 3.31836L3.98401 3.80202L5.27137 5.47908H4.01275V6.27276H5.60149V6.78672H4.01275V7.5804H5.60149V8.70066H6.39415V7.5804H7.98283V6.78672H6.39415V6.27276H7.98283V5.47908H6.74773L8.03503 3.80202Z" fill="#FF813B"/>
  </g>
  <defs>
    <clipPath id="s57zkvj68__clip0_2902_2793">
      <path fill="#fff" d="M0 0H12V12H0z"/>
    </clipPath>
  </defs>
</svg>
