<svg xmlns="http://www.w3.org/2000/svg" fill="none" viewBox="0 0 15 14" class="design-iconfont">
  <path d="M13.2056 5.45321L13.2091 5.44922L11.5739 3.98119V2.4255C11.5742 2.17281 11.4742 1.93032 11.2959 1.75123C11.1177 1.57215 10.8756 1.47109 10.6229 1.47021H4.44696C4.19426 1.47109 3.95223 1.57215 3.77394 1.75123C3.59566 1.93032 3.49568 2.17281 3.49594 2.4255V4.04069L1.85647 5.45588L1.8599 5.45987C1.7514 5.57264 1.69053 5.72288 1.68994 5.87937V11.715C1.69325 11.9712 1.79801 12.2156 1.98126 12.3947C2.16451 12.5737 2.41129 12.6728 2.66749 12.6702H12.4024C12.6586 12.6728 12.9054 12.5738 13.0886 12.3947C13.2719 12.2156 13.3767 11.9712 13.3799 11.715V5.8786C13.3802 5.79972 13.365 5.72155 13.3351 5.64856C13.3052 5.57557 13.2612 5.50919 13.2056 5.45321ZM12.009 5.60721L11.5739 5.85515V5.21689L12.009 5.60721ZM4.44696 2.39155H10.6229C10.6319 2.39159 10.6405 2.39519 10.6468 2.40155C10.6532 2.40791 10.6567 2.41653 10.6567 2.4255V6.3782L7.52073 8.16607L4.41294 6.3847V2.4255C4.41293 2.42104 4.41381 2.41661 4.41551 2.41249C4.41722 2.40836 4.41973 2.40461 4.42289 2.40145C4.42605 2.3983 4.42981 2.3958 4.43394 2.3941C4.43807 2.3924 4.44249 2.39154 4.44696 2.39155ZM3.49594 5.8588L3.07594 5.61813L3.49594 5.25574V5.85872V5.8588ZM12.4629 11.715C12.458 11.7265 12.4495 11.736 12.4386 11.7421C12.4278 11.7483 12.4152 11.7506 12.4028 11.7489H2.66749C2.65514 11.7506 2.64254 11.7483 2.63167 11.7422C2.62079 11.736 2.61225 11.7265 2.60736 11.715V6.4104L7.51954 9.22621L12.4625 6.4083V11.7151L12.4629 11.715Z" fill="#FF813B"/>
  <path d="M9.10908 4.41772H7.97151V3.27588H7.05451V4.41772H5.91687V5.33787H7.05451V6.47936H7.97151V5.33787H9.10908V4.41772Z" fill="#FF813B"/>
</svg>
