<svg xmlns="http://www.w3.org/2000/svg" fill="none" viewBox="0 0 12 12" class="design-iconfont">
  <path d="M6.75 1.5C7.04837 1.5 7.33452 1.61853 7.5455 1.8295C7.75647 2.04048 7.875 2.32663 7.875 2.625V4.125H5.25C4.96305 4.12498 4.68693 4.23462 4.47815 4.43148C4.26937 4.62834 4.14371 4.89754 4.12688 5.184L4.125 5.25V7.875H2.625C2.32663 7.875 2.04048 7.75647 1.8295 7.5455C1.61853 7.33452 1.5 7.04837 1.5 6.75V2.625C1.5 2.32663 1.61853 2.04048 1.8295 1.8295C2.04048 1.61853 2.32663 1.5 2.625 1.5H6.75Z" fill="#CCD9FF"/>
  <path d="M6.75 1.125C7.14782 1.125 7.52936 1.28304 7.81066 1.56434C8.09196 1.84564 8.25 2.22718 8.25 2.625V4.125H7.5V2.625C7.50006 2.43578 7.4286 2.25354 7.29994 2.11479C7.17128 1.97605 6.99493 1.89107 6.80625 1.87688L6.75 1.875H2.625C2.42609 1.875 2.23532 1.95402 2.09467 2.09467C1.95402 2.23532 1.875 2.42609 1.875 2.625V6.75C1.875 6.94891 1.95402 7.13968 2.09467 7.28033C2.23532 7.42098 2.42609 7.5 2.625 7.5H4.125V8.25H2.625C2.22718 8.25 1.84564 8.09196 1.56434 7.81066C1.28304 7.52936 1.125 7.14782 1.125 6.75V2.625C1.125 2.22718 1.28304 1.84564 1.56434 1.56434C1.84564 1.28304 2.22718 1.125 2.625 1.125H6.75Z" fill="#3263FE"/>
  <path d="M9.375 3.75H5.25C4.85218 3.75 4.47064 3.90804 4.18934 4.18934C3.90804 4.47064 3.75 4.85218 3.75 5.25V9.375C3.75 9.77282 3.90804 10.1544 4.18934 10.4357C4.47064 10.717 4.85218 10.875 5.25 10.875H9.375C9.77282 10.875 10.1544 10.717 10.4357 10.4357C10.717 10.1544 10.875 9.77282 10.875 9.375V5.25C10.875 4.85218 10.717 4.47064 10.4357 4.18934C10.1544 3.90804 9.77282 3.75 9.375 3.75ZM5.25 4.5H9.375C9.57391 4.5 9.76468 4.57902 9.90533 4.71967C10.046 4.86032 10.125 5.05109 10.125 5.25V9.375C10.125 9.57391 10.046 9.76468 9.90533 9.90533C9.76468 10.046 9.57391 10.125 9.375 10.125H5.25C5.05109 10.125 4.86032 10.046 4.71967 9.90533C4.57902 9.76468 4.5 9.57391 4.5 9.375V5.25C4.5 5.05109 4.57902 4.86032 4.71967 4.71967C4.86032 4.57902 5.05109 4.5 5.25 4.5Z" fill="#3263FE"/>
  <path d="M1.5 8.625C1.59946 8.625 1.69484 8.66451 1.76516 8.73483C1.83549 8.80516 1.875 8.90054 1.875 9C1.87498 9.28695 1.98462 9.56307 2.18148 9.77185C2.37834 9.98063 2.64754 10.1063 2.934 10.1231L3 10.125C3.09946 10.125 3.19484 10.1645 3.26516 10.2348C3.33549 10.3052 3.375 10.4005 3.375 10.5C3.375 10.5995 3.33549 10.6948 3.26516 10.7652C3.19484 10.8355 3.09946 10.875 3 10.875C2.50272 10.875 2.02581 10.6775 1.67417 10.3258C1.32254 9.97419 1.125 9.49728 1.125 9C1.125 8.90054 1.16451 8.80516 1.23483 8.73483C1.30516 8.66451 1.40054 8.625 1.5 8.625Z" fill="#FF813B"/>
</svg>
