<svg xmlns="http://www.w3.org/2000/svg" fill="none" viewBox="0 0 15 14" class="design-iconfont">
  <path d="M2.03041 12.95C1.97654 12.95 1.92319 12.9395 1.87341 12.9189C1.82363 12.8983 1.77839 12.8682 1.74028 12.8301C1.70216 12.792 1.67192 12.7468 1.65128 12.6971C1.63065 12.6473 1.62001 12.594 1.62 12.5401V9.62624C1.62 9.51743 1.66322 9.41308 1.74016 9.33614C1.8171 9.2592 1.92145 9.21597 2.03027 9.21597C2.13908 9.21597 2.24343 9.2592 2.32037 9.33614C2.39731 9.41308 2.44054 9.51743 2.44054 9.62624V12.5401C2.44052 12.594 2.42989 12.6473 2.40927 12.697C2.38865 12.7468 2.35844 12.7919 2.32035 12.83C2.28227 12.8681 2.23706 12.8982 2.18731 12.9188C2.13756 12.9394 2.08425 12.95 2.03041 12.95ZM5.7913 12.95C5.73745 12.95 5.68413 12.9395 5.63438 12.9189C5.58462 12.8983 5.5394 12.8681 5.50131 12.8301C5.46321 12.7921 5.43298 12.7469 5.41234 12.6971C5.3917 12.6474 5.38106 12.5941 5.38102 12.5403V8.07098C5.38102 7.96217 5.42425 7.85782 5.50119 7.78088C5.57813 7.70394 5.68248 7.66071 5.7913 7.66071C5.90011 7.66071 6.00446 7.70394 6.0814 7.78088C6.15834 7.85782 6.20156 7.96217 6.20156 8.07098V12.5405C6.20143 12.6492 6.15814 12.7534 6.08121 12.8302C6.00427 12.907 5.89999 12.9501 5.7913 12.95ZM9.4383 12.95C9.38445 12.95 9.33112 12.9395 9.28136 12.9189C9.23159 12.8983 9.18637 12.8682 9.14826 12.8301C9.11016 12.7921 9.07992 12.7469 9.05928 12.6972C9.03863 12.6474 9.02799 12.5941 9.02795 12.5403V6.81861C9.02936 6.71072 9.07321 6.60773 9.15001 6.53193C9.2268 6.45613 9.33036 6.41363 9.43826 6.41363C9.54616 6.41363 9.64972 6.45613 9.72651 6.53193C9.80331 6.60773 9.84716 6.71072 9.84857 6.81861V12.5401C9.84855 12.594 9.83792 12.6473 9.81728 12.6971C9.79665 12.7468 9.76642 12.792 9.72831 12.8301C9.6902 12.8681 9.64497 12.8983 9.5952 12.9189C9.54542 12.9395 9.49215 12.95 9.4383 12.95ZM13.0396 12.95C12.9857 12.95 12.9324 12.9395 12.8827 12.9189C12.8329 12.8983 12.7877 12.8681 12.7496 12.8301C12.7115 12.7921 12.6813 12.7469 12.6606 12.6971C12.64 12.6474 12.6294 12.5941 12.6293 12.5403V5.08849C12.6293 4.97968 12.6725 4.87533 12.7495 4.79839C12.8264 4.72145 12.9308 4.67822 13.0396 4.67822C13.1484 4.67822 13.2527 4.72145 13.3297 4.79839C13.4066 4.87533 13.4499 4.97968 13.4499 5.08849V12.5401C13.4498 12.594 13.4392 12.6473 13.4186 12.6971C13.3979 12.7468 13.3677 12.792 13.3296 12.8301C13.2915 12.8681 13.2463 12.8983 13.1965 12.9189C13.1467 12.9395 13.0934 12.95 13.0396 12.95Z" fill="#3263FE"/>
  <path d="M12.7933 1.11966H10.6225C10.5686 1.11896 10.5151 1.12897 10.465 1.14911C10.415 1.16925 10.3695 1.19913 10.3311 1.23701C10.2928 1.27489 10.2623 1.32001 10.2415 1.36976C10.2207 1.41951 10.21 1.4729 10.21 1.52682C10.21 1.58074 10.2207 1.63413 10.2415 1.68388C10.2623 1.73363 10.2928 1.77875 10.3311 1.81663C10.3695 1.85451 10.415 1.88438 10.465 1.90453C10.5151 1.92467 10.5686 1.93468 10.6225 1.93397H11.9578L8.05735 5.21697L6.62375 3.67886C6.50589 3.55218 6.34362 3.47595 6.17086 3.46611C5.9981 3.45628 5.82823 3.5136 5.69674 3.62608L1.90288 6.85798C1.86206 6.89262 1.82851 6.93501 1.80417 6.98269C1.77984 7.03038 1.7652 7.08242 1.7611 7.1358C1.75701 7.18918 1.76354 7.24284 1.78032 7.29368C1.7971 7.34452 1.82379 7.39153 1.85885 7.43198C1.9302 7.51393 2.03097 7.56446 2.13931 7.57263C2.24766 7.58079 2.35486 7.54593 2.43768 7.47559L6.12045 4.33819L7.55342 5.87532C7.6709 6.00136 7.83234 6.07742 8.00433 6.08775C8.17632 6.09809 8.3457 6.0419 8.47742 5.93083L12.5379 2.51371V3.80402C12.5393 3.91195 12.5832 4.01498 12.66 4.09081C12.7368 4.16663 12.8404 4.20914 12.9484 4.20914C13.0563 4.20914 13.1599 4.16663 13.2367 4.09081C13.3135 4.01498 13.3574 3.91195 13.3588 3.80402V1.68078C13.3581 1.53143 13.2981 1.38847 13.1921 1.28327C13.0861 1.17808 12.9426 1.11924 12.7933 1.11966Z" fill="#FF813B"/>
</svg>
