<svg fill="none" xmlns="http://www.w3.org/2000/svg" viewBox="0 0 15 14" class="design-iconfont">
  <path d="M10.6951 10.6398C10.5799 10.6384 10.4698 10.5916 10.3888 10.5096C10.3079 10.4276 10.2624 10.3169 10.2624 10.2017C10.2624 10.0864 10.3079 9.9758 10.3888 9.89379C10.4698 9.81178 10.5799 9.76497 10.6951 9.76351C11.2184 9.7599 11.7191 9.54964 12.0881 9.17852C12.2635 9.00619 12.403 8.80076 12.4985 8.57413C12.594 8.34749 12.6435 8.10417 12.6443 7.85826C12.6444 7.39022 12.4714 6.93869 12.1585 6.59058C11.8456 6.24248 11.4151 6.0224 10.9497 5.97273C10.8089 5.9576 10.6777 5.89406 10.5785 5.79297C10.4793 5.69188 10.4182 5.55949 10.4057 5.4184C10.341 4.67431 9.99919 3.98165 9.44803 3.47758C8.89686 2.97351 8.1765 2.69478 7.42959 2.6966C6.68269 2.69841 5.96369 2.98063 5.41497 3.48737C4.86626 3.99411 4.52784 4.68842 4.46671 5.43282C4.45566 5.56916 4.39903 5.69781 4.30595 5.79804C4.21287 5.89827 4.08876 5.96424 3.95361 5.98533C3.50191 6.05942 3.0919 6.29345 2.79843 6.64473C2.50495 6.99601 2.34758 7.44111 2.35502 7.89878C2.37406 8.92701 3.25067 9.76351 4.30914 9.76351C4.42439 9.76497 4.53443 9.81178 4.61541 9.89379C4.69639 9.9758 4.7418 10.0864 4.7418 10.2017C4.7418 10.3169 4.69639 10.4276 4.61541 10.5096C4.53443 10.5916 4.42439 10.6384 4.30914 10.6398C2.77691 10.6398 1.50802 9.41751 1.48002 7.91503C1.47002 7.28125 1.67614 6.66297 2.06445 6.16199C2.45277 5.66101 3.00011 5.30721 3.61635 5.15885C3.74087 4.23644 4.19489 3.39022 4.89459 2.77642C5.5943 2.16262 6.49244 1.82268 7.42321 1.81936C8.35397 1.81604 9.25452 2.14957 9.95858 2.75836C10.6626 3.36716 11.1227 4.21012 11.2538 5.13162C11.8903 5.2495 12.4655 5.58656 12.8795 6.08429C13.2935 6.58201 13.5201 7.20898 13.52 7.85636C13.5199 8.21757 13.448 8.57515 13.3086 8.90838C13.1692 9.24161 12.9651 9.54385 12.708 9.79761C12.1744 10.3329 11.4509 10.6357 10.6951 10.6398Z" fill="#3263FE"/>
  <path d="M9.87897 9.93518C9.84261 9.89048 9.7978 9.85339 9.7471 9.82603C9.69639 9.79867 9.64079 9.78157 9.58347 9.77572C9.52615 9.76987 9.46824 9.77538 9.41306 9.79193C9.35787 9.80848 9.30649 9.83575 9.26185 9.87218L7.94802 10.9425V6.98748C7.94802 6.87114 7.9018 6.75957 7.81954 6.67731C7.73728 6.59504 7.6257 6.54883 7.50936 6.54883C7.39303 6.54883 7.28145 6.59504 7.19919 6.67731C7.11692 6.75957 7.07071 6.87114 7.07071 6.98748V10.9421L5.75702 9.87197C5.66671 9.79852 5.55092 9.76395 5.43512 9.77587C5.31932 9.78779 5.213 9.84522 5.13955 9.93553C5.0661 10.0258 5.03153 10.1416 5.04345 10.2574C5.05537 10.3732 5.1128 10.4796 5.20311 10.553L7.12111 12.1158C7.23096 12.2048 7.36802 12.2533 7.50936 12.2533C7.65071 12.2533 7.78777 12.2048 7.89762 12.1158L9.81562 10.553C9.90588 10.4794 9.96324 10.373 9.97512 10.2572C9.987 10.1414 9.95242 10.0255 9.87897 9.93518Z" fill="#FF813B"/>
</svg>
