<svg xmlns="http://www.w3.org/2000/svg" fill="none" viewBox="0 0 12 12" class="design-iconfont">
  <path d="M8.63905 5.71637C8.51483 5.71637 8.38944 5.66833 8.29452 5.57341C8.10468 5.38356 8.10468 5.07419 8.29452 4.88434L9.44764 3.73122L7.90663 2.18903L6.7535 3.34216C6.56366 3.532 6.25428 3.532 6.06444 3.34216C5.8746 3.15231 5.8746 2.84294 6.06444 2.65309L7.29725 1.41911C7.44725 1.26911 7.64178 1.17536 7.84452 1.15544C8.07772 1.132 8.30741 1.21052 8.46796 1.37223L10.2656 3.16872C10.4262 3.32927 10.5058 3.55661 10.4824 3.79216C10.4625 3.99489 10.3687 4.18942 10.2187 4.33942L8.98358 5.57341C8.88866 5.66833 8.76444 5.71637 8.63905 5.71637Z" fill="#FF813B"/>
  <path d="M8.66015 5.69541C8.53593 5.69541 8.41054 5.64736 8.31562 5.55244L6.08437 3.32119C5.89453 3.13135 5.89453 2.82197 6.08437 2.63213C6.27421 2.44229 6.58359 2.44229 6.77343 2.63213L9.00468 4.86338C9.19453 5.05322 9.19453 5.3626 9.00468 5.55244C8.90976 5.64853 8.78437 5.69541 8.66015 5.69541Z" fill="#FF813B"/>
  <path d="M2.80665 9.46523C2.6379 9.46523 2.47618 9.39961 2.35665 9.28125C2.20782 9.13359 2.14337 8.91914 2.18322 8.70938L2.61447 6.42305C2.66251 6.16758 2.79259 5.92383 2.98243 5.73516L6.06447 2.65313C6.25431 2.46328 6.56368 2.46328 6.75353 2.65313C6.94337 2.84297 6.94337 3.15234 6.75353 3.34219L3.6715 6.42422C3.61993 6.47578 3.58478 6.53906 3.57306 6.60352L3.23322 8.40469L5.03439 8.06484C5.09884 8.05313 5.16212 8.01797 5.21368 7.96641L8.29689 4.88437C8.48673 4.69453 8.79611 4.69453 8.98595 4.88437C9.17579 5.07422 9.17579 5.38359 8.98595 5.57344L5.90392 8.65547C5.71525 8.84414 5.47032 8.97539 5.21603 9.02344L2.93087 9.45469C2.88751 9.46172 2.8465 9.46523 2.80665 9.46523ZM10.3313 10.9008H1.67579C1.40626 10.9008 1.18829 10.6828 1.18829 10.4133C1.18829 10.1437 1.40626 9.92578 1.67579 9.92578H10.3324C10.602 9.92578 10.8199 10.1437 10.8199 10.4133C10.8188 10.6828 10.6008 10.9008 10.3313 10.9008Z" fill="#3263FE"/>
</svg>
