<svg xmlns="http://www.w3.org/2000/svg" fill="none" viewBox="0 0 13 12" class="design-iconfont">
  <path d="M6.3185 2.87628C6.41822 2.78876 6.47909 2.6652 6.48772 2.5328C6.49634 2.4004 6.45202 2.27 6.3645 2.17028C6.27698 2.07056 6.15343 2.00969 6.02103 2.00106C5.88862 1.99243 5.75822 2.03676 5.6585 2.12428L2.099 5.24828C1.99202 5.34224 1.90634 5.45796 1.84769 5.58771C1.78904 5.71746 1.75877 5.85823 1.75891 6.00062C1.75905 6.143 1.7896 6.28372 1.84851 6.41335C1.90742 6.54297 1.99333 6.65853 2.1005 6.75228L5.6705 9.87678C5.71994 9.92005 5.77742 9.95316 5.83966 9.97421C5.9019 9.99527 5.96767 10.0039 6.03323 9.99949C6.09879 9.99513 6.16285 9.9779 6.22175 9.94878C6.28064 9.91965 6.33323 9.87922 6.3765 9.82978C6.41977 9.78033 6.45288 9.72285 6.47393 9.66061C6.49499 9.59838 6.50358 9.5326 6.49922 9.46704C6.49485 9.40148 6.47762 9.33743 6.4485 9.27853C6.41938 9.21963 6.37894 9.16705 6.3295 9.12378L2.759 6.00028L6.3185 2.87678V2.87628Z" fill="#3263FE"/>
  <path d="M10.8185 2.87628C10.8679 2.83294 10.9082 2.7803 10.9373 2.72137C10.9663 2.66244 10.9834 2.59836 10.9877 2.5328C10.992 2.46724 10.9833 2.40149 10.9622 2.33928C10.941 2.27708 10.9078 2.21965 10.8645 2.17028C10.8212 2.1209 10.7685 2.08054 10.7096 2.05151C10.6507 2.02247 10.5866 2.00533 10.521 2.00106C10.4555 1.99679 10.3897 2.00547 10.3275 2.02661C10.2653 2.04775 10.2079 2.08094 10.1585 2.12428L6.599 5.24828C6.49202 5.34224 6.40634 5.45796 6.34769 5.58771C6.28904 5.71746 6.25877 5.85823 6.25891 6.00062C6.25905 6.143 6.2896 6.28372 6.34851 6.41334C6.40742 6.54297 6.49333 6.65853 6.6005 6.75228L10.1705 9.87678C10.2199 9.92005 10.2774 9.95316 10.3397 9.97421C10.4019 9.99527 10.4677 10.0039 10.5332 9.99949C10.5988 9.99513 10.6628 9.9779 10.7217 9.94877C10.7806 9.91965 10.8332 9.87922 10.8765 9.82978C10.9198 9.78033 10.9529 9.72285 10.9739 9.66061C10.995 9.59838 11.0036 9.5326 10.9992 9.46704C10.9949 9.40148 10.9776 9.33743 10.9485 9.27853C10.9194 9.21963 10.8789 9.16705 10.8295 9.12378L7.259 6.00028L10.8185 2.87678V2.87628Z" fill="#FF813B"/>
</svg>
