<svg xmlns="http://www.w3.org/2000/svg" fill="none" viewBox="0 0 36 36" class="design-iconfont">
  <rect width="36" height="36" rx="10" fill="#EBDCFC"/>
  <path d="M16.6554 17.5998C16.1821 17.3239 15.7768 16.9453 15.4692 16.4919C14.4 14.8701 14.7744 12.3195 16.7094 11.3331C17.9181 10.7166 19.4652 11.0361 20.3562 12.1278C21.33 13.3203 21.51 14.6289 20.8908 16.0473C20.6433 16.6134 20.3013 17.0976 19.7892 17.4531C19.7511 17.4809 19.7148 17.511 19.6803 17.5431C19.6664 17.5627 19.6543 17.5834 19.6443 17.6052C19.7595 17.6331 19.8675 17.6556 19.9737 17.6853C21.3021 18.0651 22.4154 18.7518 23.1831 19.9353C23.6042 20.5868 23.8832 21.3198 24.0021 22.0863C24.0858 22.6426 24.1408 23.2029 24.1668 23.7648C24.1929 24.2472 23.9472 24.528 23.436 24.6792C22.806 24.8673 22.1517 24.8907 21.501 24.906C18.9972 24.9672 16.4925 24.9879 13.9905 24.8673C13.5982 24.8426 13.2094 24.7793 12.8295 24.6783C12.2733 24.5388 12.0807 24.2382 12.0969 23.6685C12.1039 22.9286 12.2061 22.1926 12.4011 21.4788C12.9411 19.6437 14.1201 18.4242 15.9237 17.8032C16.0389 17.7636 16.155 17.724 16.272 17.6907C16.389 17.6574 16.4925 17.6403 16.6554 17.5998Z" fill="#9263CA"/>
  <path d="M14.4747 11.9536C13.4271 13.7536 13.4847 15.5329 14.5962 17.3095C12.2454 18.4624 11.205 20.4802 10.9134 22.9984C10.4787 23.0083 10.0467 23.0254 9.6534 22.8283C9.5193 22.7608 9.3636 22.5943 9.3492 22.4593C9.3024 22.0039 9.2592 21.5368 9.3159 21.0859C9.45228 19.8426 10.0652 18.7007 11.0259 17.8999C11.4932 17.5036 12.0383 17.2096 12.6261 17.0368L12.8529 16.9666C12.1635 16.5841 11.7162 16.0396 11.5029 15.3115C11.3958 14.9632 11.3601 14.597 11.398 14.2346C11.4359 13.8723 11.5466 13.5213 11.7234 13.2028C12.2877 12.1498 13.4307 11.6386 14.4747 11.9536ZM21.5523 17.3086C22.6962 15.5176 22.6908 13.7248 21.6693 11.8987C21.921 11.8171 22.1864 11.7861 22.4502 11.8072C22.714 11.8284 22.971 11.9014 23.2065 12.022C24.1263 12.4828 24.6321 13.2442 24.7086 14.2594C24.7878 15.3079 24.4107 16.1728 23.5386 16.7956C23.4473 16.8537 23.353 16.9069 23.256 16.9549C23.2964 16.9794 23.3385 17.0011 23.382 17.0197C25.317 17.6704 26.4024 19.0537 26.7804 21.0184C26.8632 21.4504 26.8416 21.9067 26.8299 22.3504C26.8227 22.6483 26.6184 22.8418 26.334 22.8958C25.9794 22.9642 25.614 22.9912 25.2333 23.0389C24.9705 20.4739 23.913 18.4687 21.5523 17.3086Z" fill="#9263CA"/>
</svg>
