<svg xmlns="http://www.w3.org/2000/svg" fill="none" viewBox="0 0 15 15" class="design-iconfont">
  <path d="M5.47669 4.46454H13.572C14.1789 4.46454 14.5842 4.05925 14.5842 3.45237C14.5842 2.84548 14.1789 2.44019 13.572 2.44019H5.47669C4.8698 2.44019 4.46451 2.84548 4.46451 3.45237C4.46451 4.05925 4.8698 4.46454 5.47669 4.46454ZM13.572 6.4889H5.47669C4.8698 6.4889 4.46451 6.8942 4.46451 7.50108C4.46451 8.10797 4.8698 8.51326 5.47669 8.51326H13.572C14.1789 8.51326 14.5842 8.10797 14.5842 7.50108C14.5842 6.8921 14.1789 6.4889 13.572 6.4889ZM13.572 10.5355H5.47669C4.8698 10.5355 4.46451 10.9408 4.46451 11.5477C4.46451 12.1546 4.8698 12.5599 5.47669 12.5599H13.572C14.1789 12.5599 14.5842 12.1546 14.5842 11.5477C14.5842 10.9408 14.1789 10.5355 13.572 10.5355ZM1.42797 2.44019C0.821079 2.44019 0.415787 2.84548 0.415787 3.45237C0.415787 4.05925 0.821079 4.46454 1.42797 4.46454C2.03485 4.46454 2.44015 4.05925 2.44015 3.45237C2.44015 2.84548 2.03485 2.44019 1.42797 2.44019ZM1.42797 6.4889C0.821079 6.4889 0.415787 6.8942 0.415787 7.50108C0.415787 8.10797 0.821079 8.51326 1.42797 8.51326C2.03485 8.51326 2.44015 8.10797 2.44015 7.50108C2.44015 6.8942 2.03485 6.4889 1.42797 6.4889ZM1.42797 10.5355C0.821079 10.5355 0.415787 10.9408 0.415787 11.5477C0.415787 12.1546 0.821079 12.5599 1.42797 12.5599C2.03485 12.5599 2.44015 12.1546 2.44015 11.5477C2.44015 10.9408 2.03485 10.5355 1.42797 10.5355Z" fill="#fff"/>
</svg>
