<svg xmlns="http://www.w3.org/2000/svg" fill="none" viewBox="0 0 12 12" class="design-iconfont">
  <path d="M5.94049 9.12383C5.89111 9.16717 5.85076 9.21981 5.82172 9.27874C5.79269 9.33767 5.77554 9.40175 5.77127 9.46731C5.767 9.53287 5.77568 9.59862 5.79683 9.66083C5.81797 9.72303 5.85115 9.78046 5.89449 9.82983C5.93783 9.87921 5.99046 9.91957 6.0494 9.9486C6.10833 9.97764 6.1724 9.99478 6.23796 9.99905C6.30352 10.0033 6.36928 9.99464 6.43148 9.9735C6.49368 9.95236 6.55111 9.91917 6.60049 9.87583L10.1595 6.75183C10.2665 6.65791 10.3522 6.54221 10.4109 6.41248C10.4696 6.28276 10.4999 6.14199 10.4998 5.99961C10.4997 5.85722 10.4692 5.7165 10.4104 5.58685C10.3515 5.4572 10.2656 5.34162 10.1585 5.24783L6.58849 2.12333C6.53905 2.08006 6.48157 2.04696 6.41933 2.0259C6.35709 2.00484 6.29131 1.99625 6.22576 2.00062C6.1602 2.00498 6.09614 2.02222 6.03724 2.05134C5.97835 2.08046 5.92576 2.12089 5.88249 2.17033C5.7951 2.27019 5.75096 2.40067 5.75977 2.53307C5.76859 2.66547 5.82964 2.78895 5.92949 2.87633L9.49999 5.99983L5.94049 9.12333V9.12383Z" fill="#3263FE"/>
  <path d="M1.44049 9.12383C1.39111 9.16717 1.35076 9.21981 1.32172 9.27874C1.29269 9.33767 1.27554 9.40175 1.27127 9.46731C1.267 9.53287 1.27568 9.59862 1.29683 9.66083C1.31797 9.72303 1.35115 9.78046 1.39449 9.82983C1.43783 9.87921 1.49046 9.91957 1.5494 9.9486C1.60833 9.97764 1.67241 9.99478 1.73796 9.99905C1.80352 10.0033 1.86928 9.99464 1.93148 9.9735C1.99368 9.95236 2.05111 9.91917 2.10049 9.87583L5.65949 6.75183C5.7665 6.65791 5.85222 6.54221 5.91092 6.41248C5.96961 6.28276 5.99992 6.14199 5.99983 5.99961C5.99973 5.85722 5.96923 5.7165 5.91037 5.58685C5.8515 5.4572 5.76563 5.34162 5.65849 5.24783L2.08849 2.12333C2.03905 2.08006 1.98157 2.04696 1.91933 2.0259C1.85709 2.00484 1.79131 1.99625 1.72576 2.00062C1.6602 2.00498 1.59614 2.02222 1.53724 2.05134C1.47835 2.08046 1.42576 2.12089 1.38249 2.17033C1.2951 2.27019 1.25096 2.40067 1.25977 2.53307C1.26414 2.59863 1.28137 2.66268 1.31049 2.72158C1.33961 2.78048 1.38005 2.83306 1.42949 2.87633L4.99999 5.99983L1.44049 9.12333V9.12383Z" fill="#FF813B"/>
</svg>
