<svg xmlns="http://www.w3.org/2000/svg" fill="none" viewBox="0 0 36 36" class="design-iconfont">
  <rect width="36" height="36" rx="10" fill="#FFE7E3"/>
  <path d="M17.424 15.2424C17.2349 15.2424 17.0501 15.2984 16.8929 15.4035C16.7358 15.5085 16.6132 15.6578 16.5409 15.8324C16.4685 16.0071 16.4496 16.1993 16.4865 16.3847C16.5233 16.5701 16.6144 16.7405 16.7481 16.8742C16.8817 17.0078 17.052 17.0989 17.2375 17.1358C17.4229 17.1727 17.6151 17.1538 17.7897 17.0814C17.9644 17.0091 18.1137 16.8866 18.2188 16.7294C18.3238 16.5722 18.3799 16.3874 18.3799 16.1984C18.3796 15.9449 18.2788 15.7019 18.0996 15.5227C17.9204 15.3435 17.6774 15.2427 17.424 15.2424ZM16.646 19.7299C16.5766 19.7299 16.5088 19.7505 16.451 19.789C16.3933 19.8276 16.3483 19.8824 16.3218 19.9465C16.2952 20.0107 16.2882 20.0813 16.3018 20.1493C16.3153 20.2174 16.3488 20.28 16.3978 20.3291C16.4469 20.3782 16.5095 20.4116 16.5776 20.4251C16.6457 20.4387 16.7162 20.4317 16.7804 20.4052C16.8445 20.3786 16.8993 20.3336 16.9379 20.2759C16.9765 20.2182 16.997 20.1503 16.997 20.0809C16.9969 19.9878 16.9599 19.8986 16.8941 19.8328C16.8283 19.767 16.7391 19.73 16.646 19.7299ZM20.093 18.8356C20.0236 18.8356 19.9558 18.8562 19.898 18.8948C19.8403 18.9334 19.7953 18.9882 19.7688 19.0523C19.7422 19.1164 19.7352 19.187 19.7488 19.2551C19.7623 19.3232 19.7958 19.3857 19.8448 19.4348C19.8939 19.4839 19.9565 19.5173 20.0246 19.5309C20.0927 19.5444 20.1632 19.5375 20.2274 19.5109C20.2915 19.4843 20.3463 19.4394 20.3849 19.3816C20.4235 19.3239 20.444 19.2561 20.444 19.1866C20.4439 19.0935 20.4068 19.0043 20.341 18.9385C20.2751 18.8727 20.1859 18.8357 20.0928 18.8356H20.093ZM25.2106 17.0644H24.7363C24.6437 17.0644 24.5548 17.1012 24.4893 17.1668C24.4238 17.2323 24.3869 17.3211 24.3869 17.4138H23.5254C23.4173 16.3475 23.0014 15.3356 22.3284 14.5014L22.9314 13.8984C22.9638 13.9309 23.0023 13.9566 23.0447 13.9741C23.0871 13.9917 23.1325 14.0007 23.1784 14.0007C23.2243 14.0007 23.2697 13.9917 23.3121 13.9741C23.3545 13.9566 23.393 13.9309 23.4255 13.8984L23.7608 13.5631C23.7933 13.5306 23.819 13.4921 23.8366 13.4497C23.8541 13.4073 23.8632 13.3619 23.8632 13.316C23.8632 13.2701 23.8541 13.2246 23.8366 13.1822C23.819 13.1398 23.7933 13.1013 23.7608 13.0689L22.9313 12.2394C22.8988 12.207 22.8603 12.1813 22.8179 12.1637C22.7755 12.1461 22.7301 12.1371 22.6842 12.1371C22.6384 12.1371 22.5929 12.1461 22.5505 12.1637C22.5081 12.1813 22.4696 12.207 22.4372 12.2394L22.1018 12.5747C22.0694 12.6071 22.0436 12.6456 22.026 12.688C22.0085 12.7304 21.9994 12.7759 21.9994 12.8218C21.9994 12.8677 22.0085 12.9131 22.026 12.9555C22.0436 12.9979 22.0694 13.0364 22.1018 13.0689L21.5023 13.6685C20.6694 12.9882 19.6562 12.5656 18.5868 12.4525V11.6135C18.6795 11.6135 18.7683 11.5767 18.8339 11.5112C18.8994 11.4456 18.9362 11.3568 18.9362 11.2641V10.7898C18.9362 10.7439 18.9271 10.6985 18.9096 10.6561C18.892 10.6137 18.8662 10.5751 18.8338 10.5427C18.8013 10.5103 18.7628 10.4845 18.7204 10.467C18.678 10.4494 18.6325 10.4404 18.5866 10.4404H17.4135C17.3676 10.4404 17.3221 10.4494 17.2797 10.467C17.2373 10.4846 17.1988 10.5103 17.1664 10.5427C17.1339 10.5752 17.1082 10.6137 17.0906 10.6561C17.073 10.6985 17.064 10.7439 17.064 10.7898V11.2641C17.064 11.3568 17.1008 11.4456 17.1663 11.5112C17.2319 11.5767 17.3207 11.6135 17.4134 11.6135V12.453C16.344 12.5662 15.3309 12.9887 14.4981 13.669L13.8985 13.0693C13.931 13.0369 13.9567 12.9984 13.9743 12.956C13.9919 12.9136 14.0009 12.8681 14.0009 12.8222C14.0009 12.7763 13.9919 12.7309 13.9743 12.6885C13.9567 12.6461 13.931 12.6076 13.8985 12.5751L13.563 12.24C13.5306 12.2075 13.492 12.1818 13.4497 12.1642C13.4073 12.1467 13.3618 12.1376 13.316 12.1376C13.2701 12.1376 13.2246 12.1467 13.1822 12.1642C13.1399 12.1818 13.1013 12.2075 13.0689 12.24L12.2395 13.0694C12.207 13.1019 12.1813 13.1404 12.1637 13.1828C12.1462 13.2252 12.1371 13.2706 12.1371 13.3165C12.1371 13.3624 12.1462 13.4078 12.1637 13.4502C12.1813 13.4926 12.207 13.5311 12.2395 13.5635L12.5748 13.8989C12.6072 13.9313 12.6458 13.957 12.6881 13.9746C12.7305 13.9922 12.776 14.0012 12.8219 14.0012C12.8677 14.0012 12.9132 13.9922 12.9556 13.9746C12.9979 13.957 13.0365 13.9313 13.0689 13.8989L13.6719 14.5019C12.9989 15.336 12.583 16.3479 12.4749 17.4143H11.6131C11.6131 17.3683 11.6041 17.3229 11.5866 17.2804C11.5691 17.238 11.5433 17.1994 11.5109 17.1669C11.4784 17.1344 11.4399 17.1087 11.3975 17.0911C11.3551 17.0735 11.3096 17.0644 11.2637 17.0644H10.7894C10.6967 17.0644 10.6079 17.1012 10.5423 17.1668C10.4768 17.2323 10.44 17.3211 10.44 17.4138V18.5869C10.44 18.6328 10.449 18.6782 10.4666 18.7206C10.4841 18.763 10.5099 18.8015 10.5423 18.834C10.5747 18.8664 10.6133 18.8922 10.6557 18.9097C10.6981 18.9273 10.7435 18.9363 10.7894 18.9363H11.2637C11.3096 18.9363 11.355 18.9273 11.3974 18.9097C11.4398 18.8922 11.4783 18.8664 11.5108 18.834C11.5432 18.8015 11.5689 18.763 11.5865 18.7206C11.604 18.6782 11.6131 18.6328 11.6131 18.5869H12.4808C12.5977 19.6472 13.0188 20.6511 13.6935 21.4774L13.692 21.4789L13.069 22.1018C13.0035 22.0363 12.9146 21.9995 12.822 21.9995C12.7293 21.9995 12.6405 22.0363 12.575 22.1018L12.2395 22.4374C12.207 22.4699 12.1813 22.5084 12.1637 22.5508C12.1462 22.5931 12.1371 22.6386 12.1371 22.6844C12.1371 22.7303 12.1462 22.7757 12.1637 22.8181C12.1813 22.8605 12.207 22.899 12.2395 22.9314L13.0691 23.7611C13.1015 23.7936 13.14 23.8193 13.1824 23.8369C13.2248 23.8545 13.2702 23.8635 13.3161 23.8635C13.362 23.8635 13.4074 23.8545 13.4498 23.8369C13.4922 23.8193 13.5307 23.7936 13.5631 23.7611L13.8985 23.4257C13.931 23.3933 13.9567 23.3548 13.9743 23.3124C13.9918 23.27 14.0008 23.2246 14.0008 23.1787C14.0008 23.1328 13.9918 23.0874 13.9743 23.045C13.9567 23.0027 13.931 22.9641 13.8985 22.9317L14.5215 22.3088L14.5257 22.3041C15.3536 22.9709 16.3563 23.3848 17.4136 23.4962V24.3876C17.3209 24.3876 17.232 24.4244 17.1665 24.49C17.101 24.5555 17.0642 24.6444 17.0642 24.737V25.2113C17.0643 25.3039 17.1011 25.3927 17.1666 25.4582C17.2321 25.5236 17.3209 25.5604 17.4135 25.5604H18.5866C18.6793 25.5604 18.7682 25.5236 18.8337 25.4581C18.8992 25.3926 18.936 25.3037 18.936 25.2111V24.7367C18.936 24.6441 18.8992 24.5552 18.8337 24.4897C18.7682 24.4242 18.6793 24.3874 18.5866 24.3874V23.4959C19.6437 23.3846 20.6462 22.9708 21.474 22.3041L21.4788 22.3086L22.1018 22.9314C22.0693 22.9639 22.0436 23.0024 22.026 23.0448C22.0085 23.0872 21.9994 23.1326 21.9994 23.1785C21.9994 23.2244 22.0085 23.2698 22.026 23.3122C22.0436 23.3546 22.0693 23.3931 22.1018 23.4255L22.4372 23.7609C22.4696 23.7933 22.5081 23.8191 22.5505 23.8366C22.5929 23.8542 22.6383 23.8632 22.6842 23.8632C22.7301 23.8632 22.7755 23.8542 22.8179 23.8366C22.8602 23.8191 22.8988 23.7933 22.9312 23.7609L23.7608 22.9314C23.7933 22.8989 23.819 22.8604 23.8365 22.818C23.8541 22.7756 23.8631 22.7302 23.8631 22.6843C23.8631 22.6384 23.8541 22.593 23.8365 22.5506C23.819 22.5082 23.7933 22.4697 23.7608 22.4373L23.4254 22.1019C23.3929 22.0695 23.3544 22.0437 23.3121 22.0262C23.2697 22.0086 23.2243 21.9996 23.1784 21.9996C23.1325 21.9996 23.0871 22.0086 23.0447 22.0262C23.0023 22.0437 22.9638 22.0695 22.9314 22.1019L22.3082 21.4789L22.3068 21.4774C22.9815 20.6511 23.4026 19.6472 23.5195 18.5869H24.3872C24.3872 18.6328 24.3962 18.6782 24.4138 18.7206C24.4313 18.763 24.4571 18.8015 24.4895 18.834C24.522 18.8664 24.5605 18.8922 24.6029 18.9097C24.6453 18.9273 24.6907 18.9363 24.7366 18.9363H25.2109C25.3035 18.9363 25.3923 18.8994 25.4578 18.8339C25.5233 18.7683 25.56 18.6795 25.56 18.5869V17.4138C25.56 17.3211 25.5232 17.2323 25.4577 17.1668C25.3921 17.1012 25.3033 17.0644 25.2106 17.0644ZM17.424 14.0693C17.8451 14.0693 18.2567 14.1942 18.6068 14.4282C18.9568 14.6621 19.2297 14.9946 19.3908 15.3836C19.5519 15.7726 19.5941 16.2007 19.512 16.6136C19.4298 17.0266 19.227 17.4059 18.9293 17.7037C18.6316 18.0014 18.2522 18.2042 17.8393 18.2863C17.4263 18.3685 16.9983 18.3263 16.6092 18.1652C16.2202 18.0041 15.8877 17.7312 15.6538 17.3811C15.4199 17.031 15.295 16.6194 15.295 16.1984C15.2956 15.6339 15.5201 15.0927 15.9192 14.6936C16.3184 14.2944 16.8595 14.0699 17.424 14.0693ZM16.646 21.6051C16.3446 21.6051 16.0499 21.5157 15.7993 21.3482C15.5486 21.1808 15.3533 20.9427 15.2379 20.6642C15.1226 20.3857 15.0924 20.0793 15.1512 19.7836C15.21 19.488 15.3551 19.2164 15.5683 19.0032C15.7815 18.7901 16.053 18.6449 16.3487 18.5861C16.6444 18.5273 16.9508 18.5575 17.2293 18.6728C17.5078 18.7882 17.7459 18.9835 17.9133 19.2342C18.0808 19.4848 18.1702 19.7795 18.1702 20.081C18.1697 20.4851 18.009 20.8725 17.7233 21.1582C17.4375 21.4439 17.0501 21.6047 16.646 21.6051ZM20.093 20.7108C19.7916 20.7108 19.4969 20.6214 19.2462 20.454C18.9956 20.2865 18.8002 20.0484 18.6848 19.7699C18.5695 19.4914 18.5393 19.185 18.5981 18.8893C18.6569 18.5936 18.8021 18.3221 19.0152 18.1089C19.2284 17.8957 19.5 17.7506 19.7956 17.6918C20.0913 17.633 20.3978 17.6631 20.6763 17.7785C20.9548 17.8939 21.1928 18.0893 21.3603 18.3399C21.5277 18.5906 21.6171 18.8853 21.6171 19.1867C21.6166 19.5908 21.4559 19.9782 21.1701 20.264C20.8843 20.5497 20.4969 20.7104 20.0928 20.7108H20.093Z" fill="#FF7661"/>
</svg>
