<svg xmlns="http://www.w3.org/2000/svg" fill="none" viewBox="0 0 36 36" class="design-iconfont">
  <rect width="36" height="36" rx="10" fill="#FCECE7"/>
  <path d="M13.024 11.4382H17.0904C17.0904 11.9405 17.4977 12.3477 18.0001 12.3477C18.5023 12.3477 18.9094 11.9405 18.9094 11.4382H22.9761C23.8919 11.4382 24.6411 12.1875 24.6411 13.1033V25.1631C24.6411 26.0789 23.8919 26.8282 22.9761 26.8282H13.024C12.1081 26.8282 11.3589 26.0789 11.3589 25.1631V13.1033C11.3589 12.1875 12.1081 11.4382 13.024 11.4382ZM17.1636 22.4634C16.9836 22.4634 16.8365 22.6107 16.8365 22.7908V23.1949C16.8365 23.3749 16.9836 23.5221 17.1636 23.5221H22.1301C22.3101 23.5221 22.4575 23.3749 22.4575 23.1949V22.7908C22.4575 22.6107 22.3101 22.4634 22.1301 22.4634H17.1636ZM14.6469 22.1796C14.1977 22.1796 13.8335 22.5438 13.8335 22.9928C13.8335 23.4419 14.1977 23.8061 14.6469 23.8061C15.096 23.8061 15.4602 23.4419 15.4602 22.9928C15.4602 22.5438 15.096 22.1796 14.6469 22.1796ZM17.1636 19.1237C16.9836 19.1237 16.8365 19.271 16.8365 19.4509V19.8551C16.8365 20.0352 16.9836 20.1824 17.1636 20.1824H22.1301C22.3101 20.1824 22.4575 20.0352 22.4575 19.8551V19.4509C22.4575 19.271 22.3101 19.1237 22.1301 19.1237H17.1636ZM14.6469 18.8397C14.1977 18.8397 13.8335 19.2039 13.8335 19.6531C13.8335 20.1022 14.1977 20.4663 14.6469 20.4663C15.096 20.4663 15.4602 20.1022 15.4602 19.6531C15.4602 19.2039 15.096 18.8397 14.6469 18.8397ZM17.1636 15.7839C16.9836 15.7839 16.8365 15.9311 16.8365 16.1111V16.5154C16.8365 16.6954 16.9836 16.8426 17.1636 16.8426H22.1301C22.3101 16.8426 22.4575 16.6953 22.4575 16.5154V16.1111C22.4575 15.9311 22.3101 15.7839 22.1301 15.7839H17.1636ZM14.6469 15.4999C14.1977 15.4999 13.8335 15.8641 13.8335 16.3133C13.8335 16.7624 14.1977 17.1265 14.6469 17.1265C15.096 17.1265 15.4602 16.7624 15.4602 16.3133C15.4602 15.8641 15.096 15.4999 14.6469 15.4999Z" fill="#F09074"/>
  <path d="M18 9.17175C19.2517 9.17175 20.2666 10.1865 20.2666 11.4383C20.2666 12.6902 19.2517 13.7049 18 13.7049C16.7483 13.7049 15.7334 12.6902 15.7334 11.4383C15.7334 10.1865 16.7483 9.17175 18 9.17175ZM18 10.5289C17.4977 10.5289 17.0904 10.936 17.0904 11.4383C17.0904 11.9406 17.4977 12.3478 18 12.3478C18.5023 12.3478 18.9094 11.9406 18.9094 11.4383C18.9094 10.936 18.5023 10.5289 18 10.5289Z" fill="#F09074"/>
</svg>
