<svg xmlns="http://www.w3.org/2000/svg" fill="none" viewBox="0 0 36 36" class="design-iconfont">
  <rect width="36" height="36" rx="10" fill="#DEEBFD"/>
  <path d="M14.7895 15.463H14.7535C14.6759 15.4628 14.6013 15.4934 14.5462 15.548C14.491 15.6027 14.4598 15.677 14.4594 15.7546V16.8121C14.4598 16.8897 14.491 16.964 14.5462 17.0187C14.6013 17.0733 14.6759 17.1039 14.7535 17.1037H14.7895C14.8672 17.104 14.9419 17.0735 14.9971 17.0188C15.0523 16.9641 15.0836 16.8898 15.084 16.8121V15.7547C15.0836 15.677 15.0524 15.6026 14.9971 15.5479C14.9419 15.4932 14.8672 15.4627 14.7895 15.463ZM21.2468 15.463H21.2108C21.1331 15.4628 21.0585 15.4934 21.0034 15.548C20.9483 15.6027 20.9171 15.677 20.9166 15.7546V16.8121C20.9171 16.8897 20.9483 16.964 21.0034 17.0187C21.0585 17.0733 21.1331 17.1039 21.2108 17.1037H21.2468C21.3244 17.1039 21.399 17.0733 21.4541 17.0187C21.5092 16.964 21.5404 16.8897 21.5409 16.8121V15.7547C21.5405 15.6771 21.5093 15.6028 21.4541 15.5481C21.399 15.4934 21.3244 15.4628 21.2468 15.463ZM23.7677 13.0542H21.5667C21.5072 12.4361 21.2192 11.8625 20.7591 11.4456C20.2989 11.0287 19.6998 10.7985 19.0788 10.8001H16.9212C16.3003 10.7985 15.7011 11.0287 15.241 11.4456C14.7809 11.8625 14.4929 12.4361 14.4334 13.0542H12.2323C11.7591 13.0527 11.3047 13.2389 10.9687 13.572C10.6327 13.9051 10.4426 14.3579 10.44 14.831V23.5133C10.4426 23.9864 10.6327 24.4392 10.9687 24.7723C11.3047 25.1053 11.7591 25.2916 12.2323 25.2901H23.7677C24.2409 25.2916 24.6953 25.1053 25.0313 24.7723C25.3673 24.4392 25.5574 23.9864 25.56 23.5133V14.831C25.5574 14.3579 25.3673 13.9051 25.0313 13.572C24.6953 13.2389 24.2409 13.0527 23.7677 13.0542ZM16.9212 11.9202H19.0788C19.4014 11.9196 19.7137 12.0331 19.9606 12.2407C20.2075 12.4482 20.373 12.7364 20.4279 13.0542H15.5721C15.627 12.7364 15.7926 12.4483 16.0395 12.2408C16.2864 12.0334 16.5987 11.9199 16.9212 11.9205V11.9202ZM19.7613 21.4342H18.5651V22.62C18.5648 22.6939 18.5499 22.767 18.5213 22.8352C18.4928 22.9033 18.4511 22.9651 18.3986 23.0172C18.3461 23.0692 18.2839 23.1103 18.2155 23.1383C18.1471 23.1663 18.0739 23.1805 18 23.1802C17.9261 23.1805 17.8529 23.1663 17.7845 23.1383C17.7161 23.1103 17.6539 23.0692 17.6014 23.0172C17.5489 22.9651 17.5072 22.9033 17.4787 22.8352C17.4501 22.767 17.4352 22.6939 17.4349 22.62V21.4342H16.2386C16.1647 21.4345 16.0915 21.4203 16.0231 21.3923C15.9547 21.3643 15.8925 21.3232 15.84 21.2712C15.7876 21.2191 15.7458 21.1573 15.7173 21.0892C15.6887 21.021 15.6738 20.9479 15.6735 20.874C15.6738 20.8001 15.6887 20.727 15.7173 20.6589C15.7458 20.5908 15.7876 20.5289 15.84 20.4769C15.8925 20.4249 15.9547 20.3837 16.0231 20.3557C16.0915 20.3278 16.1647 20.3135 16.2386 20.3139H17.4349V19.128C17.4352 19.0541 17.4501 18.981 17.4787 18.9129C17.5072 18.8447 17.5489 18.7829 17.6014 18.7309C17.6539 18.6788 17.7161 18.6377 17.7845 18.6097C17.8529 18.5817 17.9261 18.5675 18 18.5678C18.0739 18.5675 18.1471 18.5817 18.2155 18.6097C18.2839 18.6377 18.3461 18.6788 18.3986 18.7309C18.4511 18.7829 18.4928 18.8447 18.5214 18.9129C18.5499 18.981 18.5648 19.0541 18.5651 19.128V20.3139H19.7613C19.8352 20.3135 19.9084 20.3278 19.9768 20.3558C20.0452 20.3837 20.1074 20.4249 20.1598 20.4769C20.2123 20.5289 20.254 20.5908 20.2826 20.6589C20.3111 20.7271 20.326 20.8001 20.3263 20.874C20.326 20.9479 20.3111 21.021 20.2826 21.0891C20.254 21.1573 20.2123 21.2191 20.1598 21.2711C20.1074 21.3231 20.0452 21.3643 19.9768 21.3923C19.9084 21.4203 19.8352 21.4345 19.7613 21.4342ZM22.671 16.7947V16.8121C22.6702 16.9983 22.6327 17.1825 22.5607 17.3543C22.4887 17.526 22.3836 17.6819 22.2513 17.813C22.1191 17.9442 21.9623 18.0479 21.7899 18.1185C21.6176 18.189 21.433 18.2249 21.2468 18.2241H21.2108C21.0245 18.2249 20.8399 18.1891 20.6675 18.1185C20.4951 18.048 20.3383 17.9443 20.206 17.8131C20.0737 17.682 19.9686 17.5261 19.8965 17.3544C19.8245 17.1826 19.787 16.9983 19.7862 16.8121V16.7769L16.2138 16.8001V16.8121C16.2121 17.1882 16.0611 17.5482 15.794 17.813C15.5269 18.0778 15.1656 18.2257 14.7894 18.2241H14.7534C14.5672 18.2249 14.3826 18.189 14.2102 18.1185C14.0378 18.048 13.881 17.9442 13.7488 17.8131C13.6165 17.682 13.5114 17.5261 13.4393 17.3543C13.3673 17.1826 13.3298 16.9983 13.329 16.8121V16.7802L12.1424 16.795C12.0683 16.7963 11.9948 16.7829 11.9259 16.7557C11.8571 16.7285 11.7943 16.6879 11.7411 16.6364C11.688 16.5849 11.6455 16.5234 11.6162 16.4554C11.5868 16.3874 11.5712 16.3143 11.5701 16.2403C11.5693 16.0913 11.6276 15.9482 11.7322 15.8421C11.8368 15.7361 11.9792 15.6759 12.1281 15.6747L13.3339 15.6601C13.3598 15.3016 13.5208 14.9663 13.7842 14.7219C14.0476 14.4774 14.3939 14.3419 14.7533 14.3427H14.7893C15.1521 14.3418 15.5015 14.4799 15.7657 14.7285C16.0299 14.9771 16.1889 15.3175 16.21 15.6797L19.791 15.6565C19.8178 15.2986 19.979 14.9642 20.2423 14.7205C20.5056 14.4767 20.8514 14.3416 21.2102 14.3425H21.2462C21.6081 14.3416 21.9567 14.479 22.2206 14.7266C22.4846 14.9742 22.6441 15.3132 22.6664 15.6745L23.967 15.6601C24.0409 15.6589 24.1144 15.6724 24.1831 15.6997C24.2518 15.727 24.3145 15.7676 24.3676 15.8191C24.4206 15.8706 24.463 15.9321 24.4922 16C24.5215 16.0679 24.5371 16.141 24.5381 16.2149C24.5389 16.364 24.4805 16.5073 24.3757 16.6134C24.2709 16.7194 24.1283 16.7795 23.9792 16.7805L22.671 16.7947Z" fill="#3E8CF7"/>
</svg>
