<svg xmlns="http://www.w3.org/2000/svg" fill="none" viewBox="0 0 36 36" class="design-iconfont">
  <rect width="36" height="36" rx="10" fill="#3E8CF7" fill-opacity=".2"/>
  <path d="M21.4548 13.0951L19.0572 10.6975C18.9495 10.5898 18.8035 10.5293 18.6512 10.5293C18.4989 10.5293 18.3529 10.5898 18.2452 10.6975L18.045 10.8984L17.8445 10.6978C17.7368 10.5901 17.5908 10.5297 17.4385 10.5297C17.2862 10.5297 17.1402 10.5901 17.0325 10.6978L14.634 13.0951C14.5263 13.2028 14.4658 13.3489 14.4658 13.5011C14.4658 13.6534 14.5263 13.7994 14.634 13.9071L16.579 15.8522V13.2409H19.5102V15.8522L21.4548 13.9076C21.5082 13.8543 21.5506 13.7909 21.5795 13.7212C21.6084 13.6515 21.6232 13.5768 21.6232 13.5014C21.6232 13.4259 21.6084 13.3512 21.5795 13.2815C21.5506 13.2118 21.5082 13.1485 21.4548 13.0951ZM13.2407 19.5103V16.5791H15.8521L13.9073 14.6341C13.7997 14.5265 13.6536 14.466 13.5013 14.466C13.3491 14.466 13.203 14.5265 13.0954 14.6341L10.6977 17.0322C10.59 17.1399 10.5295 17.2859 10.5295 17.4382C10.5295 17.5905 10.59 17.7365 10.6977 17.8442L10.8983 18.0448L10.6977 18.2453C10.59 18.353 10.5295 18.4991 10.5295 18.6513C10.5295 18.8036 10.59 18.9497 10.6977 19.0574L13.095 21.455C13.1483 21.5083 13.2116 21.5506 13.2813 21.5794C13.3509 21.6083 13.4256 21.6232 13.501 21.6232C13.5764 21.6232 13.6511 21.6083 13.7207 21.5794C13.7904 21.5506 13.8537 21.5083 13.907 21.455L15.8521 19.5103H13.2407ZM25.191 18.0451L25.3916 17.8446C25.4992 17.7369 25.5597 17.5909 25.5597 17.4386C25.5597 17.2864 25.4992 17.1403 25.3916 17.0326L22.9938 14.6341C22.9405 14.5808 22.8772 14.5385 22.8076 14.5097C22.7379 14.4808 22.6632 14.466 22.5878 14.466C22.5124 14.466 22.4378 14.4808 22.3681 14.5097C22.2985 14.5385 22.2352 14.5808 22.1818 14.6341L20.2372 16.5791H22.8485V19.5103H20.2372L22.1818 21.455C22.2352 21.5083 22.2984 21.5506 22.3681 21.5795C22.4378 21.6083 22.5124 21.6232 22.5878 21.6232C22.6632 21.6232 22.7379 21.6083 22.8076 21.5795C22.8772 21.5506 22.9405 21.5083 22.9938 21.455L25.3915 19.0574C25.4992 18.9497 25.5597 18.8036 25.5597 18.6513C25.5597 18.4991 25.4992 18.353 25.3915 18.2453L25.191 18.0451ZM19.5102 20.2374V22.8486H16.579V20.2374L14.634 22.182C14.5263 22.2897 14.4658 22.4357 14.4658 22.588C14.4658 22.7403 14.5263 22.8863 14.634 22.994L17.0317 25.3917C17.1394 25.4993 17.2854 25.5598 17.4377 25.5598C17.5899 25.5598 17.736 25.4993 17.8437 25.3917L18.045 25.1911L18.2455 25.3918C18.3532 25.4994 18.4993 25.5599 18.6516 25.5599C18.8038 25.5599 18.9499 25.4994 19.0576 25.3918L21.4552 22.9941C21.5085 22.9408 21.5508 22.8775 21.5797 22.8078C21.6086 22.7381 21.6234 22.6635 21.6234 22.5881C21.6234 22.5127 21.6086 22.438 21.5797 22.3683C21.5508 22.2987 21.5085 22.2354 21.4552 22.1821L19.5102 20.2374Z" fill="#3E8CF7"/>
</svg>
