<svg xmlns="http://www.w3.org/2000/svg" fill="none" viewBox="0 0 36 36" class="design-iconfont">
  <rect width="36" height="36" rx="10" fill="#FBEAD9"/>
  <path d="M19.8334 15.6692C19.8387 15.6709 19.8439 15.6727 19.8475 15.6727C19.8967 15.6868 19.9494 15.6955 20.0004 15.6973C20.0268 15.6991 20.0531 15.6991 20.0795 15.6973C20.1199 15.6955 20.1604 15.6903 20.2008 15.6815C20.2377 15.6744 20.2711 15.6639 20.3063 15.6498L20.3203 15.6446C20.3871 15.6164 20.4539 15.583 20.5119 15.5338L23.4527 13.1116L24.8168 14.5037V11.1024L21.2484 11.2676L22.7074 12.375L20.0039 14.5424L14.632 10.8844C14.4668 10.7719 14.2611 10.7332 14.066 10.7754C13.9043 10.7912 13.7461 10.8598 13.623 10.9828L10.9318 13.6864C10.6453 13.9746 10.7156 14.3825 10.9072 14.5424C11.1814 14.7586 11.598 14.6479 11.9672 14.2366L14.2699 11.9233L19.6313 15.576C19.6945 15.62 19.7631 15.6481 19.8334 15.6692ZM12.9445 15.4073H11.3871C11.0303 15.4073 10.7402 15.6955 10.7402 16.0524V24.191C10.7402 24.5479 11.0303 24.8362 11.3871 24.8362H12.9445C13.3014 24.8362 13.5914 24.5479 13.5914 24.191V16.0524C13.5914 15.6973 13.3014 15.4073 12.9445 15.4073Z" fill="#EE7D30"/>
  <path d="M16.6869 14.0713H15.1295C14.7727 14.0713 14.4826 14.3596 14.4826 14.7164V24.191C14.4826 24.5479 14.7727 24.8361 15.1295 24.8361H16.6869C17.0438 24.8361 17.3338 24.5479 17.3338 24.191V14.7164C17.3338 14.3596 17.0455 14.0713 16.6869 14.0713ZM20.5506 17.0877H18.7523C18.4605 17.0877 18.225 17.3232 18.225 17.6133V24.3105C18.225 24.6006 18.4605 24.8361 18.7523 24.8361H20.5488C20.8406 24.8361 21.0762 24.6006 21.0762 24.3105V17.6133C21.0779 17.3215 20.8406 17.0877 20.5506 17.0877ZM24.2174 15.1576H22.5721C22.2381 15.1576 21.9691 15.4283 21.9691 15.7605V24.2367C21.9691 24.5689 22.2398 24.8396 22.5721 24.8396H24.2174C24.5514 24.8396 24.8203 24.5689 24.8203 24.2367V15.7588C24.8186 15.4266 24.5496 15.1576 24.2174 15.1576Z" fill="#EE7D30"/>
</svg>
