<svg xmlns="http://www.w3.org/2000/svg" fill="none" viewBox="0 0 36 36" class="design-iconfont">
  <rect width="36" height="36" rx="10" fill="#D3EEE4"/>
  <path d="M26.2156 21.885L24.7031 20.3771C24.5867 20.2611 24.429 20.196 24.2647 20.196C24.1004 20.196 23.9427 20.2611 23.8263 20.3771C23.7688 20.4344 23.7231 20.5025 23.6919 20.5775C23.6608 20.6525 23.6447 20.733 23.6447 20.8142C23.6447 20.8954 23.6608 20.9758 23.6919 21.0508C23.7231 21.1258 23.7688 21.1939 23.8263 21.2512L24.2969 21.7204L20.7646 21.6837C20.6833 21.6856 20.6032 21.7035 20.5288 21.7363C20.4545 21.7691 20.3873 21.8163 20.3311 21.8751C20.275 21.9339 20.231 22.0032 20.2016 22.079C20.1723 22.1548 20.1581 22.2356 20.16 22.3169C20.1621 22.3982 20.1802 22.4783 20.2133 22.5526C20.2464 22.6268 20.2938 22.6939 20.3528 22.7498C20.4117 22.8058 20.4812 22.8496 20.5571 22.8787C20.633 22.9079 20.7139 22.9218 20.7952 22.9196L24.2807 22.9575L23.8263 23.4105C23.7688 23.4678 23.7231 23.5359 23.6919 23.6109C23.6608 23.6859 23.6447 23.7664 23.6447 23.8476C23.6447 23.9288 23.6608 24.0092 23.6919 24.0842C23.7231 24.1592 23.7688 24.2273 23.8263 24.2846C23.9427 24.4006 24.1004 24.4657 24.2647 24.4657C24.429 24.4657 24.5867 24.4006 24.7031 24.2846L26.2184 22.774C26.3349 22.6552 26.4 22.4953 26.3994 22.3289C26.3989 22.1626 26.3329 22.0031 26.2156 21.885ZM26.2156 21.885L24.7031 20.3771C24.5867 20.2611 24.429 20.196 24.2647 20.196C24.1004 20.196 23.9427 20.2611 23.8263 20.3771C23.7688 20.4344 23.7231 20.5025 23.6919 20.5775C23.6608 20.6525 23.6447 20.733 23.6447 20.8142C23.6447 20.8954 23.6608 20.9758 23.6919 21.0508C23.7231 21.1258 23.7688 21.1939 23.8263 21.2512L24.2969 21.7204L20.7646 21.6837C20.6833 21.6856 20.6032 21.7035 20.5288 21.7363C20.4545 21.7691 20.3873 21.8163 20.3311 21.8751C20.275 21.9339 20.231 22.0032 20.2016 22.079C20.1723 22.1548 20.1581 22.2356 20.16 22.3169C20.1621 22.3982 20.1802 22.4783 20.2133 22.5526C20.2464 22.6268 20.2938 22.6939 20.3528 22.7498C20.4117 22.8058 20.4812 22.8496 20.5571 22.8787C20.633 22.9079 20.7139 22.9218 20.7952 22.9196L24.2807 22.9575L23.8263 23.4105C23.7688 23.4678 23.7231 23.5359 23.6919 23.6109C23.6608 23.6859 23.6447 23.7664 23.6447 23.8476C23.6447 23.9288 23.6608 24.0092 23.6919 24.0842C23.7231 24.1592 23.7688 24.2273 23.8263 24.2846C23.9427 24.4006 24.1004 24.4657 24.2647 24.4657C24.429 24.4657 24.5867 24.4006 24.7031 24.2846L26.2184 22.774C26.3349 22.6552 26.4 22.4953 26.3994 22.3289C26.3989 22.1626 26.3329 22.0031 26.2156 21.885ZM23.2124 24.8966C23.0694 24.7542 22.9571 24.5841 22.8823 24.3966C22.8076 24.2091 22.7721 24.0083 22.7779 23.8066L20.7979 23.785C20.5056 23.7897 20.2185 23.7078 19.9726 23.5498C19.7267 23.3917 19.533 23.1645 19.4158 22.8966C19.2987 22.6288 19.2634 22.3323 19.3142 22.0444C19.3651 21.7566 19.5 21.4902 19.7018 21.2787C19.8364 21.1371 19.9977 21.0236 20.1764 20.9446C20.355 20.8657 20.5476 20.8229 20.7429 20.8187H20.7582L22.7774 20.8397C22.7738 20.6406 22.8104 20.4429 22.8851 20.2583C22.9599 20.0738 23.0711 19.9062 23.2122 19.7657C23.304 19.6748 23.4072 19.5962 23.5192 19.5318V18.73H24.754C25.0058 18.7306 25.2518 18.6545 25.4593 18.5119C25.6668 18.3693 25.8259 18.1669 25.9156 17.9316C26.0053 17.6963 26.0212 17.4393 25.9612 17.1948C25.9013 16.9503 25.7683 16.7298 25.58 16.5626L18.6257 10.4116C18.3978 10.2104 18.1042 10.0994 17.8002 10.0994C17.4962 10.0994 17.2026 10.2104 16.9747 10.4116L10.02 16.5625C9.83167 16.7296 9.69867 16.9501 9.63869 17.1947C9.57872 17.4392 9.59461 17.6962 9.68426 17.9315C9.7739 18.1668 9.93305 18.3692 10.1405 18.5119C10.348 18.6545 10.594 18.7306 10.8458 18.73H12.4175V24.4485C12.4185 24.8605 12.5829 25.2552 12.8746 25.546C13.1663 25.8369 13.5615 26.0002 13.9734 26H21.9644C22.27 25.9999 22.5687 25.91 22.8235 25.7414C23.0783 25.5727 23.2779 25.3328 23.3974 25.0516C23.3317 25.005 23.2698 24.9531 23.2124 24.8966ZM18.4907 19.544C18.4885 19.7221 18.4163 19.8921 18.2896 20.0173C18.1629 20.1424 17.992 20.2126 17.8139 20.2126C17.6359 20.2126 17.465 20.1424 17.3383 20.0173C17.2116 19.8921 17.1394 19.7221 17.1372 19.544V18.554H16.1448C15.9658 18.554 15.7942 18.4829 15.6677 18.3564C15.5411 18.2299 15.47 18.0582 15.47 17.8793C15.47 17.7003 15.5411 17.5287 15.6677 17.4022C15.7942 17.2756 15.9658 17.2045 16.1448 17.2045H17.1372V16.2145C17.1394 16.0365 17.2116 15.8664 17.3383 15.7413C17.465 15.6161 17.6359 15.5459 17.8139 15.5459C17.992 15.5459 18.1629 15.6161 18.2896 15.7413C18.4163 15.8664 18.4885 16.0365 18.4907 16.2145V17.2045H19.4833C19.6623 17.2045 19.8339 17.2756 19.9604 17.4022C20.087 17.5287 20.1581 17.7003 20.1581 17.8793C20.1581 18.0582 20.087 18.2299 19.9604 18.3564C19.8339 18.4829 19.6623 18.554 19.4833 18.554H18.4907V19.544Z" fill="#50ABA1"/>
</svg>
