<svg xmlns="http://www.w3.org/2000/svg" fill="none" viewBox="0 0 36 36" class="design-iconfont">
  <rect width="36" height="36" rx="10" fill="#EBDCFC"/>
  <path d="M23.616 10.4399H12.384C11.8686 10.4405 11.3744 10.6454 11.01 11.0099C10.6455 11.3744 10.4405 11.8685 10.44 12.3839V23.6159C10.4406 24.1314 10.6455 24.6255 11.01 24.99C11.3744 25.3544 11.8686 25.5594 12.384 25.5599H23.616C24.1314 25.5594 24.6255 25.3544 24.99 24.9899C25.3544 24.6255 25.5594 24.1313 25.56 23.6159V12.3839C25.5595 11.8685 25.3545 11.3744 24.99 11.0099C24.6256 10.6455 24.1314 10.4405 23.616 10.4399ZM20.9123 17.8199C20.9123 17.9777 20.8496 18.129 20.7381 18.2405C20.6265 18.3521 20.4753 18.4148 20.3175 18.4148H18.5278V19.1852H20.3175C20.4753 19.1852 20.6265 19.2478 20.7381 19.3594C20.8496 19.4709 20.9123 19.6222 20.9123 19.78C20.9123 19.8581 20.8969 19.9354 20.8671 20.0076C20.8372 20.0798 20.7934 20.1453 20.7381 20.2006C20.6829 20.2558 20.6173 20.2996 20.5451 20.3295C20.473 20.3594 20.3956 20.3748 20.3175 20.3748H18.5278V21.4593C18.5278 21.617 18.4651 21.7683 18.3535 21.8799C18.242 21.9914 18.0907 22.0541 17.933 22.0541C17.7752 22.0541 17.6239 21.9914 17.5124 21.8799C17.4008 21.7683 17.3381 21.617 17.3381 21.4593V20.375H15.5482C15.4701 20.3751 15.3928 20.3597 15.3206 20.3298C15.2484 20.2999 15.1828 20.2561 15.1276 20.2009C15.0724 20.1456 15.0286 20.08 14.9987 20.0079C14.9688 19.9357 14.9534 19.8583 14.9534 19.7802C14.9534 19.6225 15.0161 19.4712 15.1276 19.3596C15.2392 19.2481 15.3905 19.1854 15.5482 19.1854H17.3381V18.415H15.5482C15.4701 18.415 15.3927 18.3996 15.3205 18.3697C15.2484 18.3398 15.1828 18.296 15.1275 18.2407C15.0723 18.1854 15.0285 18.1198 14.9986 18.0476C14.9687 17.9755 14.9534 17.8981 14.9534 17.8199C14.9534 17.6622 15.0161 17.5109 15.1276 17.3993C15.2392 17.2878 15.3905 17.2251 15.5482 17.2251H16.8426L15.273 15.1829C15.2251 15.121 15.1898 15.0503 15.1693 14.9747C15.1488 14.8992 15.1434 14.8203 15.1534 14.7427C15.1635 14.665 15.1887 14.5902 15.2277 14.5223C15.2668 14.4544 15.3188 14.3949 15.3809 14.3472C15.4429 14.2995 15.5138 14.2645 15.5894 14.2443C15.6651 14.224 15.7439 14.2189 15.8215 14.2292C15.8991 14.2395 15.9739 14.265 16.0417 14.3042C16.1094 14.3435 16.1687 14.3958 16.2162 14.458L17.9504 16.7143L19.6849 14.4577C19.7325 14.3958 19.7919 14.3439 19.8596 14.3049C19.9272 14.2659 20.002 14.2406 20.0794 14.2305C20.1569 14.2204 20.2356 14.2256 20.311 14.2459C20.3864 14.2662 20.4571 14.3012 20.5191 14.3488C20.581 14.3964 20.6329 14.4557 20.6719 14.5234C20.7109 14.5911 20.7362 14.6658 20.7463 14.7433C20.7564 14.8208 20.7512 14.8994 20.7309 14.9749C20.7106 15.0503 20.6756 15.121 20.628 15.1829L19.0583 17.2251H20.3175C20.4753 17.2251 20.6265 17.2878 20.7381 17.3993C20.8496 17.5109 20.9123 17.6622 20.9123 17.8199Z" fill="#9263CA"/>
</svg>
