<svg xmlns="http://www.w3.org/2000/svg" fill="none" viewBox="0 0 36 36" class="design-iconfont">
  <rect width="36" height="36" rx="10" fill="#FBEAD9"/>
  <path d="M14.5952 25.9101H21.376C21.5242 25.9076 21.6705 25.8759 21.8065 25.8168C21.9424 25.7577 22.0654 25.6723 22.1683 25.5656C22.2713 25.4589 22.3522 25.333 22.4064 25.195C22.4606 25.057 22.4871 24.9097 22.4843 24.7614V21.382H13.4816V24.7606C13.477 25.0607 13.5916 25.3503 13.8004 25.5659C14.0093 25.7815 14.2951 25.9053 14.5952 25.9101ZM21.376 10.0899H14.5952C14.4487 10.0882 14.3032 10.1157 14.1674 10.1709C14.0316 10.2262 13.9083 10.308 13.8045 10.4115C13.7008 10.5151 13.6188 10.6384 13.5633 10.7741C13.5079 10.9098 13.4801 11.0552 13.4817 11.2017V14.5644H22.4834V11.2017C22.4855 11.0555 22.4583 10.9103 22.4035 10.7748C22.3486 10.6392 22.2672 10.516 22.164 10.4124C22.0608 10.3088 21.9379 10.2269 21.8026 10.1715C21.6672 10.1161 21.5222 10.0884 21.376 10.0899L21.376 10.0899Z" fill="#EE7D30"/>
  <path d="M23.6198 14.5645V15.7185H12.3452V14.5645H11.2027C10.9022 14.5723 10.617 14.6982 10.4087 14.9148C10.2005 15.1315 10.086 15.4215 10.09 15.722V23.6321C10.0878 23.7804 10.1149 23.9278 10.1699 24.0656C10.2248 24.2035 10.3064 24.3291 10.4101 24.4353C10.5137 24.5415 10.6373 24.6261 10.7738 24.6843C10.9103 24.7426 11.0569 24.7733 11.2053 24.7747H12.3479V20.2465H23.6198V24.7747H24.7624C25.0646 24.7719 25.3536 24.6506 25.5673 24.437C25.7809 24.2233 25.9022 23.9343 25.905 23.6321V15.722C25.903 15.4191 25.7832 15.1288 25.5709 14.9128C25.3586 14.6967 25.0705 14.5718 24.7676 14.5645H23.6198ZM23.6198 18.0089H20.2466V16.8549H23.6198L23.6198 18.0089Z" fill="#EE7D30"/>
</svg>
