<svg xmlns="http://www.w3.org/2000/svg" fill="none" viewBox="0 0 12 12" class="design-iconfont">
  <path d="M5.8185 2.87579C5.91822 2.78827 5.97909 2.66472 5.98772 2.53232C5.99634 2.39991 5.95202 2.26951 5.8645 2.16979C5.77698 2.07007 5.65343 2.0092 5.52103 2.00057C5.38862 1.99194 5.25822 2.03627 5.1585 2.12379L1.599 5.24779C1.49202 5.34175 1.40634 5.45748 1.34769 5.58722C1.28904 5.71697 1.25877 5.85774 1.25891 6.00013C1.25905 6.14251 1.2896 6.28323 1.34851 6.41286C1.40742 6.54249 1.49333 6.65804 1.6005 6.75179L5.1705 9.87629C5.21994 9.91956 5.27742 9.95267 5.33966 9.97372C5.4019 9.99478 5.46767 10.0034 5.53323 9.99901C5.59879 9.99464 5.66285 9.97741 5.72175 9.94829C5.78064 9.91917 5.83323 9.87873 5.8765 9.82929C5.91977 9.77985 5.95288 9.72236 5.97393 9.66013C5.99499 9.59789 6.00358 9.53211 5.99922 9.46655C5.99485 9.401 5.97762 9.33694 5.9485 9.27804C5.91938 9.21914 5.87894 9.16656 5.8295 9.12329L2.259 5.99979L5.8185 2.87629V2.87579Z" fill="#3263FE"/>
  <path d="M10.3185 2.87579C10.3679 2.83245 10.4082 2.77981 10.4373 2.72088C10.4663 2.66195 10.4834 2.59787 10.4877 2.53231C10.492 2.46676 10.4833 2.401 10.4622 2.3388C10.441 2.27659 10.4078 2.21916 10.3645 2.16979C10.3212 2.12041 10.2685 2.08005 10.2096 2.05102C10.1507 2.02198 10.0866 2.00484 10.021 2.00057C9.95547 1.9963 9.88971 2.00498 9.82751 2.02612C9.76531 2.04727 9.70788 2.08045 9.6585 2.12379L6.099 5.24779C5.99202 5.34175 5.90634 5.45748 5.84769 5.58722C5.78904 5.71697 5.75877 5.85774 5.75891 6.00013C5.75905 6.14251 5.7896 6.28323 5.84851 6.41286C5.90742 6.54249 5.99333 6.65804 6.1005 6.75179L9.6705 9.87629C9.71994 9.91956 9.77742 9.95267 9.83966 9.97372C9.9019 9.99478 9.96767 10.0034 10.0332 9.99901C10.0988 9.99464 10.1628 9.97741 10.2217 9.94829C10.2806 9.91917 10.3332 9.87873 10.3765 9.82929C10.4198 9.77985 10.4529 9.72236 10.4739 9.66013C10.495 9.59789 10.5036 9.53211 10.4992 9.46655C10.4949 9.401 10.4776 9.33694 10.4485 9.27804C10.4194 9.21914 10.3789 9.16656 10.3295 9.12329L6.759 5.99979L10.3185 2.87629V2.87579Z" fill="#FF813B"/>
</svg>
