<svg xmlns="http://www.w3.org/2000/svg" fill="none" viewBox="0 0 13 12" class="design-iconfont">
  <path d="M8.21914 7.27051H4.77969C4.53945 7.27051 4.34375 7.46621 4.34375 7.70644C4.34375 7.94668 4.53945 8.14238 4.77969 8.14238H8.22031C8.46055 8.14238 8.65625 7.94668 8.65625 7.70644C8.65625 7.46621 8.46055 7.27051 8.21914 7.27051Z" fill="#FF813B"/>
  <path d="M10.9719 2.79824H9.68748V1.51387C9.68748 1.08379 9.33709 0.733398 8.90701 0.733398H4.0906C3.66052 0.733398 3.31013 1.08379 3.31013 1.51387V2.79824H2.02693C1.59685 2.79824 1.24646 3.14863 1.24646 3.57871V7.01934C1.24646 7.44941 1.59685 7.7998 2.02693 7.7998H2.96677V10.46C2.96677 10.89 3.31716 11.2404 3.74724 11.2404H9.25154C9.68162 11.2404 10.032 10.89 10.032 10.46V7.7998H10.9719C11.4019 7.7998 11.7523 7.44941 11.7523 7.01934V3.57871C11.7523 3.14863 11.4019 2.79824 10.9719 2.79824ZM4.18318 1.8584C4.18318 1.71895 4.29568 1.60645 4.43513 1.60645H8.56365C8.7031 1.60645 8.8156 1.71895 8.8156 1.8584V2.79824H4.18318V1.8584ZM9.16013 10.1154C9.16013 10.2549 9.04763 10.3674 8.90818 10.3674H4.09177C3.95232 10.3674 3.83982 10.2549 3.83982 10.1154V6.6748C3.83982 6.53535 3.95232 6.42285 4.09177 6.42285H8.90818C9.04763 6.42285 9.16013 6.53535 9.16013 6.6748V10.1154ZM10.8804 6.6748C10.8804 6.81426 10.7679 6.92676 10.6285 6.92676H10.032V6.33027C10.032 5.90019 9.68162 5.5498 9.25154 5.5498H3.74724C3.31716 5.5498 2.96677 5.90019 2.96677 6.33027V6.92676H2.37029C2.23084 6.92676 2.11834 6.81426 2.11834 6.6748V3.92207C2.11834 3.78262 2.23084 3.67012 2.37029 3.67012H10.6273C10.7668 3.67012 10.8793 3.78262 10.8793 3.92207V6.6748H10.8804Z" fill="#3263FE"/>
  <path d="M8.21914 8.64746H4.77969C4.53945 8.64746 4.34375 8.84316 4.34375 9.0834C4.34375 9.32363 4.53945 9.51934 4.77969 9.51934H8.22031C8.46055 9.51934 8.65625 9.32363 8.65625 9.0834C8.65625 8.84316 8.46055 8.64746 8.21914 8.64746Z" fill="#FF813B"/>
  <path d="M9.32544 4.59473C9.32544 4.6686 9.33999 4.74174 9.36826 4.80999C9.39653 4.87823 9.43796 4.94024 9.49019 4.99247C9.54243 5.04471 9.60443 5.08614 9.67268 5.11441C9.74093 5.14268 9.81407 5.15723 9.88794 5.15723C9.96181 5.15723 10.035 5.14268 10.1032 5.11441C10.1714 5.08614 10.2335 5.04471 10.2857 4.99247C10.3379 4.94024 10.3794 4.87823 10.4076 4.80999C10.4359 4.74174 10.4504 4.6686 10.4504 4.59473C10.4504 4.52086 10.4359 4.44771 10.4076 4.37947C10.3794 4.31122 10.3379 4.24921 10.2857 4.19698C10.2335 4.14475 10.1714 4.10331 10.1032 4.07504C10.035 4.04678 9.96181 4.03223 9.88794 4.03223C9.81407 4.03223 9.74093 4.04678 9.67268 4.07504C9.60443 4.10331 9.54243 4.14475 9.49019 4.19698C9.43796 4.24921 9.39653 4.31122 9.36826 4.37947C9.33999 4.44771 9.32544 4.52086 9.32544 4.59473Z" fill="#FF813B"/>
</svg>
