<svg xmlns="http://www.w3.org/2000/svg" fill="none" viewBox="0 0 13 14" class="design-iconfont">
  <path d="M7.96638 9.34355C7.88794 9.34363 7.81181 9.31694 7.75058 9.26789C6.76258 8.47918 6.71617 7.64731 6.69635 7.29189L6.69583 7.27531C6.6853 5.91031 7.41779 5.36158 7.56774 5.26382C7.78487 5.10037 7.96088 4.88853 8.08177 4.64513C8.20267 4.40172 8.26511 4.13348 8.26415 3.86171C8.2646 3.56291 8.1892 3.26889 8.04502 3.00718C7.90084 2.74548 7.69259 2.52465 7.43979 2.36538C7.18698 2.20611 6.89789 2.11361 6.59958 2.09654C6.30127 2.07948 6.00351 2.1384 5.73419 2.26781C5.46487 2.39721 5.2328 2.59285 5.05972 2.83641C4.88663 3.07996 4.7782 3.36347 4.74457 3.66036C4.71094 3.95726 4.75322 4.25784 4.86744 4.53394C4.98166 4.81004 5.1641 5.05263 5.39765 5.23899C5.52531 5.32863 6.21554 5.86592 6.16029 6.9689L6.15691 7.03676C6.10777 8.02639 6.08541 8.47801 5.233 9.19236C5.1983 9.22157 5.15818 9.24366 5.11494 9.25737C5.0717 9.27108 5.02618 9.27614 4.98099 9.27226C4.93579 9.26838 4.8918 9.25564 4.85153 9.23475C4.81126 9.21387 4.7755 9.18526 4.74628 9.15056C4.71707 9.11586 4.69498 9.07574 4.68127 9.0325C4.66756 8.98926 4.6625 8.94374 4.66638 8.89854C4.67026 8.85335 4.68301 8.80936 4.70389 8.76909C4.72477 8.72882 4.75338 8.69305 4.78808 8.66384C5.40935 8.14313 5.4202 7.92414 5.46603 7.00251L5.46947 6.93445C5.50847 6.15263 5.00966 5.80995 5.00466 5.80683L4.97736 5.78733C4.57441 5.46964 4.28103 5.03376 4.1384 4.54086C3.99576 4.04795 4.01103 3.52276 4.18205 3.03898C4.35307 2.55519 4.67127 2.13709 5.09199 1.84333C5.51271 1.54958 6.01485 1.39492 6.52794 1.40105C7.04103 1.40719 7.53932 1.57381 7.9529 1.87754C8.36648 2.18126 8.67459 2.60685 8.834 3.09459C8.9934 3.58233 8.99611 4.10773 8.84173 4.59708C8.68735 5.08644 8.38364 5.51518 7.97321 5.82315L7.93785 5.84642C7.91984 5.85773 7.3819 6.20392 7.3873 7.26199C7.40452 7.57119 7.44261 8.13812 8.18244 8.72878C8.2384 8.77345 8.27908 8.83442 8.29883 8.90324C8.31859 8.97207 8.31645 9.04533 8.29271 9.11288C8.26897 9.18043 8.2248 9.23893 8.16633 9.28026C8.10786 9.32159 8.03799 9.3437 7.96638 9.34355Z" fill="#FF813B"/>
  <path d="M10.0953 12.6542H2.9495C2.7378 12.6584 2.53155 12.5868 2.36794 12.4524C2.20433 12.318 2.09412 12.1296 2.05718 11.9211L1.70007 9.72877C1.68089 9.60899 1.68776 9.48648 1.72019 9.36959C1.75263 9.2527 1.80988 9.14418 1.88805 9.05141C1.9745 8.94903 2.08243 8.86693 2.20416 8.81092C2.32589 8.75491 2.45846 8.72637 2.59245 8.72732H10.4077C10.5402 8.7265 10.6713 8.75446 10.7919 8.80927C10.9126 8.86408 11.0199 8.94444 11.1065 9.04478C11.1846 9.13579 11.2425 9.24237 11.2763 9.35746C11.3101 9.47255 11.3191 9.59351 11.3026 9.71233L10.9901 11.9046C10.9553 12.116 10.8459 12.3078 10.6817 12.4453C10.5175 12.5828 10.3094 12.6569 10.0953 12.6542ZM2.59245 9.42587C2.55872 9.42489 2.52519 9.43132 2.49422 9.44471C2.46324 9.4581 2.43558 9.47812 2.41318 9.50335C2.39958 9.51827 2.3895 9.53604 2.38369 9.55537C2.37787 9.57469 2.37647 9.59508 2.37958 9.61502L2.73649 11.8073C2.74979 11.8525 2.77813 11.8919 2.81684 11.9189C2.85554 11.9459 2.90229 11.9589 2.94937 11.9557H10.0953C10.1428 11.9592 10.1901 11.946 10.2289 11.9185C10.2678 11.891 10.296 11.8508 10.3085 11.8048L10.6209 9.61242C10.6234 9.59256 10.6215 9.57239 10.6155 9.55332C10.6094 9.53425 10.5993 9.51671 10.5858 9.50192C10.5633 9.47711 10.5358 9.45746 10.5051 9.44432C10.4743 9.43118 10.4411 9.42487 10.4077 9.42581H2.59245V9.42587Z" fill="#3263FE"/>
</svg>
