<svg xmlns="http://www.w3.org/2000/svg" fill="none" viewBox="0 0 15 14" class="design-iconfont">
  <path d="M7.49995 0.700195C6.25393 0.700195 5.03589 1.06968 3.99986 1.76194C2.96383 2.45419 2.15635 3.43812 1.67951 4.58929C1.20268 5.74046 1.07792 7.00718 1.32101 8.22926C1.56409 9.45134 2.16411 10.5739 3.04518 11.455C3.92625 12.336 5.0488 12.9361 6.27088 13.1791C7.49297 13.4222 8.75969 13.2975 9.91086 12.8206C11.062 12.3438 12.046 11.5363 12.7382 10.5003C13.4305 9.46426 13.8 8.24622 13.8 7.0002C13.7981 5.3299 13.1338 3.72855 11.9527 2.54747C10.7716 1.36639 9.17025 0.702048 7.49995 0.700195ZM7.49995 12.3588C6.44013 12.3588 5.4041 12.0445 4.52289 11.4557C3.64168 10.8669 2.95486 10.03 2.54928 9.05083C2.1437 8.07168 2.03759 6.99425 2.24435 5.95479C2.45111 4.91533 2.96146 3.96052 3.71087 3.21111C4.46028 2.4617 5.41509 1.95135 6.45455 1.74459C7.49401 1.53783 8.57144 1.64394 9.55059 2.04952C10.5297 2.4551 11.3666 3.14192 11.9554 4.02313C12.5442 4.90435 12.8585 5.94037 12.8585 7.0002C12.8569 8.42089 12.2919 9.78293 11.2873 10.7875C10.2827 11.7921 8.92065 12.3572 7.49995 12.3588Z" fill="#3263FE"/>
  <path d="M8.98356 8.77002C8.68238 9.02288 8.3216 9.19462 7.93544 9.26894C7.54928 9.34326 7.15053 9.31771 6.77702 9.1947C6.4035 9.0717 6.06759 8.85532 5.80116 8.56608C5.53472 8.27685 5.34658 7.92435 5.25459 7.54201H5.79443C5.84379 7.54203 5.8922 7.52834 5.93425 7.50249C5.9763 7.47663 6.01036 7.43961 6.03263 7.39556C6.0549 7.3515 6.06452 7.30213 6.0604 7.25293C6.05629 7.20374 6.03861 7.15665 6.00933 7.1169L4.95989 5.69191C4.93509 5.65824 4.90272 5.63086 4.8654 5.612C4.82808 5.59313 4.78684 5.5833 4.74502 5.5833C4.7032 5.5833 4.66197 5.59313 4.62464 5.612C4.58732 5.63086 4.55495 5.65824 4.53016 5.69191L3.48072 7.1169C3.45144 7.15665 3.43375 7.20374 3.42964 7.25293C3.42552 7.30213 3.43514 7.3515 3.45741 7.39556C3.47968 7.43961 3.51374 7.47663 3.55579 7.50249C3.59785 7.52834 3.64625 7.54203 3.69562 7.54201H4.29468C4.38899 8.10723 4.63121 8.63742 4.99673 9.07873C5.36225 9.52005 5.83806 9.85677 6.37583 10.0547C6.9136 10.2526 7.49417 10.3047 8.05857 10.2056C8.62298 10.1066 9.15111 9.85989 9.58934 9.49067C9.6849 9.41034 9.74464 9.29534 9.75541 9.17096C9.76618 9.04658 9.7271 8.92302 9.64677 8.82746C9.56644 8.73189 9.45144 8.67215 9.32706 8.66138C9.20268 8.65061 9.07912 8.68969 8.98356 8.77002ZM10.7109 6.49964C10.6223 5.93028 10.3839 5.3947 10.0202 4.94777C9.65653 4.50084 9.18056 4.15863 8.64107 3.9562C8.10158 3.75377 7.51798 3.6984 6.95005 3.79575C6.38212 3.89311 5.85027 4.13969 5.40901 4.51024C5.36166 4.55001 5.32262 4.59871 5.2941 4.65357C5.26558 4.70842 5.24814 4.76836 5.24279 4.82996C5.23743 4.89155 5.24426 4.9536 5.26288 5.01255C5.28151 5.07151 5.31156 5.12622 5.35133 5.17356C5.39109 5.2209 5.43979 5.25995 5.49465 5.28847C5.54951 5.31699 5.60945 5.33442 5.67104 5.33978C5.73263 5.34514 5.79468 5.33831 5.85364 5.31969C5.91259 5.30106 5.9673 5.27101 6.01465 5.23124C6.31854 4.9761 6.68307 4.80359 7.07305 4.73036C7.46304 4.65713 7.86531 4.68565 8.24107 4.81317C8.61682 4.94069 8.95336 5.16291 9.21822 5.45837C9.48307 5.75384 9.66731 6.11259 9.75314 6.49999H9.18425C9.13488 6.49998 9.08648 6.51366 9.04442 6.53952C9.00237 6.56538 8.96831 6.60239 8.94604 6.64645C8.92377 6.69051 8.91415 6.73988 8.91827 6.78907C8.92238 6.83827 8.94007 6.88536 8.96935 6.9251L10.0188 8.35016C10.0436 8.38384 10.076 8.41121 10.1133 8.43008C10.1506 8.44894 10.1918 8.45877 10.2337 8.45877C10.2755 8.45877 10.3167 8.44894 10.354 8.43008C10.3914 8.41121 10.4237 8.38384 10.4485 8.35016L11.498 6.9251C11.5272 6.88536 11.5449 6.83827 11.549 6.78907C11.5531 6.73988 11.5435 6.69051 11.5213 6.64645C11.499 6.60239 11.4649 6.56538 11.4229 6.53952C11.3808 6.51366 11.3324 6.49998 11.2831 6.49999H10.7109V6.49964Z" fill="#FF813B"/>
</svg>
