<svg xmlns="http://www.w3.org/2000/svg" fill="none" viewBox="0 0 15 14" class="design-iconfont">
  <path d="M7.50001 0.700195C6.25399 0.700195 5.03595 1.06968 3.99992 1.76194C2.96389 2.45419 2.15641 3.43812 1.67957 4.58929C1.20274 5.74046 1.07798 7.00718 1.32107 8.22926C1.56415 9.45134 2.16417 10.5739 3.04524 11.455C3.92631 12.336 5.04887 12.9361 6.27095 13.1791C7.49303 13.4222 8.75975 13.2975 9.91092 12.8206C11.0621 12.3438 12.046 11.5363 12.7383 10.5003C13.4305 9.46426 13.8 8.24622 13.8 7.0002C13.7982 5.3299 13.1338 3.72855 11.9527 2.54747C10.7717 1.36639 9.17031 0.702048 7.50001 0.700195ZM7.50001 12.3588C6.44019 12.3588 5.40417 12.0445 4.52295 11.4557C3.64174 10.8669 2.95492 10.03 2.54934 9.05083C2.14376 8.07168 2.03765 6.99425 2.24441 5.95479C2.45117 4.91533 2.96152 3.96052 3.71093 3.21111C4.46034 2.4617 5.41515 1.95135 6.45461 1.74459C7.49407 1.53783 8.5715 1.64394 9.55065 2.04952C10.5298 2.4551 11.3667 3.14192 11.9555 4.02313C12.5443 4.90435 12.8586 5.94037 12.8586 7.0002C12.857 8.42089 12.2919 9.78293 11.2873 10.7875C10.2828 11.7921 8.92071 12.3572 7.50001 12.3588Z" fill="#3263FE"/>
  <path d="M8.98343 8.77002C8.68226 9.02288 8.32148 9.19462 7.93532 9.26894C7.54916 9.34326 7.15041 9.31771 6.77689 9.1947C6.40338 9.0717 6.06747 8.85532 5.80103 8.56608C5.5346 8.27685 5.34646 7.92435 5.25446 7.54201H5.7943C5.84367 7.54203 5.89207 7.52834 5.93413 7.50249C5.97618 7.47663 6.01024 7.43961 6.03251 7.39556C6.05478 7.3515 6.06439 7.30213 6.06028 7.25293C6.05617 7.20374 6.03848 7.15665 6.0092 7.1169L4.95976 5.69191C4.93497 5.65824 4.9026 5.63086 4.86528 5.612C4.82795 5.59313 4.78672 5.5833 4.7449 5.5833C4.70308 5.5833 4.66184 5.59313 4.62452 5.612C4.5872 5.63086 4.55483 5.65824 4.53003 5.69191L3.48059 7.1169C3.45131 7.15665 3.43363 7.20374 3.42952 7.25293C3.4254 7.30213 3.43502 7.3515 3.45729 7.39556C3.47956 7.43961 3.51362 7.47663 3.55567 7.50249C3.59772 7.52834 3.64613 7.54203 3.69549 7.54201H4.29455C4.38887 8.10723 4.63108 8.63742 4.99661 9.07873C5.36213 9.52005 5.83794 9.85677 6.37571 10.0547C6.91347 10.2526 7.49404 10.3047 8.05845 10.2056C8.62285 10.1066 9.15099 9.85989 9.58921 9.49067C9.68478 9.41034 9.74452 9.29534 9.75529 9.17096C9.76606 9.04658 9.72698 8.92302 9.64665 8.82746C9.56632 8.73189 9.45131 8.67215 9.32694 8.66138C9.20256 8.65061 9.079 8.68969 8.98343 8.77002ZM10.7108 6.49964C10.6222 5.93028 10.3838 5.3947 10.0201 4.94777C9.65641 4.50084 9.18043 4.15863 8.64095 3.9562C8.10146 3.75377 7.51786 3.6984 6.94992 3.79575C6.38199 3.89311 5.85015 4.13969 5.40888 4.51024C5.36154 4.55001 5.3225 4.59871 5.29398 4.65357C5.26546 4.70842 5.24802 4.76836 5.24267 4.82996C5.23731 4.89155 5.24414 4.9536 5.26276 5.01255C5.28138 5.07151 5.31144 5.12622 5.3512 5.17356C5.39097 5.2209 5.43967 5.25995 5.49453 5.28847C5.54939 5.31699 5.60932 5.33442 5.67092 5.33978C5.73251 5.34514 5.79456 5.33831 5.85352 5.31969C5.91247 5.30106 5.96718 5.27101 6.01452 5.23124C6.31842 4.9761 6.68295 4.80359 7.07293 4.73036C7.46292 4.65713 7.86519 4.68565 8.24094 4.81317C8.61669 4.94069 8.95324 5.16291 9.21809 5.45837C9.48295 5.75384 9.66718 6.11259 9.75301 6.49999H9.18412C9.13476 6.49998 9.08636 6.51366 9.0443 6.53952C9.00225 6.56538 8.96819 6.60239 8.94592 6.64645C8.92365 6.69051 8.91403 6.73988 8.91815 6.78907C8.92226 6.83827 8.93994 6.88536 8.96922 6.9251L10.0187 8.35016C10.0435 8.38384 10.0758 8.41121 10.1132 8.43008C10.1505 8.44894 10.1917 8.45877 10.2335 8.45877C10.2753 8.45877 10.3166 8.44894 10.3539 8.43008C10.3912 8.41121 10.4236 8.38384 10.4484 8.35016L11.4978 6.9251C11.5271 6.88536 11.5448 6.83827 11.5489 6.78907C11.553 6.73988 11.5434 6.69051 11.5211 6.64645C11.4989 6.60239 11.4648 6.56538 11.4228 6.53952C11.3807 6.51366 11.3323 6.49998 11.2829 6.49999H10.7108V6.49964Z" fill="#FF813B"/>
</svg>
