<svg xmlns="http://www.w3.org/2000/svg" fill="none" viewBox="0 0 13 12" class="design-iconfont">
  <path d="M6.44049 9.12432C6.39111 9.16766 6.35076 9.2203 6.32172 9.27923C6.29269 9.33816 6.27554 9.40224 6.27127 9.4678C6.267 9.53335 6.27568 9.59911 6.29683 9.66131C6.31797 9.72352 6.35115 9.78095 6.39449 9.83032C6.43783 9.8797 6.49046 9.92006 6.5494 9.94909C6.60833 9.97813 6.6724 9.99527 6.73796 9.99954C6.80352 10.0038 6.86928 9.99513 6.93148 9.97399C6.99368 9.95285 7.05111 9.91966 7.10049 9.87632L10.6595 6.75232C10.7665 6.6584 10.8522 6.5427 10.9109 6.41297C10.9696 6.28325 10.9999 6.14248 10.9998 6.0001C10.9997 5.85771 10.9692 5.71699 10.9104 5.58734C10.8515 5.45769 10.7656 5.34211 10.6585 5.24832L7.08849 2.12382C7.03905 2.08055 6.98157 2.04744 6.91933 2.02639C6.85709 2.00533 6.79131 1.99674 6.72576 2.00111C6.6602 2.00547 6.59614 2.0227 6.53724 2.05182C6.47835 2.08094 6.42576 2.12138 6.38249 2.17082C6.2951 2.27068 6.25096 2.40116 6.25977 2.53356C6.26859 2.66596 6.32964 2.78943 6.42949 2.87682L9.99999 6.00032L6.44049 9.12382V9.12432Z" fill="#3263FE"/>
  <path d="M1.94049 9.12432C1.89111 9.16766 1.85076 9.2203 1.82172 9.27923C1.79269 9.33816 1.77554 9.40224 1.77127 9.4678C1.767 9.53335 1.77568 9.59911 1.79683 9.66131C1.81797 9.72352 1.85115 9.78095 1.89449 9.83032C1.93783 9.8797 1.99046 9.92006 2.0494 9.94909C2.10833 9.97813 2.17241 9.99527 2.23796 9.99954C2.30352 10.0038 2.36928 9.99513 2.43148 9.97399C2.49368 9.95285 2.55111 9.91966 2.60049 9.87632L6.15949 6.75232C6.2665 6.6584 6.35222 6.5427 6.41092 6.41297C6.46961 6.28325 6.49992 6.14248 6.49983 6.0001C6.49973 5.85771 6.46923 5.71699 6.41037 5.58734C6.3515 5.45769 6.26563 5.34211 6.15849 5.24832L2.58849 2.12382C2.53905 2.08055 2.48157 2.04744 2.41933 2.02639C2.35709 2.00533 2.29131 1.99674 2.22576 2.00111C2.1602 2.00547 2.09614 2.0227 2.03724 2.05182C1.97835 2.08094 1.92576 2.12138 1.88249 2.17082C1.7951 2.27068 1.75096 2.40116 1.75977 2.53356C1.76414 2.59911 1.78137 2.66317 1.81049 2.72207C1.83961 2.78097 1.88005 2.83355 1.92949 2.87682L5.49999 6.00032L1.94049 9.12382V9.12432Z" fill="#FF813B"/>
</svg>
