<svg xmlns="http://www.w3.org/2000/svg" fill="none" viewBox="0 0 13 12" class="design-iconfont">
  <path d="M4.46212 4.00068H7.14689C7.38947 4.00068 7.58868 3.80146 7.58868 3.55889V1.51748C7.58868 1.2749 7.38947 1.07568 7.14689 1.07568H4.46212C4.21954 1.07568 4.02032 1.2749 4.02032 1.51748V3.55771C4.02032 3.80146 4.21954 4.00068 4.46212 4.00068Z" fill="#fff"/>
  <path d="M9.54688 0.799316H8.58008V4.22236C8.58008 4.3665 8.4629 4.48369 8.31876 4.48369H3.22344C3.0793 4.48369 2.96212 4.3665 2.96212 4.22119L2.98321 0.799316H2.17227C1.78087 0.799316 1.46329 1.11689 1.46329 1.5083V10.4532C1.46329 10.8446 1.78087 11.1622 2.17227 11.1622H10.8172C11.2086 11.1622 11.5262 10.8446 11.5262 10.4532V3.03291L9.54688 0.799316ZM10.2148 9.77002C10.2148 9.97744 10.0449 10.1485 9.83633 10.1485H3.31602C3.1086 10.1485 2.93751 9.97861 2.93751 9.77002V5.87588C2.93751 5.66846 3.10743 5.49736 3.31602 5.49736H9.83633C10.0438 5.49736 10.2148 5.66729 10.2148 5.87588V9.77002Z" fill="#fff"/>
  <path d="M8.98087 6.86377H4.04493C3.85743 6.86377 3.70392 7.01728 3.70392 7.20478C3.70392 7.39228 3.85743 7.5458 4.04493 7.5458H8.98087C9.16837 7.5458 9.32189 7.39228 9.32189 7.20478C9.32189 7.01728 9.16837 6.86377 8.98087 6.86377ZM8.98087 8.63682H4.04493C3.85743 8.63682 3.70392 8.79033 3.70392 8.97783C3.70392 9.16533 3.85743 9.31885 4.04493 9.31885H8.98087C9.16837 9.31885 9.32189 9.16533 9.32189 8.97783C9.32189 8.79033 9.16837 8.63682 8.98087 8.63682Z" fill="#fff"/>
</svg>
