<svg xmlns="http://www.w3.org/2000/svg" fill="none" viewBox="0 0 13 12" class="design-iconfont">
  <path d="M11.3922 10.7224L9.28616 8.45827C10.0928 7.63418 10.5486 6.52946 10.5578 5.3763C10.5669 4.22314 10.1286 3.11134 9.3351 2.27458C8.54156 1.43783 7.45455 0.941279 6.30252 0.889299C5.1505 0.837319 4.02318 1.23396 3.15751 1.99585C2.29184 2.75774 1.75523 3.82555 1.66047 4.97485C1.5657 6.12414 1.92017 7.26542 2.64936 8.15881C3.37855 9.0522 4.42568 9.62813 5.57066 9.76554C6.71564 9.90295 7.86931 9.59115 8.78918 8.89567L10.9087 11.1745C10.9384 11.2063 10.974 11.2319 11.0136 11.2498C11.0532 11.2678 11.0959 11.2778 11.1393 11.2793C11.1828 11.2807 11.2261 11.2736 11.2668 11.2583C11.3074 11.243 11.3447 11.2199 11.3765 11.1902C11.4082 11.1605 11.4338 11.1249 11.4518 11.0853C11.4697 11.0457 11.4797 11.003 11.4812 10.9596C11.4827 10.9161 11.4755 10.8728 11.4603 10.8321C11.445 10.7915 11.4218 10.7542 11.3922 10.7224ZM2.30072 5.31871C2.30293 4.56666 2.52795 3.83213 2.94737 3.2079C3.3668 2.58366 3.9618 2.09772 4.65724 1.81146C5.35268 1.52519 6.11736 1.45144 6.85469 1.59951C7.59202 1.74758 8.26893 2.11084 8.79993 2.64341C9.33093 3.17597 9.69219 3.85395 9.83809 4.59171C9.984 5.32948 9.90799 6.09393 9.61968 6.78853C9.33136 7.48312 8.84367 8.07669 8.21821 8.49427C7.59274 8.91186 6.85755 9.13472 6.1055 9.13471C5.09526 9.13212 4.12731 8.72889 3.41401 8.01349C2.70071 7.29809 2.30034 6.32895 2.30072 5.31871Z" fill="#3263FE"/>
  <path d="M3.152 5.83937C3.10841 5.83945 3.06524 5.83094 3.02493 5.81433C2.98463 5.79772 2.948 5.77334 2.91712 5.74258C2.88624 5.71181 2.86173 5.67526 2.84498 5.63502C2.82822 5.59478 2.81956 5.55164 2.81948 5.50805C2.82161 4.60076 3.18354 3.73136 3.82588 3.09059C4.46821 2.44982 5.33849 2.09001 6.24578 2.09009C6.3337 2.09009 6.41802 2.12501 6.48019 2.18718C6.54236 2.24935 6.57728 2.33367 6.57728 2.42159C6.57728 2.50951 6.54236 2.59383 6.48019 2.65599C6.41802 2.71816 6.3337 2.75309 6.24578 2.75309C5.51448 2.75301 4.81301 3.04302 4.29528 3.5595C3.77755 4.07599 3.48585 4.77675 3.48416 5.50805C3.484 5.59602 3.44893 5.68032 3.38665 5.74245C3.32437 5.80457 3.23997 5.83943 3.152 5.83937Z" fill="#FF813B"/>
</svg>
