<svg xmlns="http://www.w3.org/2000/svg" fill="none" viewBox="0 0 14 14" class="design-iconfont">
  <path d="M6.97942 13.1601C6.72095 13.1599 6.46275 13.1436 6.20634 13.1111C6.02492 13.0872 5.85539 13.0076 5.72121 12.8832C5.58703 12.7588 5.49482 12.5957 5.45734 12.4166C5.40091 12.1509 5.28996 11.8997 5.13151 11.679C4.97306 11.4583 4.77055 11.2728 4.53678 11.1344C4.30301 10.9959 4.04306 10.9074 3.77336 10.8745C3.50366 10.8417 3.23008 10.8651 2.96989 10.9433C2.79675 10.9962 2.61149 10.9939 2.43969 10.9369C2.2679 10.8798 2.11806 10.7708 2.01089 10.625C1.71506 10.2191 1.46995 9.77864 1.281 9.31331C1.21999 9.15928 1.2041 8.99105 1.23519 8.82831C1.26628 8.66558 1.34306 8.51505 1.45656 8.39435C1.79729 8.02985 1.98648 7.54931 1.98569 7.05035C1.98671 6.5412 1.7895 6.05164 1.43584 5.68535C1.32079 5.56664 1.24191 5.41762 1.20844 5.25573C1.17497 5.09383 1.18829 4.92576 1.24684 4.77115C1.45399 4.23857 1.7342 3.73737 2.07942 3.28197C2.18495 3.14319 2.32953 3.0391 2.49463 2.98305C2.65972 2.927 2.83779 2.92155 3.00601 2.96739C3.25874 3.038 3.52306 3.05729 3.78337 3.02413C4.04367 2.99096 4.29471 2.90602 4.52167 2.7743C4.74863 2.64258 4.94692 2.46676 5.10485 2.25719C5.26279 2.04763 5.37716 1.80856 5.44124 1.55409C5.48153 1.38429 5.57208 1.23057 5.70106 1.113C5.83004 0.995434 5.99146 0.919477 6.16427 0.895044C6.79352 0.810844 7.43202 0.824776 8.057 0.936344C8.21966 0.967186 8.37018 1.04371 8.49094 1.15696C8.61171 1.27021 8.69773 1.41551 8.73894 1.57586C8.86696 2.06221 9.17668 2.4809 9.60426 2.74566C10.0318 3.01042 10.5447 3.10105 11.0371 2.99889C11.1993 2.96447 11.368 2.97702 11.5233 3.03507C11.6786 3.09312 11.8141 3.19426 11.914 3.32663C12.2707 3.8068 12.5553 4.33645 12.759 4.89883C12.811 5.04435 12.8233 5.20108 12.7946 5.3529C12.7658 5.50472 12.6972 5.64615 12.5957 5.76263C12.2891 6.11751 12.1192 6.57011 12.1166 7.03905C12.1139 7.50798 12.2786 7.96249 12.581 8.32085C12.6805 8.43871 12.7466 8.581 12.7726 8.73299C12.7986 8.88499 12.7834 9.04116 12.7288 9.18535C12.5406 9.68083 12.2892 10.1499 11.9808 10.5809C11.8806 10.719 11.7415 10.824 11.5814 10.8827C11.4213 10.9414 11.2473 10.9512 11.0816 10.9106C10.8291 10.8522 10.5675 10.8444 10.3119 10.8875C10.0563 10.9306 9.81172 11.0239 9.59233 11.1619C9.37293 11.3 9.18302 11.4801 9.03353 11.6919C8.88404 11.9036 8.77792 12.1429 8.7213 12.3958C8.68418 12.5661 8.59705 12.7215 8.4711 12.842C8.34514 12.9624 8.18608 13.0426 8.0143 13.0721C7.67243 13.1305 7.32624 13.1599 6.97942 13.1601ZM3.53605 10.0972C4.16006 10.0999 4.76446 10.3155 5.24925 10.7084C5.73404 11.1013 6.07017 11.6479 6.202 12.2579C6.20647 12.2824 6.21851 12.3048 6.23643 12.3221C6.25435 12.3394 6.27725 12.3507 6.30189 12.3543C6.82879 12.4206 7.36258 12.4091 7.88613 12.3201C7.90887 12.316 7.92983 12.3051 7.94627 12.2889C7.96271 12.2726 7.97386 12.2518 7.97825 12.2291C8.05663 11.878 8.20375 11.5459 8.41112 11.2519C8.61848 10.9579 8.882 10.7079 9.18646 10.5163C9.49092 10.3246 9.83031 10.1952 10.185 10.1353C10.5398 10.0755 10.9029 10.0865 11.2533 10.1677C11.2724 10.1734 11.2928 10.1736 11.312 10.1681C11.3312 10.1626 11.3484 10.1518 11.3616 10.1369C11.6318 9.75932 11.852 9.34845 12.0168 8.91445C12.0231 8.89767 12.0248 8.87954 12.0218 8.86189C12.0188 8.84424 12.0111 8.82769 11.9997 8.81393C11.5799 8.31651 11.3513 7.68564 11.355 7.03475C11.3588 6.38387 11.5946 5.75567 12.0201 5.26311C12.0329 5.24943 12.0417 5.23259 12.0457 5.21434C12.0498 5.19609 12.0489 5.17709 12.0431 5.1593C11.8647 4.66669 11.6153 4.20272 11.303 3.78205C11.2898 3.7661 11.2724 3.75424 11.2527 3.74785C11.233 3.74147 11.212 3.74083 11.1919 3.746C10.5086 3.88784 9.7968 3.76207 9.20341 3.39462C8.61001 3.02718 8.18021 2.44607 8.00261 1.77109C7.99857 1.75112 7.98898 1.73269 7.97494 1.71791C7.9609 1.70314 7.94297 1.69263 7.92323 1.68758C7.37568 1.5899 6.81629 1.57769 6.265 1.65139C6.2436 1.65644 6.22413 1.66757 6.20892 1.68345C6.19372 1.69932 6.18344 1.71926 6.17932 1.74085C6.09056 2.09398 5.93196 2.42576 5.7129 2.7166C5.49383 3.00744 5.21872 3.25146 4.90382 3.43425C4.58891 3.61704 4.24058 3.73491 3.87938 3.78089C3.51818 3.82687 3.15143 3.80004 2.80077 3.70197C2.77973 3.69686 2.75764 3.69803 2.73726 3.70534C2.71688 3.71266 2.69909 3.7258 2.68611 3.74313C2.3838 4.14214 2.13848 4.58125 1.9572 5.04786C1.95108 5.06666 1.95039 5.0868 1.9552 5.10597C1.96002 5.12514 1.97015 5.14256 1.98443 5.15622C2.47521 5.66459 2.74885 6.34402 2.74743 7.05063C2.74845 7.74291 2.4859 8.4096 2.01313 8.91529C1.9987 8.92941 1.98857 8.94732 1.9839 8.96696C1.97923 8.98659 1.98021 9.00715 1.98674 9.02624C2.15214 9.43393 2.36676 9.81985 2.62584 10.1754C2.64001 10.1939 2.65963 10.2075 2.68192 10.2142C2.70421 10.2209 2.72806 10.2205 2.75009 10.213C3.00499 10.1361 3.26981 10.0971 3.53605 10.0972Z" fill="#3263FE"/>
  <path d="M6.95373 8.93085C6.56879 8.93144 6.19232 8.81784 5.87196 8.60441C5.55161 8.39098 5.30176 8.08732 5.15404 7.73186C5.00631 7.37639 4.96735 6.98509 5.04209 6.60747C5.11682 6.22985 5.30189 5.88289 5.57387 5.61048C5.84585 5.33808 6.19253 5.15248 6.57003 5.07716C6.94753 5.00184 7.33889 5.04019 7.69459 5.18737C8.05028 5.33454 8.35433 5.58392 8.56826 5.90394C8.78218 6.22397 8.89637 6.60026 8.89637 6.9852C8.89628 7.50067 8.69167 7.99504 8.32746 8.35982C7.96325 8.72459 7.4692 8.92996 6.95373 8.93085ZM6.95373 5.7987C6.71897 5.79834 6.48937 5.86763 6.294 5.99779C6.09863 6.12796 5.94626 6.31315 5.85618 6.52994C5.76609 6.74673 5.74234 6.98537 5.78792 7.21567C5.8335 7.44596 5.94638 7.65756 6.11226 7.82368C6.27814 7.9898 6.48957 8.10299 6.71979 8.14891C6.95002 8.19484 7.18869 8.17144 7.40561 8.08167C7.62254 7.9919 7.80796 7.83981 7.93841 7.64463C8.06886 7.44945 8.13849 7.21996 8.13848 6.9852C8.13837 6.67086 8.01356 6.3694 7.79146 6.14696C7.56935 5.92452 7.26807 5.79927 6.95373 5.7987Z" fill="#FF813B"/>
</svg>
