<svg fill="none" xmlns="http://www.w3.org/2000/svg" viewBox="0 0 15 14" class="design-iconfont">
  <path d="M5.50323 7.45755V8.29503H9.56674V7.45755H5.50323ZM5.50323 9.90006H9.56674V9.06279H5.50323V9.90006ZM5.50323 11.5053H9.56674V10.668H5.50323V11.5053ZM7.15698 6.6648H7.99698V6.07337H8.59002V5.23603H7.99698V4.64453H7.15698V5.23603H6.56415V6.07337H7.15698V6.66473V6.6648Z" fill="#FF813B"/>
  <path d="M10.472 2.62799H9.85387C9.77245 2.43595 9.63635 2.2721 9.46251 2.15683C9.28867 2.04156 9.08477 1.97997 8.87618 1.97972H8.84062C8.72126 1.72294 8.53102 1.50561 8.29229 1.35332C8.05356 1.20103 7.77629 1.12012 7.49312 1.12012C7.20995 1.12012 6.93268 1.20103 6.69395 1.35332C6.45522 1.50561 6.26498 1.72294 6.14562 1.97972H6.10992C5.90134 1.97997 5.69743 2.04156 5.52359 2.15683C5.34975 2.2721 5.21365 2.43595 5.13223 2.62799H4.59792C4.23516 2.62849 3.88742 2.77286 3.63097 3.02943C3.37452 3.28599 3.23031 3.63381 3.22998 3.99656V11.5814C3.23031 11.9442 3.37452 12.292 3.63097 12.5485C3.88742 12.8051 4.23516 12.9495 4.59792 12.95H10.472C10.8347 12.9495 11.1825 12.8051 11.439 12.5486C11.6954 12.292 11.8396 11.9442 11.84 11.5814V3.99656C11.8396 3.63379 11.6954 3.28597 11.439 3.0294C11.1825 2.77283 10.8347 2.62847 10.472 2.62799ZM6.10992 2.81734H6.7899L6.85668 2.47987C6.88592 2.3326 6.96534 2.20003 7.08139 2.10476C7.19744 2.00949 7.34294 1.95741 7.49309 1.95741C7.64323 1.95741 7.78873 2.00949 7.90478 2.10476C8.02083 2.20003 8.10025 2.3326 8.12949 2.47987L8.19627 2.81734H8.87625C8.93579 2.81734 8.99289 2.84099 9.03499 2.88309C9.07709 2.92519 9.10074 2.98229 9.10074 3.04183C9.10074 3.10137 9.07709 3.15847 9.03499 3.20057C8.99289 3.24267 8.93579 3.26632 8.87625 3.26632H6.10992C6.05038 3.26632 5.99328 3.24267 5.95118 3.20057C5.90908 3.15847 5.88543 3.10137 5.88543 3.04183C5.88543 2.98229 5.90908 2.92519 5.95118 2.88309C5.99328 2.84099 6.05038 2.81734 6.10992 2.81734ZM11.0029 11.5813C11.0028 11.7221 10.9468 11.857 10.8473 11.9566C10.7478 12.0561 10.6129 12.1121 10.4722 12.1123H4.59792C4.45719 12.1121 4.32227 12.0561 4.22279 11.9566C4.1233 11.857 4.06736 11.7221 4.06725 11.5813V3.99656C4.06738 3.85583 4.12332 3.7209 4.22281 3.62137C4.32229 3.52183 4.45719 3.46582 4.59792 3.46561H5.13692C5.21948 3.65509 5.35549 3.81639 5.5283 3.92977C5.70112 4.04314 5.90324 4.10367 6.10992 4.10394H8.87618C9.08287 4.10368 9.28499 4.04315 9.45781 3.92978C9.63062 3.8164 9.76663 3.6551 9.84918 3.46561H10.4722C10.6129 3.4658 10.7478 3.5218 10.8473 3.62134C10.9468 3.72088 11.0028 3.85582 11.0029 3.99656V11.5814V11.5813Z" fill="#3263FE"/>
</svg>
