<svg fill="none" xmlns="http://www.w3.org/2000/svg" viewBox="0 0 15 14" class="design-iconfont">
  <path d="M10.7704 8.45008C10.72 8.45016 10.6701 8.46015 10.6236 8.47951C10.577 8.49886 10.5348 8.52719 10.4992 8.56288C10.4636 8.59856 10.4354 8.64091 10.4162 8.68749C10.397 8.73408 10.3872 8.78399 10.3873 8.83438V10.7799C10.3873 11.0894 10.1563 11.3411 9.8722 11.3411H2.69097C2.40691 11.3411 2.17584 11.0891 2.17584 10.7799V3.21989C2.17584 2.91042 2.40684 2.6587 2.69097 2.6587H9.8722C10.1563 2.6587 10.3873 2.9107 10.3873 3.21989V5.19298C10.3866 5.24372 10.396 5.2941 10.4149 5.34118C10.4339 5.38825 10.462 5.4311 10.4976 5.46722C10.5333 5.50335 10.5757 5.53203 10.6225 5.55161C10.6694 5.57119 10.7196 5.58127 10.7703 5.58127C10.8211 5.58127 10.8713 5.57119 10.9181 5.55161C10.965 5.53203 11.0074 5.50335 11.0431 5.46722C11.0787 5.4311 11.1068 5.38825 11.1258 5.34118C11.1447 5.2941 11.1541 5.24372 11.1534 5.19298V3.21989C11.1534 2.48664 10.5786 1.88989 9.87241 1.88989H2.69097C1.98474 1.88989 1.40997 2.48664 1.40997 3.21989V10.7799C1.40997 11.5131 1.98474 12.1099 2.69097 12.1099H9.8722C10.5786 12.1099 11.1532 11.5133 11.1532 10.7799V8.83438C11.1534 8.73266 11.1131 8.63504 11.0413 8.56298C10.9696 8.49091 10.8721 8.45031 10.7704 8.45008ZM13.66 7.19442C13.6597 7.10979 13.6313 7.02764 13.5793 6.9609C13.5604 6.91962 13.5357 6.88123 13.506 6.84687L12.2052 5.38212C12.1721 5.3432 12.1315 5.3113 12.0858 5.2883C12.0401 5.2653 11.9903 5.25166 11.9393 5.24819C11.8883 5.24471 11.8371 5.25147 11.7887 5.26807C11.7404 5.28467 11.6958 5.31077 11.6577 5.34484C11.6195 5.3789 11.5886 5.42025 11.5667 5.46645C11.5448 5.51264 11.5323 5.56276 11.53 5.61384C11.5277 5.66492 11.5357 5.71594 11.5534 5.76391C11.5712 5.81187 11.5983 5.8558 11.6333 5.89312L12.4472 6.80977H8.84397C8.74204 6.80977 8.64428 6.85026 8.57221 6.92234C8.50013 6.99442 8.45964 7.09218 8.45964 7.19411C8.45964 7.29604 8.50013 7.3938 8.57221 7.46587C8.64428 7.53795 8.74204 7.57844 8.84397 7.57844H12.3754L11.638 8.37889C11.569 8.45378 11.5324 8.55297 11.5363 8.65476C11.5403 8.75655 11.5844 8.85262 11.659 8.92195C11.6959 8.95622 11.7392 8.98287 11.7864 9.00037C11.8336 9.01786 11.8837 9.02587 11.934 9.02392C11.9843 9.02196 12.0338 9.0101 12.0795 8.989C12.1252 8.96789 12.1662 8.93797 12.2003 8.90095L13.4673 7.52615C13.5258 7.49269 13.5744 7.44439 13.6082 7.38615C13.642 7.32791 13.6599 7.26177 13.66 7.19442Z" fill="#3263FE"/>
  <path d="M6.73106 7.39373H5.75064V6.9969H6.73106C6.83009 6.99246 6.92359 6.95001 6.9921 6.87836C7.06061 6.80672 7.09884 6.71141 7.09884 6.61228C7.09884 6.51315 7.06061 6.41784 6.9921 6.3462C6.92359 6.27456 6.83009 6.2321 6.73106 6.22767H6.19766L6.93427 5.48007C7.00542 5.40741 7.04527 5.30977 7.04527 5.20808C7.04527 5.10639 7.00542 5.00875 6.93427 4.9361C6.89933 4.90044 6.85764 4.87212 6.81162 4.85278C6.7656 4.83345 6.71619 4.82349 6.66627 4.82349C6.61636 4.82349 6.56694 4.83345 6.52093 4.85278C6.47491 4.87212 6.43321 4.90044 6.39828 4.9361L5.35136 5.99856L4.30451 4.93617C4.26957 4.90051 4.22788 4.87219 4.18186 4.85285C4.13584 4.83352 4.08643 4.82356 4.03651 4.82356C3.9866 4.82356 3.93718 4.83352 3.89117 4.85285C3.84515 4.87219 3.80345 4.90051 3.76852 4.93617C3.69736 5.00882 3.65751 5.10646 3.65751 5.20815C3.65751 5.30984 3.69736 5.40748 3.76852 5.48014L4.5052 6.22774H4.01226C3.91323 6.23217 3.81972 6.27463 3.75121 6.34627C3.68271 6.41791 3.64447 6.51322 3.64447 6.61235C3.64447 6.71148 3.68271 6.80679 3.75121 6.87843C3.81972 6.95008 3.91323 6.99253 4.01226 6.99697H4.99261V7.3938H4.01226C3.91323 7.39823 3.81972 7.44069 3.75121 7.51233C3.68271 7.58397 3.64447 7.67928 3.64447 7.77841C3.64447 7.87754 3.68271 7.97285 3.75121 8.04449C3.81972 8.11614 3.91323 8.15859 4.01226 8.16303H4.99261V8.8295C4.99192 8.8797 5.00122 8.92954 5.01997 8.97613C5.03871 9.02271 5.06652 9.0651 5.10178 9.10085C5.13704 9.13659 5.17905 9.16498 5.22538 9.18435C5.2717 9.20372 5.32141 9.2137 5.37162 9.2137C5.42183 9.2137 5.47154 9.20372 5.51787 9.18435C5.56419 9.16498 5.6062 9.13659 5.64147 9.10085C5.67673 9.0651 5.70454 9.02271 5.72328 8.97613C5.74202 8.92954 5.75132 8.8797 5.75064 8.8295V8.16303H6.73106C6.83023 8.15879 6.92394 8.11642 6.99262 8.04475C7.0613 7.97307 7.09964 7.87764 7.09964 7.77838C7.09964 7.67911 7.0613 7.58368 6.99262 7.51201C6.92394 7.44033 6.83023 7.39796 6.73106 7.39373Z" fill="#FF813B"/>
</svg>
