<svg fill="none" xmlns="http://www.w3.org/2000/svg" viewBox="0 0 15 14" class="design-iconfont">
  <path d="M12.407 12.39H2.66298C2.35004 12.3902 2.04979 12.2663 1.82803 12.0455C1.60627 11.8247 1.48111 11.525 1.47998 11.2121V3.57507C1.48104 3.2621 1.60617 2.96231 1.82794 2.74147C2.0497 2.52062 2.35 2.39673 2.66298 2.39697H7.1602C7.26832 2.39697 7.37202 2.43992 7.44847 2.51638C7.52493 2.59283 7.56788 2.69653 7.56788 2.80465C7.56788 2.91278 7.52493 3.01647 7.44847 3.09293C7.37202 3.16938 7.26832 3.21233 7.1602 3.21233H2.66298C2.56666 3.21233 2.47427 3.25051 2.40604 3.3185C2.33781 3.38649 2.29931 3.47875 2.29898 3.57507V11.2121C2.29931 11.3084 2.33781 11.4007 2.40604 11.4686C2.47427 11.5366 2.56666 11.5748 2.66298 11.5748H12.407C12.5033 11.5748 12.5957 11.5366 12.6639 11.4686C12.7321 11.4007 12.7706 11.3084 12.771 11.2121V7.12295C12.771 7.01435 12.8141 6.91019 12.8909 6.83339C12.9677 6.7566 13.0719 6.71345 13.1805 6.71345C13.2891 6.71345 13.3932 6.7566 13.47 6.83339C13.5468 6.91019 13.59 7.01435 13.59 7.12295V11.2121C13.5888 11.525 13.4637 11.8247 13.2419 12.0455C13.0202 12.2663 12.7199 12.3902 12.407 12.39Z" fill="#3263FE"/>
  <path d="M13.1521 3.16887L11.2201 1.62936C11.135 1.56164 11.0266 1.53023 10.9185 1.54196C10.8103 1.55369 10.7112 1.60761 10.6426 1.69201C10.6088 1.73369 10.5837 1.78163 10.5686 1.83308C10.5535 1.88453 10.5487 1.93845 10.5546 1.99175C10.5605 2.04505 10.5768 2.09665 10.6027 2.14359C10.6286 2.19053 10.6636 2.23188 10.7056 2.26524L11.8426 3.17083C9.87739 3.2633 8.18255 4.19822 6.90911 5.9023C6.26104 6.77323 5.76862 7.74977 5.45367 8.78868C5.42802 8.8932 5.44442 9.00362 5.49937 9.09617C5.55431 9.18872 5.64339 9.256 5.74744 9.28352C5.85149 9.31105 5.96218 9.29662 6.0557 9.24335C6.14922 9.19008 6.21809 9.10221 6.24747 8.99868C6.54077 8.05222 6.99288 7.16253 7.58447 6.36766C8.77671 4.78314 10.3122 3.98003 12.1512 3.97821L11.2085 5.27223C11.177 5.31558 11.1543 5.36475 11.1418 5.4169C11.1294 5.46906 11.1274 5.52316 11.136 5.5761C11.1445 5.62903 11.1635 5.67974 11.1918 5.7253C11.2201 5.77086 11.2571 5.81036 11.3007 5.84154C11.3891 5.90487 11.4989 5.93078 11.6063 5.91366C11.7137 5.89653 11.81 5.83774 11.8743 5.75005L13.247 3.86593C13.3243 3.75999 13.3576 3.62824 13.3399 3.4983C13.3222 3.36835 13.2549 3.2503 13.1521 3.16887Z" fill="#FF813B"/>
</svg>
