<svg fill="none" xmlns="http://www.w3.org/2000/svg" viewBox="0 0 14 14" class="design-iconfont">
  <g clip-path="url(#8mo8cka6w__clip0_2577_2116)" fill="#3263FE">
    <path d="M6.99968 13.9931C5.38477 13.9951 3.819 13.4378 2.56842 12.416C1.31783 11.3943 0.459571 9.97108 0.139459 8.38821C-0.180654 6.80534 0.0571292 5.16046 0.812406 3.73305C1.56768 2.30564 2.79387 1.18375 4.28262 0.557994C5.9918 -0.162618 7.91725 -0.174742 9.63538 0.524288C11.3535 1.22332 12.7236 2.57624 13.4442 4.28543C14.1648 5.99462 14.1769 7.92006 13.4779 9.63819C12.7789 11.3563 11.4259 12.7264 9.71675 13.447C8.85691 13.8096 7.93285 13.9954 6.99968 13.9931ZM6.99968 1.10414C3.75012 1.10414 1.10132 3.75294 1.10132 7.0025C1.10132 10.2521 3.75012 12.9009 6.99968 12.9009C10.2492 12.9009 12.898 10.2521 12.898 7.0025C12.898 3.75294 10.2492 1.10414 6.99968 1.10414Z"/>
    <path d="M6.99952 8.08114C6.78619 8.08114 6.57764 8.01788 6.40026 7.89936C6.22288 7.78084 6.08463 7.61238 6.00299 7.41529C5.92135 7.21819 5.89999 7.00131 5.94161 6.79208C5.98323 6.58284 6.08596 6.39065 6.23681 6.2398C6.38766 6.08895 6.57985 5.98622 6.78909 5.9446C6.99832 5.90298 7.2152 5.92434 7.4123 6.00598C7.60939 6.08762 7.77785 6.22587 7.89637 6.40325C8.01489 6.58063 8.07816 6.78918 8.07816 7.00251C8.07816 7.28858 7.96451 7.56294 7.76223 7.76522C7.55995 7.9675 7.28559 8.08114 6.99952 8.08114ZM3.8865 8.08114C3.67316 8.08114 3.46462 8.01788 3.28724 7.89936C3.10986 7.78084 2.97161 7.61238 2.88997 7.41529C2.80833 7.21819 2.78697 7.00131 2.82859 6.79208C2.87021 6.58284 2.97294 6.39065 3.12379 6.2398C3.27464 6.08895 3.46683 5.98622 3.67607 5.9446C3.8853 5.90298 4.10218 5.92434 4.29927 6.00598C4.49637 6.08762 4.66483 6.22587 4.78335 6.40325C4.90187 6.58063 4.96513 6.78918 4.96513 7.00251C4.96513 7.28858 4.85149 7.56294 4.64921 7.76522C4.44692 7.9675 4.17257 8.08114 3.8865 8.08114ZM10.1125 8.08114C9.89921 8.08114 9.69067 8.01788 9.51329 7.89936C9.33591 7.78084 9.19765 7.61238 9.11601 7.41529C9.03438 7.21819 9.01301 7.00131 9.05463 6.79208C9.09625 6.58284 9.19898 6.39065 9.34983 6.2398C9.50068 6.08895 9.69288 5.98622 9.90211 5.9446C10.1113 5.90298 10.3282 5.92434 10.5253 6.00598C10.7224 6.08762 10.8909 6.22587 11.0094 6.40325C11.1279 6.58063 11.1912 6.78918 11.1912 7.00251C11.1912 7.28858 11.0775 7.56294 10.8753 7.76522C10.673 7.9675 10.3986 8.08114 10.1125 8.08114Z"/>
  </g>
  <defs>
    <clipPath id="8mo8cka6w__clip0_2577_2116">
      <path fill="#fff" d="M0 0H14V14H0z"/>
    </clipPath>
  </defs>
</svg>
