<svg xmlns="http://www.w3.org/2000/svg" fill="none" viewBox="0 0 14 14" class="design-iconfont">
  <path d="M9.59998 13.23H4.2888C3.1898 13.23 2.2959 12.397 2.2959 11.3734V4.86661C2.2959 4.74652 2.34361 4.63135 2.42852 4.54643C2.51344 4.46152 2.62861 4.41381 2.7487 4.41381C2.86879 4.41381 2.98396 4.46152 3.06887 4.54643C3.15379 4.63135 3.20149 4.74652 3.20149 4.86661V11.3734C3.20149 11.8977 3.68925 12.3242 4.28887 12.3242H9.60012C10.1997 12.3242 10.6875 11.8977 10.6875 11.3734V4.86661C10.6875 4.74653 10.7352 4.63137 10.8201 4.54646C10.905 4.46155 11.0202 4.41385 11.1403 4.41385C11.2603 4.41385 11.3755 4.46155 11.4604 4.54646C11.5453 4.63137 11.593 4.74653 11.593 4.86661V11.3734C11.5929 12.397 10.6988 13.23 9.59998 13.23ZM4.58994 9.77298C4.53048 9.77297 4.4716 9.76125 4.41666 9.73848C4.36172 9.71572 4.31181 9.68235 4.26977 9.6403C4.22772 9.59824 4.19438 9.54832 4.17163 9.49337C4.14888 9.43843 4.13718 9.37954 4.13718 9.32008V6.39142C4.13718 6.27134 4.18489 6.15618 4.26979 6.07127C4.3547 5.98636 4.46986 5.93866 4.58994 5.93866C4.71002 5.93866 4.82518 5.98636 4.91009 6.07127C4.995 6.15618 5.0427 6.27134 5.0427 6.39142V9.32008C5.04271 9.37954 5.03101 9.43843 5.00826 9.49337C4.98551 9.54832 4.95217 9.59824 4.91012 9.6403C4.86808 9.68235 4.81817 9.71572 4.76323 9.73848C4.70829 9.76125 4.64941 9.77297 4.58994 9.77298ZM6.8991 9.77298C6.83964 9.77297 6.78076 9.76125 6.72582 9.73848C6.67088 9.71572 6.62097 9.68235 6.57893 9.6403C6.53688 9.59824 6.50354 9.54832 6.48079 9.49337C6.45804 9.43843 6.44633 9.37954 6.44634 9.32008V6.39142C6.44634 6.27133 6.49405 6.15616 6.57896 6.07124C6.66388 5.98633 6.77905 5.93862 6.89914 5.93862C7.01923 5.93862 7.1344 5.98633 7.21931 6.07124C7.30423 6.15616 7.35193 6.27133 7.35193 6.39142V9.32008C7.35194 9.37954 7.34024 9.43843 7.31749 9.49337C7.29474 9.54832 7.26139 9.59824 7.21935 9.6403C7.17731 9.68235 7.1274 9.71572 7.07246 9.73848C7.01752 9.76125 6.95864 9.77297 6.89917 9.77298H6.8991ZM9.20833 9.77298C9.08823 9.77296 8.97305 9.72523 8.88813 9.6403C8.80321 9.55537 8.7555 9.44018 8.7555 9.32008V6.39142C8.75476 6.33148 8.76592 6.27199 8.78834 6.2164C8.81076 6.16082 8.844 6.11023 8.88612 6.06758C8.92824 6.02494 8.9784 5.99108 9.03371 5.96797C9.08902 5.94486 9.14836 5.93296 9.2083 5.93296C9.26824 5.93296 9.32758 5.94486 9.38289 5.96797C9.4382 5.99108 9.48836 6.02494 9.53048 6.06758C9.5726 6.11023 9.60584 6.16082 9.62826 6.2164C9.65068 6.27199 9.66184 6.33148 9.66109 6.39142V9.32008C9.6611 9.37954 9.6494 9.43843 9.62665 9.49337C9.6039 9.54832 9.57056 9.59824 9.52851 9.6403C9.48647 9.68235 9.43656 9.71572 9.38162 9.73848C9.32668 9.76125 9.2678 9.77297 9.20833 9.77298ZM12.2872 3.80989H1.78273C1.66262 3.80989 1.54742 3.76217 1.46249 3.67724C1.37755 3.5923 1.32983 3.4771 1.32983 3.35699C1.32983 3.23687 1.37755 3.12167 1.46249 3.03674C1.54742 2.9518 1.66262 2.90409 1.78273 2.90409H12.2872C12.4073 2.90409 12.5225 2.9518 12.6075 3.03674C12.6924 3.12167 12.7401 3.23687 12.7401 3.35699C12.7401 3.4771 12.6924 3.5923 12.6075 3.67724C12.5225 3.76217 12.4073 3.80989 12.2872 3.80989ZM9.20833 2.63277C9.14886 2.63277 9.08997 2.62105 9.03503 2.59829C8.98008 2.57553 8.93016 2.54217 8.88811 2.50011C8.84606 2.45805 8.81271 2.40813 8.78995 2.35318C8.7672 2.29823 8.7555 2.23934 8.7555 2.17987C8.75532 2.02769 8.69479 1.8818 8.58718 1.77419C8.47957 1.66659 8.33368 1.60605 8.1815 1.60587H5.6167C5.46452 1.60603 5.31862 1.66656 5.21101 1.77417C5.1034 1.88178 5.04287 2.02768 5.0427 2.17987C5.0427 2.29995 4.995 2.41511 4.91009 2.50002C4.82518 2.58493 4.71002 2.63263 4.58994 2.63263C4.46986 2.63263 4.3547 2.58493 4.26979 2.50002C4.18489 2.41511 4.13718 2.29995 4.13718 2.17987C4.13759 1.78757 4.29359 1.41145 4.57095 1.13401C4.84832 0.856583 5.2244 0.700497 5.6167 0.699997H8.1815C8.57383 0.700479 8.94994 0.856566 9.22732 1.13401C9.50471 1.41146 9.66071 1.78761 9.66109 2.17994C9.66109 2.30002 9.6134 2.41519 9.52849 2.50011C9.44358 2.58503 9.32842 2.63275 9.20833 2.63277Z" fill="#333"/>
</svg>
