<svg xmlns="http://www.w3.org/2000/svg" fill="none" viewBox="0 0 14 14" class="design-iconfont">
  <path d="M6.99988 12.7736C6.75242 12.7736 6.51863 12.6656 6.3573 12.4783L2.21199 7.65215C1.99324 7.39785 1.94539 7.05059 2.08484 6.74571C2.22429 6.44082 2.51961 6.25215 2.85457 6.25215H4.37488V2.5416C4.37488 1.81836 4.96414 1.2291 5.68738 1.2291H8.31238C9.03562 1.2291 9.62488 1.81836 9.62488 2.5416V6.25078H11.1452C11.4802 6.25078 11.7755 6.43946 11.9149 6.74434C12.0544 7.04922 12.0065 7.39649 11.7878 7.65078L7.64246 12.4783C7.48113 12.667 7.24734 12.7736 6.99988 12.7736ZM2.91472 7.12715L6.99988 11.885L11.085 7.12715H8.74988V2.5416C8.74988 2.30098 8.55301 2.1041 8.31238 2.1041H5.68738C5.44676 2.1041 5.24988 2.30098 5.24988 2.5416V7.12578H2.91472V7.12715Z" fill="#666"/>
</svg>
