<svg xmlns="http://www.w3.org/2000/svg" fill="none" viewBox="0 0 14 14" class="design-iconfont">
  <path d="M2.12263 10.6086C2.02314 10.6084 1.92471 10.5883 1.83308 10.5495C1.74146 10.5107 1.65849 10.454 1.58902 10.3828C1.51921 10.3106 1.46447 10.2252 1.42798 10.1316C1.39149 10.038 1.374 9.93809 1.3765 9.83766L1.43747 7.53466C1.44213 7.34266 1.52028 7.15976 1.6558 7.02366L7.5862 1.05742C7.65537 0.987858 7.73761 0.932654 7.82819 0.894984C7.91877 0.857314 8.0159 0.837921 8.114 0.837921C8.2121 0.837921 8.30923 0.857314 8.39981 0.894984C8.49039 0.932654 8.57263 0.987858 8.6418 1.05742L10.9226 3.35202C11.0627 3.49327 11.1412 3.68413 11.1412 3.88304C11.1412 4.08196 11.0627 4.27281 10.9226 4.41406L4.99501 10.3775C4.92646 10.4469 4.84485 10.5021 4.7549 10.5398C4.66494 10.5776 4.56841 10.5972 4.47085 10.5974L2.12641 10.6087H2.12263V10.6086ZM2.32521 7.616L2.2697 9.71306L4.40743 9.70284L10.1921 3.88297L8.114 1.792L2.32521 7.616ZM12.4352 13.09H1.56494C1.44625 13.09 1.33243 13.0429 1.2485 12.9589C1.16458 12.875 1.11743 12.7612 1.11743 12.6425C1.11743 12.5238 1.16458 12.41 1.2485 12.3261C1.33243 12.2421 1.44625 12.195 1.56494 12.195H12.4352C12.5539 12.195 12.6678 12.2421 12.7517 12.3261C12.8356 12.41 12.8828 12.5238 12.8828 12.6425C12.8828 12.7612 12.8356 12.875 12.7517 12.9589C12.6678 13.0429 12.5539 13.09 12.4352 13.09ZM12.3289 11.1454H7.80691C7.68822 11.1454 7.5744 11.0983 7.49047 11.0143C7.40655 10.9304 7.3594 10.8166 7.3594 10.6979C7.3594 10.5792 7.40655 10.4654 7.49047 10.3815C7.5744 10.2975 7.68822 10.2504 7.80691 10.2504H12.3289C12.4476 10.2504 12.5614 10.2975 12.6453 10.3815C12.7293 10.4654 12.7764 10.5792 12.7764 10.6979C12.7764 10.8166 12.7293 10.9304 12.6453 11.0143C12.5614 11.0983 12.4476 11.1454 12.3289 11.1454Z" fill="#333"/>
</svg>
