<svg fill="none" xmlns="http://www.w3.org/2000/svg" viewBox="0 0 8 8" class="design-iconfont">
  <g clip-path="url(#dw3euxu82__clip0_3254_1059)" fill="#5B7FF1">
    <path d="M3.86319 7.46639C3.89999 7.50159 3.94959 7.52159 4.00079 7.52159C4.05199 7.52159 4.10159 7.50159 4.13839 7.46639M4.13919 7.46639L7.84319 3.91919C8.00639 3.76319 7.99599 3.50399 7.83359 3.34879C7.67119 3.19359 7.40879 3.19279 7.24639 3.34799L4.00159 6.45199L0.757588 3.34799C0.594388 3.19199 0.331988 3.19359 0.170388 3.34879C0.00718775 3.50319 -0.00321225 3.76319 0.159988 3.91839L3.86399 7.46559H4.13919V7.46639Z"/>
    <path d="M3.86078 4.71361C3.89758 4.74881 3.94718 4.76801 3.99838 4.76801C4.04958 4.76801 4.09918 4.74801 4.13598 4.71361M4.13678 4.71361L7.84078 1.16641C8.00398 1.01041 7.99358 0.751214 7.83118 0.596014C7.66878 0.440814 7.40638 0.440014 7.24398 0.595214L3.99918 3.69921L0.754376 0.595214C0.591176 0.439214 0.328776 0.440814 0.167176 0.596014C0.00477622 0.751214 -0.00562378 1.01121 0.157576 1.16641L3.86158 4.71361H4.13678Z"/>
  </g>
  <defs>
    <clipPath id="dw3euxu82__clip0_3254_1059">
      <path fill="#fff" d="M0 0H8V8H0z"/>
    </clipPath>
  </defs>
</svg>
