<svg xmlns="http://www.w3.org/2000/svg" fill="none" viewBox="0 0 14 15" class="design-iconfont">
  <path d="M8.77031 4.43057C8.77031 4.18857 8.5748 3.9917 8.33281 3.9917H3.08691C2.84492 3.9917 2.64941 4.18857 2.64941 4.43057C2.64941 4.67256 2.84492 4.86943 3.08691 4.86943H8.33418C8.5748 4.86807 8.77031 4.67256 8.77031 4.43057ZM8.77031 7.06104C8.77031 6.81904 8.5748 6.62217 8.33281 6.62217H3.08691C2.84492 6.62217 2.64941 6.81904 2.64941 7.06104C2.64941 7.30303 2.84492 7.4999 3.08691 7.4999H8.33418C8.5748 7.4999 8.77031 7.30303 8.77031 7.06104ZM3.08691 9.254C2.84492 9.254 2.64941 9.45088 2.64941 9.69287C2.64941 9.93486 2.84492 10.1317 3.08691 10.1317H5.71055C5.95254 10.1317 6.14805 9.93486 6.14805 9.69287C6.14805 9.45088 5.95254 9.254 5.71055 9.254H3.08691Z" fill="#3263FE"/>
  <path d="M8.31113 12.3234H2.18477C1.94414 12.3234 1.74863 12.1266 1.74863 11.8846V3.11406C1.74863 2.87207 1.94414 2.6752 2.18477 2.6752H9.21484C9.45547 2.6752 9.65098 2.87207 9.65098 3.11406V7.5C9.65098 7.74199 9.84648 7.93887 10.0871 7.93887C10.3277 7.93887 10.5232 7.74199 10.5232 7.5V2.67656C10.5232 2.19258 10.1322 1.79883 9.64961 1.79883H1.74727C1.26602 1.79883 0.875 2.19121 0.875 2.67656V12.3248C0.875 12.8088 1.26602 13.2025 1.74863 13.2025H8.31113C8.55176 13.2025 8.74726 13.0057 8.74726 12.7637C8.74863 12.5203 8.55312 12.3234 8.31113 12.3234Z" fill="#3263FE"/>
  <path d="M13.1251 10.1386C13.1251 10.0388 13.0909 9.94717 13.0349 9.87334C12.9556 9.76396 12.8271 9.69287 12.6808 9.69287H8.49717L8.81299 9.37705C8.98389 9.20615 8.98389 8.92861 8.81299 8.75635C8.64209 8.58545 8.36455 8.58545 8.19365 8.75635L7.12998 9.82139C7.12451 9.82685 7.12041 9.83232 7.11494 9.83779C7.11357 9.84053 7.11084 9.84189 7.10947 9.84463C7.10674 9.84736 7.104 9.8501 7.10127 9.8542C7.09854 9.85693 7.0958 9.86104 7.09307 9.86377C7.0917 9.8665 7.08897 9.86787 7.0876 9.87061C7.08486 9.87471 7.08213 9.87744 7.07939 9.88154C7.07803 9.88428 7.07666 9.88564 7.07529 9.88838C7.07256 9.89248 7.06982 9.89658 7.06846 9.90068C7.06709 9.90342 7.06572 9.90478 7.06436 9.90752C7.06162 9.91162 7.06025 9.91572 7.05752 9.91982C7.05615 9.92256 7.05479 9.92393 7.05342 9.92666C7.05205 9.93076 7.04932 9.9335 7.04795 9.9376L7.04385 9.9458C7.04248 9.94854 7.04111 9.95264 7.03975 9.95674C7.03838 9.95947 7.03701 9.96357 7.03564 9.96631C7.03428 9.96904 7.03291 9.97178 7.03154 9.97588C7.03018 9.97998 7.02881 9.98271 7.02744 9.98682C7.02607 9.98955 7.02607 9.99228 7.02471 9.99502L7.02061 10.0073C7.01924 10.0101 7.01924 10.0114 7.01924 10.0142C7.01787 10.0183 7.0165 10.0237 7.01514 10.0278C7.01514 10.0306 7.01377 10.0319 7.01377 10.0347C7.0124 10.0388 7.01104 10.0442 7.01104 10.0483C7.01104 10.0511 7.00967 10.0524 7.00967 10.0552C7.0083 10.0593 7.0083 10.0647 7.00693 10.0688C7.00693 10.0716 7.00693 10.0743 7.00557 10.0771C7.00557 10.0812 7.0042 10.0853 7.0042 10.0907C7.0042 10.0948 7.0042 10.0976 7.00283 10.1017C7.00283 10.1058 7.00283 10.1085 7.00146 10.1126V10.1563C7.00146 10.1604 7.00147 10.1632 7.00283 10.1673C7.00283 10.1714 7.00283 10.1741 7.0042 10.1782C7.0042 10.1823 7.00557 10.1878 7.00557 10.1919C7.00557 10.1946 7.00557 10.1974 7.00693 10.2001C7.0083 10.2042 7.0083 10.2097 7.00967 10.2138C7.00967 10.2165 7.01104 10.2179 7.01104 10.2206C7.0124 10.2247 7.0124 10.2302 7.01377 10.2343C7.01377 10.237 7.01514 10.2384 7.01514 10.2411C7.0165 10.2452 7.01787 10.2507 7.01924 10.2548C7.01924 10.2575 7.02061 10.2589 7.02061 10.2616L7.02471 10.2739C7.02607 10.2767 7.02607 10.2794 7.02744 10.2821C7.02881 10.2862 7.03018 10.289 7.03154 10.2931C7.03291 10.2958 7.03428 10.2999 7.03564 10.3026C7.03701 10.3054 7.03838 10.3095 7.03975 10.3122C7.04111 10.3163 7.04248 10.319 7.04385 10.3231L7.04795 10.3313C7.04932 10.3354 7.05205 10.3382 7.05342 10.3423C7.05479 10.345 7.05615 10.3464 7.05752 10.3491C7.06025 10.3532 7.06162 10.3573 7.06436 10.3614C7.06572 10.3642 7.06709 10.3655 7.06846 10.3683C7.07119 10.3724 7.07393 10.3765 7.07529 10.3806C7.07666 10.3833 7.07803 10.3847 7.07939 10.3874C7.08213 10.3915 7.08486 10.3942 7.0876 10.3983C7.08897 10.4011 7.0917 10.4024 7.09307 10.4052C7.0958 10.4079 7.09854 10.412 7.10127 10.4147C7.104 10.4175 7.10674 10.4202 7.10947 10.4243C7.11084 10.4271 7.11357 10.4284 7.11494 10.4312C7.12041 10.4366 7.12451 10.4421 7.12998 10.4476L8.19365 11.5126C8.27979 11.5987 8.39189 11.6411 8.504 11.6411C8.61611 11.6411 8.72822 11.5987 8.81436 11.5126C8.98525 11.3417 8.98525 11.0642 8.81436 10.8919L8.49854 10.5761H12.2487V11.8749H11.8112C11.5692 11.8749 11.3737 12.0718 11.3737 12.3138C11.3737 12.5558 11.5692 12.7526 11.8112 12.7526H12.6876C12.8079 12.7526 12.9173 12.7034 12.9966 12.6255C12.9966 12.6255 12.9979 12.6255 12.9979 12.6241L12.9993 12.6228C13.0772 12.5435 13.1265 12.4354 13.1265 12.3151V10.1386H13.1251Z" fill="#3263FE"/>
</svg>
