<svg xmlns="http://www.w3.org/2000/svg" fill="none" viewBox="0 0 14 14" class="design-iconfont">
  <path d="M7.64246 1.52441L11.7878 6.35195C12.0065 6.60625 12.0544 6.95351 11.9149 7.25839C11.7755 7.56328 11.4802 7.75195 11.1452 7.75195H9.62488V11.4611C9.62488 12.1844 9.03562 12.7736 8.31238 12.7736H5.68738C4.96414 12.7736 4.37488 12.1844 4.37488 11.4611V7.75195H2.85457C2.51961 7.75195 2.22429 7.56328 2.08484 7.25839C1.94539 6.95351 1.99324 6.60625 2.21199 6.35195L6.3573 1.52441C6.51863 1.3371 6.75242 1.2291 6.99988 1.2291C7.24734 1.2291 7.48113 1.3371 7.64246 1.52441ZM5.24988 6.87695V11.4611C5.24988 11.7018 5.44676 11.8986 5.68738 11.8986H8.31238C8.55301 11.8986 8.74988 11.7018 8.74988 11.4611V6.87695H11.085L6.99988 2.11913L2.91472 6.87695H5.24988Z" fill="#666"/>
</svg>
