<svg width="36" height="36" viewBox="0 0 36 36" fill="none" xmlns="http://www.w3.org/2000/svg">
<g clip-path="url(#clip0_3844_1672)">
<rect width="36" height="36" rx="18" fill="#FFDE89"/>
<path d="M25.9797 34.7639C25.9797 41.5 22.4479 42.4968 18.0881 42.4968H17.912C13.5522 42.4968 10.0204 40.7234 10.0204 34.7639V29.772C10.0204 25.5027 13.5522 22.0391 17.912 22.0391H18.0881C22.4479 22.0391 25.9797 25.5027 25.9797 29.772V34.7639Z" fill="#F7A1AA"/>
<path d="M18.8057 33.4971C15.8419 33.9041 12.6844 33.36 11.8389 31.7694C10.9978 30.1788 11.5262 26.7443 12.2484 25.5856C12.9707 24.4269 14.0584 24.2691 14.3226 24.4934C14.5869 24.7218 14.807 25.677 18.3257 27.5624C21.1661 29.0866 24.7156 29.5268 25.9751 29.6431C25.9751 29.5185 25.9707 29.3939 25.9619 29.2693C24.3457 29.1655 20.9768 28.1688 20.1797 27.6995C19.2901 27.1762 20.0608 26.927 20.5408 26.7235C21.0208 26.52 21.8443 26.0881 22.7603 25.4029C23.2711 25.0249 23.7335 24.8131 24.0462 24.701C23.8392 24.4684 23.619 24.2442 23.3856 24.0365C22.2979 25.3987 19.7833 26.6529 18.5679 26.8813C18.0879 26.9519 17.2644 26.4037 16.2075 25.3821C15.1461 24.3605 15.2915 23.1561 15.2915 23.1561L14.8907 22.6328C12.0371 23.7957 10.0289 26.5533 10.0289 29.776V34.7679C10.0289 40.7275 13.5608 42.5008 17.9205 42.5008H18.0967C20.0432 42.5008 21.8223 42.3014 23.1963 41.4791C21.6946 42.0855 19.7789 42.1727 17.6563 41.9775C14.4724 41.6826 11.9666 39.9093 11.3897 38.0238C10.8128 36.1384 12.7152 37.2971 15.4896 38.3395C19.2505 39.5231 23.5442 39.3196 24.6011 38.9998C24.9226 38.9043 25.1912 38.7922 25.4202 38.6717C25.4686 38.5347 25.5127 38.3935 25.5567 38.244C24.3016 38.9915 21.9588 39.1493 18.7705 38.6343C14.4547 37.8826 11.7772 35.6317 11.5394 34.7014C11.2972 33.767 14.7938 34.8136 19.18 33.9747C22.5049 33.3351 24.9842 32.3342 25.9927 31.8857V31.2295C24.6671 32.0975 21.4656 33.1316 18.8189 33.4971H18.8057Z" fill="#F28897"/>
<path d="M17.5026 24.6675C17.5026 24.6675 19.8718 24.871 21.1533 24.2232C22.4392 23.5753 22.6726 24.2232 21.7875 24.9209C20.9023 25.6186 18.7313 26.4741 18.0266 26.063C17.322 25.6518 16.525 25.0413 16.4369 24.7506C16.3444 24.4599 16.9433 24.6302 17.5026 24.6634V24.6675Z" fill="#FCBEC7"/>
<path d="M23.289 25.8803C23.289 25.8803 22.3862 26.5116 21.664 26.769C20.9418 27.0224 20.039 27.2633 21.413 27.7076C22.787 28.152 25.4469 29.0366 25.1915 27.9983C24.936 26.9559 24.1081 25.2034 23.2934 25.8845L23.289 25.8803Z" fill="#FCBEC7"/>
<path d="M14.8998 26.5818C14.8998 26.5818 19.4313 29.331 23.3639 29.9457C25.0769 30.307 25.8212 30.4233 24.3547 31.3079C22.8838 32.1966 18.9292 32.8777 16.4719 32.9898C14.0102 33.102 12.2751 31.8976 12.4909 29.194C12.7331 26.399 13.288 25.3525 14.8998 26.5776V26.5818Z" fill="#FCBEC7"/>
<path d="M15.9392 35.2201C15.9392 35.2201 20.8582 34.8339 23.2187 33.7873C25.5791 32.7407 25.218 34.1943 25.1475 35.5357C25.0771 36.8771 24.6895 38.1272 22.1353 38.2186C19.5811 38.3099 15.9876 37.334 13.6492 35.9925C12.3457 34.9917 13.4334 35.2201 15.9392 35.2201Z" fill="#FCBEC7"/>
<path d="M29.0227 13.9224C28.415 9.29597 23.7073 5.69531 17.9868 5.69531C12.2663 5.69531 7.5586 9.29597 6.95088 13.9224C5.84993 14.0678 5 14.9524 5 16.0321C5 17.2157 6.01728 18.1709 7.26795 18.1709C7.37365 18.1709 7.47493 18.1543 7.57622 18.1419C9.14397 21.6636 13.2131 24.172 17.9868 24.172C22.7605 24.172 26.834 21.6636 28.4018 18.1419C28.5119 18.1585 28.6175 18.1751 28.7276 18.1751C29.9827 18.1751 31 17.2157 31 16.0363C31 14.9482 30.1369 14.0595 29.0227 13.9224Z" fill="#FFC69F"/>
<path d="M19.6426 22.6149C13.5125 22.6149 8.54065 18.4785 8.54065 13.3744C8.54065 11.4018 9.28489 9.57858 10.5488 8.0752C8.58028 9.55366 7.25474 11.6094 6.95088 13.9226C5.84993 14.068 5 14.9526 5 16.0324C5 17.216 6.01728 18.1711 7.26795 18.1711C7.37364 18.1711 7.47493 18.1545 7.57622 18.1421C9.14397 21.6638 13.2131 24.1722 17.9868 24.1722C21.7432 24.1722 25.0549 22.619 27.063 20.2435C25.0989 21.7137 22.4963 22.6107 19.6382 22.6107L19.6426 22.6149Z" fill="#FFBE92"/>
<path d="M28.3753 14.5289C28.045 14.5289 27.7763 14.5455 27.5518 14.5704C27.3756 11.6965 24.8258 8.92647 21.1046 7.91314C16.5995 6.68385 12.09 8.4821 11.0331 11.9291C9.97621 15.3761 12.7726 19.1678 17.2733 20.3971C21.3424 21.5059 25.4027 20.1437 26.9308 17.3322C27.2567 17.382 27.7147 17.4111 28.3753 17.4111C29.3793 17.4111 29.9518 16.7673 29.9518 15.97C29.9518 15.1726 29.3793 14.5289 28.3753 14.5289Z" fill="#FFCDAB"/>
<path d="M25.6583 14.9029C25.6583 14.9029 25.6803 14.9112 25.6935 14.9195C25.8036 14.9818 25.8212 15.0939 25.7375 15.1728C25.7155 15.1936 25.1738 15.6837 24.2887 15.5217C23.725 15.3847 23.3287 15.0026 23.311 14.5873C23.311 14.4876 23.4167 14.4045 23.5576 14.4004C23.6986 14.4004 23.8175 14.4751 23.8219 14.5748C23.8307 14.8365 24.0905 15.0898 24.4384 15.1728C24.9757 15.2684 25.3236 14.961 25.3368 14.9486C25.416 14.878 25.5526 14.8572 25.6583 14.9029Z" fill="#382012"/>
<path d="M11.4867 16.7596C11.6056 17.3617 11.0859 17.9598 10.3285 18.0968C9.56661 18.2297 8.85319 17.8518 8.73429 17.2496C8.61099 16.6474 9.13063 16.0494 9.89249 15.9123C10.6499 15.7794 11.3634 16.1574 11.4867 16.7596Z" fill="#FF8F8F"/>
<path d="M10.7513 14.8948C10.7513 14.8948 10.7293 14.9031 10.7205 14.9114C10.6104 14.9737 10.5884 15.0859 10.672 15.1648C10.6941 15.1855 11.2269 15.6798 12.1165 15.5261C12.6846 15.3932 13.0853 15.0153 13.1117 14.6C13.1162 14.5003 13.0061 14.4172 12.8695 14.4131C12.7286 14.4131 12.6097 14.4878 12.6053 14.5875C12.5877 14.8492 12.3279 15.0983 11.98 15.1814C11.4427 15.2769 11.0948 14.9654 11.0816 14.9488C11.0023 14.8782 10.8658 14.8575 10.7557 14.899L10.7513 14.8948Z" fill="#382012"/>
<path d="M24.9491 16.7596C24.8258 17.3617 25.3455 17.9598 26.1073 18.0968C26.8648 18.2297 27.5826 17.8518 27.7015 17.2496C27.8204 16.6474 27.3008 16.0494 26.5433 15.9123C25.7859 15.7794 25.068 16.1574 24.9491 16.7596Z" fill="#FF8F8F"/>
<path d="M17.4053 16.17C17.4053 16.17 17.6783 15.6592 18.264 15.6592C18.6471 15.6592 18.9818 15.9001 19.0743 16.17C19.0743 16.17 18.8013 15.8544 18.264 15.8544C17.9602 15.8544 17.5946 16.0205 17.4053 16.17Z" fill="#F9AB75"/>
<path d="M5.86328 15.4557C5.86328 15.4557 6.24201 14.8743 7.00827 14.8951C7.47507 14.9158 7.96389 15.5346 7.8582 16.1534C7.60278 15.7132 7.26369 14.6916 5.86328 15.4557Z" fill="#F49F64"/>
<path d="M7.30746 15.2846C7.30746 15.2846 6.65129 15.3926 6.68212 16.2854C6.72616 16.8378 7.47921 17.0953 7.91078 16.9084C7.56288 17.2572 6.51037 17.1991 6.35184 16.3187C6.25495 15.6874 6.75258 15.1891 6.97717 15.0479C7.25461 15.1101 7.30746 15.2887 7.30746 15.2887V15.2846Z" fill="#F49F64"/>
<path d="M30.1368 15.4557C30.1368 15.4557 29.7537 14.8743 28.9918 14.8951C28.525 14.9158 28.0362 15.5346 28.1419 16.1534C28.3973 15.7132 28.732 14.6916 30.1368 15.4557Z" fill="#F49F64"/>
<path d="M28.6971 15.2846C28.6971 15.2846 29.3532 15.3926 29.3224 16.2854C29.2784 16.8378 28.5253 17.0953 28.0938 16.9084C28.4416 17.2572 29.4942 17.1991 29.6483 16.3187C29.7452 15.6874 29.2475 15.1891 29.023 15.0479C28.7455 15.1101 28.6971 15.2887 28.6971 15.2887V15.2846Z" fill="#F49F64"/>
<path d="M19.1186 17.8474C19.1186 18.3084 18.7443 18.6822 18.2863 18.6822C17.8283 18.6822 17.454 18.3084 17.454 17.8474C17.454 17.3865 17.8239 17.0127 18.2863 17.0127C18.7487 17.0127 19.1186 17.3865 19.1186 17.8474Z" fill="#B24329"/>
<path d="M19.5017 6.24434C19.5017 6.24434 17.6037 6.88806 17.4848 8.57003C17.6257 9.8533 19.2154 9.95713 19.5017 9.19713C19.7879 8.43713 18.9688 8.20456 18.5329 8.45374C18.9028 7.79341 19.9905 8.13396 19.9245 9.08915C19.8584 10.0443 18.044 10.7504 17.1589 9.5086C16.2737 8.26686 17.0488 7.12893 18.1673 6.42292C18.8499 5.92041 19.5017 6.24434 19.5017 6.24434Z" fill="#442B1D"/>
<path d="M18.9114 5.20187C18.9114 5.20187 22.0161 2.45673 22.9012 3.93935C23.782 5.42198 23.0906 8.25432 21.8664 8.0799C20.6377 7.90547 18.9158 6.73017 18.722 6.38132C18.7617 5.50919 18.9158 5.20602 18.9158 5.20602L18.9114 5.20187Z" fill="#F7A1AA"/>
<path d="M23.0116 7.10864C22.5492 7.40766 21.8798 7.70668 21.2985 7.42842C20.3033 6.95083 19.9818 6.27389 19.7968 5.53465C19.6999 5.14012 19.8277 4.71236 19.973 4.39258C19.3653 4.80788 18.9117 5.20657 18.9117 5.20657C18.9117 5.20657 18.7575 5.51389 18.7179 6.38187C18.9117 6.73072 20.6335 7.91017 21.8622 8.08045C22.3554 8.15105 22.7606 7.73159 23.0116 7.10864Z" fill="#F28897"/>
<path d="M20.7434 5.59601C20.7434 5.59601 20.8579 6.55535 21.6242 6.70901C22.3861 6.85852 22.7075 5.96978 22.734 5.44235C22.756 4.91907 22.4345 3.89743 21.6242 4.22136C20.8139 4.54945 20.6069 4.98552 20.7434 5.59601Z" fill="#FCBEC7"/>
<path d="M17.5251 5.20187C17.5251 5.20187 14.4204 2.45673 13.5397 3.93935C12.6589 5.42198 13.3503 8.25432 14.5746 8.0799C15.8032 7.90547 17.5295 6.73017 17.7189 6.38132C17.6792 5.50919 17.5251 5.20602 17.5251 5.20602V5.20187Z" fill="#F7A1AA"/>
<path d="M14.9878 7.33578C13.8912 7.49359 13.2263 5.24267 13.7283 3.70605C13.6578 3.76835 13.5918 3.8431 13.5345 3.93862C12.6538 5.42125 13.3452 8.25359 14.5694 8.07917C15.7981 7.90474 17.5244 6.72944 17.7137 6.38059C17.7093 6.26015 17.7005 6.15633 17.6917 6.05666C17.0576 6.54256 15.8906 7.21119 14.9834 7.33993L14.9878 7.33578Z" fill="#F28897"/>
<path d="M19.5414 5.95368C19.5414 6.65554 18.9689 7.22866 18.2599 7.22866C17.5509 7.22866 16.9784 6.65969 16.9784 5.95368C16.9784 5.24767 17.5509 4.67871 18.2599 4.67871C18.9689 4.67871 19.5414 5.24767 19.5414 5.95368Z" fill="#F7A1AA"/>
<path d="M18.6739 6.81323C17.9648 6.81323 17.3923 6.24427 17.3923 5.53826C17.3923 5.29738 17.4628 5.06897 17.5817 4.87793C17.2206 5.10219 16.9784 5.50088 16.9784 5.95771C16.9784 6.65957 17.5509 7.23268 18.2599 7.23268C18.7223 7.23268 19.1274 6.98766 19.352 6.61804C19.1539 6.74263 18.9205 6.81323 18.6739 6.81323Z" fill="#F28897"/>
<path d="M19.0701 5.49592C19.2418 5.82817 19.1582 6.20194 18.8807 6.32653C18.6033 6.45527 18.2422 6.285 18.0704 5.95276C17.8987 5.62052 17.9824 5.24674 18.2598 5.12215C18.5372 4.99341 18.8983 5.16368 19.0701 5.49592Z" fill="#FCBEC7"/>
<path d="M16.0755 4.724C16.0755 4.724 14.2479 3.72313 14.2039 4.68247C14.1554 5.64181 14.6222 6.81711 15.3841 6.62192C16.146 6.42673 16.4234 5.99067 16.4939 5.64181C16.5643 5.29296 16.2605 4.76968 16.0799 4.724H16.0755Z" fill="#FCBEC7"/>
<path d="M17.1192 27.7435C16.9695 27.6314 16.7757 27.5566 16.5688 27.5566C16.0799 27.5566 15.6836 27.9346 15.6836 28.3955C15.6836 28.6572 15.8157 28.8898 16.0183 29.0434C16.19 29.2303 17.1192 30.1855 18.2774 30.4554L18.3479 30.1896C17.6389 30.0235 17.0091 29.5667 16.6172 29.2262C17.084 29.2054 17.4583 28.8399 17.4583 28.3955C17.4583 28.3249 17.4451 28.2585 17.4275 28.192C17.8503 28.408 18.4888 28.7859 18.9248 29.2843L19.1494 29.1099C18.4448 28.3042 17.3042 27.8183 17.1192 27.7435ZM16.5688 28.9562C16.441 28.9562 16.3221 28.9188 16.2253 28.8524C16.2165 28.8399 16.212 28.8358 16.212 28.8358C16.0711 28.7361 15.9786 28.5741 15.9786 28.3955C15.9786 28.0841 16.2473 27.8307 16.5732 27.8307C16.899 27.8307 17.1721 28.0841 17.1721 28.3955C17.1721 28.707 16.9034 28.9562 16.5732 28.9562H16.5688Z" fill="#C6B5A3"/>
<path d="M18.3127 30.3149C17.2822 30.0824 16.3133 29.1479 16.212 29.0649C16.102 28.9735 15.8289 28.6828 15.8069 28.4461C15.8201 28.0017 16.102 27.7318 16.2649 27.6113C15.9258 27.7276 15.6836 28.0349 15.6836 28.3921C15.6836 28.6537 15.8157 28.8863 16.0183 29.04C16.19 29.2268 17.1192 30.182 18.2774 30.452L18.3127 30.3108V30.3149Z" fill="#BAA897"/>
<path d="M18.9248 29.2846L19.0173 29.214C18.5637 28.6617 17.7578 28.2256 17.4275 28.1924C17.8503 28.4083 18.4888 28.7863 18.9248 29.2846Z" fill="#BAA897"/>
<path d="M16.6174 29.0524C16.6174 29.0524 17.0445 29.0607 17.2251 28.6537C17.3176 28.4128 17.2471 28.0681 17.0622 27.9145C16.8772 27.7608 16.3752 27.6362 16.1241 27.9062C16.2475 27.6528 16.5998 27.603 16.8508 27.6985C17.0269 27.7774 17.1767 27.8937 17.3352 27.9602C17.4937 28.0224 18.304 28.3755 18.7576 28.8198C18.8149 28.878 18.696 28.8198 18.5815 28.7243C18.467 28.6371 18.0134 28.309 17.5686 28.1512C17.4145 28.1138 17.322 28.0806 17.3572 28.2467C17.3924 28.417 17.3792 28.824 17.0313 29.015C16.7583 29.1604 16.4324 29.1022 16.6174 29.0482V29.0524Z" fill="#D8CABF"/>
<path d="M20.193 29.3344C19.6381 28.7779 19.0127 28.6741 18.7353 29.0063C18.4579 29.3344 18.5063 29.4632 18.6648 29.5753C18.7617 29.65 18.9731 29.7746 19.114 29.8577C19.1801 29.812 19.2549 29.7829 19.3386 29.7829C19.55 29.7829 19.7261 29.9449 19.7261 30.1484C19.7261 30.3519 19.5544 30.5097 19.3386 30.5097C19.1228 30.5097 18.9511 30.3477 18.9511 30.1484C18.9511 30.082 18.9731 30.0238 19.0083 29.9698C18.9203 29.9075 18.8102 29.8245 18.6736 29.7373C18.3742 29.5462 18.3125 29.6583 18.3125 29.6583C18.3125 29.6583 18.132 29.7165 17.9646 30.0197C17.7488 30.4059 18.0483 30.8503 18.6516 31.17C19.2549 31.4898 20.052 31.2282 20.2678 30.8544C20.488 30.4806 20.7478 29.8992 20.1974 29.3427L20.193 29.3344Z" fill="#BC6499"/>
<path d="M20.2635 30.8457C20.2944 30.7917 20.3296 30.7295 20.3604 30.6672C20.1094 30.9745 19.6954 31.1697 19.3564 31.1448C18.8499 31.1115 18.1805 30.7336 18.1717 30.3017C18.1629 29.957 18.4316 29.7369 18.5461 29.6621C18.3567 29.5749 18.3127 29.6538 18.3127 29.6538C18.3127 29.6538 18.1321 29.712 17.9648 30.0151C17.749 30.4014 18.0484 30.8457 18.6517 31.1655C19.2551 31.4853 20.0522 31.2237 20.2679 30.8499L20.2635 30.8457Z" fill="#A34F7D"/>
<path d="M18.6606 29.571C18.7575 29.6458 18.9689 29.7704 19.1098 29.8534C19.1758 29.8077 19.2507 29.7787 19.3344 29.7787C19.5458 29.7787 19.7219 29.9406 19.7219 30.1441C19.7219 30.2272 19.6867 30.2978 19.6382 30.3601C19.9465 30.1441 19.7571 29.7579 19.5634 29.6499C19.3652 29.5378 19.2727 29.7081 18.9116 29.463C18.665 29.2928 18.8411 29.0104 18.9777 28.8525C18.8808 28.8816 18.7971 28.9314 18.7311 29.0104C18.4536 29.3384 18.5021 29.4672 18.6606 29.5793V29.571Z" fill="#A34F7D"/>
<path d="M19.1582 29.0563C19.1582 29.0563 18.9688 29.2515 19.1582 29.3553C19.3211 29.4425 19.5765 29.3304 19.8363 29.5546C20.0962 29.7747 20.0609 30.2274 19.8363 30.4849C19.6074 30.7382 19.167 30.7507 18.9512 30.5264C18.7354 30.3063 18.8983 30.0904 18.6649 30.0156C18.4271 29.9409 18.3038 30.161 18.4492 30.4683C18.5945 30.7756 19.0833 31.1245 19.6602 30.9293C20.2371 30.7341 20.3736 30.2316 20.2547 29.8661C20.1358 29.5006 19.5589 28.7988 19.1626 29.0646L19.1582 29.0563Z" fill="#D381B6"/>
</g>
<defs>
<clipPath id="clip0_3844_1672">
<rect width="36" height="36" rx="18" fill="white"/>
</clipPath>
</defs>
</svg>
