<svg xmlns="http://www.w3.org/2000/svg" fill="none" viewBox="0 0 16 16" class="design-iconfont">
  <path d="M5.95196 1.056C6.22929 1.056 6.46663 1.15467 6.66396 1.352C6.86129 1.54933 6.95996 1.78667 6.95996 2.064V6.064C6.95996 6.34133 6.86129 6.57867 6.66396 6.776C6.46663 6.97333 6.22929 7.072 5.95196 7.072H1.95196C1.67463 7.072 1.43996 6.97333 1.24796 6.776C1.05596 6.57867 0.959961 6.34133 0.959961 6.064V2.064C0.959961 1.78667 1.05596 1.54933 1.24796 1.352C1.43996 1.15467 1.67463 1.056 1.95196 1.056H5.95196ZM5.95196 9.072C6.22929 9.072 6.46663 9.168 6.66396 9.36C6.86129 9.552 6.95996 9.78667 6.95996 10.064V14.064C6.95996 14.3413 6.86129 14.5787 6.66396 14.776C6.46663 14.9733 6.22929 15.072 5.95196 15.072H1.95196C1.67463 15.072 1.43996 14.9733 1.24796 14.776C1.05596 14.5787 0.959961 14.3413 0.959961 14.064V10.064C0.959961 9.78667 1.05596 9.552 1.24796 9.36C1.43996 9.168 1.67463 9.072 1.95196 9.072H5.95196ZM13.968 1.056C14.2453 1.056 14.48 1.15467 14.672 1.352C14.864 1.54933 14.96 1.78667 14.96 2.064V6.064C14.96 6.34133 14.864 6.57867 14.672 6.776C14.48 6.97333 14.2453 7.072 13.968 7.072H9.96796C9.69063 7.072 9.45329 6.97333 9.25596 6.776C9.05863 6.57867 8.95996 6.34133 8.95996 6.064V2.064C8.95996 1.78667 9.05863 1.54933 9.25596 1.352C9.45329 1.15467 9.69063 1.056 9.96796 1.056H13.968ZM13.968 9.072C14.2453 9.072 14.48 9.168 14.672 9.36C14.864 9.552 14.96 9.78667 14.96 10.064V14.064C14.96 14.3413 14.864 14.5787 14.672 14.776C14.48 14.9733 14.2453 15.072 13.968 15.072H9.96796C9.69063 15.072 9.45329 14.9733 9.25596 14.776C9.05863 14.5787 8.95996 14.3413 8.95996 14.064V10.064C8.95996 9.78667 9.05863 9.552 9.25596 9.36C9.45329 9.168 9.69063 9.072 9.96796 9.072H13.968Z" fill="#3263FE"/>
</svg>
