<svg xmlns="http://www.w3.org/2000/svg" fill="none" viewBox="0 0 16 16" class="design-iconfont">
  <path d="M6.50004 1.33334H2.16671C1.94577 1.33359 1.73395 1.42147 1.57773 1.5777C1.4215 1.73392 1.33362 1.94574 1.33337 2.16668V6.50001C1.33362 6.72095 1.4215 6.93277 1.57773 7.08899C1.73395 7.24522 1.94577 7.3331 2.16671 7.33334H6.50004C6.72098 7.3331 6.9328 7.24522 7.08902 7.08899C7.24525 6.93277 7.33313 6.72095 7.33337 6.50001V2.16668C7.33313 1.94574 7.24525 1.73392 7.08902 1.5777C6.9328 1.42147 6.72098 1.33359 6.50004 1.33334ZM6.66671 6.50001C6.66671 6.5219 6.6624 6.54357 6.65402 6.56379C6.64564 6.58401 6.63337 6.60239 6.61789 6.61786C6.60242 6.63334 6.58404 6.64561 6.56382 6.65399C6.5436 6.66237 6.52193 6.66668 6.50004 6.66668H2.16671C2.14482 6.66668 2.12315 6.66237 2.10293 6.65399C2.08271 6.64561 2.06433 6.63334 2.04886 6.61786C2.03338 6.60239 2.0211 6.58401 2.01273 6.56379C2.00435 6.54357 2.00004 6.5219 2.00004 6.50001V2.16668C2.00004 2.12247 2.0176 2.08008 2.04886 2.04883C2.08011 2.01757 2.1225 2.00001 2.16671 2.00001H6.50004C6.52193 2.00001 6.5436 2.00432 6.56382 2.0127C6.58404 2.02107 6.60242 2.03335 6.61789 2.04883C6.63337 2.0643 6.64564 2.08268 6.65402 2.1029C6.6624 2.12312 6.66671 2.14479 6.66671 2.16668V6.50001ZM13.8334 1.33334H9.50004C9.2791 1.33359 9.06729 1.42147 8.91106 1.5777C8.75483 1.73392 8.66696 1.94574 8.66671 2.16668V6.50001C8.66696 6.72095 8.75483 6.93277 8.91106 7.08899C9.06729 7.24522 9.2791 7.3331 9.50004 7.33334H13.8334C14.0543 7.3331 14.2661 7.24522 14.4224 7.08899C14.5786 6.93277 14.6665 6.72095 14.6667 6.50001V2.16668C14.6665 1.94574 14.5786 1.73392 14.4224 1.5777C14.2661 1.42147 14.0543 1.33359 13.8334 1.33334ZM14 6.50001C14 6.54421 13.9825 6.58661 13.9512 6.61786C13.92 6.64912 13.8776 6.66668 13.8334 6.66668H9.50004C9.47815 6.66668 9.45648 6.66237 9.43626 6.65399C9.41604 6.64561 9.39767 6.63334 9.38219 6.61786C9.36671 6.60239 9.35444 6.58401 9.34606 6.56379C9.33768 6.54357 9.33337 6.5219 9.33337 6.50001V2.16668C9.33337 2.12247 9.35093 2.08008 9.38219 2.04883C9.41345 2.01757 9.45584 2.00001 9.50004 2.00001H13.8334C13.8776 2.00001 13.92 2.01757 13.9512 2.04883C13.9825 2.08008 14 2.12247 14 2.16668V6.50001ZM6.50004 8.66668H2.16671C1.94577 8.66692 1.73395 8.7548 1.57773 8.91103C1.4215 9.06726 1.33362 9.27907 1.33337 9.50001V13.8333C1.33362 14.0543 1.4215 14.2661 1.57773 14.4223C1.73395 14.5786 1.94577 14.6664 2.16671 14.6667H6.50004C6.72098 14.6664 6.9328 14.5786 7.08902 14.4223C7.24525 14.2661 7.33313 14.0543 7.33337 13.8333V9.50001C7.33313 9.27907 7.24525 9.06726 7.08902 8.91103C6.9328 8.7548 6.72098 8.66692 6.50004 8.66668ZM6.66671 13.8333C6.66671 13.8775 6.64915 13.9199 6.61789 13.9512C6.58664 13.9825 6.54424 14 6.50004 14H2.16671C2.1225 14 2.08011 13.9825 2.04886 13.9512C2.0176 13.9199 2.00004 13.8775 2.00004 13.8333V9.50001C2.00004 9.45581 2.0176 9.41341 2.04886 9.38216C2.08011 9.3509 2.1225 9.33334 2.16671 9.33334H6.50004C6.52193 9.33334 6.5436 9.33765 6.56382 9.34603C6.58404 9.35441 6.60242 9.36668 6.61789 9.38216C6.63337 9.39764 6.64564 9.41601 6.65402 9.43623C6.6624 9.45645 6.66671 9.47812 6.66671 9.50001V13.8333ZM13.8334 8.66668H9.50004C9.2791 8.66692 9.06729 8.7548 8.91106 8.91103C8.75483 9.06726 8.66696 9.27907 8.66671 9.50001V13.8333C8.66696 14.0543 8.75483 14.2661 8.91106 14.4223C9.06729 14.5786 9.2791 14.6664 9.50004 14.6667H13.8334C14.0543 14.6664 14.2661 14.5786 14.4224 14.4223C14.5786 14.2661 14.6665 14.0543 14.6667 13.8333V9.50001C14.6665 9.27907 14.5786 9.06726 14.4224 8.91103C14.2661 8.7548 14.0543 8.66692 13.8334 8.66668ZM14 13.8333C14 13.8775 13.9825 13.9199 13.9512 13.9512C13.92 13.9825 13.8776 14 13.8334 14H9.50004C9.45584 14 9.41345 13.9825 9.38219 13.9512C9.35093 13.9199 9.33337 13.8775 9.33337 13.8333V9.50001C9.33337 9.45581 9.35093 9.41341 9.38219 9.38216C9.41345 9.3509 9.45584 9.33334 9.50004 9.33334H13.8334C13.8776 9.33334 13.92 9.3509 13.9512 9.38216C13.9825 9.41341 14 9.45581 14 9.50001V13.8333Z" fill="#3263FE"/>
</svg>
