<svg fill="none" xmlns="http://www.w3.org/2000/svg" viewBox="0 0 16 16" class="design-iconfont">
  <path d="M6.49998 1.33334H2.16665C1.94571 1.33359 1.73389 1.42147 1.57766 1.5777C1.42144 1.73392 1.33356 1.94574 1.33331 2.16668V6.50001C1.33356 6.72095 1.42144 6.93277 1.57766 7.08899C1.73389 7.24522 1.94571 7.3331 2.16665 7.33334H6.49998C6.72092 7.3331 6.93273 7.24522 7.08896 7.08899C7.24519 6.93277 7.33307 6.72095 7.33331 6.50001V2.16668C7.33307 1.94574 7.24519 1.73392 7.08896 1.5777C6.93273 1.42147 6.72092 1.33359 6.49998 1.33334ZM6.66665 6.50001C6.66665 6.5219 6.66233 6.54357 6.65396 6.56379C6.64558 6.58401 6.63331 6.60239 6.61783 6.61786C6.60235 6.63334 6.58398 6.64561 6.56376 6.65399C6.54354 6.66237 6.52187 6.66668 6.49998 6.66668H2.16665C2.14476 6.66668 2.12309 6.66237 2.10287 6.65399C2.08264 6.64561 2.06427 6.63334 2.0488 6.61786C2.03332 6.60239 2.02104 6.58401 2.01267 6.56379C2.00429 6.54357 1.99998 6.5219 1.99998 6.50001V2.16668C1.99998 2.12247 2.01754 2.08008 2.0488 2.04883C2.08005 2.01757 2.12244 2.00001 2.16665 2.00001H6.49998C6.52187 2.00001 6.54354 2.00432 6.56376 2.0127C6.58398 2.02107 6.60235 2.03335 6.61783 2.04883C6.63331 2.0643 6.64558 2.08268 6.65396 2.1029C6.66233 2.12312 6.66665 2.14479 6.66665 2.16668V6.50001ZM13.8333 1.33334H9.49998C9.27904 1.33359 9.06722 1.42147 8.911 1.5777C8.75477 1.73392 8.66689 1.94574 8.66665 2.16668V6.50001C8.66689 6.72095 8.75477 6.93277 8.911 7.08899C9.06722 7.24522 9.27904 7.3331 9.49998 7.33334H13.8333C14.0543 7.3331 14.2661 7.24522 14.4223 7.08899C14.5785 6.93277 14.6664 6.72095 14.6666 6.50001V2.16668C14.6664 1.94574 14.5785 1.73392 14.4223 1.5777C14.2661 1.42147 14.0543 1.33359 13.8333 1.33334ZM14 6.50001C14 6.54421 13.9824 6.58661 13.9512 6.61786C13.9199 6.64912 13.8775 6.66668 13.8333 6.66668H9.49998C9.47809 6.66668 9.45642 6.66237 9.4362 6.65399C9.41598 6.64561 9.3976 6.63334 9.38213 6.61786C9.36665 6.60239 9.35438 6.58401 9.346 6.56379C9.33762 6.54357 9.33331 6.5219 9.33331 6.50001V2.16668C9.33331 2.12247 9.35087 2.08008 9.38213 2.04883C9.41338 2.01757 9.45578 2.00001 9.49998 2.00001H13.8333C13.8775 2.00001 13.9199 2.01757 13.9512 2.04883C13.9824 2.08008 14 2.12247 14 2.16668V6.50001ZM6.49998 8.66668H2.16665C1.94571 8.66692 1.73389 8.7548 1.57766 8.91103C1.42144 9.06726 1.33356 9.27907 1.33331 9.50001V13.8333C1.33356 14.0543 1.42144 14.2661 1.57766 14.4223C1.73389 14.5786 1.94571 14.6664 2.16665 14.6667H6.49998C6.72092 14.6664 6.93273 14.5786 7.08896 14.4223C7.24519 14.2661 7.33307 14.0543 7.33331 13.8333V9.50001C7.33307 9.27907 7.24519 9.06726 7.08896 8.91103C6.93273 8.7548 6.72092 8.66692 6.49998 8.66668ZM6.66665 13.8333C6.66665 13.8775 6.64909 13.9199 6.61783 13.9512C6.58657 13.9825 6.54418 14 6.49998 14H2.16665C2.12244 14 2.08005 13.9825 2.0488 13.9512C2.01754 13.9199 1.99998 13.8775 1.99998 13.8333V9.50001C1.99998 9.45581 2.01754 9.41341 2.0488 9.38216C2.08005 9.3509 2.12244 9.33334 2.16665 9.33334H6.49998C6.52187 9.33334 6.54354 9.33765 6.56376 9.34603C6.58398 9.35441 6.60235 9.36668 6.61783 9.38216C6.63331 9.39764 6.64558 9.41601 6.65396 9.43623C6.66233 9.45645 6.66665 9.47812 6.66665 9.50001V13.8333ZM13.8333 8.66668H9.49998C9.27904 8.66692 9.06722 8.7548 8.911 8.91103C8.75477 9.06726 8.66689 9.27907 8.66665 9.50001V13.8333C8.66689 14.0543 8.75477 14.2661 8.911 14.4223C9.06722 14.5786 9.27904 14.6664 9.49998 14.6667H13.8333C14.0543 14.6664 14.2661 14.5786 14.4223 14.4223C14.5785 14.2661 14.6664 14.0543 14.6666 13.8333V9.50001C14.6664 9.27907 14.5785 9.06726 14.4223 8.91103C14.2661 8.7548 14.0543 8.66692 13.8333 8.66668ZM14 13.8333C14 13.8775 13.9824 13.9199 13.9512 13.9512C13.9199 13.9825 13.8775 14 13.8333 14H9.49998C9.45578 14 9.41338 13.9825 9.38213 13.9512C9.35087 13.9199 9.33331 13.8775 9.33331 13.8333V9.50001C9.33331 9.45581 9.35087 9.41341 9.38213 9.38216C9.41338 9.3509 9.45578 9.33334 9.49998 9.33334H13.8333C13.8775 9.33334 13.9199 9.3509 13.9512 9.38216C13.9824 9.41341 14 9.45581 14 9.50001V13.8333Z" fill="#fff"/>
</svg>
