<svg xmlns="http://www.w3.org/2000/svg" fill="none" viewBox="0 0 16 16" class="design-iconfont">
  <path d="M7.51639 11.1661L2.15764 5.80707C2.02972 5.6776 1.95821 5.50278 1.95874 5.32078C1.95928 5.13877 2.0318 4.96437 2.16048 4.83565C2.28916 4.70694 2.46354 4.63437 2.64555 4.63379C2.82755 4.63321 3.0024 4.70467 3.13189 4.83257L8.00389 9.70507L12.8759 4.83257C13.0074 4.70575 13.1839 4.63631 13.3665 4.6395C13.5492 4.64269 13.7231 4.71824 13.8501 4.84957C13.9741 4.97809 14.0434 5.14972 14.0434 5.32832C14.0434 5.50691 13.9741 5.67854 13.8501 5.80707L8.49139 11.1661C8.42746 11.2301 8.35154 11.2809 8.26796 11.3156C8.18438 11.3503 8.09479 11.3682 8.0043 11.3683C7.9138 11.3684 7.82418 11.3506 7.74055 11.316C7.65692 11.2815 7.58092 11.2308 7.51689 11.1668L7.51614 11.1661H7.51639Z" fill="#fff"/>
</svg>
