<svg xmlns="http://www.w3.org/2000/svg" fill="none" viewBox="0 0 28 28" class="design-iconfont">
  <g clip-path="url(#frm7b8oyd__clip0_2858_10)">
    <path d="M17.5233 4.75067H20.02V7.24267C20.02 7.616 20.3233 7.91933 20.6967 7.91933H20.9183C21.2917 7.91933 21.595 7.616 21.595 7.24267V4.746H24.0917C24.465 4.746 24.7683 4.44267 24.7683 4.06933V3.85C24.7683 3.67054 24.697 3.49842 24.5701 3.37152C24.4432 3.24462 24.2711 3.17333 24.0917 3.17333H21.595V0.676667C21.595 0.497204 21.5237 0.325091 21.3968 0.198191C21.2699 0.0712915 21.0978 0 20.9183 0L20.6967 0C20.5172 0 20.3451 0.0712915 20.2182 0.198191C20.0913 0.325091 20.02 0.497204 20.02 0.676667V3.17333H17.5233C17.3439 3.17333 17.1718 3.24462 17.0449 3.37152C16.918 3.49842 16.8467 3.67054 16.8467 3.85V4.06933C16.8467 4.44733 17.15 4.75067 17.5233 4.75067ZM27.1717 13.594C27.063 13.594 26.9554 13.6154 26.855 13.6571C26.7547 13.6988 26.6635 13.7598 26.5868 13.8368C26.51 13.9137 26.4492 14.005 26.4079 14.1055C26.3665 14.206 26.3454 14.3137 26.3457 14.4223V15.4397H13.9183V11.0343C13.9186 10.9255 13.8974 10.8176 13.8559 10.717C13.8144 10.6163 13.7534 10.5249 13.6764 10.4479C13.5994 10.3709 13.508 10.3099 13.4074 10.2684C13.3067 10.2269 13.1989 10.2057 13.09 10.206H1.65667V3.56533C1.65698 3.45647 1.63576 3.34862 1.59424 3.24798C1.55273 3.14734 1.49172 3.05591 1.41474 2.97893C1.33776 2.90195 1.24633 2.84094 1.14569 2.79943C1.04505 2.75791 0.937201 2.73669 0.828337 2.737C0.719472 2.73669 0.61162 2.75791 0.510983 2.79943C0.410346 2.84094 0.318909 2.90195 0.24193 2.97893C0.164951 3.05591 0.103948 3.14734 0.0624292 3.24798C0.0209106 3.34862 -0.000304658 3.45647 3.30529e-06 3.56533V26.4203C3.30529e-06 26.88 0.36867 27.2487 0.828337 27.2487C0.937005 27.2487 1.04461 27.2272 1.14497 27.1856C1.24534 27.1439 1.3365 27.0829 1.41323 27.0059C1.48997 26.929 1.55076 26.8376 1.59213 26.7371C1.63351 26.6367 1.65464 26.529 1.65434 26.4203V21.3103H16.45C16.5587 21.3106 16.6663 21.2895 16.7668 21.2481C16.8673 21.2068 16.9586 21.146 17.0356 21.0692C17.1125 20.9925 17.1736 20.9013 17.2152 20.801C17.2569 20.7006 17.2783 20.593 17.2783 20.4843C17.2786 20.3755 17.2574 20.2676 17.2159 20.167C17.1744 20.0663 17.1134 19.9749 17.0364 19.8979C16.9594 19.8209 16.868 19.7599 16.7674 19.7184C16.6667 19.6769 16.5589 19.6557 16.45 19.656H1.65667V17.094H26.3433V19.7517H20.7083C20.5997 19.7514 20.492 19.7725 20.3915 19.8139C20.291 19.8552 20.1997 19.916 20.1228 19.9928C20.0458 20.0695 19.9848 20.1607 19.9431 20.261C19.9014 20.3614 19.88 20.469 19.88 20.5777C19.88 21.0373 20.2487 21.406 20.7083 21.406H26.348V26.5253C26.348 26.745 26.4353 26.9557 26.5906 27.1111C26.746 27.2664 26.9567 27.3537 27.1763 27.3537C27.396 27.3537 27.6067 27.2664 27.7621 27.1111C27.9174 26.9557 28.0047 26.745 28.0047 26.5253L28.0023 14.4223C28.0023 14.3137 27.9809 14.2061 27.9392 14.1057C27.8976 14.0053 27.8365 13.9142 27.7596 13.8374C27.6826 13.7607 27.5913 13.6999 27.4908 13.6585C27.3903 13.6172 27.2827 13.596 27.174 13.5963L27.1717 13.594ZM1.65667 11.8627H12.264V15.442H1.65667V11.8603V11.8627Z" fill="#E2E2E2"/>
  </g>
  <defs>
    <clipPath id="frm7b8oyd__clip0_2858_10">
      <path fill="#fff" d="M0 0H28V28H0z"/>
    </clipPath>
  </defs>
</svg>
