<svg xmlns="http://www.w3.org/2000/svg" fill="none" viewBox="0 0 36 36" class="design-iconfont">
  <g clip-path="url(#waeu7194g__clip0_1020_1092)">
    <path d="M18 36C27.9411 36 36 27.9411 36 18C36 8.05887 27.9411 0 18 0C8.05887 0 0 8.05887 0 18C0 27.9411 8.05887 36 18 36Z" fill="#D1E3F9"/>
    <mask id="waeu7194g__og7gb8l5aa" style="mask-type:alpha" maskUnits="userSpaceOnUse" x="0" y="0" width="36" height="36">
      <path d="M18 36C27.9411 36 36 27.9411 36 18C36 8.05887 27.9411 0 18 0C8.05887 0 0 8.05887 0 18C0 27.9411 8.05887 36 18 36Z" fill="#E6ECF3"/>
    </mask>
    <g mask="url(#waeu7194g__og7gb8l5aa)">
      <path d="M18 37.1248C24.8345 37.1248 30.375 34.8582 30.375 32.0623C30.375 29.2663 24.8345 26.9998 18 26.9998C11.1655 26.9998 5.625 29.2663 5.625 32.0623C5.625 34.8582 11.1655 37.1248 18 37.1248Z" fill="#ABBDD2"/>
      <path d="M16.5154 27.465V24.3112H19.9663V27.465H16.5154Z" fill="snow"/>
      <path d="M19.0736 27.1154H17.2148L16.8923 30.5855L17.8342 32.3949H18.7513L19.6045 30.5855L19.0736 27.1154Z" fill="#9DAFBF"/>
      <path d="M11.0596 16.9466C11.0596 16.5553 11.3769 16.238 11.7681 16.238H12.9152V20.5903C11.8904 20.5903 11.0596 19.7595 11.0596 18.7347V16.9466Z" fill="snow"/>
      <path d="M24.9404 16.9466C24.9404 16.5553 24.6231 16.238 24.2318 16.238H23.0848V20.5903C24.1095 20.5903 24.9404 19.7595 24.9404 18.7347V16.9466Z" fill="snow"/>
      <path d="M23.9935 17.1321C23.9935 21.1856 21.3489 25.0453 18.2308 25.0453C15.1126 25.0453 12.1065 21.201 12.1065 17.1475C12.1065 13.094 11.5779 11.1418 18.1183 11.1418C24.6587 11.1418 23.9935 13.0785 23.9935 17.1321Z" fill="#FFF9F9"/>
      <path d="M16.0744 25.4548L14.984 26.5949L16.6519 29.9944C16.7464 30.187 17.0312 30.1507 17.0744 29.9405L17.7103 26.8427L16.0744 25.4548Z" fill="#fff"/>
      <path d="M20.4617 25.4548L21.5522 26.5949L19.8842 29.9944C19.7898 30.187 19.5049 30.1507 19.4618 29.9405L18.8259 26.8427L20.4617 25.4548Z" fill="#fff"/>
      <path d="M11.0695 14.8729C11.1449 16.0837 11.9079 18.3209 12.3495 19.1091C12.0338 15.1992 13.3504 13.5617 13.813 13.2649C15.7048 15.1883 20.7811 14.4631 22.6099 13.2649C23.8207 14.0469 23.8279 17.4169 23.7752 19.1091C25.4148 14.9786 25.1323 13.2649 23.9657 11.8774C23.8396 10.4901 23.1984 9.13442 22.8937 8.63002H20.7811C20.5079 8.25166 19.8856 7.40663 19.583 7.05339C17.7542 6.70656 13.3716 9.26052 13.0247 9.67036C12.7473 10.0992 12.9091 10.7109 13.0247 10.9631L11.5741 11.8774C11.3745 12.3714 10.994 13.6621 11.0695 14.8729Z" fill="#1A233D"/>
    </g>
    <g clip-path="url(#waeu7194g__clip1_1020_1092)">
      <path d="M18 36C27.9411 36 36 27.9411 36 18C36 8.05887 27.9411 0 18 0C8.05887 0 0 8.05887 0 18C0 27.9411 8.05887 36 18 36Z" fill="#F9C7BD"/>
      <mask id="waeu7194g__9x8k72b0zb" style="mask-type:alpha" maskUnits="userSpaceOnUse" x="0" y="0" width="36" height="36">
        <path d="M18 36C27.9411 36 36 27.9411 36 18C36 8.05887 27.9411 0 18 0C8.05887 0 0 8.05887 0 18C0 27.9411 8.05887 36 18 36Z" fill="#E6ECF3"/>
      </mask>
      <g mask="url(#waeu7194g__9x8k72b0zb)">
        <path d="M9.1782 25.6965L18.4023 25.929L26.8732 25.1562L29.2419 36.8834H7.08521L9.1782 25.6965Z" fill="#9F84EC"/>
        <path d="M20.4318 25.8616C20.4318 26.9782 19.715 27.9939 18.2607 27.9939C16.8063 27.9939 16.2501 26.9782 16.2501 25.8616C16.2501 24.745 17.3214 23.9502 18.2607 23.9502C19.1999 23.9502 20.4318 24.745 20.4318 25.8616Z" fill="#F5C39F"/>
        <path d="M16.4285 20.3741H20.3894L21.0233 25.9721H15.3035L16.4285 20.3741Z" fill="#FFF2F2"/>
        <path d="M18.2604 22.6364C20.9446 22.6364 23.1206 19.8498 23.1206 16.4123C23.1206 12.9748 20.9446 10.1881 18.2604 10.1881C15.5761 10.1881 13.4001 12.9748 13.4001 16.4123C13.4001 19.8498 15.5761 22.6364 18.2604 22.6364Z" fill="#FFF9F9"/>
        <path d="M15.8594 15.0257C15.8761 15.7977 14.3035 16.9139 13.5151 17.3754C13.7128 20.36 15.8697 21.8255 16.9235 22.1852C16.4097 26.0632 16.1042 31.7435 12.3777 32.6006C9.32991 33.3016 8.0829 32.4252 7.31014 31.3028C6.5206 30.1562 7.16668 27.0953 7.42336 26.8203C7.09756 26.666 6.70762 26.0626 6.7635 25.0853C6.76862 24.9958 6.87443 24.9527 6.94939 25.0019C7.49258 25.3586 8.07277 25.2984 8.32184 25.2984C11.2849 24.9317 10.8522 22.3219 10.2654 21.0628C10.1982 21.0445 9.96472 20.7548 9.56861 19.7426C9.2569 18.4591 11.261 14.7236 11.411 13.9736C11.5611 13.2235 11.5985 13.111 12.9381 9.98006C14.9347 6.25663 18.7989 6.39581 19.0797 7.63154C20.3267 6.86761 21.1129 7.93558 21.7661 8.58151C25.5885 12.035 25.7957 19.8686 25.4772 21.5674C25.1586 23.2661 27.2291 25.425 28.3085 26.7699C29.3879 28.1147 29.3733 29.2823 28.9115 30.6926C28.4103 32.2227 26.6117 33.0555 25.3374 33.1153C20.3602 33.3485 19.7359 23.8501 19.7359 22.1852C21.9001 21.5055 22.7922 18.6829 22.9677 17.3565C22.5411 16.9716 21.7036 15.8428 21.7661 14.4071C21.844 12.6124 21.0014 10.7865 19.3627 10.6617C17.7242 10.5368 16.5485 11.882 16.4047 12.1309C16.2578 12.1309 15.8383 14.0607 15.8594 15.0257Z" fill="#1A233D"/>
      </g>
    </g>
  </g>
  <defs>
    <clipPath id="waeu7194g__clip0_1020_1092">
      <rect width="36" height="36" rx="3" fill="#fff"/>
    </clipPath>
    <clipPath id="waeu7194g__clip1_1020_1092">
      <path fill="#fff" d="M0 0H36V36H0z"/>
    </clipPath>
  </defs>
</svg>
