<svg xmlns="http://www.w3.org/2000/svg" fill="none" viewBox="0 0 16 16" class="design-iconfont">
  <path d="M14.1709 4.77175L8.55634 1.50903C8.38732 1.41108 8.19544 1.3595 8.0001 1.3595C7.80475 1.3595 7.61287 1.41108 7.44386 1.50903L1.82914 4.77175C1.64894 4.87708 1.50215 5.03115 1.40564 5.21622C1.30913 5.4013 1.26684 5.60986 1.28362 5.81791L1.9329 13.5484C1.95776 13.8239 2.08443 14.0802 2.28817 14.2672C2.49191 14.4543 2.75807 14.5587 3.03466 14.56H12.9654C13.2419 14.5586 13.5081 14.4542 13.7118 14.2671C13.9155 14.0801 14.0423 13.8238 14.0672 13.5484L14.7165 5.81783C14.7332 5.60979 14.6909 5.40125 14.5944 5.21619C14.4979 5.03114 14.3511 4.87709 14.1709 4.77175ZM6.13682 13.5254V9.35999C6.13686 9.34162 6.14419 9.32402 6.15719 9.31104C6.17019 9.29807 6.18781 9.29079 6.20618 9.29079H9.71442C9.73277 9.29081 9.75037 9.2981 9.76336 9.31107C9.77634 9.32404 9.78366 9.34163 9.7837 9.35999V13.5258L6.13682 13.5254ZM13.0345 13.462C13.0329 13.4793 13.025 13.4953 13.0122 13.5071C12.9994 13.5188 12.9827 13.5253 12.9654 13.5254H10.8201V9.35999C10.8196 9.06707 10.7029 8.78631 10.4956 8.57934C10.2883 8.37236 10.0074 8.25607 9.7145 8.25599H6.20626C5.91332 8.25605 5.63238 8.37233 5.42509 8.57931C5.21779 8.78629 5.10109 9.06705 5.10058 9.35999V13.5258H3.03466C3.0173 13.5257 3.0006 13.5192 2.98782 13.5074C2.97503 13.4957 2.96709 13.4796 2.96554 13.4623L2.31626 5.73159C2.31519 5.71851 2.31784 5.7054 2.32389 5.69377C2.32995 5.68213 2.33917 5.67245 2.3505 5.66583L7.96522 2.40311C7.97582 2.39697 7.98785 2.39373 8.0001 2.39373C8.01235 2.39373 8.02438 2.39697 8.03498 2.40311L13.6495 5.66575C13.6608 5.67236 13.6701 5.68203 13.6761 5.69365C13.6822 5.70527 13.6848 5.71836 13.6838 5.73143L13.0345 13.462Z" fill="#3263FE"/>
  <path d="M9.70341 5.12141H8.50677V3.92749H7.46821V5.12141H6.27197V6.15765H7.46821V7.35197H8.50677V6.15765H9.70341V5.12141Z" fill="#FF813B"/>
</svg>
