<svg xmlns="http://www.w3.org/2000/svg" fill="none" viewBox="0 0 16 16" class="design-iconfont">
  <path d="M13.7401 6.70886V8.33286H5.5976C5.58206 8.08993 5.51844 7.85251 5.41045 7.63435C5.30245 7.41619 5.15223 7.22164 4.96848 7.06198C4.2116 6.4083 2.986 6.37758 2.26 6.42846V4.56006H1.28V12.5601H2.25992V11.1385H13.7399V12.5601H14.72V6.70886H13.7401ZM4.33048 7.81134C4.48618 7.94407 4.58674 8.13013 4.61248 8.3331H2.25992V7.4199C2.8756 7.37382 3.8528 7.3987 4.33048 7.81134ZM2.25992 10.1521V9.32006H13.7399V10.1521H2.25992Z" fill="#3263FE"/>
  <path d="M10.1581 4.07745H9.14337V3.05713H8.16001V4.07745H7.14545V5.06625H8.16001V6.08657H9.14329V5.06625H10.158V4.07745H10.1581Z" fill="#FF813B"/>
</svg>
