<svg xmlns="http://www.w3.org/2000/svg" fill="none" viewBox="0 0 16 16" class="design-iconfont">
  <path d="M5.718 8.52286V9.47998H10.362V8.52286H5.718ZM5.718 11.3143H10.362V10.3574H5.718V11.3143ZM5.718 13.1489H10.362V12.192H5.718V13.1489ZM7.608 7.61686H8.568V6.94094H9.24576V5.98398H8.568V5.30798H7.608V5.98398H6.93048V6.94094H7.608V7.61686Z" fill="#FF813B"/>
  <path d="M11.3966 3.00344H10.6902C10.5971 2.78396 10.4416 2.5967 10.2429 2.46497C10.0442 2.33323 9.81119 2.26284 9.5728 2.26256H9.53216C9.39575 1.96909 9.17833 1.72071 8.9055 1.54667C8.63267 1.37262 8.31578 1.28015 7.99216 1.28015C7.66854 1.28015 7.35166 1.37262 7.07883 1.54667C6.806 1.72071 6.58857 1.96909 6.45216 2.26256H6.41136C6.17298 2.26284 5.93995 2.33323 5.74127 2.46497C5.54259 2.5967 5.38705 2.78396 5.294 3.00344H4.68336C4.26878 3.00401 3.87136 3.169 3.57828 3.46222C3.28519 3.75544 3.12038 4.15294 3.12 4.56752V13.2359C3.12038 13.6505 3.28519 14.048 3.57828 14.3412C3.87136 14.6344 4.26878 14.7994 4.68336 14.8H11.3966C11.8112 14.7994 12.2086 14.6345 12.5017 14.3412C12.7948 14.048 12.9596 13.6505 12.96 13.2359V4.56752C12.9596 4.15292 12.7948 3.75541 12.5017 3.46219C12.2086 3.16897 11.8112 3.00399 11.3966 3.00344ZM6.41136 3.21984H7.18848L7.2648 2.83416C7.29822 2.66585 7.38898 2.51434 7.52161 2.40545C7.65424 2.29657 7.82053 2.23706 7.99212 2.23706C8.16372 2.23706 8.33001 2.29657 8.46263 2.40545C8.59526 2.51434 8.68602 2.66585 8.71944 2.83416L8.79576 3.21984H9.57288C9.64093 3.21984 9.70618 3.24687 9.7543 3.29498C9.80241 3.3431 9.82944 3.40835 9.82944 3.4764C9.82944 3.54444 9.80241 3.6097 9.7543 3.65781C9.70618 3.70593 9.64093 3.73296 9.57288 3.73296H6.41136C6.34332 3.73296 6.27806 3.70593 6.22995 3.65781C6.18183 3.6097 6.1548 3.54444 6.1548 3.4764C6.1548 3.40835 6.18183 3.3431 6.22995 3.29498C6.27806 3.24687 6.34332 3.21984 6.41136 3.21984ZM12.0034 13.2358C12.0032 13.3967 11.9393 13.5509 11.8256 13.6647C11.7118 13.7784 11.5576 13.8424 11.3968 13.8426H4.68336C4.52252 13.8424 4.36834 13.7784 4.25464 13.6647C4.14094 13.5509 4.07701 13.3967 4.07688 13.2358V4.56752C4.07703 4.40668 4.14097 4.25248 4.25466 4.13872C4.36836 4.02497 4.52253 3.96095 4.68336 3.96072H5.29936C5.39371 4.17727 5.54915 4.36161 5.74666 4.49118C5.94416 4.62075 6.17515 4.68992 6.41136 4.69024H9.5728C9.80902 4.68993 10.04 4.62076 10.2375 4.49119C10.435 4.36162 10.5905 4.17727 10.6848 3.96072H11.3968C11.5576 3.96093 11.7118 4.02493 11.8256 4.13869C11.9393 4.25245 12.0032 4.40667 12.0034 4.56752V13.2358Z" fill="#3263FE"/>
</svg>
