<svg xmlns="http://www.w3.org/2000/svg" fill="none" viewBox="0 0 16 16" class="design-iconfont">
  <path d="M5.31623 12.437C5.28093 12.437 5.24645 12.4365 5.21279 12.4355L4.27679 12.4092L8.12375 7.39575L9.75759 8.56559L9.70759 8.86495C9.23303 11.7027 6.68695 12.437 5.31623 12.437ZM8.31583 8.71007L6.30111 11.3355C7.17935 11.1109 8.33911 10.5238 8.71471 8.99575L8.31583 8.71007Z" fill="#FF813B"/>
  <path d="M8 14.24C4.66048 14.24 1.28 13.3289 1.28 11.5875C1.28 10.4422 2.82288 9.52154 5.40728 9.12474L5.54872 10.0781C3.25816 10.4301 2.22784 11.1725 2.22784 11.5875C2.22784 11.8634 2.6944 12.3039 3.73656 12.666C4.86824 13.0592 6.38232 13.2758 8.00008 13.2758C9.61784 13.2758 11.1317 13.0592 12.2634 12.666C13.3056 12.3039 13.7722 11.8634 13.7722 11.5875C13.7722 11.1635 12.7146 10.4105 10.3635 10.065L10.499 9.11066C13.142 9.49906 14.72 10.425 14.72 11.5875C14.72 13.3289 11.3394 14.24 8 14.24ZM9.46056 9.2313L7.66 7.94178L11.1271 2.47682C11.2326 2.3015 11.3733 2.14993 11.5402 2.03162C11.7072 1.91331 11.8968 1.83084 12.0972 1.78938C12.2981 1.74864 12.5053 1.75048 12.7055 1.79478C12.9057 1.83908 13.0943 1.92486 13.2593 2.04658L13.2783 2.06058C13.4431 2.18318 13.5813 2.3378 13.6849 2.51515C13.7884 2.6925 13.855 2.88893 13.8808 3.09267C13.9066 3.2964 13.8909 3.50324 13.8348 3.70078C13.7787 3.89832 13.6833 4.08249 13.5542 4.24226L9.46056 9.2313ZM8.99472 7.71842L9.29232 7.93154L12.8246 3.62666C12.8705 3.569 12.9044 3.50269 12.9242 3.43168C12.9441 3.36067 12.9494 3.28639 12.94 3.21326C12.9306 3.14014 12.9066 3.06965 12.8694 3.00599C12.8322 2.94232 12.7826 2.88678 12.7235 2.84266L12.7029 2.82746C12.6436 2.78325 12.5756 2.75214 12.5034 2.7362C12.4312 2.72026 12.3564 2.71984 12.284 2.73498C12.2111 2.74971 12.1421 2.77961 12.0816 2.82276C12.021 2.8659 11.9702 2.92131 11.9325 2.98538L8.99472 7.71842Z" fill="#3263FE"/>
</svg>
