<svg xmlns="http://www.w3.org/2000/svg" fill="none" viewBox="0 0 16 16" class="design-iconfont">
  <path d="M12.164 14.56H4.80541C4.46571 14.5599 4.13989 14.4251 3.89943 14.1852C3.65897 13.9452 3.52351 13.6197 3.52277 13.28V8.5614H2.22677C2.01897 8.56185 1.81595 8.49902 1.64473 8.38125C1.47352 8.26347 1.34223 8.09635 1.26834 7.90213C1.19444 7.7079 1.18145 7.49577 1.23109 7.29398C1.28073 7.09219 1.39065 6.9103 1.54621 6.77252L7.27941 1.697C7.46724 1.53097 7.70928 1.43933 7.95997 1.43933C8.21066 1.43933 8.4527 1.53097 8.64053 1.697L14.3737 6.77252C14.5292 6.91032 14.6391 7.09222 14.6887 7.294C14.7383 7.49579 14.7253 7.7079 14.6514 7.90211C14.5775 8.09632 14.4462 8.26343 14.275 8.38121C14.1038 8.49898 13.9008 8.56183 13.693 8.5614H12.6752V9.26916H11.6529V8.46188C11.6534 8.21753 11.7509 7.98338 11.9238 7.81079C12.0968 7.63819 12.3311 7.54126 12.5755 7.54124H13.693C13.6953 7.5418 13.6973 7.53652 13.6973 7.53372L7.96205 2.46012L2.22493 7.53596C2.22277 7.53668 2.22493 7.54236 2.22669 7.54436L3.62245 7.54148C3.86679 7.54152 4.10113 7.63847 4.27408 7.81105C4.44703 7.98364 4.54446 8.21778 4.54501 8.46212V13.28C4.54516 13.3489 4.57266 13.415 4.62149 13.4637C4.67031 13.5124 4.73646 13.5397 4.80541 13.5397H12.164V14.56Z" fill="#3263FE"/>
  <path d="M8.77062 6.16003H7.74494V7.43619H6.47998V8.47091H7.74494V9.74699H8.77062V8.47091H10.0355V7.43619H8.77062V6.16003ZM14.7215 11.1405L13.113 9.51787L12.3879 10.2496L13.12 10.9884L9.71782 10.99L9.71822 12.0247L13.1463 12.023L12.3877 12.7884L13.113 13.52L14.7221 11.8967C14.772 11.8472 14.8117 11.7884 14.8388 11.7236C14.8659 11.6588 14.8799 11.5892 14.88 11.519C14.8781 11.3771 14.8213 11.2414 14.7215 11.1405Z" fill="#FF813B"/>
</svg>
