<svg xmlns="http://www.w3.org/2000/svg" fill="none" viewBox="0 0 16 16" class="design-iconfont">
  <path d="M12.992 14.72H3.00803C2.54988 14.7195 2.11064 14.5373 1.78669 14.2134C1.46273 13.8894 1.28052 13.4502 1.28003 12.992V3.00803C1.2805 2.54988 1.4627 2.11063 1.78666 1.78666C2.11063 1.4627 2.54988 1.2805 3.00803 1.28003H12.992C13.4502 1.28052 13.8894 1.46273 14.2134 1.78669C14.5373 2.11064 14.7195 2.54988 14.72 3.00803V12.992C14.7195 13.4502 14.5373 13.8894 14.2133 14.2133C13.8894 14.5373 13.4502 14.7195 12.992 14.72ZM3.00803 2.33763C2.83028 2.3378 2.65986 2.40848 2.53417 2.53417C2.40848 2.65986 2.3378 2.83028 2.33763 3.00803V12.992C2.3378 13.1698 2.40848 13.3402 2.53417 13.4659C2.65986 13.5916 2.83028 13.6623 3.00803 13.6624H12.992C13.1697 13.6622 13.3401 13.5915 13.4658 13.4659C13.5914 13.3402 13.6621 13.1698 13.6623 12.9921V3.00803C13.6622 2.8303 13.5915 2.6599 13.4658 2.53422C13.3401 2.40854 13.1698 2.33784 12.992 2.33763H3.00803Z" fill="#3263FE"/>
  <path d="M10.7134 5.06932L9.87545 4.42444L8.01273 6.85116L6.14993 4.42444L5.31201 5.06932L7.02849 7.3054H5.35033V8.36364H7.46865V9.04892H5.35033V10.1072H7.46865V11.6008H8.52553V10.1072H10.6438V9.04892H8.52553V8.36364H10.6438V7.3054H8.99697L10.7134 5.06932Z" fill="#FF813B"/>
</svg>
