<svg xmlns="http://www.w3.org/2000/svg" fill="none" viewBox="0 0 16 16" class="design-iconfont">
  <path d="M12.9288 14.72H3.0712C2.59632 14.7195 2.14104 14.5306 1.80524 14.1948C1.46944 13.8591 1.28055 13.4038 1.28 12.9289V3.07123C1.28053 2.59634 1.46941 2.14104 1.80521 1.80524C2.14101 1.46944 2.59631 1.28056 3.0712 1.28003H12.9288C13.4037 1.28056 13.859 1.46944 14.1948 1.80524C14.5306 2.14104 14.7195 2.59634 14.72 3.07123V12.9289C14.7194 13.4038 14.5306 13.8591 14.1948 14.1948C13.859 14.5306 13.4037 14.7195 12.9288 14.72ZM3.0712 2.37603C2.88689 2.37624 2.71018 2.44955 2.57985 2.57988C2.44952 2.71021 2.37621 2.88692 2.376 3.07123V12.9289C2.37623 13.1132 2.44955 13.2899 2.57988 13.4202C2.71021 13.5505 2.8869 13.6238 3.0712 13.624H12.9288C13.113 13.6237 13.2895 13.5504 13.4198 13.4202C13.55 13.29 13.6234 13.1134 13.6237 12.9292V3.07123C13.6235 2.88697 13.5502 2.71032 13.4199 2.58C13.2897 2.44968 13.1131 2.37633 12.9288 2.37603H3.0712Z" fill="#3263FE"/>
  <path d="M8.84 4.85475V5.95075H12.5634V4.85475H8.84ZM8.84 10.0248H12.5634V8.92875H8.84V10.0248ZM8.84 12.0676H12.5634V10.9715H8.84V12.0676ZM5.8468 3.54187H4.75024V4.85475H3.43672V5.95075H4.75024V7.26395H5.8468V5.95075H7.16V4.85475H5.8468V3.54187ZM6.22728 9.05139L5.29848 9.97979L4.36968 9.05139L3.5944 9.82627L4.5232 10.7547L3.59448 11.6827L4.36976 12.4576L5.29848 11.5296L6.2272 12.4576L7.00248 11.6827L6.07376 10.7547L7.00248 9.82627L6.22728 9.05139Z" fill="#FF813B"/>
</svg>
