<svg xmlns="http://www.w3.org/2000/svg" fill="none" viewBox="0 0 16 16" class="design-iconfont">
  <path d="M13.3902 9.47003C13.3902 8.04529 12.8243 6.6789 11.8168 5.67145C10.8094 4.66401 9.44298 4.09803 8.01824 4.09803C6.5935 4.09803 5.22711 4.66401 4.21966 5.67145C3.21222 6.6789 2.64624 8.04529 2.64624 9.47003V13.592H1.92624V14.72H14.1882V13.592H13.3902V9.47003ZM3.77544 9.47003C3.77544 8.34473 4.22246 7.26551 5.01817 6.4698C5.81388 5.67409 6.8931 5.22707 8.0184 5.22707C9.1437 5.22707 10.2229 5.67409 11.0186 6.4698C11.8143 7.26551 12.2614 8.34473 12.2614 9.47003V13.592H3.77544V9.47003ZM8.648 1.28003H7.5188V3.30235H8.648V1.28003ZM4.01928 4.61675L2.57928 3.10003L1.76 3.87627L3.2 5.39299L4.01928 4.61675ZM14.32 3.95251L13.5114 3.16547L12.032 4.68211L12.8406 5.46915L14.32 3.95251Z" fill="#3263FE"/>
  <path d="M5.8364 9.20905H4.7088C4.71022 8.34113 5.05584 7.50921 5.66984 6.89578C6.28384 6.28235 7.11608 5.9375 7.984 5.93689V7.06337C7.41489 7.06379 6.86917 7.28993 6.46656 7.69218C6.06396 8.09442 5.83733 8.63993 5.8364 9.20905Z" fill="#FF813B"/>
</svg>
