<svg xmlns="http://www.w3.org/2000/svg" fill="none" viewBox="0 0 15 14" class="design-iconfont">
  <path d="M11.1435 12.7403H4.70471C4.40747 12.7403 4.12238 12.6223 3.91198 12.4124C3.70158 12.2024 3.58305 11.9176 3.5824 11.6203V7.49157H2.4484C2.26657 7.49197 2.08893 7.43699 1.93912 7.33394C1.7893 7.23089 1.67443 7.08466 1.60977 6.91471C1.54512 6.74476 1.53375 6.55915 1.57718 6.38259C1.62062 6.20602 1.71679 6.04686 1.85291 5.9263L6.86946 1.48522C7.03382 1.33995 7.2456 1.25977 7.46495 1.25977C7.68431 1.25977 7.89609 1.33995 8.06044 1.48522L13.0769 5.9263C13.213 6.04688 13.3092 6.20604 13.3526 6.38261C13.396 6.55917 13.3846 6.74476 13.3199 6.9147C13.2553 7.08464 13.1404 7.23086 12.9906 7.33391C12.8408 7.43696 12.6632 7.49195 12.4814 7.49157H11.5908V8.11086H10.6962V7.40449C10.6967 7.19069 10.782 6.98581 10.9333 6.83479C11.0847 6.68377 11.2897 6.59895 11.5035 6.59893H12.4814C12.4834 6.59942 12.4851 6.5948 12.4851 6.59235L7.46677 2.15295L2.44679 6.59431C2.4449 6.59494 2.44679 6.59991 2.44833 6.60166L3.66962 6.59914C3.88342 6.59918 4.08846 6.68401 4.2398 6.83502C4.39113 6.98604 4.47638 7.19091 4.47686 7.4047V11.6203C4.47699 11.6807 4.50106 11.7385 4.54378 11.7811C4.5865 11.8237 4.64438 11.8476 4.70471 11.8476H11.1435V12.7403Z" fill="#39A5A5"/>
  <path d="M13.3812 9.46128L10.4123 9.45988L11.0512 8.82288L10.4184 8.19183L9.01431 9.59183C8.97083 9.63423 8.93626 9.68488 8.9126 9.7408C8.88895 9.79673 8.87669 9.85682 8.87655 9.91754L8.87704 9.95254C8.87846 10.0528 8.91903 10.1486 8.99009 10.2193L10.4181 11.6434L11.051 11.0123L10.389 10.3524L13.3806 10.3538L13.3812 9.46128ZM9.27163 7.41861V6.52625H8.16772V5.42578H7.27271V6.52625H6.16895V7.41861H7.27271V8.51915H8.16772V7.41861H9.27163Z" fill="#F79C42"/>
</svg>
