<svg fill="none" xmlns="http://www.w3.org/2000/svg" viewBox="0 0 18 18" class="design-iconfont">
  <path d="M16.0312 7.875C15.8075 7.875 15.5929 7.96389 15.4346 8.12213C15.2764 8.28036 15.1875 8.49497 15.1875 8.71875V10.125H7.875V7.875C7.87454 7.57677 7.75586 7.2909 7.54498 7.08002C7.3341 6.86914 7.04823 6.75046 6.75 6.75H2.8125V4.78125C2.8125 4.55747 2.72361 4.34286 2.56537 4.18463C2.40714 4.02639 2.19253 3.9375 1.96875 3.9375C1.74497 3.9375 1.53036 4.02639 1.37213 4.18463C1.21389 4.34286 1.125 4.55747 1.125 4.78125V14.3438C1.125 14.4546 1.14682 14.5643 1.18923 14.6666C1.23163 14.769 1.29378 14.862 1.37213 14.9404C1.45048 15.0187 1.54349 15.0809 1.64586 15.1233C1.74823 15.1657 1.85795 15.1875 1.96875 15.1875C2.07955 15.1875 2.18927 15.1657 2.29164 15.1233C2.39401 15.0809 2.48702 15.0187 2.56537 14.9404C2.64372 14.862 2.70587 14.769 2.74827 14.6666C2.79068 14.5643 2.8125 14.4546 2.8125 14.3438V13.5H15.1875V14.3438C15.1875 14.5675 15.2764 14.7821 15.4346 14.9404C15.5929 15.0986 15.8075 15.1875 16.0312 15.1875C16.255 15.1875 16.4696 15.0986 16.6279 14.9404C16.7861 14.7821 16.875 14.5675 16.875 14.3438V8.71875C16.875 8.49497 16.7861 8.28036 16.6279 8.12213C16.4696 7.96389 16.255 7.875 16.0312 7.875Z" fill="#3263FE"/>
  <path d="M2.8125 10.125H15.1875V11.25H2.8125V10.125Z" fill="#D0E2FE"/>
  <path d="M9.24937 5.02053L11.2083 3.06163C11.616 2.65394 12.0237 2.65394 12.4314 3.06163L14.3903 5.02053C14.798 5.42823 14.798 5.83592 14.3903 6.24361L12.4314 8.20252C12.0237 8.61021 11.616 8.61021 11.2083 8.20252L9.24937 6.24361C8.84168 5.83592 8.84168 5.42823 9.24937 5.02053Z" fill="#3263FE"/>
  <path d="M12.8567 5.20996H12.2415V4.59473C12.2415 4.48284 12.197 4.37554 12.1179 4.29642C12.0388 4.2173 11.9315 4.17286 11.8196 4.17286C11.7641 4.17262 11.7091 4.18338 11.6579 4.20449C11.6066 4.22561 11.56 4.25668 11.5208 4.2959C11.4815 4.33512 11.4505 4.38172 11.4293 4.43301C11.4082 4.4843 11.3975 4.53926 11.3977 4.59473V5.20996H10.7825C10.6706 5.20996 10.5633 5.25441 10.4842 5.33353C10.405 5.41265 10.3606 5.51995 10.3606 5.63184C10.3606 5.74373 10.405 5.85103 10.4842 5.93015C10.5633 6.00927 10.6706 6.05371 10.7825 6.05371H11.3977V6.66895C11.3977 6.78084 11.4422 6.88814 11.5213 6.96726C11.6004 7.04638 11.7077 7.09082 11.8196 7.09082C11.9313 7.09036 12.0384 7.04577 12.1174 6.96675C12.1964 6.88773 12.241 6.78069 12.2415 6.66895V6.05371H12.8567C12.9686 6.05371 13.0759 6.00927 13.155 5.93015C13.2341 5.85103 13.2786 5.74373 13.2786 5.63184C13.2786 5.51995 13.2341 5.41265 13.155 5.33353C13.0759 5.25441 12.9686 5.20996 12.8567 5.20996Z" fill="#fff"/>
</svg>
