<svg xmlns="http://www.w3.org/2000/svg" fill="none" viewBox="0 0 16 16" class="design-iconfont">
  <path d="M2.92805 1.104C3.22671 1.104 3.48005 1.20534 3.68805 1.408C3.89605 1.61067 4.00005 1.86134 4.00005 2.16V2.976C4.00005 3.27467 3.89605 3.528 3.68805 3.736C3.48005 3.944 3.22671 4.048 2.92805 4.048H2.08005C1.79205 4.048 1.54405 3.944 1.33605 3.736C1.12805 3.528 1.02405 3.27467 1.02405 2.976V2.16C1.02405 1.86134 1.12805 1.61067 1.33605 1.408C1.54405 1.20534 1.79205 1.104 2.08005 1.104H2.92805ZM13.904 1.104C14.192 1.104 14.44 1.20534 14.648 1.408C14.856 1.61067 14.96 1.86134 14.96 2.16V2.976C14.96 3.27467 14.856 3.528 14.648 3.736C14.44 3.944 14.192 4.048 13.904 4.048H7.07205C6.77338 4.048 6.52005 3.944 6.31205 3.736C6.10405 3.528 6.00005 3.27467 6.00005 2.976V2.16C6.00005 1.86134 6.10405 1.61067 6.31205 1.408C6.52005 1.20534 6.77338 1.104 7.07205 1.104H13.904ZM2.92805 6.08C3.22671 6.08 3.48005 6.184 3.68805 6.392C3.89605 6.6 4.00005 6.85334 4.00005 7.152V7.968C4.00005 8.256 3.89605 8.504 3.68805 8.712C3.48005 8.92 3.22671 9.024 2.92805 9.024H2.08005C1.79205 9.024 1.54405 8.92 1.33605 8.712C1.12805 8.504 1.02405 8.256 1.02405 7.968V7.152C1.02405 6.85334 1.12805 6.6 1.33605 6.392C1.54405 6.184 1.79205 6.08 2.08005 6.08H2.92805ZM13.904 6.08C14.192 6.08 14.44 6.184 14.648 6.392C14.856 6.6 14.96 6.85334 14.96 7.152V7.968C14.96 8.256 14.856 8.504 14.648 8.712C14.44 8.92 14.192 9.024 13.904 9.024H7.07205C6.77338 9.024 6.52005 8.92 6.31205 8.712C6.10405 8.504 6.00005 8.256 6.00005 7.968V7.152C6.00005 6.85334 6.10405 6.6 6.31205 6.392C6.52005 6.184 6.77338 6.08 7.07205 6.08H13.904ZM2.92805 11.072C3.22671 11.072 3.48005 11.176 3.68805 11.384C3.89605 11.592 4.00005 11.84 4.00005 12.128V12.944C4.00005 13.2427 3.89605 13.496 3.68805 13.704C3.48005 13.912 3.22671 14.016 2.92805 14.016H2.08005C1.79205 14.016 1.54405 13.912 1.33605 13.704C1.12805 13.496 1.02405 13.2427 1.02405 12.944V12.128C1.02405 11.84 1.12805 11.592 1.33605 11.384C1.54405 11.176 1.79205 11.072 2.08005 11.072H2.92805ZM13.904 11.072C14.192 11.072 14.44 11.176 14.648 11.384C14.856 11.592 14.96 11.84 14.96 12.128V12.944C14.96 13.2427 14.856 13.496 14.648 13.704C14.44 13.912 14.192 14.016 13.904 14.016H7.07205C6.77338 14.016 6.52005 13.912 6.31205 13.704C6.10405 13.496 6.00005 13.2427 6.00005 12.944V12.128C6.00005 11.84 6.10405 11.592 6.31205 11.384C6.52005 11.176 6.77338 11.072 7.07205 11.072H13.904Z" fill="#3263FE"/>
</svg>
