<svg xmlns="http://www.w3.org/2000/svg" fill="none" viewBox="0 0 36 36" class="design-iconfont">
  <g clip-path="url(#2pqw1v099__clip0_1038_3373)">
    <path d="M18 36C27.9411 36 36 27.9411 36 18C36 8.05887 27.9411 0 18 0C8.05887 0 0 8.05887 0 18C0 27.9411 8.05887 36 18 36Z" fill="#D1E3F9"/>
    <mask id="2pqw1v099__pjnqh8rfva" style="mask-type:alpha" maskUnits="userSpaceOnUse" x="0" y="0" width="36" height="36">
      <path d="M18 36C27.9411 36 36 27.9411 36 18C36 8.05887 27.9411 0 18 0C8.05887 0 0 8.05887 0 18C0 27.9411 8.05887 36 18 36Z" fill="#E6ECF3"/>
    </mask>
    <g mask="url(#2pqw1v099__pjnqh8rfva)">
      <path d="M18 37.1248C24.8345 37.1248 30.375 34.8582 30.375 32.0623C30.375 29.2663 24.8345 26.9998 18 26.9998C11.1655 26.9998 5.625 29.2663 5.625 32.0623C5.625 34.8582 11.1655 37.1248 18 37.1248Z" fill="#ABBDD2"/>
      <path d="M16.5155 27.465V24.3112H19.9663V27.465H16.5155Z" fill="snow"/>
      <path d="M19.0736 27.1154H17.2148L16.8923 30.5855L17.8342 32.3949H18.7513L19.6045 30.5855L19.0736 27.1154Z" fill="#9DAFBF"/>
      <path d="M11.0597 16.9466C11.0597 16.5553 11.3769 16.238 11.7682 16.238H12.9153V20.5903C11.8905 20.5903 11.0597 19.7595 11.0597 18.7347V16.9466Z" fill="snow"/>
      <path d="M24.9403 16.9466C24.9403 16.5553 24.623 16.238 24.2318 16.238H23.0847V20.5903C24.1095 20.5903 24.9403 19.7595 24.9403 18.7347V16.9466Z" fill="snow"/>
      <path d="M23.9934 17.1321C23.9934 21.1856 21.3489 25.0453 18.2307 25.0453C15.1125 25.0453 12.1064 21.201 12.1064 17.1475C12.1064 13.094 11.5778 11.1418 18.1182 11.1418C24.6586 11.1418 23.9934 13.0785 23.9934 17.1321Z" fill="#FFF9F9"/>
      <path d="M16.0744 25.4548L14.984 26.5949L16.6519 29.9944C16.7464 30.187 17.0312 30.1507 17.0744 29.9405L17.7103 26.8427L16.0744 25.4548Z" fill="#fff"/>
      <path d="M20.4617 25.4548L21.5521 26.5949L19.8841 29.9944C19.7897 30.187 19.5049 30.1507 19.4618 29.9405L18.8258 26.8427L20.4617 25.4548Z" fill="#fff"/>
      <path d="M11.0695 14.8729C11.1449 16.0837 11.9079 18.3209 12.3495 19.1091C12.0338 15.1992 13.3504 13.5617 13.813 13.2649C15.7048 15.1883 20.7811 14.4631 22.6099 13.2649C23.8207 14.0469 23.8279 17.4169 23.7752 19.1091C25.4148 14.9786 25.1323 13.2649 23.9657 11.8774C23.8396 10.4901 23.1984 9.13442 22.8937 8.63002H20.7811C20.5079 8.25166 19.8856 7.40663 19.583 7.05339C17.7542 6.70656 13.3716 9.26052 13.0247 9.67036C12.7473 10.0992 12.9091 10.7109 13.0247 10.9631L11.5741 11.8774C11.3745 12.3714 10.994 13.6621 11.0695 14.8729Z" fill="#1A233D"/>
    </g>
  </g>
  <defs>
    <clipPath id="2pqw1v099__clip0_1038_3373">
      <rect width="36" height="36" rx="3" fill="#fff"/>
    </clipPath>
  </defs>
</svg>
