<svg width="36" height="36" viewBox="0 0 36 36" fill="none" xmlns="http://www.w3.org/2000/svg">
<g clip-path="url(#clip0_3844_1789)">
<rect width="36" height="36" rx="18" fill="#8CCFFF"/>
<path d="M26.5954 35.4402C26.5954 42.8887 22.7931 43.9909 18.0996 43.9909H17.91C13.2164 43.9909 9.41418 42.03 9.41418 35.4402V29.9159C9.41418 25.1951 13.2164 21.3652 17.91 21.3652H18.0996C22.7931 21.3652 26.5954 25.1951 26.5954 29.9159V35.4402Z" fill="#A1CCDB"/>
<path d="M18.8676 34.0395C15.677 34.4895 12.2777 33.8879 11.3675 32.1291C10.4619 30.3703 11.0308 26.5726 11.8084 25.2914C12.5859 24.0102 13.7569 23.8357 14.0413 24.0837C14.3258 24.3362 14.5581 25.3924 18.3509 27.4773C21.4135 29.1626 25.23 29.6494 26.5906 29.778C26.5906 29.6402 26.5859 29.5024 26.5764 29.3647C24.8412 29.2499 21.2096 28.1477 20.3515 27.6288C19.3939 27.0502 20.2235 26.7747 20.7403 26.5497C21.2571 26.3246 22.1436 25.8425 23.1297 25.0893C23.6797 24.6715 24.1775 24.4373 24.5141 24.3133C24.2913 24.0561 24.0542 23.8081 23.8029 23.5785C22.6319 25.0848 19.9201 26.4716 18.6164 26.7242C18.0948 26.7976 17.213 26.1961 16.0705 25.0664C14.9279 23.9367 15.0844 22.605 15.0844 22.605L14.6529 22.0264C11.5808 23.3122 9.41418 26.366 9.41418 29.9249V35.4493C9.41418 42.039 13.2164 43.9999 17.91 43.9999H18.0996C20.1951 43.9999 22.1104 43.7795 23.5896 42.8748C21.9729 43.5453 19.9106 43.6417 17.6255 43.4259C14.1978 43.0998 11.5002 41.139 10.8744 39.0495C10.2533 36.9647 12.3014 38.2459 15.2882 39.3986C19.337 40.7073 23.9594 40.4823 25.0972 40.1287C25.4433 40.0231 25.7325 39.8991 25.979 39.7659C26.0312 39.6144 26.0786 39.4582 26.126 39.2929C24.7701 40.1195 22.2527 40.294 18.8155 39.7246C14.1693 38.8934 11.2869 36.4045 11.0308 35.3758C10.7701 34.3426 14.5344 35.4998 19.2564 34.5722C22.8358 33.865 25.5049 32.7583 26.5906 32.2623V31.5368C25.1636 32.4919 21.7169 33.64 18.8676 34.0441V34.0395Z" fill="#8CB9D3"/>
<path d="M17.4691 24.276C17.4691 24.276 20.0197 24.501 21.4041 23.7846C22.7884 23.0682 23.0397 23.7846 22.0868 24.5561C21.1338 25.3322 18.7966 26.2736 18.038 25.819C17.2795 25.3643 16.4214 24.6893 16.3265 24.3678C16.2317 24.0464 16.8717 24.2347 17.4738 24.2714L17.4691 24.276Z" fill="#B5DBE5"/>
<path d="M23.6988 25.6119C23.6988 25.6119 22.7269 26.3099 21.9446 26.5946C21.1671 26.8747 20.1952 27.1411 21.6744 27.6324C23.1536 28.1238 26.0171 29.1019 25.7421 27.9539C25.4719 26.8012 24.5759 24.8633 23.6988 25.6165V25.6119Z" fill="#B5DBE5"/>
<path d="M14.6673 26.3935C14.6673 26.3935 19.5457 29.4382 23.7794 30.1132C25.6236 30.5127 26.4296 30.6413 24.8461 31.6194C23.2626 32.6022 19.0053 33.3553 16.3598 33.4793C13.7144 33.6033 11.8417 32.2715 12.074 29.282C12.3348 26.1915 12.9321 25.0343 14.6721 26.389L14.6673 26.3935Z" fill="#B5DBE5"/>
<path d="M15.7813 35.9494C15.7813 35.9494 21.077 35.5223 23.6181 34.3651C26.1593 33.2079 25.7705 34.8151 25.6947 36.303C25.6188 37.7863 25.2016 39.1685 22.4518 39.2695C19.7021 39.3706 15.8335 38.2914 13.3161 36.8081C11.9127 35.7014 13.0837 35.954 15.7813 35.954V35.9494Z" fill="#B5DBE5"/>
<path d="M29.871 12.392C29.2167 7.27633 24.1487 3.29492 17.9902 3.29492C11.8317 3.29492 6.75888 7.28093 6.10937 12.3966C4.92414 12.5573 4.00439 13.5355 4.00439 14.7294C4.00439 16.0382 5.09955 17.0944 6.44598 17.0944C6.55976 17.0944 6.6688 17.076 6.77785 17.0623C8.46562 20.9564 12.8463 23.7301 17.9902 23.7301C23.1341 23.7301 27.5147 20.9518 29.2025 17.0623C29.321 17.0806 29.4348 17.099 29.5533 17.099C30.9045 17.099 31.9997 16.0382 31.9997 14.734C31.9997 13.5309 31.0704 12.5481 29.871 12.3966V12.392Z" fill="#FFC69F"/>
<path d="M19.7684 22.0088C13.169 22.0088 7.81646 17.435 7.81646 11.7913C7.81646 9.60997 8.61768 7.58941 9.97833 5.93164C7.85913 7.56645 6.4321 9.83958 6.10498 12.3974C4.91974 12.5581 4 13.5363 4 14.7302C4 16.039 5.09516 17.0952 6.44158 17.0952C6.55537 17.0952 6.66441 17.0768 6.77345 17.0631C8.46123 20.9572 12.8419 23.7309 17.9858 23.7309C22.0298 23.7309 25.595 22.0088 27.7569 19.3867C25.6377 21.0123 22.8405 22.0042 19.7636 22.0042L19.7684 22.0088Z" fill="#FFBE92"/>
<path d="M29.1695 13.0662C28.8139 13.0662 28.5247 13.0846 28.283 13.1122C28.0933 9.93438 25.3483 6.8714 21.3422 5.75091C16.4922 4.39163 11.6375 6.38004 10.4997 10.1915C9.36186 14.003 12.3724 18.1957 17.2176 19.555C21.5982 20.7811 25.9694 19.2749 27.6145 16.166C27.9653 16.2211 28.4584 16.2532 29.1695 16.2532C30.2504 16.2532 30.8668 15.5414 30.8668 14.6597C30.8668 13.778 30.2504 13.0662 29.1695 13.0662Z" fill="#FFCDAB"/>
<path d="M26.2443 13.4805C26.2443 13.4805 26.268 13.4896 26.2822 13.4988C26.4008 13.5677 26.4245 13.6917 26.3296 13.7789C26.3059 13.8019 25.7228 14.3438 24.7699 14.1647C24.163 14.0131 23.7316 13.5907 23.7126 13.1315C23.7126 13.0212 23.8264 12.9294 23.9781 12.9248C24.1299 12.9248 24.2579 13.0075 24.2626 13.1177C24.2768 13.407 24.5518 13.6871 24.9263 13.7789C25.5 13.8846 25.8793 13.5447 25.8982 13.531C25.9836 13.4529 26.1305 13.4299 26.2443 13.4805Z" fill="#382012"/>
<path d="M10.9881 15.5287C11.1161 16.1946 10.5566 16.8559 9.74121 17.0074C8.92102 17.1543 8.15299 16.7365 8.02499 16.0706C7.89224 15.4047 8.45167 14.7435 9.27185 14.5919C10.0873 14.445 10.8553 14.8629 10.9881 15.5287Z" fill="#FF8F8F"/>
<path d="M10.2011 13.4723C10.2011 13.4723 10.1774 13.4815 10.1631 13.4907C10.0446 13.5596 10.0209 13.6836 10.111 13.7708C10.1347 13.7938 10.7084 14.3402 11.666 14.1703C12.2776 14.0234 12.709 13.6055 12.7375 13.1463C12.7422 13.0361 12.6237 12.9442 12.472 12.9396C12.3203 12.935 12.1923 13.0223 12.1875 13.1325C12.1686 13.4218 11.8888 13.6973 11.5143 13.7892C10.9359 13.8948 10.5614 13.5504 10.5472 13.5366C10.4618 13.4585 10.3149 13.4356 10.2011 13.4815V13.4723Z" fill="#382012"/>
<path d="M25.4859 15.5287C25.3532 16.1946 25.9126 16.8559 26.7328 17.0074C27.553 17.1543 28.321 16.7365 28.449 16.0706C28.577 15.4047 28.0176 14.7435 27.2021 14.5919C26.382 14.445 25.6139 14.8629 25.4859 15.5287Z" fill="#FF8F8F"/>
<path d="M17.36 14.8764C17.36 14.8764 17.6539 14.3115 18.2845 14.3115C18.6969 14.3115 19.0572 14.5779 19.1568 14.8764C19.1568 14.8764 18.8629 14.5274 18.2845 14.5274C17.9573 14.5274 17.5638 14.711 17.36 14.8764Z" fill="#F9AB75"/>
<path d="M4.93384 14.0852C4.93384 14.0852 5.3463 13.4469 6.16648 13.4652C6.66902 13.4882 7.19527 14.1724 7.08148 14.8567C6.80651 14.3699 6.44146 13.2402 4.93384 14.0806V14.0852Z" fill="#F49F64"/>
<path d="M6.48874 13.9011C6.48874 13.9011 5.78234 14.0205 5.81553 15.0078C5.86294 15.6186 6.67364 15.9033 7.13825 15.6921C6.76372 16.0778 5.63063 16.0135 5.45996 15.04C5.35566 14.342 5.89139 13.7909 6.13317 13.6348C6.43185 13.7036 6.48874 13.9011 6.48874 13.9011Z" fill="#F49F64"/>
<path d="M31.0707 14.0852C31.0707 14.0852 30.6582 13.4469 29.8381 13.4652C29.3355 13.4882 28.8093 14.1724 28.9278 14.8567C29.198 14.3699 29.5678 13.2402 31.0754 14.0806L31.0707 14.0852Z" fill="#F49F64"/>
<path d="M29.5156 13.9011C29.5156 13.9011 30.222 14.0205 30.1888 15.0078C30.1414 15.6186 29.3307 15.9033 28.8661 15.6921C29.2406 16.0778 30.3737 16.0135 30.5444 15.04C30.6487 14.342 30.1082 13.7909 29.8712 13.6348C29.5772 13.7036 29.5156 13.9011 29.5156 13.9011Z" fill="#F49F64"/>
<path d="M19.2089 16.7355C19.2089 17.2453 18.806 17.6586 18.3129 17.6586C17.8198 17.6586 17.4169 17.2453 17.4169 16.7355C17.4169 16.2258 17.8198 15.8125 18.3129 15.8125C18.806 15.8125 19.2089 16.2258 19.2089 16.7355Z" fill="#B24329"/>
<path d="M14.4016 3.04701C14.4016 3.04701 13.7569 3.41439 14.1504 4.58539C14.4917 5.42576 16.0373 5.78395 16.7437 4.90225C17.4548 4.01596 17.2557 3.23989 16.9665 3.07916C16.6773 2.91843 16.0183 3.18937 16.0941 4.09403C16.2032 4.74612 16.5113 5.47627 17.7819 5.4625C19.0525 5.45331 19.811 4.47059 19.8253 3.67155C19.8395 2.87251 19.5645 2.67505 19.1141 2.67964C18.6637 2.68423 18.3319 3.61185 18.7396 4.36497C19.1521 5.12268 20.3088 5.5222 20.9915 4.76908C21.6742 4.02056 21.2191 2.26635 20.8209 2C21.4893 2.21583 22.0914 3.67614 21.7406 4.59917C21.385 5.52679 19.9959 5.88957 19.19 5.47168C18.384 5.05839 17.7724 3.88738 18.2418 2.74393C18.7064 1.60048 20.1097 2.25716 20.0908 3.41439C20.0765 4.57162 19.3938 5.33851 17.9431 5.71047C16.4924 6.07785 15.6864 5.07676 15.5395 3.8782C15.3972 2.67964 16.554 2.16991 17.0044 2.52351C17.4548 2.8771 17.7724 3.86901 17.2415 4.79204C16.7105 5.71507 15.2123 6.14673 14.2499 5.36606C13.2875 4.58998 13.4534 3.34091 14.4016 3.04242V3.04701Z" fill="#442B1D"/>
<path d="M17.0517 27.6783C16.8905 27.5543 16.6866 27.4717 16.459 27.4717C15.9328 27.4717 15.5061 27.8896 15.5061 28.3993C15.5061 28.6886 15.6483 28.9458 15.8664 29.1157C16.0513 29.3223 17.0517 30.3785 18.2985 30.677L18.3744 30.3831C17.6063 30.1994 16.9284 29.6943 16.5112 29.3177C17.0137 29.2948 17.4167 28.8907 17.4167 28.3993C17.4167 28.3212 17.4025 28.2478 17.3835 28.1743C17.8386 28.4131 18.5261 28.831 18.9954 29.382L19.2372 29.1892C18.4787 28.2983 17.2508 27.761 17.0517 27.6783ZM16.459 29.0192C16.3215 29.0192 16.1935 28.9779 16.0892 28.9044C16.0798 28.8907 16.075 28.8861 16.075 28.8861C15.9233 28.7759 15.8237 28.5968 15.8237 28.3993C15.8237 28.0549 16.1129 27.7748 16.4638 27.7748C16.8146 27.7748 17.1085 28.0549 17.1085 28.3993C17.1085 28.7437 16.8193 29.0192 16.4638 29.0192H16.459Z" fill="#C6B5A3"/>
<path d="M18.3408 30.5208C17.2315 30.2636 16.1837 29.2304 16.0794 29.1385C15.9609 29.0375 15.6622 28.716 15.6432 28.4543C15.6575 27.9629 15.9609 27.6644 16.1363 27.5312C15.7712 27.6598 15.5105 27.9997 15.5105 28.3946C15.5105 28.6839 15.6527 28.941 15.8708 29.111C16.0557 29.3176 17.056 30.3738 18.3029 30.6723L18.3408 30.5162V30.5208Z" fill="#BAA897"/>
<path d="M18.9955 29.3816L19.095 29.3035C18.6067 28.6927 17.7391 28.2106 17.3835 28.1738C17.8387 28.4126 18.5261 28.8305 18.9955 29.3816Z" fill="#BAA897"/>
<path d="M16.5158 29.1242C16.5158 29.1242 16.971 29.1334 17.1701 28.6833C17.2696 28.417 17.1938 28.0358 16.9947 27.8659C16.7955 27.696 16.2551 27.5582 15.9801 27.8567C16.1176 27.5766 16.4921 27.5215 16.7624 27.6271C16.952 27.7144 17.1132 27.843 17.2839 27.9164C17.4545 27.9853 18.3269 28.3756 18.8152 28.867C18.8768 28.9313 18.7488 28.867 18.6255 28.766C18.5023 28.665 18.0187 28.3068 17.5351 28.1323C17.3692 28.0909 17.2696 28.0542 17.3076 28.2379C17.3455 28.4262 17.3313 28.8762 16.9567 29.0874C16.6581 29.2482 16.3072 29.1839 16.5158 29.1242Z" fill="#D8CABF"/>
<path d="M20.3608 29.4379C19.7635 28.8226 19.0903 28.7078 18.7916 29.0751C18.4929 29.4379 18.5451 29.5803 18.7157 29.7043C18.8248 29.7823 19.0476 29.9247 19.1993 30.0165C19.2704 29.966 19.351 29.9339 19.4411 29.9339C19.6687 29.9339 19.8536 30.113 19.8536 30.338C19.8536 30.563 19.6687 30.7375 19.4411 30.7375C19.2135 30.7375 19.0239 30.5584 19.0239 30.338C19.0239 30.2645 19.0476 30.2002 19.0855 30.1405C18.9907 30.0716 18.8674 29.9798 18.7252 29.8834C18.4028 29.6675 18.3365 29.7961 18.3365 29.7961C18.3365 29.7961 18.1421 29.8604 17.9619 30.1956C17.7296 30.6227 18.052 31.1141 18.7015 31.4631C19.351 31.8167 20.2091 31.5274 20.4414 31.1095C20.6785 30.6962 20.9582 30.0533 20.3656 29.4379H20.3608Z" fill="#FFE594"/>
<path d="M20.4411 31.11C20.4743 31.0503 20.5122 30.9814 20.5454 30.9125C20.2752 31.2524 19.8295 31.4682 19.4645 31.4406C18.9192 31.4039 18.1986 30.986 18.1891 30.5084C18.1797 30.1273 18.4689 29.8839 18.5921 29.8012C18.3883 29.7048 18.3409 29.7921 18.3409 29.7921C18.3409 29.7921 18.1465 29.8563 17.9663 30.1916C17.734 30.6186 18.0564 31.11 18.7059 31.459C19.3554 31.8126 20.2135 31.5233 20.4458 31.1054L20.4411 31.11Z" fill="#F7D77F"/>
<path d="M18.7156 29.6997C18.8246 29.7778 19.0474 29.9201 19.1991 30.012C19.2703 29.9615 19.3509 29.9293 19.4409 29.9293C19.6685 29.9293 19.8534 30.1084 19.8534 30.3334C19.8534 30.4253 19.8155 30.5034 19.7633 30.5722C20.0904 30.3334 19.8913 29.9064 19.6827 29.787C19.4694 29.663 19.3698 29.8513 18.9811 29.5803C18.7156 29.392 18.9052 29.0798 19.0522 28.9053C18.9479 28.9374 18.8578 28.9925 18.7867 29.0798C18.488 29.4426 18.5402 29.5849 18.7108 29.7089L18.7156 29.6997Z" fill="#F7D77F"/>
<path d="M19.2514 29.1297C19.2514 29.1297 19.0475 29.3501 19.2514 29.4603C19.4268 29.5567 19.7018 29.4328 19.9815 29.6761C20.2612 29.9195 20.2233 30.4201 19.9815 30.7048C19.7397 30.9849 19.2609 30.9987 19.0285 30.7507C18.7962 30.5073 18.9717 30.2685 18.7156 30.1859C18.4644 30.1032 18.3269 30.3466 18.4833 30.6864C18.6398 31.0262 19.166 31.412 19.7871 31.1961C20.4082 30.9803 20.5551 30.4247 20.4271 30.0205C20.2991 29.6164 19.6781 28.8404 19.2514 29.1343V29.1297Z" fill="#FFEEBD"/>
</g>
<defs>
<clipPath id="clip0_3844_1789">
<rect width="36" height="36" rx="18" fill="white"/>
</clipPath>
</defs>
</svg>
