<svg fill="none" xmlns="http://www.w3.org/2000/svg" viewBox="0 0 13 13" class="design-iconfont">
  <g clip-path="url(#2tktsvkny__clip0_549_591)">
    <path d="M6.56792 11.8737C7.22422 12.5279 8.09849 12.9174 9.02376 12.9679C9.94904 13.0184 10.8605 12.7263 11.5841 12.1474L8.94074 9.50087L6.56792 11.8737ZM8.6386 8.61502L8.93283 8.32079L11.2392 6.01124L12.1172 5.1333C12.681 4.56922 12.9977 3.80426 12.9976 3.00669C12.9974 2.20912 12.6804 1.44427 12.1164 0.880407C11.5523 0.316544 10.7873 -0.000148277 9.98976 5.20815e-08C9.19219 0.000148382 8.42734 0.317125 7.86348 0.881198L0.903196 7.84148C0.623895 8.12088 0.402362 8.45257 0.251245 8.81759C0.100129 9.18261 0.0223875 9.57382 0.022461 9.96888C0.0225344 10.3639 0.100421 10.7551 0.251673 11.1201C0.402926 11.4851 0.624582 11.8167 0.903987 12.096C1.18339 12.3753 1.51507 12.5968 1.88009 12.7479C2.24511 12.899 2.63632 12.9768 3.03139 12.9767C3.42645 12.9766 3.81763 12.8987 4.1826 12.7475C4.54756 12.5962 4.87916 12.3746 5.15846 12.0952L5.37834 11.8721L8.6386 8.61502ZM5.00976 4.9846L8.4899 1.50446C8.68523 1.29821 8.91991 1.13319 9.18008 1.01915C9.44024 0.905117 9.72063 0.844373 10.0047 0.84051C10.2887 0.836647 10.5706 0.889743 10.8338 0.996662C11.097 1.10358 11.3361 1.26216 11.5369 1.46302C11.7378 1.66388 11.8964 1.90296 12.0033 2.16613C12.1102 2.42931 12.1633 2.71124 12.1594 2.99528C12.1556 3.27931 12.0948 3.5597 11.9808 3.81986C11.8667 4.08003 11.7017 4.31471 11.4955 4.51004L8.01534 7.99018L5.00976 4.9846ZM11.9004 6.53959L9.52762 8.91241L12.1804 11.5605C12.7585 10.8353 13.0495 9.92264 12.9978 8.99665C12.9462 8.07065 12.5556 7.19605 11.9004 6.53959Z" fill="#3263FE"/>
  </g>
  <defs>
    <clipPath id="2tktsvkny__clip0_549_591">
      <path fill="#fff" d="M0 0H13V13H0z"/>
    </clipPath>
  </defs>
</svg>
