<svg xmlns="http://www.w3.org/2000/svg" fill="none" viewBox="0 0 20 20" class="design-iconfont">
  <path d="M7.19206 9.44902H5.00306C3.71006 9.44902 2.65906 8.39702 2.65906 7.10502V4.91602C2.65906 3.62302 3.71106 2.57202 5.00306 2.57202H7.19206C8.48506 2.57202 9.53606 3.62402 9.53606 4.91602V7.10502C9.53606 8.39802 8.48406 9.44902 7.19206 9.44902ZM5.00306 3.77202C4.37206 3.77202 3.85906 4.28502 3.85906 4.91602V7.10502C3.85906 7.73602 4.37206 8.24902 5.00306 8.24902H7.19206C7.82306 8.24902 8.33606 7.73602 8.33606 7.10502V4.91602C8.33606 4.28502 7.82306 3.77202 7.19206 3.77202H5.00306ZM7.19206 17.454H5.00306C3.71006 17.454 2.65906 16.402 2.65906 15.11V12.921C2.65906 11.628 3.71106 10.577 5.00306 10.577H7.19206C8.48506 10.577 9.53606 11.629 9.53606 12.921V15.11C9.53606 16.402 8.48406 17.454 7.19206 17.454ZM5.00306 11.776C4.37206 11.776 3.85906 12.289 3.85906 12.92V15.109C3.85906 15.74 4.37206 16.253 5.00306 16.253H7.19206C7.82306 16.253 8.33606 15.74 8.33606 15.109V12.92C8.33606 12.289 7.82306 11.776 7.19206 11.776H5.00306ZM15.1271 17.454H12.9381C11.6451 17.454 10.5941 16.402 10.5941 15.11V12.921C10.5941 11.628 11.6461 10.577 12.9381 10.577H15.1271C16.4201 10.577 17.4711 11.629 17.4711 12.921V15.11C17.4711 16.402 16.4201 17.454 15.1271 17.454ZM12.9381 11.776C12.3071 11.776 11.7941 12.289 11.7941 12.92V15.109C11.7941 15.74 12.3071 16.253 12.9381 16.253H15.1271C15.7581 16.253 16.2711 15.74 16.2711 15.109V12.92C16.2711 12.289 15.7581 11.776 15.1271 11.776H12.9381Z" fill="#3263FE"/>
  <path d="M14.0331 9.64397C13.4331 9.64397 12.8321 9.41497 12.3751 8.95797L11.0841 7.66796C10.1701 6.75396 10.1701 5.26696 11.0841 4.35296L12.3751 3.06196C13.2891 2.14796 14.7761 2.14796 15.6901 3.06196L16.9801 4.35196C17.8941 5.26596 17.8941 6.75297 16.9801 7.66697L15.6901 8.95696C15.2331 9.41596 14.6331 9.64397 14.0331 9.64397ZM14.0331 3.57696C13.7401 3.57696 13.4471 3.68896 13.2241 3.91196L11.9331 5.20296C11.4871 5.64896 11.4871 6.37496 11.9331 6.82096L13.2241 8.11097C13.6701 8.55697 14.3961 8.55697 14.8421 8.11097L16.1321 6.82096C16.5781 6.37496 16.5781 5.64896 16.1321 5.20296L14.8421 3.91296C14.7362 3.8061 14.6102 3.72136 14.4713 3.66368C14.3324 3.60599 14.1835 3.57652 14.0331 3.57696Z" fill="#FF813B"/>
</svg>
