<svg xmlns="http://www.w3.org/2000/svg" fill="none" viewBox="0 0 16 16" class="design-iconfont">
  <g clip-path="url(#l9mwpixcs__clip0_1943_220)">
    <path d="M3.83329 0.666656H1.49996C1.27902 0.666905 1.0672 0.754782 0.910978 0.911008C0.754751 1.06723 0.666874 1.27905 0.666626 1.49999V3.83332C0.666874 4.05426 0.754751 4.26608 0.910978 4.4223C1.0672 4.57853 1.27902 4.66641 1.49996 4.66666H3.83329C4.05423 4.66641 4.26605 4.57853 4.42227 4.4223C4.5785 4.26608 4.66638 4.05426 4.66663 3.83332V1.49999C4.66638 1.27905 4.5785 1.06723 4.42227 0.911008C4.26605 0.754782 4.05423 0.666905 3.83329 0.666656ZM3.99996 3.83332C3.99996 3.87753 3.9824 3.91992 3.95114 3.95117C3.91989 3.98243 3.8775 3.99999 3.83329 3.99999H1.49996C1.45576 3.99999 1.41336 3.98243 1.38211 3.95117C1.35085 3.91992 1.33329 3.87753 1.33329 3.83332V1.49999C1.33329 1.45579 1.35085 1.41339 1.38211 1.38214C1.41336 1.35088 1.45576 1.33332 1.49996 1.33332H3.83329C3.8775 1.33332 3.91989 1.35088 3.95114 1.38214C3.9824 1.41339 3.99996 1.45579 3.99996 1.49999V3.83332ZM14.5 0.666656H12.1666C11.9457 0.666905 11.7339 0.754782 11.5776 0.911008C11.4214 1.06723 11.3335 1.27905 11.3333 1.49999V3.83332C11.3335 4.05426 11.4214 4.26608 11.5776 4.4223C11.7339 4.57853 11.9457 4.66641 12.1666 4.66666H14.5C14.7209 4.66641 14.9327 4.57853 15.0889 4.4223C15.2452 4.26608 15.333 4.05426 15.3333 3.83332V1.49999C15.333 1.27905 15.2452 1.06723 15.0889 0.911008C14.9327 0.754782 14.7209 0.666905 14.5 0.666656ZM14.6666 3.83332C14.6666 3.87753 14.6491 3.91992 14.6178 3.95117C14.5866 3.98243 14.5442 3.99999 14.5 3.99999H12.1666C12.1224 3.99999 12.08 3.98243 12.0488 3.95117C12.0175 3.91992 12 3.87753 12 3.83332V1.49999C12 1.45579 12.0175 1.41339 12.0488 1.38214C12.08 1.35088 12.1224 1.33332 12.1666 1.33332H14.5C14.5442 1.33332 14.5866 1.35088 14.6178 1.38214C14.6491 1.41339 14.6666 1.45579 14.6666 1.49999V3.83332ZM9.16663 0.666656H6.83329C6.61236 0.666905 6.40054 0.754782 6.24431 0.911008C6.08808 1.06723 6.00021 1.27905 5.99996 1.49999V3.83332C6.00021 4.05426 6.08808 4.26608 6.24431 4.4223C6.40054 4.57853 6.61236 4.66641 6.83329 4.66666H9.16663C9.38756 4.66641 9.59938 4.57853 9.75561 4.4223C9.91183 4.26608 9.99971 4.05426 9.99996 3.83332V1.49999C9.99971 1.27905 9.91183 1.06723 9.75561 0.911008C9.59938 0.754782 9.38756 0.666905 9.16663 0.666656ZM9.33329 3.83332C9.33329 3.87753 9.31573 3.91992 9.28448 3.95117C9.25322 3.98243 9.21083 3.99999 9.16663 3.99999H6.83329C6.78909 3.99999 6.7467 3.98243 6.71544 3.95117C6.68419 3.91992 6.66663 3.87753 6.66663 3.83332V1.49999C6.66663 1.45579 6.68419 1.41339 6.71544 1.38214C6.7467 1.35088 6.78909 1.33332 6.83329 1.33332H9.16663C9.21083 1.33332 9.25322 1.35088 9.28448 1.38214C9.31573 1.41339 9.33329 1.45579 9.33329 1.49999V3.83332ZM3.83329 5.99999H1.49996C1.27902 6.00024 1.0672 6.08812 0.910978 6.24434C0.754751 6.40057 0.666874 6.61239 0.666626 6.83332V9.16666C0.666874 9.38759 0.754751 9.59941 0.910978 9.75564C1.0672 9.91186 1.27902 9.99974 1.49996 9.99999H3.83329C4.05423 9.99974 4.26605 9.91186 4.42227 9.75564C4.5785 9.59941 4.66638 9.38759 4.66663 9.16666V6.83332C4.66638 6.61239 4.5785 6.40057 4.42227 6.24434C4.26605 6.08812 4.05423 6.00024 3.83329 5.99999ZM3.99996 9.16666C3.99996 9.21086 3.9824 9.25325 3.95114 9.28451C3.91989 9.31576 3.8775 9.33332 3.83329 9.33332H1.49996C1.45576 9.33332 1.41336 9.31576 1.38211 9.28451C1.35085 9.25325 1.33329 9.21086 1.33329 9.16666V6.83332C1.33329 6.78912 1.35085 6.74673 1.38211 6.71547C1.41336 6.68422 1.45576 6.66666 1.49996 6.66666H3.83329C3.8775 6.66666 3.91989 6.68422 3.95114 6.71547C3.9824 6.74673 3.99996 6.78912 3.99996 6.83332V9.16666ZM9.16663 5.99999H6.83329C6.61236 6.00024 6.40054 6.08812 6.24431 6.24434C6.08808 6.40057 6.00021 6.61239 5.99996 6.83332V9.16666C6.00021 9.38759 6.08808 9.59941 6.24431 9.75564C6.40054 9.91186 6.61236 9.99974 6.83329 9.99999H9.16663C9.38756 9.99974 9.59938 9.91186 9.75561 9.75564C9.91183 9.59941 9.99971 9.38759 9.99996 9.16666V6.83332C9.99971 6.61239 9.91183 6.40057 9.75561 6.24434C9.59938 6.08812 9.38756 6.00024 9.16663 5.99999ZM9.33329 9.16666C9.33329 9.21086 9.31573 9.25325 9.28448 9.28451C9.25322 9.31576 9.21083 9.33332 9.16663 9.33332H6.83329C6.78909 9.33332 6.7467 9.31576 6.71544 9.28451C6.68419 9.25325 6.66663 9.21086 6.66663 9.16666V6.83332C6.66663 6.78912 6.68419 6.74673 6.71544 6.71547C6.7467 6.68422 6.78909 6.66666 6.83329 6.66666H9.16663C9.21083 6.66666 9.25322 6.68422 9.28448 6.71547C9.31573 6.74673 9.33329 6.78912 9.33329 6.83332V9.16666ZM14.5 5.99999H12.1666C11.9457 6.00024 11.7339 6.08812 11.5776 6.24434C11.4214 6.40057 11.3335 6.61239 11.3333 6.83332V9.16666C11.3335 9.38759 11.4214 9.59941 11.5776 9.75564C11.7339 9.91186 11.9457 9.99974 12.1666 9.99999H14.5C14.7209 9.99974 14.9327 9.91186 15.0889 9.75564C15.2452 9.59941 15.333 9.38759 15.3333 9.16666V6.83332C15.333 6.61239 15.2452 6.40057 15.0889 6.24434C14.9327 6.08812 14.7209 6.00024 14.5 5.99999ZM14.6666 9.16666C14.6666 9.21086 14.6491 9.25325 14.6178 9.28451C14.5866 9.31576 14.5442 9.33332 14.5 9.33332H12.1666C12.1224 9.33332 12.08 9.31576 12.0488 9.28451C12.0175 9.25325 12 9.21086 12 9.16666V6.83332C12 6.78912 12.0175 6.74673 12.0488 6.71547C12.08 6.68422 12.1224 6.66666 12.1666 6.66666H14.5C14.5442 6.66666 14.5866 6.68422 14.6178 6.71547C14.6491 6.74673 14.6666 6.78912 14.6666 6.83332V9.16666ZM3.83329 11.3333H1.49996C1.27902 11.3336 1.0672 11.4214 0.910978 11.5777C0.754751 11.7339 0.666874 11.9457 0.666626 12.1667V14.5C0.666874 14.7209 0.754751 14.9327 0.910978 15.089C1.0672 15.2452 1.27902 15.3331 1.49996 15.3333H3.83329C4.05423 15.3331 4.26605 15.2452 4.42227 15.089C4.5785 14.9327 4.66638 14.7209 4.66663 14.5V12.1667C4.66638 11.9457 4.5785 11.7339 4.42227 11.5777C4.26605 11.4214 4.05423 11.3336 3.83329 11.3333ZM3.99996 14.5C3.99996 14.5442 3.9824 14.5866 3.95114 14.6178C3.91989 14.6491 3.8775 14.6667 3.83329 14.6667H1.49996C1.45576 14.6667 1.41336 14.6491 1.38211 14.6178C1.35085 14.5866 1.33329 14.5442 1.33329 14.5V12.1667C1.33329 12.1225 1.35085 12.0801 1.38211 12.0488C1.41336 12.0175 1.45576 12 1.49996 12H3.83329C3.8775 12 3.91989 12.0175 3.95114 12.0488C3.9824 12.0801 3.99996 12.1225 3.99996 12.1667V14.5ZM14.5 11.3333H12.1666C11.9457 11.3336 11.7339 11.4214 11.5776 11.5777C11.4214 11.7339 11.3335 11.9457 11.3333 12.1667V14.5C11.3335 14.7209 11.4214 14.9327 11.5776 15.089C11.7339 15.2452 11.9457 15.3331 12.1666 15.3333H14.5C14.7209 15.3331 14.9327 15.2452 15.0889 15.089C15.2452 14.9327 15.333 14.7209 15.3333 14.5V12.1667C15.333 11.9457 15.2452 11.7339 15.0889 11.5777C14.9327 11.4214 14.7209 11.3336 14.5 11.3333ZM14.6666 14.5C14.6666 14.5442 14.6491 14.5866 14.6178 14.6178C14.5866 14.6491 14.5442 14.6667 14.5 14.6667H12.1666C12.1224 14.6667 12.08 14.6491 12.0488 14.6178C12.0175 14.5866 12 14.5442 12 14.5V12.1667C12 12.1225 12.0175 12.0801 12.0488 12.0488C12.08 12.0175 12.1224 12 12.1666 12H14.5C14.5442 12 14.5866 12.0175 14.6178 12.0488C14.6491 12.0801 14.6666 12.1225 14.6666 12.1667V14.5ZM9.16663 11.3333H6.83329C6.61236 11.3336 6.40054 11.4214 6.24431 11.5777C6.08808 11.7339 6.00021 11.9457 5.99996 12.1667V14.5C6.00021 14.7209 6.08808 14.9327 6.24431 15.089C6.40054 15.2452 6.61236 15.3331 6.83329 15.3333H9.16663C9.38756 15.3331 9.59938 15.2452 9.75561 15.089C9.91183 14.9327 9.99971 14.7209 9.99996 14.5V12.1667C9.99971 11.9457 9.91183 11.7339 9.75561 11.5777C9.59938 11.4214 9.38756 11.3336 9.16663 11.3333ZM9.33329 14.5C9.33329 14.5442 9.31573 14.5866 9.28448 14.6178C9.25322 14.6491 9.21083 14.6667 9.16663 14.6667H6.83329C6.78909 14.6667 6.7467 14.6491 6.71544 14.6178C6.68419 14.5866 6.66663 14.5442 6.66663 14.5V12.1667C6.66663 12.1225 6.68419 12.0801 6.71544 12.0488C6.7467 12.0175 6.78909 12 6.83329 12H9.16663C9.21083 12 9.25322 12.0175 9.28448 12.0488C9.31573 12.0801 9.33329 12.1225 9.33329 12.1667V14.5Z" fill="#fff"/>
  </g>
  <defs>
    <clipPath id="l9mwpixcs__clip0_1943_220">
      <path fill="#fff" d="M0 0H16V16H0z"/>
    </clipPath>
  </defs>
</svg>
