<svg xmlns="http://www.w3.org/2000/svg" fill="none" viewBox="0 0 16 16" class="design-iconfont">
  <g clip-path="url(#v28skydx1__clip0_1923_2052)">
    <path d="M3.83335 0.666656H1.50002C1.27908 0.666905 1.06727 0.754782 0.911039 0.911008C0.754812 1.06723 0.666935 1.27905 0.666687 1.49999V3.83332C0.666935 4.05426 0.754812 4.26608 0.911039 4.4223C1.06727 4.57853 1.27908 4.66641 1.50002 4.66666H3.83335C4.05429 4.66641 4.26611 4.57853 4.42234 4.4223C4.57856 4.26608 4.66644 4.05426 4.66669 3.83332V1.49999C4.66644 1.27905 4.57856 1.06723 4.42234 0.911008C4.26611 0.754782 4.05429 0.666905 3.83335 0.666656ZM4.00002 3.83332C4.00002 3.87753 3.98246 3.91992 3.9512 3.95117C3.91995 3.98243 3.87756 3.99999 3.83335 3.99999H1.50002C1.45582 3.99999 1.41343 3.98243 1.38217 3.95117C1.35091 3.91992 1.33335 3.87753 1.33335 3.83332V1.49999C1.33335 1.45579 1.35091 1.41339 1.38217 1.38214C1.41343 1.35088 1.45582 1.33332 1.50002 1.33332H3.83335C3.87756 1.33332 3.91995 1.35088 3.9512 1.38214C3.98246 1.41339 4.00002 1.45579 4.00002 1.49999V3.83332ZM14.5 0.666656H12.1667C11.9457 0.666905 11.7339 0.754782 11.5777 0.911008C11.4215 1.06723 11.3336 1.27905 11.3334 1.49999V3.83332C11.3336 4.05426 11.4215 4.26608 11.5777 4.4223C11.7339 4.57853 11.9457 4.66641 12.1667 4.66666H14.5C14.721 4.66641 14.9328 4.57853 15.089 4.4223C15.2452 4.26608 15.3331 4.05426 15.3334 3.83332V1.49999C15.3331 1.27905 15.2452 1.06723 15.089 0.911008C14.9328 0.754782 14.721 0.666905 14.5 0.666656ZM14.6667 3.83332C14.6667 3.87753 14.6491 3.91992 14.6179 3.95117C14.5866 3.98243 14.5442 3.99999 14.5 3.99999H12.1667C12.1225 3.99999 12.0801 3.98243 12.0488 3.95117C12.0176 3.91992 12 3.87753 12 3.83332V1.49999C12 1.45579 12.0176 1.41339 12.0488 1.38214C12.0801 1.35088 12.1225 1.33332 12.1667 1.33332H14.5C14.5442 1.33332 14.5866 1.35088 14.6179 1.38214C14.6491 1.41339 14.6667 1.45579 14.6667 1.49999V3.83332ZM9.16669 0.666656H6.83335C6.61242 0.666905 6.4006 0.754782 6.24437 0.911008C6.08815 1.06723 6.00027 1.27905 6.00002 1.49999V3.83332C6.00027 4.05426 6.08815 4.26608 6.24437 4.4223C6.4006 4.57853 6.61242 4.66641 6.83335 4.66666H9.16669C9.38762 4.66641 9.59944 4.57853 9.75567 4.4223C9.91189 4.26608 9.99977 4.05426 10 3.83332V1.49999C9.99977 1.27905 9.91189 1.06723 9.75567 0.911008C9.59944 0.754782 9.38762 0.666905 9.16669 0.666656ZM9.33335 3.83332C9.33335 3.87753 9.31579 3.91992 9.28454 3.95117C9.25328 3.98243 9.21089 3.99999 9.16669 3.99999H6.83335C6.78915 3.99999 6.74676 3.98243 6.7155 3.95117C6.68425 3.91992 6.66669 3.87753 6.66669 3.83332V1.49999C6.66669 1.45579 6.68425 1.41339 6.7155 1.38214C6.74676 1.35088 6.78915 1.33332 6.83335 1.33332H9.16669C9.21089 1.33332 9.25328 1.35088 9.28454 1.38214C9.31579 1.41339 9.33335 1.45579 9.33335 1.49999V3.83332ZM3.83335 5.99999H1.50002C1.27908 6.00024 1.06727 6.08812 0.911039 6.24434C0.754812 6.40057 0.666935 6.61239 0.666687 6.83332V9.16666C0.666935 9.38759 0.754812 9.59941 0.911039 9.75564C1.06727 9.91186 1.27908 9.99974 1.50002 9.99999H3.83335C4.05429 9.99974 4.26611 9.91186 4.42234 9.75564C4.57856 9.59941 4.66644 9.38759 4.66669 9.16666V6.83332C4.66644 6.61239 4.57856 6.40057 4.42234 6.24434C4.26611 6.08812 4.05429 6.00024 3.83335 5.99999ZM4.00002 9.16666C4.00002 9.21086 3.98246 9.25325 3.9512 9.28451C3.91995 9.31576 3.87756 9.33332 3.83335 9.33332H1.50002C1.45582 9.33332 1.41343 9.31576 1.38217 9.28451C1.35091 9.25325 1.33335 9.21086 1.33335 9.16666V6.83332C1.33335 6.78912 1.35091 6.74673 1.38217 6.71547C1.41343 6.68422 1.45582 6.66666 1.50002 6.66666H3.83335C3.87756 6.66666 3.91995 6.68422 3.9512 6.71547C3.98246 6.74673 4.00002 6.78912 4.00002 6.83332V9.16666ZM9.16669 5.99999H6.83335C6.61242 6.00024 6.4006 6.08812 6.24437 6.24434C6.08815 6.40057 6.00027 6.61239 6.00002 6.83332V9.16666C6.00027 9.38759 6.08815 9.59941 6.24437 9.75564C6.4006 9.91186 6.61242 9.99974 6.83335 9.99999H9.16669C9.38762 9.99974 9.59944 9.91186 9.75567 9.75564C9.91189 9.59941 9.99977 9.38759 10 9.16666V6.83332C9.99977 6.61239 9.91189 6.40057 9.75567 6.24434C9.59944 6.08812 9.38762 6.00024 9.16669 5.99999ZM9.33335 9.16666C9.33335 9.21086 9.31579 9.25325 9.28454 9.28451C9.25328 9.31576 9.21089 9.33332 9.16669 9.33332H6.83335C6.78915 9.33332 6.74676 9.31576 6.7155 9.28451C6.68425 9.25325 6.66669 9.21086 6.66669 9.16666V6.83332C6.66669 6.78912 6.68425 6.74673 6.7155 6.71547C6.74676 6.68422 6.78915 6.66666 6.83335 6.66666H9.16669C9.21089 6.66666 9.25328 6.68422 9.28454 6.71547C9.31579 6.74673 9.33335 6.78912 9.33335 6.83332V9.16666ZM14.5 5.99999H12.1667C11.9457 6.00024 11.7339 6.08812 11.5777 6.24434C11.4215 6.40057 11.3336 6.61239 11.3334 6.83332V9.16666C11.3336 9.38759 11.4215 9.59941 11.5777 9.75564C11.7339 9.91186 11.9457 9.99974 12.1667 9.99999H14.5C14.721 9.99974 14.9328 9.91186 15.089 9.75564C15.2452 9.59941 15.3331 9.38759 15.3334 9.16666V6.83332C15.3331 6.61239 15.2452 6.40057 15.089 6.24434C14.9328 6.08812 14.721 6.00024 14.5 5.99999ZM14.6667 9.16666C14.6667 9.21086 14.6491 9.25325 14.6179 9.28451C14.5866 9.31576 14.5442 9.33332 14.5 9.33332H12.1667C12.1225 9.33332 12.0801 9.31576 12.0488 9.28451C12.0176 9.25325 12 9.21086 12 9.16666V6.83332C12 6.78912 12.0176 6.74673 12.0488 6.71547C12.0801 6.68422 12.1225 6.66666 12.1667 6.66666H14.5C14.5442 6.66666 14.5866 6.68422 14.6179 6.71547C14.6491 6.74673 14.6667 6.78912 14.6667 6.83332V9.16666ZM3.83335 11.3333H1.50002C1.27908 11.3336 1.06727 11.4214 0.911039 11.5777C0.754812 11.7339 0.666935 11.9457 0.666687 12.1667V14.5C0.666935 14.7209 0.754812 14.9327 0.911039 15.089C1.06727 15.2452 1.27908 15.3331 1.50002 15.3333H3.83335C4.05429 15.3331 4.26611 15.2452 4.42234 15.089C4.57856 14.9327 4.66644 14.7209 4.66669 14.5V12.1667C4.66644 11.9457 4.57856 11.7339 4.42234 11.5777C4.26611 11.4214 4.05429 11.3336 3.83335 11.3333ZM4.00002 14.5C4.00002 14.5442 3.98246 14.5866 3.9512 14.6178C3.91995 14.6491 3.87756 14.6667 3.83335 14.6667H1.50002C1.45582 14.6667 1.41343 14.6491 1.38217 14.6178C1.35091 14.5866 1.33335 14.5442 1.33335 14.5V12.1667C1.33335 12.1225 1.35091 12.0801 1.38217 12.0488C1.41343 12.0175 1.45582 12 1.50002 12H3.83335C3.87756 12 3.91995 12.0175 3.9512 12.0488C3.98246 12.0801 4.00002 12.1225 4.00002 12.1667V14.5ZM14.5 11.3333H12.1667C11.9457 11.3336 11.7339 11.4214 11.5777 11.5777C11.4215 11.7339 11.3336 11.9457 11.3334 12.1667V14.5C11.3336 14.7209 11.4215 14.9327 11.5777 15.089C11.7339 15.2452 11.9457 15.3331 12.1667 15.3333H14.5C14.721 15.3331 14.9328 15.2452 15.089 15.089C15.2452 14.9327 15.3331 14.7209 15.3334 14.5V12.1667C15.3331 11.9457 15.2452 11.7339 15.089 11.5777C14.9328 11.4214 14.721 11.3336 14.5 11.3333ZM14.6667 14.5C14.6667 14.5442 14.6491 14.5866 14.6179 14.6178C14.5866 14.6491 14.5442 14.6667 14.5 14.6667H12.1667C12.1225 14.6667 12.0801 14.6491 12.0488 14.6178C12.0176 14.5866 12 14.5442 12 14.5V12.1667C12 12.1225 12.0176 12.0801 12.0488 12.0488C12.0801 12.0175 12.1225 12 12.1667 12H14.5C14.5442 12 14.5866 12.0175 14.6179 12.0488C14.6491 12.0801 14.6667 12.1225 14.6667 12.1667V14.5ZM9.16669 11.3333H6.83335C6.61242 11.3336 6.4006 11.4214 6.24437 11.5777C6.08815 11.7339 6.00027 11.9457 6.00002 12.1667V14.5C6.00027 14.7209 6.08815 14.9327 6.24437 15.089C6.4006 15.2452 6.61242 15.3331 6.83335 15.3333H9.16669C9.38762 15.3331 9.59944 15.2452 9.75567 15.089C9.91189 14.9327 9.99977 14.7209 10 14.5V12.1667C9.99977 11.9457 9.91189 11.7339 9.75567 11.5777C9.59944 11.4214 9.38762 11.3336 9.16669 11.3333ZM9.33335 14.5C9.33335 14.5442 9.31579 14.5866 9.28454 14.6178C9.25328 14.6491 9.21089 14.6667 9.16669 14.6667H6.83335C6.78915 14.6667 6.74676 14.6491 6.7155 14.6178C6.68425 14.5866 6.66669 14.5442 6.66669 14.5V12.1667C6.66669 12.1225 6.68425 12.0801 6.7155 12.0488C6.74676 12.0175 6.78915 12 6.83335 12H9.16669C9.21089 12 9.25328 12.0175 9.28454 12.0488C9.31579 12.0801 9.33335 12.1225 9.33335 12.1667V14.5Z" fill="#3263FE"/>
  </g>
  <defs>
    <clipPath id="v28skydx1__clip0_1923_2052">
      <path fill="#fff" d="M0 0H16V16H0z"/>
    </clipPath>
  </defs>
</svg>
