<svg fill="none" xmlns="http://www.w3.org/2000/svg" viewBox="0 0 14 14" class="design-iconfont">
  <path d="M5.90625 1.53125C5.90625 1.82133 6.02148 2.09953 6.2266 2.30465C6.43172 2.50977 6.70992 2.625 7 2.625C7.29008 2.625 7.56828 2.50977 7.7734 2.30465C7.97852 2.09953 8.09375 1.82133 8.09375 1.53125C8.09375 1.24117 7.97852 0.96297 7.7734 0.757852C7.56828 0.552734 7.29008 0.4375 7 0.4375C6.70992 0.4375 6.43172 0.552734 6.2266 0.757852C6.02148 0.96297 5.90625 1.24117 5.90625 1.53125Z" fill="#3263FE"/>
  <path d="M7 0.875C7.3623 0.875 7.65625 1.16895 7.65625 1.53125C7.65625 1.89355 7.3623 2.1875 7 2.1875C6.6377 2.1875 6.34375 1.89355 6.34375 1.53125C6.34375 1.16895 6.6377 0.875 7 0.875ZM7 0C6.15371 0 5.46875 0.684961 5.46875 1.53125C5.46875 2.37754 6.15371 3.0625 7 3.0625C7.84629 3.0625 8.53125 2.37754 8.53125 1.53125C8.53125 0.684961 7.84629 0 7 0ZM9.40625 4.375V8.53125C9.40625 8.65156 9.30781 8.75 9.1875 8.75H8.64062C8.58047 8.75 8.53125 8.79922 8.53125 8.85938V11.8125C8.53125 12.2951 8.13887 12.6875 7.65625 12.6875H6.34375C5.86113 12.6875 5.46875 12.2951 5.46875 11.8125V8.85938C5.46875 8.79922 5.41953 8.75 5.35938 8.75H4.8125C4.69219 8.75 4.59375 8.65156 4.59375 8.53125V4.375C4.59375 3.89102 4.98613 3.5 5.46875 3.5H8.53125C9.01387 3.5 9.40625 3.89102 9.40625 4.375Z" fill="#3263FE"/>
  <path d="M11.375 12.0312C11.375 13.1181 9.41582 13.9999 7 13.9999C4.58418 13.9999 2.625 13.1181 2.625 12.0312C2.625 11.297 3.51777 10.6571 4.84258 10.3181C5.04902 10.2648 5.25 10.422 5.25 10.6353C5.25 10.7843 5.14883 10.9142 5.00527 10.9525C4.09473 11.189 3.5 11.5841 3.5 12.0312C3.5 12.7558 5.0668 13.3437 7 13.3437C8.9332 13.3437 10.5 12.7558 10.5 12.0312C10.5 11.5841 9.90527 11.189 8.99473 10.9525C8.8498 10.9155 8.75 10.7843 8.75 10.6353C8.75 10.422 8.95098 10.2648 9.15742 10.3181C10.4822 10.6571 11.375 11.297 11.375 12.0312Z" fill="#3263FE"/>
</svg>
