<svg xmlns="http://www.w3.org/2000/svg" fill="none" viewBox="0 0 13 12" class="design-iconfont">
  <path d="M4.31035 1.6723H8.60419C8.64742 1.67289 8.69034 1.66488 8.73045 1.64874C8.77056 1.6326 8.80707 1.60865 8.83785 1.57829C8.86863 1.54793 8.89307 1.51175 8.90975 1.47186C8.92643 1.43197 8.93502 1.38917 8.93502 1.34593C8.93502 1.3027 8.92643 1.25989 8.90975 1.22C8.89307 1.18011 8.86863 1.14394 8.83785 1.11357C8.80707 1.08321 8.77056 1.05926 8.73045 1.04312C8.69034 1.02698 8.64742 1.01898 8.60419 1.01956H4.31035C4.26712 1.01898 4.2242 1.02698 4.18409 1.04312C4.14398 1.05926 4.10748 1.08321 4.0767 1.11357C4.04592 1.14394 4.02148 1.18011 4.0048 1.22C3.98812 1.25989 3.97953 1.3027 3.97953 1.34593C3.97953 1.38917 3.98812 1.43197 4.0048 1.47186C4.02148 1.51175 4.04592 1.54793 4.0767 1.57829C4.10748 1.60865 4.14398 1.6326 4.18409 1.64874C4.2242 1.66488 4.26712 1.67289 4.31035 1.6723ZM11.2727 2.66368H1.78735C1.74412 2.6631 1.7012 2.6711 1.66109 2.68724C1.62098 2.70338 1.58448 2.72733 1.5537 2.75769C1.52292 2.78806 1.49848 2.82423 1.4818 2.86412C1.46512 2.90401 1.45653 2.94682 1.45653 2.99005C1.45653 3.03329 1.46512 3.07609 1.4818 3.11598C1.49848 3.15587 1.52292 3.19205 1.5537 3.22241C1.58448 3.25277 1.62098 3.27672 1.66109 3.29286C1.7012 3.309 1.74412 3.31701 1.78735 3.31642H2.79415V10.0368C2.79495 10.2872 2.89502 10.5271 3.07243 10.7039C3.24984 10.8806 3.4901 10.9798 3.74053 10.9797H9.29527C9.54575 10.9798 9.78606 10.8806 9.96348 10.7038C10.1409 10.527 10.2409 10.287 10.2417 10.0365V3.31624H11.2727C11.3163 3.31742 11.3597 3.30986 11.4003 3.29399C11.4409 3.27813 11.4779 3.25428 11.5092 3.22387C11.5404 3.19345 11.5653 3.15709 11.5822 3.11691C11.5992 3.07674 11.6079 3.03357 11.6079 2.98996C11.6079 2.94635 11.5992 2.90319 11.5822 2.86301C11.5653 2.82284 11.5404 2.78647 11.5092 2.75605C11.4779 2.72564 11.4409 2.70179 11.4003 2.68593C11.3597 2.67006 11.3163 2.6625 11.2727 2.66368ZM9.58669 10.037C9.58647 10.1141 9.55566 10.188 9.50103 10.2424C9.4464 10.2969 9.3724 10.3274 9.29527 10.3274H3.74053C3.6634 10.3274 3.58939 10.2969 3.53476 10.2424C3.48012 10.188 3.44932 10.1141 3.44911 10.037V3.31624H9.58669V10.0368V10.037Z" fill="#BFBFBF"/>
  <path d="M5.51181 8.79791C5.46847 8.79804 5.42552 8.78963 5.38543 8.77316C5.34534 8.75668 5.30889 8.73248 5.27816 8.70192C5.24743 8.67136 5.22301 8.63504 5.20632 8.59505C5.18962 8.55505 5.18097 8.51216 5.18085 8.46881V5.20205C5.18085 5.11428 5.21572 5.0301 5.27778 4.96803C5.33985 4.90596 5.42403 4.87109 5.51181 4.87109C5.59958 4.87109 5.68376 4.90596 5.74583 4.96803C5.8079 5.0301 5.84277 5.11428 5.84277 5.20205V8.46881C5.84265 8.51216 5.83399 8.55505 5.8173 8.59505C5.8006 8.63504 5.77619 8.67136 5.74546 8.70192C5.71472 8.73248 5.67827 8.75668 5.63818 8.77316C5.59809 8.78963 5.55515 8.79804 5.51181 8.79791ZM7.69371 8.79791C7.65037 8.79804 7.60742 8.78963 7.56733 8.77316C7.52724 8.75668 7.49079 8.73248 7.46006 8.70192C7.42933 8.67136 7.40491 8.63504 7.38822 8.59505C7.37152 8.55505 7.36287 8.51216 7.36275 8.46881V5.20205C7.36275 5.11428 7.39762 5.0301 7.45968 4.96803C7.52175 4.90596 7.60593 4.87109 7.69371 4.87109C7.78148 4.87109 7.86566 4.90596 7.92773 4.96803C7.9898 5.0301 8.02467 5.11428 8.02467 5.20205V8.46881C8.02443 8.55629 7.98946 8.6401 7.92746 8.70181C7.86546 8.76352 7.78149 8.79809 7.69401 8.79791H7.69371Z" fill="#BFBFBF"/>
</svg>
