<svg xmlns="http://www.w3.org/2000/svg" fill="none" viewBox="0 0 13 12" class="design-iconfont">
  <path d="M10.5829 11.1H2.44863C2.18615 11.0993 1.93466 10.9945 1.74932 10.8086C1.56399 10.6228 1.45994 10.371 1.46001 10.1085V1.9514C1.45994 1.68892 1.56399 1.43714 1.74932 1.25127C1.93466 1.06541 2.18615 0.960644 2.44863 0.959961H7.85253C7.94352 0.959961 8.03078 0.996107 8.09512 1.06045C8.15946 1.12479 8.19561 1.21205 8.19561 1.30304C8.19561 1.39403 8.15946 1.4813 8.09512 1.54564C8.03078 1.60998 7.94352 1.64612 7.85253 1.64612H2.44863C2.36777 1.64626 2.29027 1.67849 2.23315 1.73573C2.17604 1.79297 2.14397 1.87054 2.14401 1.9514V10.1085C2.14397 10.1893 2.176 10.2669 2.23307 10.3241C2.29013 10.3813 2.36757 10.4136 2.44839 10.4138H10.5829C10.6637 10.4136 10.7411 10.3813 10.7982 10.3241C10.8553 10.2669 10.8873 10.1893 10.8873 10.1085V4.40306C10.8873 4.31236 10.9233 4.22537 10.9874 4.16123C11.0516 4.09709 11.1386 4.06106 11.2293 4.06106C11.32 4.06106 11.407 4.09709 11.4711 4.16123C11.5352 4.22537 11.5713 4.31236 11.5713 4.40306V10.1085C11.5713 10.371 11.4673 10.6227 11.282 10.8086C11.0967 10.9944 10.8453 11.0992 10.5829 11.1Z" fill="#BFBFBF"/>
  <path d="M11.4669 2.0259L10.6569 1.13238C10.6117 1.08242 10.557 1.04198 10.496 1.01345C10.4349 0.984913 10.3688 0.968853 10.3015 0.96621C10.2342 0.963567 10.167 0.974393 10.1039 0.998054C10.0408 1.02171 9.98309 1.05773 9.93411 1.104L4.53201 6.18972L4.53075 6.19098C4.44786 6.26986 4.39395 6.37436 4.37769 6.48762L4.06647 7.99002L4.06089 8.02686C4.05262 8.10941 4.06474 8.19273 4.09618 8.26951C4.12762 8.34628 4.17743 8.41417 4.24122 8.46721C4.30501 8.52026 4.38085 8.55683 4.46207 8.57374C4.5433 8.59064 4.62743 8.58735 4.70709 8.56416L6.02577 8.18016C6.10926 8.15577 6.18507 8.11032 6.24591 8.04816L11.4535 2.7243C11.5442 2.63144 11.5961 2.50751 11.5986 2.37775C11.6011 2.24799 11.554 2.12216 11.4669 2.0259ZM6.28047 7.0335L5.45601 6.26076L9.46725 2.4843L10.1011 3.12786L6.28047 7.0335ZM4.79949 7.82316L5.01435 6.7857L5.80149 7.52322L5.79027 7.53468L4.79949 7.82316ZM10.58 2.63808L9.96597 2.01468L10.2717 1.72668L10.8487 2.36322L10.58 2.63808Z" fill="#BFBFBF"/>
</svg>
