<svg xmlns="http://www.w3.org/2000/svg" fill="none" viewBox="0 0 16 16" class="design-iconfont">
  <path fill="#fff" d="M0 0H16V16H0z"/>
  <path d="M9.81363 4.85107H11.5478C11.6213 4.85195 11.6942 4.83824 11.7624 4.81072C11.8305 4.78321 11.8926 4.74244 11.9448 4.69078C11.9971 4.63912 12.0386 4.57759 12.067 4.50977C12.0953 4.44195 12.1099 4.36917 12.1099 4.29567C12.1099 4.22217 12.0953 4.1494 12.067 4.08158C12.0386 4.01375 11.9971 3.95223 11.9448 3.90057C11.8926 3.84891 11.8305 3.80814 11.7624 3.78062C11.6942 3.7531 11.6213 3.73939 11.5478 3.74027H9.81363C9.74013 3.73939 9.66719 3.7531 9.59903 3.78062C9.53088 3.80814 9.46886 3.84891 9.41657 3.90057C9.36429 3.95223 9.32277 4.01375 9.29444 4.08158C9.26611 4.1494 9.25152 4.22217 9.25152 4.29567C9.25152 4.36917 9.26611 4.44195 9.29444 4.50977C9.32277 4.57759 9.36429 4.63912 9.41657 4.69078C9.46886 4.74244 9.53088 4.78321 9.59903 4.81072C9.66719 4.83824 9.74013 4.85195 9.81363 4.85107ZM14.0601 5.93835V2.72947C14.0588 2.36566 13.9133 2.0172 13.6555 1.76053C13.3976 1.50386 13.0485 1.35995 12.6847 1.36035H3.27531C2.91148 1.35993 2.56233 1.50383 2.30446 1.7605C2.04659 2.01717 1.90106 2.36564 1.89979 2.72947V3.87107C1.71342 3.96752 1.55709 4.11325 1.44781 4.29239C1.33853 4.47154 1.2805 4.67723 1.28003 4.88707V13.4934C1.28109 13.7981 1.40296 14.09 1.61892 14.305C1.83487 14.52 2.12729 14.6406 2.43203 14.6404H13.568C13.8728 14.6406 14.1652 14.52 14.3811 14.305C14.5971 14.09 14.719 13.7981 14.72 13.4934V6.97339C14.7194 6.75607 14.657 6.54341 14.5402 6.36017C14.4233 6.17692 14.2569 6.03064 14.0601 5.93835ZM12.4976 2.91555V5.82683H9.51203L7.61187 3.74019H3.46227V2.91555H12.4976ZM9.07011 10.2952H7.63707V11.7217C7.63707 11.8697 7.57828 12.0117 7.47362 12.1163C7.36897 12.221 7.22703 12.2798 7.07903 12.2798C6.93103 12.2798 6.78909 12.221 6.68444 12.1163C6.57978 12.0117 6.52099 11.8697 6.52099 11.7217V10.2952H5.08803C5.01453 10.2961 4.94159 10.2824 4.87343 10.2549C4.80528 10.2274 4.74326 10.1866 4.69097 10.1349C4.63869 10.0833 4.59718 10.0218 4.56884 9.95393C4.54051 9.88611 4.52592 9.81334 4.52592 9.73983C4.52592 9.66633 4.54051 9.59356 4.56884 9.52574C4.59718 9.45791 4.63869 9.39639 4.69097 9.34473C4.74326 9.29307 4.80528 9.2523 4.87343 9.22478C4.94159 9.19726 5.01453 9.18355 5.08803 9.18443H6.52099V7.75811C6.52099 7.61011 6.57978 7.46817 6.68444 7.36352C6.78909 7.25887 6.93103 7.20007 7.07903 7.20007C7.22703 7.20007 7.36897 7.25887 7.47362 7.36352C7.57828 7.46817 7.63707 7.61011 7.63707 7.75811V9.18435H9.07011C9.14305 9.18435 9.21528 9.19872 9.28267 9.22663C9.35006 9.25455 9.41129 9.29546 9.46286 9.34704C9.51444 9.39861 9.55536 9.45985 9.58327 9.52724C9.61118 9.59462 9.62555 9.66685 9.62555 9.73979C9.62555 9.81273 9.61118 9.88496 9.58327 9.95235C9.55536 10.0197 9.51444 10.081 9.46286 10.1325C9.41129 10.1841 9.35006 10.225 9.28267 10.253C9.21528 10.2809 9.14305 10.2952 9.07011 10.2952Z" fill="#3263FE"/>
</svg>
