<svg xmlns="http://www.w3.org/2000/svg" fill="none" viewBox="0 0 16 16" class="design-iconfont">
  <path d="M11.9795 12.8392V3.03635C11.9814 2.57325 11.7996 2.12828 11.4739 1.79907C11.1482 1.46985 10.7052 1.28328 10.2421 1.28027H3.09716C2.63408 1.2833 2.1911 1.46988 1.86541 1.7991C1.53973 2.12831 1.35792 2.57327 1.35988 3.03635V12.9628C1.35792 13.4259 1.53974 13.8709 1.86544 14.2001C2.19115 14.5293 2.63414 14.7159 3.09724 14.7189H11.9907V12.8411L11.9795 12.8392ZM3.7874 4.72099H4.5634V3.93627C4.56254 3.86591 4.57565 3.79607 4.60198 3.73081C4.62831 3.66556 4.66733 3.60617 4.71679 3.55611C4.76624 3.50605 4.82514 3.4663 4.89007 3.43917C4.955 3.41204 5.02467 3.39807 5.09504 3.39807C5.16541 3.39807 5.23508 3.41204 5.30001 3.43917C5.36494 3.4663 5.42384 3.50605 5.47329 3.55611C5.52275 3.60617 5.56177 3.66556 5.5881 3.73081C5.61443 3.79607 5.62754 3.86591 5.62668 3.93627V4.72027H6.40268C6.54407 4.722 6.67909 4.77938 6.77846 4.87997C6.87784 4.98057 6.93356 5.11627 6.93356 5.25767C6.93356 5.39908 6.87784 5.53478 6.77846 5.63538C6.67909 5.73597 6.54407 5.79335 6.40268 5.79507H5.62668V6.57907C5.62754 6.64944 5.61443 6.71927 5.5881 6.78453C5.56177 6.84979 5.52275 6.90917 5.47329 6.95924C5.42384 7.0093 5.36494 7.04905 5.30001 7.07618C5.23508 7.10331 5.16541 7.11728 5.09504 7.11728C5.02467 7.11728 4.955 7.10331 4.89007 7.07618C4.82514 7.04905 4.76624 7.0093 4.71679 6.95924C4.66733 6.90917 4.62831 6.84979 4.60198 6.78453C4.57565 6.71927 4.56254 6.64944 4.5634 6.57907V5.79507H3.7874C3.64855 5.78971 3.51718 5.73079 3.42084 5.63066C3.3245 5.53053 3.27069 5.39698 3.27069 5.25803C3.27069 5.11908 3.3245 4.98554 3.42084 4.88541C3.51718 4.78528 3.64855 4.72635 3.7874 4.72099ZM9.34156 12.5603H3.7874C3.64601 12.5585 3.51099 12.5012 3.41162 12.4006C3.31224 12.3 3.25652 12.1643 3.25652 12.0229C3.25652 11.8815 3.31224 11.7458 3.41162 11.6452C3.51099 11.5446 3.64601 11.4872 3.7874 11.4855H9.34156C9.48295 11.4872 9.61797 11.5446 9.71734 11.6452C9.81672 11.7458 9.87244 11.8815 9.87244 12.0229C9.87244 12.1643 9.81672 12.3 9.71734 12.4006C9.61797 12.5012 9.48295 12.5585 9.34156 12.5603ZM9.34156 10.1934H5.43668C5.29529 10.1917 5.16027 10.1343 5.0609 10.0337C4.96152 9.9331 4.9058 9.7974 4.9058 9.65599C4.9058 9.51459 4.96152 9.37889 5.0609 9.27829C5.16027 9.1777 5.29529 9.12032 5.43668 9.11859H9.34156C9.48247 9.12103 9.61679 9.17871 9.71558 9.27922C9.81437 9.37973 9.86973 9.51502 9.86973 9.65595C9.86973 9.79689 9.81437 9.93218 9.71558 10.0327C9.61679 10.1332 9.48247 10.1909 9.34156 10.1933V10.1934ZM9.34156 7.77971H7.46596C7.32457 7.77799 7.18955 7.72061 7.09018 7.62002C6.9908 7.51942 6.93508 7.38372 6.93508 7.24231C6.93508 7.10091 6.9908 6.96521 7.09018 6.86461C7.18955 6.76402 7.32457 6.70664 7.46596 6.70491H9.34156C9.48247 6.70734 9.61679 6.76503 9.71558 6.86554C9.81437 6.96605 9.86973 7.10134 9.86973 7.24227C9.86973 7.38321 9.81437 7.5185 9.71558 7.61901C9.61679 7.71952 9.48247 7.7772 9.34156 7.77963V7.77971ZM13.5055 5.96131H12.8595V14.7203H12.9409V14.7123C13.4068 14.668 13.8394 14.4513 14.1537 14.1046C14.468 13.7579 14.6414 13.3062 14.6399 12.8382V7.10803C14.6415 6.80554 14.5229 6.5148 14.3102 6.29975C14.0974 6.0847 13.808 5.96296 13.5055 5.96131Z" fill="#fff"/>
</svg>
