<svg xmlns="http://www.w3.org/2000/svg" fill="none" viewBox="0 0 16 16" class="design-iconfont">
  <path d="M11.9796 12.8392V3.03635C11.9816 2.57325 11.7997 2.12828 11.474 1.79907C11.1483 1.46985 10.7053 1.28328 10.2422 1.28027H3.09728C2.6342 1.2833 2.19123 1.46988 1.86554 1.7991C1.53985 2.12831 1.35804 2.57327 1.36 3.03635V12.9628C1.35804 13.4259 1.53986 13.8709 1.86557 14.2001C2.19127 14.5293 2.63427 14.7159 3.09736 14.7189H11.9908V12.8411L11.9796 12.8392ZM3.78752 4.72099H4.56352V3.93627C4.56266 3.86591 4.57577 3.79607 4.6021 3.73081C4.62843 3.66556 4.66745 3.60617 4.71691 3.55611C4.76636 3.50605 4.82526 3.4663 4.89019 3.43917C4.95512 3.41204 5.02479 3.39807 5.09516 3.39807C5.16553 3.39807 5.2352 3.41204 5.30013 3.43917C5.36506 3.4663 5.42396 3.50605 5.47341 3.55611C5.52287 3.60617 5.56189 3.66556 5.58822 3.73081C5.61455 3.79607 5.62766 3.86591 5.6268 3.93627V4.72027H6.4028C6.54419 4.722 6.67921 4.77938 6.77858 4.87997C6.87796 4.98057 6.93368 5.11627 6.93368 5.25767C6.93368 5.39908 6.87796 5.53478 6.77858 5.63538C6.67921 5.73597 6.54419 5.79335 6.4028 5.79507H5.6268V6.57907C5.62766 6.64944 5.61455 6.71927 5.58822 6.78453C5.56189 6.84979 5.52287 6.90917 5.47341 6.95924C5.42396 7.0093 5.36506 7.04905 5.30013 7.07618C5.2352 7.10331 5.16553 7.11728 5.09516 7.11728C5.02479 7.11728 4.95512 7.10331 4.89019 7.07618C4.82526 7.04905 4.76636 7.0093 4.71691 6.95924C4.66745 6.90917 4.62843 6.84979 4.6021 6.78453C4.57577 6.71927 4.56266 6.64944 4.56352 6.57907V5.79507H3.78752C3.64868 5.78971 3.5173 5.73079 3.42096 5.63066C3.32463 5.53053 3.27081 5.39698 3.27081 5.25803C3.27081 5.11909 3.32463 4.98554 3.42096 4.88541C3.5173 4.78528 3.64868 4.72635 3.78752 4.72099ZM9.34168 12.5603H3.78752C3.64613 12.5585 3.51111 12.5012 3.41174 12.4006C3.31236 12.3 3.25664 12.1643 3.25664 12.0229C3.25664 11.8815 3.31236 11.7458 3.41174 11.6452C3.51111 11.5446 3.64613 11.4872 3.78752 11.4855H9.34168C9.48307 11.4872 9.61809 11.5446 9.71746 11.6452C9.81684 11.7458 9.87256 11.8815 9.87256 12.0229C9.87256 12.1643 9.81684 12.3 9.71746 12.4006C9.61809 12.5012 9.48307 12.5585 9.34168 12.5603ZM9.34168 10.1934H5.4368C5.29541 10.1917 5.16039 10.1343 5.06102 10.0337C4.96164 9.9331 4.90592 9.7974 4.90592 9.65599C4.90592 9.51459 4.96164 9.37889 5.06102 9.27829C5.16039 9.1777 5.29541 9.12032 5.4368 9.11859H9.34168C9.48259 9.12103 9.61691 9.17871 9.7157 9.27922C9.81449 9.37973 9.86985 9.51502 9.86985 9.65595C9.86985 9.79689 9.81449 9.93218 9.7157 10.0327C9.61691 10.1332 9.48259 10.1909 9.34168 10.1933V10.1934ZM9.34168 7.77971H7.46608C7.32469 7.77799 7.18967 7.72061 7.0903 7.62002C6.99092 7.51942 6.9352 7.38372 6.9352 7.24231C6.9352 7.10091 6.99092 6.96521 7.0903 6.86461C7.18967 6.76402 7.32469 6.70664 7.46608 6.70491H9.34168C9.48259 6.70734 9.61691 6.76503 9.7157 6.86554C9.81449 6.96605 9.86985 7.10134 9.86985 7.24227C9.86985 7.38321 9.81449 7.5185 9.7157 7.61901C9.61691 7.71952 9.48259 7.7772 9.34168 7.77963V7.77971ZM13.5056 5.96131H12.8596V14.7203H12.941V14.7123C13.4069 14.668 13.8395 14.4513 14.1538 14.1046C14.4681 13.7579 14.6415 13.3062 14.64 12.8382V7.10803C14.6416 6.80554 14.523 6.5148 14.3103 6.29975C14.0975 6.0847 13.8081 5.96296 13.5056 5.96131Z" fill="#F0AC27"/>
</svg>
