<svg xmlns="http://www.w3.org/2000/svg" fill="none" viewBox="0 0 16 16" class="design-iconfont">
  <path d="M14.5366 2.95323L13.2107 1.62739C13.131 1.5476 13.0363 1.4843 12.9321 1.44111C12.8279 1.39792 12.7162 1.37569 12.6034 1.37569C12.4906 1.37569 12.3789 1.39792 12.2747 1.44111C12.1704 1.4843 12.0758 1.5476 11.996 1.62739L6.39306 7.23027C6.29256 7.33111 6.21857 7.45525 6.1777 7.59163L5.5925 9.55075C5.54733 9.70121 5.54432 9.86117 5.5838 10.0132C5.62328 10.1653 5.70373 10.3036 5.81639 10.413C5.92905 10.5225 6.0696 10.599 6.22272 10.6341C6.37583 10.6692 6.53564 10.6616 6.68474 10.6121L8.59234 9.98227C8.71968 9.94013 8.83546 9.86891 8.9305 9.77427L14.5366 4.16827C14.6164 4.08851 14.6797 3.9938 14.7229 3.88956C14.7661 3.78532 14.7883 3.67359 14.7883 3.56075C14.7883 3.44791 14.7661 3.33618 14.7229 3.23194C14.6797 3.1277 14.6164 3.03299 14.5366 2.95323ZM8.19522 8.95883L7.71338 9.11795L7.06082 8.46531L7.2109 7.96275L7.6597 7.51395L8.64986 8.50435L8.19522 8.95883ZM12.4582 4.69587L11.468 3.70579L12.2431 2.93059L13.2333 3.92035L12.4582 4.69587ZM9.55074 10.394C9.35862 10.5855 9.12458 10.7296 8.86714 10.815L6.95986 11.4449C6.65854 11.5445 6.33569 11.5595 6.02641 11.4884C5.71713 11.4173 5.43326 11.2628 5.20564 11.0417C4.97803 10.8206 4.81538 10.5413 4.73537 10.2342C4.65537 9.9271 4.66107 9.60395 4.75186 9.29987L5.33714 7.34043C5.41977 7.06492 5.56928 6.81414 5.77234 6.61043L11.0227 1.36035H3.15074C2.6759 1.36094 2.22068 1.54986 1.88494 1.88566C1.54921 2.22145 1.36037 2.67671 1.35986 3.15155V13.0092C1.36039 13.484 1.54927 13.9393 1.88505 14.2751C2.22083 14.6109 2.6761 14.7998 3.15098 14.8004H13.0087C13.4836 14.7998 13.9388 14.6109 14.2746 14.2751C14.6104 13.9393 14.7993 13.484 14.7999 13.0092V5.14515L9.55074 10.394Z" fill="#FEFEFE"/>
</svg>
