<svg xmlns="http://www.w3.org/2000/svg" fill="none" viewBox="0 0 16 16" class="design-iconfont">
  <g clip-path="url(#pu9tinl9o__clip0_2397_1726)">
    <path d="M14.5367 2.95323L13.2109 1.62739C13.1311 1.5476 13.0364 1.4843 12.9322 1.44111C12.828 1.39792 12.7163 1.37569 12.6035 1.37569C12.4907 1.37569 12.379 1.39792 12.2748 1.44111C12.1706 1.4843 12.0759 1.5476 11.9961 1.62739L6.39318 7.23027C6.29268 7.33111 6.2187 7.45525 6.17782 7.59163L5.59262 9.55075C5.54746 9.70121 5.54445 9.86117 5.58393 10.0132C5.6234 10.1653 5.70386 10.3036 5.81652 10.413C5.92918 10.5225 6.06972 10.599 6.22284 10.6341C6.37595 10.6692 6.53577 10.6616 6.68486 10.6121L8.59246 9.98227C8.7198 9.94013 8.83558 9.86891 8.93062 9.77427L14.5367 4.16827C14.6165 4.08851 14.6798 3.9938 14.723 3.88956C14.7662 3.78532 14.7885 3.67359 14.7885 3.56075C14.7885 3.44791 14.7662 3.33618 14.723 3.23194C14.6798 3.1277 14.6165 3.03299 14.5367 2.95323ZM8.19534 8.95883L7.7135 9.11795L7.06094 8.46531L7.21102 7.96275L7.65982 7.51395L8.64998 8.50435L8.19534 8.95883ZM12.4583 4.69587L11.4681 3.70579L12.2433 2.93059L13.2334 3.92035L12.4583 4.69587ZM9.55087 10.394C9.35874 10.5855 9.1247 10.7296 8.86726 10.815L6.95998 11.4449C6.65866 11.5445 6.33581 11.5595 6.02653 11.4884C5.71726 11.4173 5.43338 11.2628 5.20577 11.0417C4.97815 10.8206 4.8155 10.5413 4.73549 10.2342C4.65549 9.9271 4.66119 9.60395 4.75198 9.29987L5.33726 7.34043C5.41989 7.06492 5.5694 6.81414 5.77246 6.61043L11.0229 1.36035H3.15087C2.67602 1.36094 2.2208 1.54986 1.88506 1.88566C1.54933 2.22145 1.36049 2.67671 1.35999 3.15155V13.0092C1.36051 13.484 1.54939 13.9393 1.88517 14.2751C2.22096 14.6109 2.67623 14.7998 3.15111 14.8004H13.0088C13.4837 14.7998 13.939 14.6109 14.2748 14.2751C14.6106 13.9393 14.7995 13.484 14.8 13.0092V5.14515L9.55087 10.394Z" fill="#EF8131"/>
  </g>
  <defs>
    <clipPath id="pu9tinl9o__clip0_2397_1726">
      <path fill="#fff" d="M0 0H16V16H0z"/>
    </clipPath>
  </defs>
</svg>
