<svg xmlns="http://www.w3.org/2000/svg" fill="none" viewBox="0 0 16 16" class="design-iconfont">
  <path d="M14.5252 3.91693L13.7511 2.23293C13.6605 2.04201 13.5172 1.88097 13.3382 1.76877C13.1591 1.65657 12.9517 1.5979 12.7404 1.59965H3.25965C3.04834 1.59789 2.84093 1.65656 2.66185 1.76876C2.48278 1.88096 2.33951 2.04201 2.24893 2.23293L1.47485 3.91693C1.32496 4.2341 1.25968 4.58467 1.28536 4.93454C1.31105 5.2844 1.42681 5.62168 1.62141 5.91357C1.80042 6.17951 2.02833 6.40902 2.29301 6.58989V13.2556C2.29894 13.5432 2.41862 13.8167 2.62584 14.0161C2.83305 14.2156 3.11089 14.3247 3.39845 14.3196H12.6016C12.8891 14.3247 13.1669 14.2155 13.3741 14.0161C13.5813 13.8166 13.701 13.5432 13.7069 13.2556V6.58989C13.9718 6.40907 14.1998 6.17956 14.3789 5.91357C14.5735 5.62164 14.6892 5.28436 14.7148 4.93449C14.7404 4.58463 14.6751 4.23408 14.5252 3.91693ZM9.98717 10.7956H8.67021V11.9624C8.67021 12.1066 8.61296 12.2448 8.51106 12.3467C8.40916 12.4486 8.27096 12.5058 8.12685 12.5058C7.98274 12.5058 7.84454 12.4486 7.74264 12.3467C7.64074 12.2448 7.58349 12.1066 7.58349 11.9624V10.7956H6.26653C6.12321 10.7956 5.98575 10.7386 5.88441 10.6373C5.78306 10.5359 5.72613 10.3985 5.72613 10.2552C5.72613 10.1118 5.78306 9.97439 5.88441 9.87305C5.98575 9.7717 6.12321 9.71477 6.26653 9.71477H7.58349V8.54789C7.58349 8.40378 7.64074 8.26557 7.74264 8.16367C7.84454 8.06177 7.98274 8.00453 8.12685 8.00453C8.27096 8.00453 8.40916 8.06177 8.51106 8.16367C8.61296 8.26557 8.67021 8.40378 8.67021 8.54789V9.71477H9.98717C10.1305 9.71477 10.2679 9.7717 10.3693 9.87305C10.4706 9.97439 10.5276 10.1118 10.5276 10.2552C10.5276 10.3985 10.4706 10.5359 10.3693 10.6373C10.2679 10.7386 10.1305 10.7956 9.98717 10.7956ZM13.1371 5.18029C12.9809 5.58915 12.7033 5.94039 12.3416 6.18676C11.9798 6.43313 11.5513 6.56281 11.1137 6.55837C10.5403 6.56037 9.9893 6.33651 9.57981 5.93525C9.16915 6.33488 8.61872 6.55845 8.0457 6.55834C7.47268 6.55824 6.92233 6.33447 6.51181 5.93469C6.10237 6.33642 5.5511 6.56062 4.97749 6.55869C4.5398 6.56312 4.11125 6.43339 3.7495 6.18696C3.38775 5.94053 3.11015 5.58922 2.95405 5.18029C2.92745 5.10281 2.91983 5.02007 2.93182 4.93904C2.94382 4.858 2.97509 4.78102 3.023 4.71458C3.07091 4.64813 3.13407 4.59415 3.20717 4.55716C3.28027 4.52018 3.36117 4.50128 3.44309 4.50205C3.54716 4.50012 3.64931 4.53014 3.73579 4.58806C3.82227 4.64598 3.88893 4.72901 3.92677 4.82597C4.01286 5.03376 4.15863 5.21136 4.34564 5.33631C4.53266 5.46127 4.75253 5.52796 4.97745 5.52796C5.20237 5.52796 5.42224 5.46127 5.60926 5.33631C5.79627 5.21136 5.94204 5.03376 6.02813 4.82597C6.0531 4.75972 6.09217 4.6997 6.14263 4.65004C6.19309 4.60038 6.25374 4.56228 6.32037 4.53837L6.33045 4.53461C6.3566 4.52493 6.38356 4.51759 6.41101 4.51269C6.42061 4.51085 6.43013 4.50869 6.43989 4.50733C6.46374 4.5039 6.4878 4.50214 6.51189 4.50205C6.53598 4.50214 6.56004 4.5039 6.58389 4.50733C6.59365 4.50861 6.60309 4.51085 6.61277 4.51269C6.62509 4.51509 6.63741 4.51757 6.64941 4.52069C6.66437 4.52461 6.67885 4.52941 6.69333 4.53461L6.70341 4.53837C6.77005 4.56228 6.83069 4.60038 6.88115 4.65004C6.93161 4.6997 6.97068 4.75972 6.99565 4.82597C7.08174 5.03376 7.22751 5.21136 7.41452 5.33631C7.60154 5.46127 7.82141 5.52796 8.04633 5.52796C8.27125 5.52796 8.49112 5.46127 8.67814 5.33631C8.86515 5.21136 9.01092 5.03376 9.09701 4.82597C9.10037 4.81797 9.10437 4.80997 9.10821 4.80197C9.13437 4.74249 9.17209 4.68881 9.21918 4.64406C9.26628 4.5993 9.3218 4.56435 9.38253 4.54125C9.38989 4.53829 9.39725 4.53549 9.40477 4.53285C9.41629 4.52893 9.42773 4.52485 9.43949 4.52189C9.45453 4.51773 9.46997 4.51453 9.48557 4.51173C9.49269 4.51045 9.49965 4.50877 9.50685 4.50773C9.53091 4.50428 9.55518 4.50249 9.57949 4.50237H9.58069C9.605 4.50249 9.62927 4.50428 9.65333 4.50773C9.66045 4.50877 9.66741 4.51037 9.67453 4.51173C9.70988 4.51782 9.74445 4.52775 9.77765 4.54133C9.83838 4.56441 9.8939 4.59934 9.941 4.64408C9.98809 4.68883 10.0258 4.7425 10.052 4.80197C10.0558 4.80997 10.06 4.81797 10.0632 4.82597C10.1493 5.03376 10.295 5.21136 10.482 5.33631C10.6691 5.46127 10.8889 5.52796 11.1139 5.52796C11.3388 5.52796 11.5586 5.46127 11.7457 5.33631C11.9327 5.21136 12.0784 5.03376 12.1645 4.82597C12.2024 4.72905 12.269 4.64604 12.3554 4.58813C12.4418 4.53022 12.5439 4.50017 12.648 4.50205C12.7299 4.50127 12.8108 4.52016 12.8839 4.55714C12.957 4.59411 13.0202 4.64809 13.0681 4.71454C13.116 4.78099 13.1473 4.85797 13.1593 4.93902C13.1713 5.02006 13.1637 5.1028 13.1371 5.18029Z" fill="#E6AF47"/>
</svg>
