<svg xmlns="http://www.w3.org/2000/svg" fill="none" viewBox="0 0 16 16" class="design-iconfont">
  <path d="M14.525 3.91693L13.751 2.23293C13.6604 2.04201 13.5171 1.88097 13.338 1.76877C13.159 1.65657 12.9516 1.5979 12.7402 1.59965H3.25953C3.04822 1.59789 2.8408 1.65656 2.66173 1.76876C2.48266 1.88096 2.33939 2.04201 2.24881 2.23293L1.47473 3.91693C1.32484 4.2341 1.25956 4.58467 1.28524 4.93454C1.31092 5.28441 1.42669 5.62168 1.62129 5.91357C1.8003 6.17951 2.02821 6.40902 2.29289 6.58989V13.2556C2.29882 13.5432 2.4185 13.8167 2.62572 14.0161C2.83293 14.2156 3.11077 14.3247 3.39833 14.3196H12.6014C12.889 14.3247 13.1668 14.2155 13.374 14.0161C13.5812 13.8166 13.7009 13.5432 13.7068 13.2556V6.58989C13.9716 6.40907 14.1997 6.17956 14.3788 5.91357C14.5733 5.62164 14.689 5.28436 14.7147 4.93449C14.7403 4.58463 14.675 4.23408 14.525 3.91693ZM9.98705 10.7956H8.67009V11.9624C8.67009 12.1066 8.61284 12.2448 8.51094 12.3467C8.40904 12.4486 8.27084 12.5058 8.12673 12.5058C7.98262 12.5058 7.84441 12.4486 7.74251 12.3467C7.64061 12.2448 7.58337 12.1066 7.58337 11.9624V10.7956H6.26641C6.12308 10.7956 5.98563 10.7386 5.88429 10.6373C5.78294 10.5359 5.72601 10.3985 5.72601 10.2552C5.72601 10.1118 5.78294 9.97439 5.88429 9.87305C5.98563 9.7717 6.12308 9.71477 6.26641 9.71477H7.58337V8.54789C7.58337 8.40378 7.64061 8.26557 7.74251 8.16367C7.84441 8.06177 7.98262 8.00453 8.12673 8.00453C8.27084 8.00453 8.40904 8.06177 8.51094 8.16367C8.61284 8.26557 8.67009 8.40378 8.67009 8.54789V9.71477H9.98705C10.1304 9.71477 10.2678 9.7717 10.3692 9.87305C10.4705 9.97439 10.5274 10.1118 10.5274 10.2552C10.5274 10.3985 10.4705 10.5359 10.3692 10.6373C10.2678 10.7386 10.1304 10.7956 9.98705 10.7956ZM13.137 5.18029C12.9808 5.58915 12.7032 5.94039 12.3414 6.18676C11.9797 6.43313 11.5512 6.56281 11.1135 6.55837C10.5402 6.56037 9.98918 6.33651 9.57969 5.93525C9.16903 6.33488 8.61859 6.55845 8.04557 6.55834C7.47255 6.55824 6.9222 6.33447 6.51169 5.93469C6.10224 6.33642 5.55098 6.56062 4.97737 6.55869C4.53968 6.56312 4.11113 6.43339 3.74938 6.18696C3.38763 5.94053 3.11003 5.58922 2.95393 5.18029C2.92733 5.10281 2.9197 5.02007 2.9317 4.93904C2.9437 4.858 2.97497 4.78102 3.02288 4.71458C3.07079 4.64813 3.13395 4.59415 3.20705 4.55716C3.28015 4.52018 3.36105 4.50128 3.44297 4.50205C3.54703 4.50012 3.64919 4.53014 3.73567 4.58806C3.82215 4.64598 3.8888 4.72901 3.92665 4.82597C4.01274 5.03376 4.1585 5.21136 4.34552 5.33631C4.53254 5.46127 4.75241 5.52796 4.97733 5.52796C5.20225 5.52796 5.42212 5.46127 5.60913 5.33631C5.79615 5.21136 5.94192 5.03376 6.02801 4.82597C6.05298 4.75972 6.09205 4.6997 6.14251 4.65004C6.19297 4.60038 6.25361 4.56228 6.32025 4.53837L6.33033 4.53461C6.35648 4.52493 6.38344 4.51759 6.41089 4.51269C6.42049 4.51085 6.43001 4.50869 6.43977 4.50733C6.46362 4.5039 6.48767 4.50214 6.51177 4.50205C6.53586 4.50214 6.55992 4.5039 6.58377 4.50733C6.59353 4.50861 6.60297 4.51085 6.61265 4.51269C6.62497 4.51509 6.63729 4.51757 6.64929 4.52069C6.66425 4.52461 6.67873 4.52941 6.69321 4.53461L6.70329 4.53837C6.76992 4.56228 6.83057 4.60038 6.88103 4.65004C6.93149 4.6997 6.97055 4.75972 6.99553 4.82597C7.08161 5.03376 7.22738 5.21136 7.4144 5.33631C7.60142 5.46127 7.82129 5.52796 8.04621 5.52796C8.27113 5.52796 8.491 5.46127 8.67801 5.33631C8.86503 5.21136 9.0108 5.03376 9.09689 4.82597C9.10025 4.81797 9.10425 4.80997 9.10809 4.80197C9.13424 4.74249 9.17197 4.68881 9.21906 4.64406C9.26616 4.5993 9.32168 4.56435 9.38241 4.54125C9.38977 4.53829 9.39713 4.53549 9.40465 4.53285C9.41617 4.52893 9.42761 4.52485 9.43937 4.52189C9.45441 4.51773 9.46985 4.51453 9.48545 4.51173C9.49257 4.51045 9.49953 4.50877 9.50673 4.50773C9.53079 4.50428 9.55506 4.50249 9.57937 4.50237H9.58057C9.60488 4.50249 9.62915 4.50428 9.65321 4.50773C9.66033 4.50877 9.66729 4.51037 9.67441 4.51173C9.70975 4.51782 9.74433 4.52775 9.77753 4.54133C9.83825 4.56441 9.89378 4.59934 9.94088 4.64408C9.98797 4.68883 10.0257 4.7425 10.0518 4.80197C10.0557 4.80997 10.0598 4.81797 10.063 4.82597C10.1491 5.03376 10.2949 5.21136 10.4819 5.33631C10.6689 5.46127 10.8888 5.52796 11.1137 5.52796C11.3386 5.52796 11.5585 5.46127 11.7455 5.33631C11.9326 5.21136 12.0783 5.03376 12.1644 4.82597C12.2022 4.72905 12.2689 4.64604 12.3553 4.58813C12.4417 4.53022 12.5438 4.50017 12.6478 4.50205C12.7298 4.50127 12.8107 4.52016 12.8838 4.55714C12.9569 4.59411 13.0201 4.64809 13.068 4.71454C13.1159 4.78099 13.1472 4.85797 13.1592 4.93902C13.1712 5.02006 13.1636 5.1028 13.137 5.18029Z" fill="#fff"/>
</svg>
