<svg xmlns="http://www.w3.org/2000/svg" fill="none" viewBox="0 0 16 16" class="design-iconfont">
  <path d="M13.1743 2.16016H2.82539C2.41581 2.16037 2.02304 2.32306 1.73328 2.61252C1.44352 2.90198 1.28042 3.29458 1.27979 3.70416V10.3702C1.2804 10.7797 1.44349 11.1723 1.73326 11.4618C2.02303 11.7513 2.4158 11.914 2.82539 11.9142H13.1743C13.5839 11.9139 13.9767 11.7512 14.2665 11.4617C14.5562 11.1721 14.7193 10.7795 14.7198 10.3698V3.70416C14.7192 3.29459 14.5561 2.90199 14.2663 2.61252C13.9766 2.32306 13.5838 2.16037 13.1743 2.16016ZM12.489 7.79928H10.5591C10.4517 7.79843 10.3468 7.76695 10.2567 7.70853C10.1666 7.65011 10.0951 7.56719 10.0505 7.46952L9.55539 6.39752L8.82059 8.8488C8.78735 8.96579 8.71692 9.06878 8.61996 9.14221C8.523 9.21563 8.40477 9.25549 8.28314 9.25576H8.27795C8.15523 9.2544 8.03634 9.21282 7.93952 9.13741C7.8427 9.06199 7.77329 8.95689 7.74195 8.83824L7.07794 6.46224L6.20915 9.10928C6.17306 9.2226 6.10205 9.32159 6.00627 9.39209C5.9105 9.46259 5.79487 9.50098 5.67595 9.50176C5.55702 9.50094 5.4414 9.46251 5.34565 9.39196C5.2499 9.32142 5.17893 9.22238 5.1429 9.10904L4.74291 7.88744H3.51091C3.44887 7.88744 3.38744 7.87522 3.33013 7.85148C3.27281 7.82774 3.22073 7.79294 3.17687 7.74907C3.133 7.70521 3.0982 7.65313 3.07446 7.59582C3.05072 7.5385 3.03851 7.47707 3.03851 7.41504C3.03851 7.353 3.05072 7.29157 3.07446 7.23426C3.0982 7.17694 3.133 7.12487 3.17687 7.081C3.22073 7.03713 3.27281 7.00234 3.33013 6.9786C3.38744 6.95486 3.44887 6.94264 3.51091 6.94264H5.02379C5.14286 6.94341 5.25862 6.98192 5.35442 7.05263C5.45023 7.12334 5.52115 7.2226 5.55698 7.33616L5.67611 7.69992L6.57419 4.96416C6.60994 4.8507 6.68082 4.75154 6.7766 4.68099C6.87238 4.61044 6.98811 4.57216 7.10707 4.57168H7.11946C7.24077 4.57495 7.35777 4.61738 7.45299 4.69261C7.5482 4.76784 7.61654 4.87185 7.64779 4.98912L8.29578 7.30544L8.94075 5.15344C8.97177 5.0431 9.03602 4.945 9.12476 4.87246C9.2135 4.79992 9.32242 4.75647 9.43672 4.74801C9.55102 4.73955 9.66516 4.76649 9.76361 4.82517C9.86206 4.88386 9.94005 4.97143 9.98699 5.076L10.8083 6.85416H12.4891C12.5511 6.85416 12.6126 6.86639 12.6699 6.89014C12.7272 6.9139 12.7793 6.94871 12.8232 6.99259C12.8671 7.03648 12.9019 7.08858 12.9256 7.14591C12.9494 7.20325 12.9616 7.2647 12.9616 7.32676C12.9616 7.38881 12.9494 7.45026 12.9256 7.50759C12.9018 7.56493 12.867 7.61702 12.8231 7.66089C12.7793 7.70477 12.7272 7.73958 12.6698 7.76332C12.6125 7.78706 12.551 7.79928 12.489 7.79928ZM13.769 13.7602H2.23107C2.16851 13.761 2.10641 13.7494 2.04838 13.726C1.99034 13.7026 1.93753 13.6679 1.893 13.624C1.84848 13.58 1.81312 13.5277 1.78899 13.4699C1.76486 13.4122 1.75244 13.3503 1.75244 13.2877C1.75244 13.2252 1.76486 13.1632 1.78899 13.1055C1.81312 13.0478 1.84848 12.9954 1.893 12.9515C1.93753 12.9075 1.99034 12.8728 2.04838 12.8495C2.10641 12.8261 2.16851 12.8145 2.23107 12.8153H13.769C13.8315 12.8145 13.8936 12.8261 13.9517 12.8495C14.0097 12.8728 14.0625 12.9075 14.107 12.9515C14.1516 12.9954 14.1869 13.0478 14.2111 13.1055C14.2352 13.1632 14.2476 13.2252 14.2476 13.2877C14.2476 13.3503 14.2352 13.4122 14.2111 13.4699C14.1869 13.5277 14.1516 13.58 14.107 13.624C14.0625 13.6679 14.0097 13.7026 13.9517 13.726C13.8936 13.7494 13.8315 13.761 13.769 13.7602Z" fill="#fff"/>
</svg>
