<svg xmlns="http://www.w3.org/2000/svg" fill="none" viewBox="0 0 16 16" class="design-iconfont">
  <path d="M13.1745 2.16016H2.82563C2.41605 2.16037 2.02329 2.32306 1.73352 2.61252C1.44376 2.90198 1.28066 3.29458 1.28003 3.70416V10.3702C1.28064 10.7797 1.44373 11.1723 1.7335 11.4618C2.02327 11.7513 2.41605 11.914 2.82563 11.9142H13.1745C13.5841 11.9139 13.9769 11.7512 14.2667 11.4617C14.5565 11.1721 14.7195 10.7795 14.72 10.3698V3.70416C14.7194 3.29459 14.5563 2.90199 14.2666 2.61252C13.9768 2.32306 13.5841 2.16037 13.1745 2.16016ZM12.4892 7.79928H10.5593C10.4519 7.79843 10.347 7.76695 10.257 7.70853C10.1669 7.65012 10.0953 7.56719 10.0507 7.46952L9.55563 6.39752L8.82083 8.8488C8.78759 8.96579 8.71717 9.06878 8.62021 9.14221C8.52324 9.21563 8.40501 9.25549 8.28339 9.25576H8.27819C8.15547 9.2544 8.03658 9.21282 7.93976 9.13741C7.84294 9.06199 7.77354 8.95689 7.74219 8.83824L7.07819 6.46224L6.20939 9.10928C6.17331 9.2226 6.10229 9.32159 6.00652 9.39209C5.91074 9.46259 5.79511 9.50098 5.67619 9.50176C5.55726 9.50094 5.44164 9.46251 5.34589 9.39196C5.25014 9.32142 5.17917 9.22238 5.14315 9.10904L4.74315 7.88744H3.51115C3.44911 7.88744 3.38768 7.87522 3.33037 7.85148C3.27306 7.82774 3.22098 7.79294 3.17711 7.74907C3.13325 7.70521 3.09845 7.65313 3.07471 7.59582C3.05097 7.5385 3.03875 7.47707 3.03875 7.41504C3.03875 7.353 3.05097 7.29157 3.07471 7.23426C3.09845 7.17694 3.13325 7.12487 3.17711 7.081C3.22098 7.03713 3.27306 7.00234 3.33037 6.9786C3.38768 6.95486 3.44911 6.94264 3.51115 6.94264H5.02403C5.1431 6.94341 5.25886 6.98192 5.35467 7.05263C5.45047 7.12334 5.52139 7.2226 5.55723 7.33616L5.67635 7.69992L6.57443 4.96416C6.61018 4.8507 6.68106 4.75154 6.77685 4.68099C6.87263 4.61044 6.98835 4.57216 7.10731 4.57168H7.11971C7.24102 4.57495 7.35801 4.61738 7.45323 4.69261C7.54845 4.76784 7.61678 4.87186 7.64803 4.98912L8.29603 7.30544L8.94099 5.15344C8.97202 5.0431 9.03626 4.945 9.125 4.87246C9.21374 4.79992 9.32267 4.75647 9.43697 4.74801C9.55127 4.73955 9.6654 4.76649 9.76385 4.82517C9.8623 4.88386 9.9403 4.97143 9.98723 5.076L10.8086 6.85416H12.4893C12.5514 6.85416 12.6128 6.86639 12.6701 6.89014C12.7275 6.9139 12.7796 6.94871 12.8234 6.99259C12.8673 7.03648 12.9021 7.08858 12.9259 7.14591C12.9496 7.20325 12.9618 7.2647 12.9618 7.32676C12.9618 7.38881 12.9496 7.45026 12.9258 7.50759C12.9021 7.56493 12.8673 7.61702 12.8234 7.66089C12.7795 7.70477 12.7274 7.73958 12.6701 7.76332C12.6127 7.78706 12.5513 7.79928 12.4892 7.79928ZM13.7692 13.7602H2.23131C2.16875 13.761 2.10665 13.7494 2.04862 13.726C1.99059 13.7026 1.93777 13.6679 1.89325 13.624C1.84872 13.58 1.81337 13.5277 1.78924 13.4699C1.76511 13.4122 1.75268 13.3503 1.75268 13.2877C1.75268 13.2252 1.76511 13.1632 1.78924 13.1055C1.81337 13.0478 1.84872 12.9954 1.89325 12.9515C1.93777 12.9075 1.99059 12.8728 2.04862 12.8495C2.10665 12.8261 2.16875 12.8145 2.23131 12.8153H13.7692C13.8318 12.8145 13.8939 12.8261 13.9519 12.8495C14.01 12.8728 14.0628 12.9075 14.1073 12.9515C14.1518 12.9954 14.1872 13.0478 14.2113 13.1055C14.2354 13.1632 14.2479 13.2252 14.2479 13.2877C14.2479 13.3503 14.2354 13.4122 14.2113 13.4699C14.1872 13.5277 14.1518 13.58 14.1073 13.624C14.0628 13.6679 14.01 13.7026 13.9519 13.726C13.8939 13.7494 13.8318 13.761 13.7692 13.7602Z" fill="#9CD045"/>
</svg>
