<svg xmlns="http://www.w3.org/2000/svg" fill="none" viewBox="0 0 16 16" class="design-iconfont">
  <path d="M4.90398 11.0944L2.97182 9.1534C2.92589 9.10717 2.87127 9.07048 2.81111 9.04544C2.75094 9.02041 2.68642 9.00752 2.62126 9.00752C2.55609 9.00752 2.49157 9.02041 2.43141 9.04544C2.37124 9.07048 2.31662 9.10717 2.2707 9.1534C2.17776 9.24697 2.1256 9.37351 2.1256 9.5054C2.1256 9.63728 2.17776 9.76382 2.2707 9.8574L4.20326 11.7985C4.24918 11.8447 4.3038 11.8814 4.36397 11.9065C4.42413 11.9315 4.48865 11.9444 4.55382 11.9444C4.61898 11.9444 4.6835 11.9315 4.74367 11.9065C4.80383 11.8814 4.85845 11.8447 4.90438 11.7985C4.99731 11.7049 5.04943 11.5783 5.04935 11.4464C5.04928 11.3144 4.99701 11.1879 4.90398 11.0944ZM12.5701 2.48212L11.5185 1.42612C11.4726 1.3799 11.418 1.34322 11.3578 1.31819C11.2977 1.29316 11.2331 1.28027 11.168 1.28027C11.1028 1.28027 11.0383 1.29316 10.9781 1.31819C10.918 1.34322 10.8633 1.3799 10.8174 1.42612C10.7245 1.5197 10.6724 1.64624 10.6724 1.77812C10.6724 1.91 10.7245 2.03653 10.8174 2.13012L11.8689 3.18612C11.9149 3.23233 11.9695 3.26901 12.0297 3.29404C12.0898 3.31907 12.1543 3.33196 12.2195 3.33196C12.2847 3.33196 12.3492 3.31907 12.4093 3.29404C12.4695 3.26901 12.5241 3.23233 12.5701 3.18612C12.663 3.09255 12.7152 2.96601 12.7152 2.83412C12.7152 2.70222 12.663 2.57568 12.5701 2.48212ZM12.9819 13.7243C13.6982 11.4989 13.2717 9.92308 12.7531 8.96428C12.43 8.36474 11.9843 7.83997 11.4449 7.42412C11.4357 7.18679 11.3831 6.95316 11.2897 6.73476L12.3239 5.69612C12.5224 5.49643 12.6338 5.22631 12.6338 4.94476C12.6338 4.6632 12.5224 4.39308 12.3239 4.1934L9.89293 1.75212C9.79493 1.6535 9.67838 1.57523 9.55001 1.52182C9.42164 1.46842 9.28397 1.44092 9.14494 1.44092C9.0059 1.44092 8.86823 1.46842 8.73986 1.52182C8.61149 1.57523 8.49495 1.6535 8.39694 1.75212L3.46894 6.70212C3.27077 6.90196 3.15958 7.172 3.15958 7.45344C3.15958 7.73487 3.27077 8.00491 3.46894 8.20476L5.89998 10.6465C5.99808 10.745 6.11466 10.8231 6.24302 10.8764C6.37137 10.9297 6.50899 10.9571 6.64798 10.9571C6.78696 10.9571 6.92458 10.9297 7.05294 10.8764C7.18129 10.8231 7.29787 10.745 7.39598 10.6465L8.73454 9.30252C9.06895 9.45025 9.4392 9.49718 9.7999 9.43756C10.0411 9.615 10.5237 10.0485 10.6136 10.7274C10.7256 11.5745 10.202 12.6084 9.10086 13.725H1.59998V14.7201H14.4V13.7243H12.9819ZM9.50398 8.51068C9.30545 8.51155 9.11114 8.45347 8.94565 8.34381C8.78016 8.23415 8.65094 8.07784 8.57437 7.89467C8.4978 7.71151 8.47732 7.50974 8.51552 7.31492C8.55372 7.12011 8.64888 6.94101 8.78896 6.80033C8.92904 6.65965 9.10772 6.56371 9.30236 6.52467C9.49701 6.48563 9.69887 6.50524 9.88236 6.58102C10.0659 6.6568 10.2227 6.78534 10.3331 6.95035C10.4435 7.11537 10.5024 7.30943 10.5024 7.50796C10.5027 7.63935 10.4771 7.76952 10.427 7.89102C10.377 8.01252 10.3036 8.12298 10.2108 8.21609C10.1181 8.3092 10.008 8.38314 9.88671 8.43369C9.76542 8.48423 9.63537 8.51039 9.50398 8.51068ZM11.9332 13.7243H10.4362C11.3394 12.6141 11.7295 11.5592 11.5937 10.579C11.5041 9.97116 11.2191 9.40898 10.7819 8.97732C10.9371 8.84085 11.0698 8.68075 11.1751 8.50292C11.876 9.1926 12.9854 10.8331 11.9329 13.7243H11.9332Z" fill="#705FF0"/>
</svg>
