<svg xmlns="http://www.w3.org/2000/svg" fill="none" viewBox="0 0 16 16" class="design-iconfont">
  <path d="M4.9041 11.0944L2.97194 9.1534C2.92601 9.10717 2.87139 9.07048 2.81123 9.04544C2.75106 9.02041 2.68654 9.00752 2.62138 9.00752C2.55621 9.00752 2.49169 9.02041 2.43153 9.04544C2.37136 9.07048 2.31675 9.10717 2.27082 9.1534C2.17788 9.24697 2.12572 9.37351 2.12572 9.5054C2.12572 9.63728 2.17788 9.76382 2.27082 9.8574L4.20338 11.7985C4.24931 11.8447 4.30392 11.8814 4.36409 11.9065C4.42425 11.9315 4.48877 11.9444 4.55394 11.9444C4.6191 11.9444 4.68362 11.9315 4.74379 11.9065C4.80395 11.8814 4.85857 11.8447 4.9045 11.7985C4.99743 11.7049 5.04955 11.5783 5.04947 11.4464C5.0494 11.3144 4.99714 11.1879 4.9041 11.0944ZM12.5702 2.48212L11.5187 1.42612C11.4727 1.3799 11.4181 1.34322 11.3579 1.31819C11.2978 1.29316 11.2333 1.28027 11.1681 1.28027C11.1029 1.28027 11.0384 1.29316 10.9783 1.31819C10.9181 1.34322 10.8635 1.3799 10.8175 1.42612C10.7246 1.5197 10.6725 1.64624 10.6725 1.77812C10.6725 1.91 10.7246 2.03653 10.8175 2.13012L11.8691 3.18612C11.915 3.23233 11.9696 3.26901 12.0298 3.29404C12.0899 3.31907 12.1545 3.33196 12.2196 3.33196C12.2848 3.33196 12.3493 3.31907 12.4095 3.29404C12.4696 3.26901 12.5242 3.23233 12.5702 3.18612C12.6631 3.09255 12.7153 2.96601 12.7153 2.83412C12.7153 2.70222 12.6631 2.57568 12.5702 2.48212ZM12.982 13.7243C13.6983 11.4989 13.2718 9.92308 12.7532 8.96428C12.4301 8.36474 11.9844 7.83997 11.4451 7.42412C11.4358 7.18679 11.3832 6.95316 11.2899 6.73476L12.324 5.69612C12.5225 5.49643 12.6339 5.22631 12.6339 4.94476C12.6339 4.6632 12.5225 4.39308 12.324 4.1934L9.89306 1.75212C9.79505 1.6535 9.67851 1.57523 9.55013 1.52182C9.42176 1.46842 9.2841 1.44092 9.14506 1.44092C9.00602 1.44092 8.86835 1.46842 8.73998 1.52182C8.61161 1.57523 8.49507 1.6535 8.39706 1.75212L3.46906 6.70212C3.27089 6.90196 3.15971 7.172 3.15971 7.45344C3.15971 7.73487 3.27089 8.00491 3.46906 8.20476L5.9001 10.6465C5.9982 10.745 6.11478 10.8231 6.24314 10.8764C6.3715 10.9297 6.50911 10.9571 6.6481 10.9571C6.78708 10.9571 6.9247 10.9297 7.05306 10.8764C7.18142 10.8231 7.29799 10.745 7.3961 10.6465L8.73466 9.30252C9.06907 9.45025 9.43932 9.49718 9.80002 9.43756C10.0412 9.615 10.5239 10.0485 10.6137 10.7274C10.7257 11.5745 10.2021 12.6084 9.10098 13.725H1.6001V14.7201H14.4001V13.7243H12.982ZM9.5041 8.51068C9.30557 8.51155 9.11126 8.45347 8.94577 8.34381C8.78028 8.23415 8.65106 8.07783 8.57449 7.89467C8.49792 7.71151 8.47744 7.50974 8.51564 7.31492C8.55384 7.12011 8.64901 6.94101 8.78908 6.80033C8.92916 6.65965 9.10784 6.56371 9.30249 6.52467C9.49713 6.48563 9.69899 6.50524 9.88248 6.58102C10.066 6.6568 10.2228 6.78534 10.3332 6.95035C10.4436 7.11537 10.5025 7.30943 10.5025 7.50796C10.5028 7.63935 10.4772 7.76952 10.4272 7.89102C10.3771 8.01252 10.3037 8.12298 10.211 8.21609C10.1183 8.3092 10.0081 8.38314 9.88683 8.43369C9.76555 8.48423 9.63549 8.51039 9.5041 8.51068ZM11.9333 13.7243H10.4363C11.3395 12.6141 11.7296 11.5592 11.5939 10.579C11.5042 9.97116 11.2193 9.40898 10.782 8.97732C10.9372 8.84085 11.0699 8.68075 11.1752 8.50292C11.8761 9.1926 12.9855 10.8331 11.9331 13.7243H11.9333Z" fill="#fff"/>
</svg>
