<svg xmlns="http://www.w3.org/2000/svg" fill="none" viewBox="0 0 16 16" class="design-iconfont">
  <path d="M13.0831 2.51969H11.6191V1.67969H10.5151V2.51969H5.35979V1.67969H4.25579V2.51969H2.91643C2.48136 2.52134 2.06471 2.6955 1.75789 3.00395C1.45107 3.31241 1.27913 3.72998 1.27979 4.16505V12.6744C1.27915 13.1095 1.4511 13.527 1.75792 13.8354C2.06474 14.1439 2.48137 14.318 2.91643 14.3197H13.0831C13.5181 14.3181 13.9348 14.1439 14.2416 13.8355C14.5485 13.527 14.7204 13.1095 14.7198 12.6744V4.16505C14.7204 3.72996 14.5485 3.31239 14.2417 3.00393C13.9348 2.69547 13.5181 2.52132 13.0831 2.51969ZM4.58379 11.8098C4.42314 11.8107 4.26585 11.7638 4.13187 11.6752C3.99789 11.5865 3.89323 11.4601 3.83117 11.3119C3.76911 11.1637 3.75244 11.0005 3.78326 10.8428C3.81409 10.6851 3.89103 10.5402 4.00433 10.4263C4.11763 10.3124 4.26219 10.2347 4.41969 10.203C4.5772 10.1714 4.74055 10.1872 4.88905 10.2485C5.03756 10.3098 5.16453 10.4138 5.25387 10.5473C5.34321 10.6808 5.3909 10.8378 5.39091 10.9985C5.39146 11.2131 5.30674 11.4192 5.15537 11.5713C5.00401 11.7235 4.79841 11.8093 4.58379 11.8098ZM4.58379 9.23105C4.42313 9.23189 4.26585 9.18501 4.13186 9.09637C3.99788 9.00772 3.89322 8.8813 3.83116 8.73311C3.76911 8.58493 3.75244 8.42165 3.78327 8.26399C3.8141 8.10632 3.89105 7.96135 4.00436 7.84746C4.11766 7.73357 4.26223 7.65587 4.41974 7.62423C4.57725 7.59259 4.74061 7.60842 4.88911 7.66971C5.03761 7.73101 5.16457 7.83501 5.25391 7.96854C5.34324 8.10207 5.39092 8.25911 5.39091 8.41977C5.39118 8.52603 5.37052 8.63131 5.33011 8.72959C5.28969 8.82788 5.23032 8.91723 5.15537 8.99257C5.08042 9.0679 4.99137 9.12774 4.8933 9.16866C4.79522 9.20957 4.69005 9.23078 4.58379 9.23105ZM7.77475 11.8098C7.61409 11.8107 7.4568 11.7638 7.32281 11.6752C7.18881 11.5866 7.08415 11.4602 7.02208 11.312C6.96 11.1638 6.94332 11.0005 6.97413 10.8429C7.00495 10.6852 7.08188 10.5402 7.19518 10.4263C7.30848 10.3124 7.45304 10.2347 7.61054 10.203C7.76805 10.1714 7.93141 10.1872 8.07991 10.2485C8.22842 10.3098 8.3554 10.4138 8.44474 10.5473C8.53409 10.6808 8.58178 10.8378 8.58179 10.9985C8.58206 11.1048 8.5614 11.2101 8.52098 11.3083C8.48056 11.4066 8.42118 11.496 8.34623 11.5713C8.27127 11.6467 8.18221 11.7065 8.08413 11.7474C7.98604 11.7884 7.88086 11.8096 7.77459 11.8098H7.77475ZM7.77475 9.23105C7.61409 9.2319 7.4568 9.18504 7.3228 9.09641C7.1888 9.00777 7.08414 8.88135 7.02207 8.73317C6.96 8.58498 6.94332 8.42171 6.97414 8.26403C7.00496 8.10636 7.0819 7.96139 7.19521 7.84749C7.30851 7.73359 7.45308 7.65589 7.61059 7.62424C7.7681 7.59259 7.93146 7.60841 8.07997 7.66971C8.22848 7.731 8.35544 7.835 8.44478 7.96853C8.53412 8.10206 8.5818 8.25911 8.58179 8.41977C8.58206 8.52604 8.5614 8.63133 8.52098 8.72961C8.48056 8.8279 8.42118 8.91726 8.34622 8.9926C8.27126 9.06793 8.1822 9.12777 8.08412 9.16868C7.98604 9.20959 7.88086 9.23079 7.77459 9.23105H7.77475ZM12.3907 8.50529L11.3062 9.84929C11.2786 9.88357 11.2446 9.91206 11.2059 9.93311C11.1673 9.95416 11.1249 9.96737 11.0812 9.97196C11.0374 9.97654 10.9932 9.97243 10.9511 9.95985C10.9089 9.94726 10.8697 9.92647 10.8356 9.89865L10.0996 9.29817C9.9964 9.21371 9.93076 9.09188 9.917 8.95922C9.90324 8.82656 9.94249 8.69384 10.0262 8.59001C10.0674 8.53871 10.1185 8.49608 10.1763 8.46458C10.2341 8.43308 10.2975 8.41333 10.363 8.40647C10.4285 8.3996 10.4947 8.40576 10.5578 8.42459C10.6208 8.44342 10.6796 8.47454 10.7306 8.51617L10.9488 8.69409L11.6128 7.87089C11.6541 7.81958 11.7051 7.77694 11.7629 7.74544C11.8207 7.71393 11.8842 7.69418 11.9497 7.68731C12.0151 7.68045 12.0813 7.68661 12.1444 7.70544C12.2075 7.72428 12.2662 7.75541 12.3172 7.79705C12.4205 7.88146 12.4863 8.0033 12.5001 8.13598C12.5139 8.26866 12.4746 8.40142 12.3909 8.50529H12.3907ZM13.7027 5.63977C13.7029 5.70571 13.6901 5.77104 13.665 5.83203C13.6399 5.89302 13.6031 5.94848 13.5566 5.99522C13.5101 6.04197 13.4548 6.0791 13.3939 6.10449C13.3331 6.12988 13.2678 6.14304 13.2019 6.14321H2.76523C2.63206 6.14285 2.50449 6.08961 2.41057 5.9952C2.31666 5.90078 2.26409 5.77294 2.26443 5.63977C2.26409 5.5066 2.31666 5.37875 2.41057 5.28434C2.50449 5.18993 2.63206 5.13669 2.76523 5.13633H13.2023C13.2683 5.1365 13.3336 5.14965 13.3944 5.17504C13.4553 5.20043 13.5105 5.23756 13.5571 5.28431C13.6036 5.33106 13.6404 5.38651 13.6655 5.4475C13.6906 5.50849 13.7034 5.57382 13.7032 5.63977H13.7027Z" fill="#fff"/>
</svg>
