<svg xmlns="http://www.w3.org/2000/svg" fill="none" viewBox="0 0 16 16" class="design-iconfont">
  <path d="M13.0833 2.51969H11.6193V1.67969H10.5153V2.51969H5.36003V1.67969H4.25603V2.51969H2.91667C2.4816 2.52134 2.06496 2.6955 1.75814 3.00395C1.45131 3.31241 1.27937 3.72998 1.28003 4.16505V12.6744C1.27939 13.1095 1.45134 13.527 1.75816 13.8354C2.06498 14.1439 2.48162 14.318 2.91667 14.3197H13.0833C13.5184 14.3181 13.935 14.1439 14.2419 13.8355C14.5487 13.527 14.7207 13.1095 14.72 12.6744V4.16505C14.7207 3.72996 14.5487 3.31239 14.2419 3.00393C13.9351 2.69547 13.5184 2.52132 13.0833 2.51969ZM4.58403 11.8098C4.42338 11.8107 4.2661 11.7638 4.13211 11.6752C3.99813 11.5865 3.89348 11.4601 3.83142 11.3119C3.76936 11.1637 3.75268 11.0005 3.78351 10.8428C3.81433 10.6851 3.89127 10.5402 4.00457 10.4263C4.11787 10.3124 4.26243 10.2347 4.41994 10.203C4.57744 10.1714 4.74079 10.1872 4.8893 10.2485C5.0378 10.3098 5.16477 10.4138 5.25411 10.5473C5.34345 10.6808 5.39115 10.8378 5.39115 10.9985C5.3917 11.2131 5.30698 11.4192 5.15562 11.5713C5.00426 11.7235 4.79865 11.8093 4.58403 11.8098ZM4.58403 9.23105C4.42338 9.23189 4.26609 9.18501 4.13211 9.09637C3.99812 9.00772 3.89347 8.8813 3.83141 8.73311C3.76935 8.58493 3.75268 8.42165 3.78351 8.26399C3.81435 8.10632 3.89129 7.96135 4.0046 7.84746C4.11791 7.73357 4.26248 7.65587 4.41999 7.62423C4.57749 7.59259 4.74085 7.60842 4.88935 7.66971C5.03786 7.73101 5.16482 7.83501 5.25415 7.96854C5.34348 8.10207 5.39116 8.25911 5.39115 8.41977C5.39142 8.52603 5.37076 8.63131 5.33035 8.72959C5.28994 8.82788 5.23056 8.91723 5.15561 8.99257C5.08067 9.0679 4.99161 9.12774 4.89354 9.16866C4.79547 9.20957 4.6903 9.23078 4.58403 9.23105ZM7.77499 11.8098C7.61434 11.8107 7.45705 11.7638 7.32305 11.6752C7.18906 11.5866 7.08439 11.4602 7.02232 11.312C6.96025 11.1638 6.94356 11.0005 6.97438 10.8429C7.0052 10.6852 7.08213 10.5402 7.19542 10.4263C7.30872 10.3124 7.45328 10.2347 7.61079 10.203C7.76829 10.1714 7.93165 10.1872 8.08016 10.2485C8.22867 10.3098 8.35564 10.4138 8.44499 10.5473C8.53433 10.6808 8.58203 10.8378 8.58203 10.9985C8.5823 11.1048 8.56164 11.2101 8.52122 11.3083C8.48081 11.4066 8.42143 11.496 8.34647 11.5713C8.27151 11.6467 8.18245 11.7065 8.08437 11.7474C7.98629 11.7884 7.88111 11.8096 7.77483 11.8098H7.77499ZM7.77499 9.23105C7.61433 9.2319 7.45704 9.18504 7.32304 9.09641C7.18905 9.00777 7.08438 8.88135 7.02231 8.73317C6.96024 8.58498 6.94356 8.42171 6.97438 8.26403C7.00521 8.10636 7.08215 7.96139 7.19545 7.84749C7.30876 7.73359 7.45333 7.65589 7.61084 7.62424C7.76835 7.59259 7.93171 7.60841 8.08021 7.66971C8.22872 7.731 8.35569 7.835 8.44502 7.96853C8.53436 8.10206 8.58204 8.25911 8.58203 8.41977C8.5823 8.52604 8.56164 8.63133 8.52122 8.72961C8.4808 8.8279 8.42142 8.91726 8.34646 8.9926C8.27151 9.06793 8.18245 9.12777 8.08437 9.16868C7.98628 9.20959 7.8811 9.23079 7.77483 9.23105H7.77499ZM12.391 8.50529L11.3064 9.84929C11.2789 9.88357 11.2448 9.91206 11.2062 9.93311C11.1676 9.95416 11.1252 9.96737 11.0814 9.97196C11.0377 9.97654 10.9935 9.97243 10.9513 9.95985C10.9092 9.94726 10.8699 9.92647 10.8359 9.89865L10.0999 9.29817C9.99665 9.21371 9.931 9.09188 9.91724 8.95922C9.90349 8.82656 9.94273 8.69384 10.0264 8.59001C10.0677 8.53871 10.1187 8.49608 10.1765 8.46458C10.2343 8.43308 10.2978 8.41333 10.3633 8.40647C10.4287 8.3996 10.4949 8.40576 10.558 8.42459C10.6211 8.44342 10.6798 8.47454 10.7308 8.51617L10.9491 8.69409L11.6131 7.87089C11.6543 7.81958 11.7053 7.77694 11.7631 7.74544C11.8209 7.71393 11.8844 7.69418 11.9499 7.68731C12.0154 7.68045 12.0816 7.68661 12.1447 7.70544C12.2077 7.72428 12.2665 7.75541 12.3175 7.79705C12.4208 7.88146 12.4865 8.0033 12.5003 8.13598C12.5141 8.26866 12.4749 8.40142 12.3912 8.50529H12.391ZM13.703 5.63977C13.7032 5.70571 13.6903 5.77104 13.6653 5.83203C13.6402 5.89302 13.6033 5.94848 13.5568 5.99522C13.5103 6.04197 13.455 6.0791 13.3942 6.10449C13.3333 6.12988 13.2681 6.14304 13.2021 6.14321H2.76547C2.6323 6.14285 2.50473 6.08961 2.41082 5.9952C2.3169 5.90078 2.26433 5.77293 2.26467 5.63977C2.26433 5.5066 2.3169 5.37875 2.41082 5.28434C2.50473 5.18993 2.6323 5.13669 2.76547 5.13633H13.2026C13.2685 5.1365 13.3338 5.14965 13.3947 5.17504C13.4555 5.20043 13.5108 5.23756 13.5573 5.28431C13.6038 5.33106 13.6407 5.38651 13.6657 5.4475C13.6908 5.50849 13.7036 5.57382 13.7035 5.63977H13.703Z" fill="#876AEC"/>
</svg>
