<svg xmlns="http://www.w3.org/2000/svg" fill="none" viewBox="0 0 16 16" class="design-iconfont">
  <path d="M12.8893 2.32155H12.8534V1.44043H11.7819V2.32155H9.97023V1.44043H8.89871V2.32155H7.08703V1.44043H6.01551V2.32155H4.20391V1.44043H3.13239V2.32155H3.11063C2.64613 2.32244 2.20095 2.50754 1.87276 2.83624C1.54456 3.16495 1.36015 3.61041 1.35999 4.07491V12.6471C1.36013 13.1116 1.54454 13.557 1.87273 13.8858C2.20093 14.2145 2.64612 14.3996 3.11063 14.4004H12.8893C13.3538 14.3996 13.799 14.2145 14.1272 13.8858C14.4554 13.557 14.6398 13.1116 14.64 12.6471V4.07491C14.6398 3.61041 14.4554 3.16495 14.1272 2.83624C13.799 2.50754 13.3538 2.32244 12.8893 2.32155ZM9.59647 10.1259H8.45775V11.2663C8.45989 11.338 8.44762 11.4094 8.42166 11.4763C8.39571 11.5431 8.35659 11.6041 8.30662 11.6556C8.25666 11.7071 8.19687 11.748 8.1308 11.776C8.06473 11.8039 7.99372 11.8183 7.92199 11.8183C7.85025 11.8183 7.77924 11.8039 7.71317 11.776C7.6471 11.748 7.58731 11.7071 7.53735 11.6556C7.48739 11.6041 7.44827 11.5431 7.42231 11.4763C7.39635 11.4094 7.38408 11.338 7.38623 11.2663V10.1259H6.24799C6.10568 10.1259 5.9692 10.0694 5.86858 9.9688C5.76796 9.86817 5.71143 9.73169 5.71143 9.58939C5.71143 9.44709 5.76796 9.31061 5.86858 9.20998C5.9692 9.10936 6.10568 9.05283 6.24799 9.05283H7.38623V7.91243C7.38408 7.84072 7.39635 7.76932 7.42231 7.70244C7.44827 7.63556 7.48739 7.57458 7.53735 7.5231C7.58731 7.47162 7.6471 7.43069 7.71317 7.40274C7.77924 7.37479 7.85025 7.36039 7.92199 7.36039C7.99372 7.36039 8.06473 7.37479 8.1308 7.40274C8.19687 7.43069 8.25666 7.47162 8.30662 7.5231C8.35659 7.57458 8.39571 7.63556 8.42166 7.70244C8.44762 7.76932 8.45989 7.84072 8.45775 7.91243V9.05283H9.59647C9.73877 9.05283 9.87525 9.10936 9.97587 9.20998C10.0765 9.31061 10.133 9.44709 10.133 9.58939C10.133 9.73169 10.0765 9.86817 9.97587 9.9688C9.87525 10.0694 9.73877 10.1259 9.59647 10.1259ZM13.0419 5.96979H2.94103C2.79872 5.96979 2.66224 5.91326 2.56162 5.81263C2.461 5.71201 2.40447 5.57553 2.40447 5.43323C2.40447 5.29092 2.461 5.15445 2.56162 5.05382C2.66224 4.9532 2.79872 4.89667 2.94103 4.89667H13.0419C13.1842 4.89667 13.3207 4.9532 13.4213 5.05382C13.5219 5.15445 13.5785 5.29092 13.5785 5.43323C13.5785 5.57553 13.5219 5.71201 13.4213 5.81263C13.3207 5.91326 13.1842 5.96979 13.0419 5.96979Z" fill="#6633E9"/>
</svg>
