<svg xmlns="http://www.w3.org/2000/svg" fill="none" viewBox="0 0 16 16" class="design-iconfont">
  <path d="M12.8892 2.32155H12.8533V1.44043H11.7818V2.32155H9.9701V1.44043H8.89858V2.32155H7.0869V1.44043H6.01538V2.32155H4.20378V1.44043H3.13226V2.32155H3.1105C2.64601 2.32244 2.20083 2.50754 1.87264 2.83624C1.54444 3.16495 1.36003 3.61041 1.35986 4.07491V12.6471C1.36001 13.1116 1.54441 13.557 1.87261 13.8858C2.20081 14.2145 2.646 14.3996 3.1105 14.4004H12.8892C13.3537 14.3996 13.7989 14.2145 14.1271 13.8858C14.4553 13.557 14.6397 13.1116 14.6399 12.6471V4.07491C14.6397 3.61041 14.4553 3.16495 14.1271 2.83624C13.7989 2.50754 13.3537 2.32244 12.8892 2.32155ZM9.59634 10.1259H8.45762V11.2663C8.45977 11.338 8.4475 11.4094 8.42154 11.4763C8.39558 11.5431 8.35646 11.6041 8.3065 11.6556C8.25654 11.7071 8.19675 11.748 8.13068 11.776C8.06461 11.8039 7.9936 11.8183 7.92186 11.8183C7.85012 11.8183 7.77912 11.8039 7.71305 11.776C7.64698 11.748 7.58719 11.7071 7.53723 11.6556C7.48726 11.6041 7.44814 11.5431 7.42218 11.4763C7.39623 11.4094 7.38396 11.338 7.3861 11.2663V10.1259H6.24786C6.10556 10.1259 5.96908 10.0694 5.86846 9.9688C5.76783 9.86817 5.7113 9.73169 5.7113 9.58939C5.7113 9.44709 5.76783 9.31061 5.86846 9.20998C5.96908 9.10936 6.10556 9.05283 6.24786 9.05283H7.3861V7.91243C7.38396 7.84072 7.39623 7.76932 7.42218 7.70244C7.44814 7.63556 7.48726 7.57458 7.53723 7.5231C7.58719 7.47162 7.64698 7.43069 7.71305 7.40274C7.77912 7.37479 7.85012 7.36039 7.92186 7.36039C7.9936 7.36039 8.06461 7.37479 8.13068 7.40274C8.19675 7.43069 8.25654 7.47162 8.3065 7.5231C8.35646 7.57458 8.39558 7.63556 8.42154 7.70244C8.4475 7.76932 8.45977 7.84072 8.45762 7.91243V9.05283H9.59634C9.73865 9.05283 9.87512 9.10936 9.97575 9.20998C10.0764 9.31061 10.1329 9.44709 10.1329 9.58939C10.1329 9.73169 10.0764 9.86817 9.97575 9.9688C9.87512 10.0694 9.73865 10.1259 9.59634 10.1259ZM13.0418 5.96979H2.9409C2.7986 5.96979 2.66212 5.91326 2.5615 5.81263C2.46087 5.71201 2.40434 5.57553 2.40434 5.43323C2.40434 5.29092 2.46087 5.15445 2.5615 5.05382C2.66212 4.9532 2.7986 4.89667 2.9409 4.89667H13.0418C13.1841 4.89667 13.3206 4.9532 13.4212 5.05382C13.5218 5.15445 13.5783 5.29092 13.5783 5.43323C13.5783 5.57553 13.5218 5.71201 13.4212 5.81263C13.3206 5.91326 13.1841 5.96979 13.0418 5.96979Z" fill="#fff"/>
</svg>
