<svg xmlns="http://www.w3.org/2000/svg" fill="none" viewBox="0 0 16 16" class="design-iconfont">
  <path d="M13.1769 2.8171C13.1304 2.43462 13.0581 2.2563 12.7616 2.0303L12.743 2.01606C12.5805 1.9015 12.2323 1.69982 11.8685 1.77686C11.6866 1.81679 11.5151 1.8943 11.3649 2.00442C11.2148 2.11454 11.0893 2.25483 10.9965 2.4163L7.98251 7.81982L4.77995 12.1381L5.62299 12.1626C5.65339 12.1635 5.6844 12.164 5.71603 12.164C6.93099 12.164 9.13475 11.5543 9.43939 8.73758L12.8377 3.87902C13.0708 3.58134 13.2235 3.19966 13.1769 2.8171ZM10.3623 9.10014C9.51547 14.2368 3.39203 12.6435 3.39203 12.6435L5.98995 9.0563C3.42771 9.3479 1.28003 10.2064 1.28003 11.5923C1.28003 13.3309 4.66059 14.2403 8.00003 14.2403C11.3395 14.2403 14.72 13.3306 14.72 11.5923C14.72 10.2704 12.7661 9.4283 10.3623 9.10014Z" fill="#3263FE"/>
</svg>
