<svg xmlns="http://www.w3.org/2000/svg" fill="none" viewBox="0 0 16 16" class="design-iconfont">
  <path d="M13.1767 2.8171C13.1302 2.43462 13.0579 2.2563 12.7614 2.0303L12.7427 2.01606C12.5803 1.9015 12.2321 1.69982 11.8683 1.77686C11.6864 1.81679 11.5148 1.8943 11.3647 2.00442C11.2145 2.11454 11.089 2.25483 10.9963 2.4163L7.98227 7.81982L4.77971 12.1381L5.62275 12.1626C5.65315 12.1635 5.68416 12.164 5.71579 12.164C6.93075 12.164 9.13451 11.5543 9.43915 8.73758L12.8375 3.87902C13.0706 3.58134 13.2233 3.19966 13.1767 2.8171ZM10.362 9.10014C9.51523 14.2368 3.39179 12.6435 3.39179 12.6435L5.98971 9.0563C3.42747 9.3479 1.27979 10.2064 1.27979 11.5923C1.27979 13.3309 4.66035 14.2403 7.99979 14.2403C11.3392 14.2403 14.7198 13.3306 14.7198 11.5923C14.7198 10.2704 12.7659 9.4283 10.362 9.10014Z" fill="#fff"/>
</svg>
