<svg xmlns="http://www.w3.org/2000/svg" fill="none" viewBox="0 0 16 16" class="design-iconfont">
  <path d="M8.11011 8.08698C8.58678 7.71665 8.93582 7.20664 9.10844 6.62823C9.28106 6.04982 9.26863 5.43193 9.07289 4.86093C8.87715 4.28993 8.50788 3.79437 8.01671 3.44351C7.52553 3.09265 6.937 2.90404 6.33339 2.90404C5.72977 2.90404 5.14124 3.09265 4.65006 3.44351C4.15889 3.79437 3.78962 4.28993 3.59388 4.86093C3.39814 5.43193 3.38571 6.04982 3.55833 6.62823C3.73095 7.20664 4.08 7.71665 4.55667 8.08698C3.59526 8.44816 2.76669 9.09365 2.18128 9.93749C1.59588 10.7813 1.28142 11.7835 1.27979 12.8105V13.2803H11.387V12.8105C11.3853 11.7835 11.0709 10.7813 10.4855 9.93749C9.90008 9.09365 9.07151 8.44816 8.11011 8.08698ZM11.1625 7.68025C12.0311 7.26721 12.5625 6.5129 12.5625 5.58698C12.5625 3.99218 11.1604 2.7637 9.64115 2.65898C9.16915 2.60234 8.29611 2.6949 8.29611 2.6949C8.29611 2.6949 8.93995 3.2525 9.18579 3.5269C9.40891 3.77562 10.686 5.44474 9.53379 7.43242L9.18979 7.95002L9.66019 8.22673C11.3467 9.21873 12.063 11.089 12.2067 12.757L12.2289 13.1684H14.7198V12.6865C14.7198 10.5283 13.0743 8.40025 11.1625 7.68025Z" fill="#fff"/>
</svg>
