<svg xmlns="http://www.w3.org/2000/svg" fill="none" viewBox="0 0 16 16" class="design-iconfont">
  <path d="M8.11035 8.08698C8.58702 7.71665 8.93606 7.20664 9.10868 6.62823C9.2813 6.04982 9.26888 5.43193 9.07314 4.86093C8.8774 4.28993 8.50813 3.79437 8.01695 3.44351C7.52578 3.09265 6.93725 2.90404 6.33363 2.90404C5.73001 2.90404 5.14148 3.09265 4.65031 3.44351C4.15913 3.79437 3.78986 4.28993 3.59412 4.86093C3.39838 5.43193 3.38596 6.04982 3.55858 6.62823C3.7312 7.20664 4.08024 7.71665 4.55691 8.08698C3.5955 8.44816 2.76693 9.09365 2.18153 9.93749C1.59613 10.7813 1.28167 11.7835 1.28003 12.8105V13.2803H11.3872V12.8105C11.3856 11.7835 11.0711 10.7813 10.4857 9.93749C9.90033 9.09365 9.07176 8.44816 8.11035 8.08698ZM11.1627 7.68025C12.0314 7.26721 12.5627 6.5129 12.5627 5.58698C12.5627 3.99218 11.1607 2.7637 9.64139 2.65898C9.16939 2.60234 8.29635 2.6949 8.29635 2.6949C8.29635 2.6949 8.94019 3.2525 9.18603 3.5269C9.40915 3.77562 10.6863 5.44474 9.53403 7.43242L9.19003 7.95002L9.66043 8.22673C11.3469 9.21873 12.0632 11.089 12.2069 12.757L12.2291 13.1684H14.72V12.6865C14.72 10.5283 13.0746 8.40026 11.1627 7.68025Z" fill="#EF8131"/>
</svg>
