<svg xmlns="http://www.w3.org/2000/svg" fill="none" viewBox="0 0 13 12" class="design-iconfont">
  <path d="M10.294 11.04H2.70607C2.37466 11.0385 2.05733 10.9057 1.82373 10.6706C1.59012 10.4355 1.45931 10.1174 1.45999 9.78596V3.26258C1.45931 2.93116 1.59012 2.613 1.82373 2.37791C2.05733 2.14282 2.37466 2.00999 2.70607 2.00858H3.32443V2.77616H2.70607C2.57751 2.7767 2.45441 2.82822 2.36378 2.91941C2.27315 3.0106 2.2224 3.13402 2.22265 3.26258V9.78596C2.22241 9.91453 2.27317 10.0379 2.36379 10.1291C2.45442 10.2203 2.57751 10.2719 2.70607 10.2724H10.294C10.4225 10.2719 10.5456 10.2203 10.6362 10.1291C10.7268 10.0379 10.7776 9.91452 10.7773 9.78596V3.26258C10.7776 3.13403 10.7268 3.01062 10.6362 2.91943C10.5456 2.82824 10.4225 2.77672 10.294 2.77616H9.58465V2.0087H10.294C10.6254 2.01013 10.9427 2.14294 11.1762 2.37801C11.4098 2.61307 11.5406 2.93119 11.54 3.26258V9.78596C11.5407 10.1174 11.4099 10.4355 11.1763 10.6706C10.9427 10.9057 10.6254 11.0385 10.294 11.04ZM7.70413 3.63386H5.22463C4.8716 3.6315 4.53384 3.4896 4.28504 3.23913C4.03624 2.98866 3.89661 2.64995 3.89661 2.29691C3.89661 1.94387 4.03624 1.60517 4.28504 1.3547C4.53384 1.10423 4.8716 0.962326 5.22463 0.959961H7.70413C8.05716 0.962326 8.39493 1.10423 8.64373 1.3547C8.89252 1.60517 9.03216 1.94387 9.03216 2.29691C9.03216 2.64995 8.89252 2.98866 8.64373 3.23913C8.39493 3.4896 8.05716 3.6315 7.70413 3.63386ZM5.22463 1.72742C5.07461 1.72896 4.93125 1.78964 4.82571 1.89627C4.72016 2.0029 4.66096 2.14688 4.66096 2.29691C4.66096 2.44694 4.72016 2.59092 4.82571 2.69755C4.93125 2.80418 5.07461 2.86486 5.22463 2.8664H7.70413C7.85416 2.86486 7.99752 2.80418 8.10306 2.69755C8.20861 2.59092 8.26781 2.44694 8.26781 2.29691C8.26781 2.14688 8.20861 2.0029 8.10306 1.89627C7.99752 1.78964 7.85416 1.72896 7.70413 1.72742H5.22463Z" fill="#5B7FF1"/>
  <path d="M8.29999 6.51844H6.87644V5.16016H6.12458V6.51844H4.70078V7.28044H6.12458V8.63878H6.87644V7.28062H8.29999V6.51862V6.51844Z" fill="#5B7FF1"/>
</svg>
