<svg xmlns="http://www.w3.org/2000/svg" fill="none" viewBox="0 0 13 12" class="design-iconfont">
  <path d="M11.1523 7.74609H10.0156V10.6523C10.0156 10.7293 10.0005 10.8055 9.97102 10.8766C9.94158 10.9477 9.89842 11.0123 9.84401 11.0667C9.7896 11.1211 9.72501 11.1642 9.65392 11.1937C9.58283 11.2231 9.50663 11.2383 9.42969 11.2383H3.57031C3.41491 11.2383 3.26588 11.1765 3.15599 11.0667C3.04611 10.9568 2.98438 10.8077 2.98438 10.6523V7.74609H1.84766C1.69226 7.74609 1.54322 7.68436 1.43334 7.57448C1.32345 7.46459 1.26172 7.31556 1.26172 7.16016V3.41016C1.26172 3.25476 1.32345 3.10572 1.43334 2.99584C1.54322 2.88595 1.69226 2.82422 1.84766 2.82422H2.98438V1.34766C2.98438 1.19226 3.04611 1.04322 3.15599 0.933336C3.26588 0.823451 3.41491 0.761719 3.57031 0.761719H9.42969C9.50663 0.761719 9.58283 0.776874 9.65392 0.806321C9.72501 0.835767 9.7896 0.878927 9.84401 0.933336C9.89842 0.987745 9.94158 1.05234 9.97102 1.12343C10.0005 1.19452 10.0156 1.27071 10.0156 1.34766V2.82422H11.1523C11.3077 2.82422 11.4568 2.88595 11.5667 2.99584C11.6765 3.10572 11.7383 3.25476 11.7383 3.41016V7.16016C11.7383 7.31556 11.6765 7.46459 11.5667 7.57448C11.4568 7.68436 11.3077 7.74609 11.1523 7.74609ZM3.6875 10.3008C3.6875 10.3629 3.71219 10.4226 3.75615 10.4665C3.8001 10.5105 3.85971 10.5352 3.92188 10.5352H9.07812C9.14029 10.5352 9.1999 10.5105 9.24385 10.4665C9.28781 10.4226 9.3125 10.3629 9.3125 10.3008V6.55078C9.3125 6.48862 9.28781 6.42901 9.24385 6.38505C9.1999 6.3411 9.14029 6.31641 9.07812 6.31641H3.92188C3.85971 6.31641 3.8001 6.3411 3.75615 6.38505C3.71219 6.42901 3.6875 6.48862 3.6875 6.55078V10.3008ZM9.3125 1.69922C9.3125 1.63706 9.28781 1.57744 9.24385 1.53349C9.1999 1.48954 9.14029 1.46484 9.07812 1.46484H3.92188C3.85971 1.46484 3.8001 1.48954 3.75615 1.53349C3.71219 1.57744 3.6875 1.63706 3.6875 1.69922V2.82422H9.3125V1.69922ZM11.0352 3.7616C11.0352 3.69944 11.0105 3.63983 10.9665 3.59587C10.9226 3.55192 10.8629 3.52723 10.8008 3.52723H2.19922C2.13706 3.52723 2.07744 3.55192 2.03349 3.59587C1.98954 3.63983 1.96484 3.69944 1.96484 3.7616V6.80848C1.96484 6.87064 1.98954 6.93025 2.03349 6.97421C2.07744 7.01816 2.13706 7.04285 2.19922 7.04285H2.98438V6.19922C2.98438 6.04382 3.04611 5.89478 3.15599 5.7849C3.26588 5.67501 3.41491 5.61328 3.57031 5.61328H9.42969C9.50663 5.61328 9.58283 5.62844 9.65392 5.65788C9.72501 5.68733 9.7896 5.73049 9.84401 5.7849C9.89842 5.83931 9.94158 5.9039 9.97102 5.97499C10.0005 6.04608 10.0156 6.12227 10.0156 6.19922V7.04285H10.8008C10.8629 7.04285 10.9226 7.01816 10.9665 6.97421C11.0105 6.93025 11.0352 6.87064 11.0352 6.80848V3.7616ZM10.0156 4.95703C9.94609 4.95703 9.87812 4.93641 9.82031 4.89778C9.76249 4.85915 9.71743 4.80425 9.69082 4.74001C9.66422 4.67577 9.65725 4.60508 9.67082 4.53688C9.68438 4.46869 9.71787 4.40604 9.76703 4.35688C9.8162 4.30771 9.87884 4.27423 9.94704 4.26066C10.0152 4.2471 10.0859 4.25406 10.1502 4.28067C10.2144 4.30728 10.2693 4.35234 10.3079 4.41015C10.3466 4.46797 10.3672 4.53594 10.3672 4.60547C10.3672 4.69871 10.3301 4.78813 10.2642 4.85406C10.1983 4.91999 10.1089 4.95703 10.0156 4.95703ZM4.75391 7.37109H8.24609C8.33933 7.37109 8.42876 7.40813 8.49469 7.47406C8.56062 7.53999 8.59766 7.62942 8.59766 7.72266C8.59766 7.8159 8.56062 7.90532 8.49469 7.97125C8.42876 8.03718 8.33933 8.07422 8.24609 8.07422H4.75391C4.66067 8.07422 4.57124 8.03718 4.50531 7.97125C4.43938 7.90532 4.40234 7.8159 4.40234 7.72266C4.40234 7.62942 4.43938 7.53999 4.50531 7.47406C4.57124 7.40813 4.66067 7.37109 4.75391 7.37109ZM4.75391 8.77734H8.24609C8.33933 8.77734 8.42876 8.81438 8.49469 8.88031C8.56062 8.94625 8.59766 9.03567 8.59766 9.12891C8.59766 9.22215 8.56062 9.31157 8.49469 9.3775C8.42876 9.44343 8.33933 9.48047 8.24609 9.48047H4.75391C4.66067 9.48047 4.57124 9.44343 4.50531 9.3775C4.43938 9.31157 4.40234 9.22215 4.40234 9.12891C4.40234 9.03567 4.43938 8.94625 4.50531 8.88031C4.57124 8.81438 4.66067 8.77734 4.75391 8.77734Z" fill="#5B7FF1"/>
</svg>
