<svg xmlns="http://www.w3.org/2000/svg" fill="none" viewBox="0 0 9 8" class="design-iconfont">
  <g clip-path="url(#c6x9dkolj__clip0_3158_53)" fill="#5B7FF1">
    <path d="M4.3632 7.46615C4.4 7.50135 4.4496 7.52135 4.5008 7.52135C4.552 7.52135 4.6016 7.50135 4.6384 7.46615M4.6392 7.46615L8.3432 3.91895C8.5064 3.76295 8.496 3.50375 8.3336 3.34855C8.1712 3.19335 7.9088 3.19255 7.7464 3.34775L4.5016 6.45175L1.2576 3.34775C1.0944 3.19175 0.832003 3.19335 0.670403 3.34855C0.507203 3.50295 0.496803 3.76295 0.660003 3.91815L4.364 7.46535H4.6392V7.46615Z"/>
    <path d="M4.36081 4.71322C4.39761 4.74842 4.44721 4.76762 4.49841 4.76762C4.54961 4.76762 4.59921 4.74762 4.63601 4.71322M4.63681 4.71322L8.34081 1.16602C8.50401 1.01002 8.49361 0.750817 8.33121 0.595617C8.16881 0.440417 7.90641 0.439617 7.74401 0.594817L4.49921 3.69882L1.25441 0.594817C1.09121 0.438817 0.828807 0.440417 0.667207 0.595617C0.504807 0.750817 0.494407 1.01082 0.657607 1.16602L4.36161 4.71322H4.63681Z"/>
  </g>
  <defs>
    <clipPath id="c6x9dkolj__clip0_3158_53">
      <path fill="#fff" transform="translate(.5)" d="M0 0H8V8H0z"/>
    </clipPath>
  </defs>
</svg>
