<svg xmlns="http://www.w3.org/2000/svg" fill="none" viewBox="0 0 36 36" class="design-iconfont">
  <rect width="36" height="36" rx="10" fill="#FCECE7"/>
  <path d="M20.052 21.583L21.4501 20.1918C21.5578 20.0848 21.7035 20.0247 21.8553 20.0247C22.0072 20.0247 22.1529 20.0848 22.2606 20.1918C22.3138 20.2446 22.356 20.3074 22.3848 20.3766C22.4136 20.4458 22.4285 20.5201 22.4285 20.595C22.4285 20.67 22.4136 20.7442 22.3848 20.8134C22.356 20.8826 22.3138 20.9455 22.2606 20.9983L21.8256 21.4312L25.0908 21.3973C25.1659 21.3989 25.2399 21.4153 25.3087 21.4456C25.3774 21.4758 25.4396 21.5193 25.4915 21.5735C25.5434 21.6278 25.5842 21.6917 25.6114 21.7618C25.6386 21.8318 25.6517 21.9064 25.65 21.9815C25.648 22.0566 25.6312 22.1305 25.6006 22.1991C25.57 22.2677 25.5262 22.3295 25.4716 22.3812C25.4171 22.4328 25.353 22.4732 25.2828 22.5001C25.2127 22.5269 25.138 22.5397 25.0629 22.5376L21.8409 22.5726L22.261 22.9905C22.3142 23.0433 22.3564 23.1062 22.3852 23.1754C22.414 23.2446 22.4288 23.3188 22.4288 23.3938C22.4288 23.4688 22.414 23.543 22.3852 23.6122C22.3564 23.6814 22.3142 23.7443 22.261 23.7971C22.1532 23.9041 22.0075 23.9642 21.8557 23.9642C21.7038 23.9642 21.5582 23.9041 21.4504 23.7971L20.0497 22.4034C19.9419 22.2939 19.8816 22.1463 19.8821 21.9927C19.8825 21.8391 19.9436 21.6918 20.052 21.583ZM22.8281 24.3617C22.5695 24.6185 22.2198 24.7626 21.8554 24.7626C21.4909 24.7626 21.1412 24.6185 20.8826 24.3617L19.4823 22.9677C19.2259 22.7087 19.082 22.3592 19.0818 21.9948C19.0816 21.6304 19.2252 21.2807 19.4813 21.0215L19.4849 21.0181L20.8831 19.6268C21.1417 19.37 21.4913 19.2259 21.8557 19.2259C22.2202 19.2259 22.5698 19.37 22.8284 19.6268C23.0406 19.8373 23.1772 20.112 23.217 20.4081V18.6724H24.3584C24.5911 18.6738 24.8188 18.6041 25.0108 18.4727C25.2029 18.3413 25.3503 18.1543 25.4332 17.9369C25.5162 17.7194 25.5308 17.4818 25.4751 17.2559C25.4194 17.0299 25.296 16.8263 25.1215 16.6723L18.693 10.9971C18.4822 10.8114 18.2108 10.709 17.9299 10.709C17.6489 10.709 17.3776 10.8114 17.1668 10.9971L10.7386 16.6722C10.564 16.8262 10.4407 17.0298 10.3849 17.2559C10.3292 17.4819 10.3438 17.7195 10.4268 17.937C10.5099 18.1545 10.6573 18.3414 10.8494 18.4728C11.0415 18.6043 11.2692 18.6739 11.502 18.6724H12.9545V23.9487C12.9559 24.329 13.1081 24.6933 13.3778 24.9615C13.6474 25.2298 14.0124 25.3802 14.3928 25.3797H21.78C22.1602 25.3802 22.525 25.2298 22.7945 24.9617C23.064 24.6935 23.2161 24.3294 23.2175 23.9493V23.5744C23.1786 23.8727 23.0417 24.1496 22.8284 24.3617H22.8281ZM18.5683 19.423C18.5655 19.5871 18.4983 19.7435 18.3813 19.8585C18.2643 19.9735 18.1068 20.038 17.9428 20.038C17.7787 20.038 17.6212 19.9735 17.5042 19.8585C17.3872 19.7435 17.32 19.5871 17.3173 19.423V18.51H16.3999C16.2348 18.51 16.0764 18.4445 15.9597 18.3277C15.8429 18.211 15.7774 18.0526 15.7774 17.8875C15.7774 17.7224 15.8429 17.5641 15.9597 17.4473C16.0764 17.3306 16.2348 17.265 16.3999 17.265H17.3173V16.3519C17.3201 16.1879 17.3873 16.0315 17.5043 15.9165C17.6213 15.8014 17.7788 15.737 17.9428 15.737C18.1069 15.737 18.2644 15.8014 18.3814 15.9165C18.4984 16.0315 18.5656 16.1879 18.5683 16.3519V17.265H19.4858C19.6509 17.265 19.8093 17.3306 19.926 17.4473C20.0427 17.5641 20.1083 17.7224 20.1083 17.8875C20.1083 18.0526 20.0427 18.211 19.926 18.3277C19.8093 18.4445 19.6509 18.51 19.4858 18.51H18.5685V19.423H18.5683Z" fill="#FF7661"/>
</svg>
