<svg xmlns="http://www.w3.org/2000/svg" fill="none" viewBox="0 0 18 18" class="design-iconfont">
  <path d="M9 16.875C4.66875 16.875 1.125 13.3312 1.125 9C1.125 4.66875 4.66875 1.125 9 1.125C13.3312 1.125 16.875 4.66875 16.875 9C16.875 13.3312 13.3312 16.875 9 16.875ZM9 15.75C12.7125 15.75 15.75 12.7125 15.75 9C15.75 5.2875 12.7125 2.25 9 2.25C5.2875 2.25 2.25 5.2875 2.25 9C2.25 12.7125 5.2875 15.75 9 15.75ZM12.9375 9C12.9375 9.3375 12.7125 9.5625 12.375 9.5625H5.625C5.2875 9.5625 5.0625 9.3375 5.0625 9C5.0625 8.6625 5.2875 8.4375 5.625 8.4375H12.375C12.7125 8.4375 12.9375 8.6625 12.9375 9Z" fill="#F33D21"/>
</svg>
