<svg fill="none" xmlns="http://www.w3.org/2000/svg" viewBox="0 0 16 16" class="design-iconfont">
  <path d="M7.34389 15.2642C6.88522 15.2642 6.57589 15.1576 6.41589 14.9442C6.25589 14.7309 6.17589 14.3896 6.17589 13.9202C6.17589 13.7069 6.17323 13.3709 6.16789 12.9122C6.16256 12.4536 6.15723 11.9656 6.15189 11.4482C6.14656 10.9309 6.13856 10.4269 6.12789 9.93623C6.11722 9.44556 6.11189 9.05623 6.11189 8.76823C6.11189 8.35223 6.07189 8.02689 5.99189 7.79223C5.91189 7.55756 5.72789 7.44556 5.43989 7.45623C5.22656 7.45623 4.97322 7.45089 4.67989 7.44023C4.38656 7.42956 4.12789 7.42956 3.90389 7.44023C3.53056 7.44023 3.29323 7.33889 3.19189 7.13623C3.09056 6.93356 3.16256 6.67223 3.40789 6.35223C3.66389 6.03223 3.96256 5.65356 4.30389 5.21623C4.64522 4.77889 4.99723 4.33089 5.35989 3.87223C5.72256 3.41356 6.07722 2.96023 6.42389 2.51223C6.77056 2.06423 7.07722 1.66956 7.34389 1.32823C7.58922 1.01889 7.82656 0.858894 8.05589 0.848228C8.28522 0.837561 8.52789 0.976228 8.78389 1.26423C9.03989 1.57356 9.33589 1.93623 9.67189 2.35223C10.0079 2.76823 10.3572 3.19756 10.7199 3.64023C11.0826 4.08289 11.4399 4.52023 11.7919 4.95223C12.1439 5.38423 12.4586 5.76556 12.7359 6.09623C13.0452 6.46956 13.1652 6.77623 13.0959 7.01623C13.0266 7.25623 12.7999 7.37623 12.4159 7.37623C12.2986 7.37623 12.1679 7.37889 12.0239 7.38423C11.8799 7.38956 11.7279 7.39489 11.5679 7.40023C11.4079 7.40556 11.2506 7.41089 11.0959 7.41623C10.9412 7.42156 10.7999 7.42423 10.6719 7.42423C10.4052 7.43489 10.2372 7.52023 10.1679 7.68023C10.0986 7.84023 10.0692 8.05889 10.0799 8.33623C10.0799 8.64556 10.0826 9.05089 10.0879 9.55223C10.0932 10.0536 10.0986 10.5762 10.1039 11.1202C10.1092 11.6642 10.1172 12.1922 10.1279 12.7042C10.1386 13.2162 10.1439 13.6322 10.1439 13.9522C10.1439 14.0909 10.1332 14.2349 10.1119 14.3842C10.0906 14.5336 10.0399 14.6696 9.95989 14.7922C9.87989 14.9149 9.76789 15.0189 9.62389 15.1042C9.47989 15.1896 9.29056 15.2322 9.05589 15.2322C8.76789 15.2322 8.49323 15.2349 8.23189 15.2402C7.97056 15.2456 7.67456 15.2536 7.34389 15.2642Z" fill="#F33D21"/>
</svg>
