<svg fill="none" xmlns="http://www.w3.org/2000/svg" viewBox="0 0 90 24" class="design-iconfont">
  <path d="M0 0H80L90 12L80 24H0L0 12L0 0Z" fill="#EEF0F6"/>
  <path d="M35.816 12.058H27.136V15.908C27.136 16.44 27.402 16.706 27.934 16.706H34.92C35.172 16.706 35.41 16.622 35.606 16.454C35.83 16.244 35.97 15.404 36.054 13.934L37.356 14.354C37.188 16.118 36.95 17.168 36.656 17.49C36.32 17.798 35.872 17.966 35.298 17.994H27.57C26.38 17.994 25.792 17.378 25.792 16.146V8.866H27.136V10.784H34.458V7.452H25.218V6.178H35.816V12.058ZM44.356 5.576H45.7V7.55H50.138V15.572H48.836V14.83H45.7V18.372H44.356V14.83H41.164V15.67H39.862V7.55H44.356V5.576ZM41.164 13.57H44.356V11.764H41.164V13.57ZM45.7 13.57H48.836V11.764H45.7V13.57ZM41.164 10.574H44.356V8.796H41.164V10.574ZM45.7 10.574H48.836V8.796H45.7V10.574ZM60.442 5.52H61.716V6.332H65.076V7.41H61.716V8.096H64.586V9.146H61.716V9.846H65.426V10.952H56.774V9.846H60.442V9.146H57.754V8.096H60.442V7.41H57.166V6.332H60.442V5.52ZM59.028 14.48V15.264H63.186V14.48H59.028ZM63.186 13.472V12.674H59.028V13.472H63.186ZM59.028 16.272V18.442H57.768V11.596H64.46V17.056C64.46 17.924 64.012 18.358 63.13 18.358H61.968L61.66 17.182L62.752 17.252C63.032 17.252 63.186 17.098 63.186 16.79V16.272H59.028ZM54.436 5.632C55.332 6.318 56.102 7.004 56.718 7.69L55.808 8.614C55.262 7.97 54.492 7.27 53.498 6.542L54.436 5.632ZM52.532 9.692H55.71V15.544C56.074 15.194 56.438 14.816 56.83 14.41L57.18 15.81C56.368 16.65 55.5 17.392 54.59 18.036L54.086 16.832C54.31 16.636 54.436 16.384 54.436 16.09V10.966H52.532V9.692Z" fill="#A8AAB4"/>
</svg>
