<svg fill="none" xmlns="http://www.w3.org/2000/svg" viewBox="0 0 90 24" class="design-iconfont">
  <path d="M0 0H80L90 12L80 24H0V12V0Z" fill="url(#1xiamecqq__paint0_linear_176_1154)"/>
  <path d="M35.8158 12.058H27.1358V15.908C27.1358 16.44 27.4018 16.706 27.9338 16.706H34.9198C35.1718 16.706 35.4098 16.622 35.6058 16.454C35.8298 16.244 35.9698 15.404 36.0538 13.934L37.3558 14.354C37.1878 16.118 36.9498 17.168 36.6558 17.49C36.3198 17.798 35.8718 17.966 35.2978 17.994H27.5698C26.3798 17.994 25.7918 17.378 25.7918 16.146V8.86602H27.1358V10.784H34.4578V7.45202H25.2178V6.17802H35.8158V12.058ZM44.3558 5.57602H45.6998V7.55002H50.1378V15.572H48.8358V14.83H45.6998V18.372H44.3558V14.83H41.1638V15.67H39.8618V7.55002H44.3558V5.57602ZM41.1638 13.57H44.3558V11.764H41.1638V13.57ZM45.6998 13.57H48.8358V11.764H45.6998V13.57ZM41.1638 10.574H44.3558V8.79602H41.1638V10.574ZM45.6998 10.574H48.8358V8.79602H45.6998V10.574ZM60.4418 5.52002H61.7158V6.33202H65.0758V7.41002H61.7158V8.09602H64.5858V9.14602H61.7158V9.84602H65.4258V10.952H56.7738V9.84602H60.4418V9.14602H57.7538V8.09602H60.4418V7.41002H57.1658V6.33202H60.4418V5.52002ZM59.0278 14.48V15.264H63.1858V14.48H59.0278ZM63.1858 13.472V12.674H59.0278V13.472H63.1858ZM59.0278 16.272V18.442H57.7678V11.596H64.4598V17.056C64.4598 17.924 64.0118 18.358 63.1298 18.358H61.9678L61.6598 17.182L62.7518 17.252C63.0318 17.252 63.1858 17.098 63.1858 16.79V16.272H59.0278ZM54.4358 5.63202C55.3318 6.31802 56.1018 7.00402 56.7178 7.69002L55.8078 8.61402C55.2618 7.97002 54.4918 7.27002 53.4978 6.54202L54.4358 5.63202ZM52.5318 9.69202H55.7098V15.544C56.0738 15.194 56.4378 14.816 56.8298 14.41L57.1798 15.81C56.3678 16.65 55.4998 17.392 54.5898 18.036L54.0858 16.832C54.3098 16.636 54.4358 16.384 54.4358 16.09V10.966H52.5318V9.69202Z" fill="#fff"/>
  <defs>
    <linearGradient id="1xiamecqq__paint0_linear_176_1154" x1="0" y1="0" x2="3.7716" y2="33.1331" gradientUnits="userSpaceOnUse">
      <stop stop-color="#3473D1"/>
      <stop offset="1" stop-color="#3263FE"/>
    </linearGradient>
  </defs>
</svg>
