<svg xmlns="http://www.w3.org/2000/svg" fill="none" viewBox="0 0 90 24" class="design-iconfont">
  <path d="M0 0H80L90 12L80 24H0L10 12L0 0Z" fill="#EEF0F6"/>
  <path d="M35.816 12.058H27.136V15.908C27.136 16.44 27.402 16.706 27.934 16.706H34.92C35.172 16.706 35.41 16.622 35.606 16.454C35.83 16.244 35.97 15.404 36.054 13.934L37.356 14.354C37.188 16.118 36.95 17.168 36.656 17.49C36.32 17.798 35.872 17.966 35.298 17.994H27.57C26.38 17.994 25.792 17.378 25.792 16.146V8.866H27.136V10.784H34.458V7.452H25.218V6.178H35.816V12.058ZM49.172 7.396L50.376 7.984C49.774 9.188 49.06 10.224 48.248 11.092L47.184 10.336C47.94 9.51 48.612 8.53 49.172 7.396ZM45.056 7.648C45.476 8.376 45.854 9.188 46.19 10.112L44.902 10.434C44.622 9.608 44.258 8.81 43.824 8.054L45.056 7.648ZM41.248 7.984C41.752 8.74 42.2 9.566 42.578 10.434L41.36 10.98C40.94 10 40.478 9.146 39.974 8.404L41.248 7.984ZM49.83 5.548L50.474 6.668C47.786 7.214 44.202 7.494 39.75 7.494L39.344 6.262C43.488 6.262 46.988 6.024 49.83 5.548ZM39.358 11.932H44.342V10.728H45.658V11.932H50.656V13.22H46.792C47.744 14.508 49.27 15.656 51.398 16.664L50.446 17.854C48.206 16.468 46.624 14.928 45.7 13.22H45.658V18.372H44.342V13.22C43.32 15.124 41.668 16.692 39.4 17.924L38.644 16.678C40.702 15.754 42.228 14.606 43.208 13.22H39.358V11.932ZM56.858 15.152H52.924V13.934H58.384V13.374H59.7V13.934H65.076V15.152H61.24C62.164 15.88 63.494 16.468 65.244 16.916L64.67 18.092C62.444 17.336 60.848 16.356 59.882 15.152H59.7V18.456H58.384V15.152H58.202C57.32 16.3 55.738 17.308 53.47 18.148L52.77 17.014C54.674 16.454 56.046 15.824 56.858 15.152ZM54.198 9.342C53.918 9.65 53.61 9.958 53.288 10.266L52.518 9.258C53.694 8.194 54.576 6.92 55.164 5.464L56.41 5.744C56.284 6.08 56.144 6.416 55.99 6.724H58.678C58.496 6.332 58.3 5.968 58.09 5.632L59.448 5.408C59.63 5.8 59.812 6.234 59.994 6.724H64.404V7.816H60.064V8.53H63.844V9.538H60.064V10.224H63.844V11.232H60.064V11.974H64.67V13.08H54.198V9.342ZM58.762 11.974V11.232H55.43V11.974H58.762ZM58.762 10.224V9.538H55.43V10.224H58.762ZM58.762 8.53V7.816H55.43V8.53H58.762Z" fill="#A8AAB4"/>
</svg>
