<svg fill="none" xmlns="http://www.w3.org/2000/svg" viewBox="0 0 90 24" class="design-iconfont">
  <path d="M0 0H80L90 12L80 24H0L10 12L0 0Z" fill="url(#g0gc088to__paint0_linear_176_1153)"/>
  <path d="M35.8158 12.058H27.1358V15.908C27.1358 16.44 27.4018 16.706 27.9338 16.706H34.9198C35.1718 16.706 35.4098 16.622 35.6058 16.454C35.8298 16.244 35.9698 15.404 36.0538 13.934L37.3558 14.354C37.1878 16.118 36.9498 17.168 36.6558 17.49C36.3198 17.798 35.8718 17.966 35.2978 17.994H27.5698C26.3798 17.994 25.7918 17.378 25.7918 16.146V8.86596H27.1358V10.784H34.4578V7.45196H25.2178V6.17796H35.8158V12.058ZM49.1718 7.39596L50.3758 7.98396C49.7738 9.18796 49.0598 10.224 48.2478 11.092L47.1838 10.336C47.9398 9.50996 48.6118 8.52996 49.1718 7.39596ZM45.0558 7.64796C45.4758 8.37596 45.8538 9.18796 46.1898 10.112L44.9018 10.434C44.6218 9.60796 44.2578 8.80996 43.8238 8.05396L45.0558 7.64796ZM41.2478 7.98396C41.7518 8.73996 42.1998 9.56596 42.5778 10.434L41.3598 10.98C40.9398 9.99996 40.4778 9.14596 39.9738 8.40396L41.2478 7.98396ZM49.8298 5.54796L50.4738 6.66796C47.7858 7.21396 44.2018 7.49396 39.7498 7.49396L39.3438 6.26196C43.4878 6.26196 46.9878 6.02396 49.8298 5.54796ZM39.3578 11.932H44.3418V10.728H45.6578V11.932H50.6558V13.22H46.7918C47.7438 14.508 49.2698 15.656 51.3978 16.664L50.4458 17.854C48.2058 16.468 46.6238 14.928 45.6998 13.22H45.6578V18.372H44.3418V13.22C43.3198 15.124 41.6678 16.692 39.3998 17.924L38.6438 16.678C40.7018 15.754 42.2278 14.606 43.2078 13.22H39.3578V11.932ZM56.8578 15.152H52.9238V13.934H58.3838V13.374H59.6998V13.934H65.0758V15.152H61.2398C62.1638 15.88 63.4938 16.468 65.2438 16.916L64.6698 18.092C62.4438 17.336 60.8478 16.356 59.8818 15.152H59.6998V18.456H58.3838V15.152H58.2018C57.3198 16.3 55.7378 17.308 53.4698 18.148L52.7698 17.014C54.6738 16.454 56.0458 15.824 56.8578 15.152ZM54.1978 9.34196C53.9178 9.64996 53.6098 9.95796 53.2878 10.266L52.5178 9.25796C53.6938 8.19396 54.5758 6.91996 55.1638 5.46396L56.4098 5.74396C56.2838 6.07996 56.1438 6.41596 55.9898 6.72396H58.6778C58.4958 6.33196 58.2998 5.96796 58.0898 5.63196L59.4478 5.40796C59.6298 5.79996 59.8118 6.23396 59.9938 6.72396H64.4038V7.81596H60.0638V8.52996H63.8438V9.53796H60.0638V10.224H63.8438V11.232H60.0638V11.974H64.6698V13.08H54.1978V9.34196ZM58.7618 11.974V11.232H55.4298V11.974H58.7618ZM58.7618 10.224V9.53796H55.4298V10.224H58.7618ZM58.7618 8.52996V7.81596H55.4298V8.52996H58.7618Z" fill="#fff"/>
  <defs>
    <linearGradient id="g0gc088to__paint0_linear_176_1153" x1="0" y1="0" x2="3.7716" y2="33.1331" gradientUnits="userSpaceOnUse">
      <stop stop-color="#3473D1"/>
      <stop offset="1" stop-color="#3263FE"/>
    </linearGradient>
  </defs>
</svg>
