<svg fill="none" xmlns="http://www.w3.org/2000/svg" viewBox="0 0 90 24" class="design-iconfont">
  <path d="M0 0H80L90 12L80 24H0L10 12L0 0Z" fill="url(#f16bwenr4__paint0_linear_176_1150)"/>
  <path d="M35.8158 12.058H27.1358V15.908C27.1358 16.44 27.4018 16.706 27.9338 16.706H34.9198C35.1718 16.706 35.4098 16.622 35.6058 16.454C35.8298 16.244 35.9698 15.404 36.0538 13.934L37.3558 14.354C37.1878 16.118 36.9498 17.168 36.6558 17.49C36.3198 17.798 35.8718 17.966 35.2978 17.994H27.5698C26.3798 17.994 25.7918 17.378 25.7918 16.146V8.86596H27.1358V10.784H34.4578V7.45196H25.2178V6.17796H35.8158V12.058ZM45.5318 7.88596C45.8678 8.47396 46.1898 9.13196 46.4978 9.84596H47.6878C48.0238 9.21596 48.3178 8.55796 48.5838 7.87196H43.5718V6.66796H46.4838C46.3438 6.30396 46.1898 5.95396 46.0218 5.63196L47.4078 5.40796C47.5478 5.78596 47.6878 6.20596 47.8278 6.66796H50.8938V7.87196H49.0738L49.8718 8.15196C49.6338 8.76796 49.3678 9.34196 49.0878 9.84596H51.1458V11.12H43.2498V9.84596H45.2238C44.9718 9.31396 44.7198 8.82396 44.4538 8.38996L45.5318 7.88596ZM40.2818 18.316H39.0638L38.7698 17.028C39.1338 17.07 39.4838 17.098 39.8198 17.098C40.1558 17.098 40.3238 16.93 40.3238 16.608V13.584C39.8198 13.78 39.3018 13.962 38.7838 14.13L38.4478 12.8C39.0918 12.646 39.7078 12.464 40.3238 12.24V9.36996H38.7278V8.09596H40.3238V5.56196H41.6678V8.09596H42.7178V9.36996H41.6678V11.68C42.0178 11.512 42.3678 11.33 42.7038 11.148V12.492C42.3538 12.674 42.0038 12.842 41.6678 13.01V16.944C41.6678 17.854 41.2058 18.316 40.2818 18.316ZM45.8398 11.344L47.1138 11.484C46.9878 11.806 46.8618 12.114 46.7358 12.408H51.3698V13.696H49.9138C49.7038 14.62 49.3118 15.418 48.7518 16.076C49.6198 16.468 50.4738 16.902 51.2998 17.364L50.5718 18.428C49.8158 17.952 48.8918 17.462 47.7998 16.958C46.8478 17.602 45.4058 18.12 43.4598 18.512L42.9418 17.308C44.3978 17.056 45.5458 16.734 46.3858 16.314C45.5738 15.964 44.7198 15.6 43.7958 15.236C44.1458 14.704 44.4538 14.186 44.7338 13.696H43.0678V12.408H45.3918C45.5598 12.03 45.7138 11.68 45.8398 11.344ZM48.6678 13.696H46.0638C45.8678 14.046 45.6438 14.382 45.4198 14.704C46.1478 14.956 46.8478 15.236 47.5478 15.544C48.0658 15.04 48.4438 14.424 48.6678 13.696ZM53.1898 15.754L52.7978 14.634C53.0218 14.55 53.1478 14.41 53.1478 14.228V6.75196H54.4498V14.172C55.0378 13.99 55.6118 13.794 56.1858 13.57V5.58996H57.4878V17.168C58.8738 16.496 59.9938 15.614 60.8338 14.55C60.1478 13.556 59.5738 12.492 59.1118 11.372C58.8738 11.736 58.6218 12.058 58.3698 12.366L57.5578 11.358C58.6638 9.90196 59.4198 7.94196 59.8118 5.47796L61.1418 5.70196C61.0298 6.34596 60.8898 6.96196 60.7498 7.53596H65.1738V8.83796H64.0678C63.9558 11.022 63.4098 12.912 62.4578 14.508C63.3258 15.6 64.3618 16.58 65.5378 17.448L64.6278 18.526C63.4798 17.658 62.4858 16.692 61.6458 15.642C60.7358 16.734 59.5878 17.658 58.1878 18.414L57.4878 17.28V18.344H56.1858V14.844C55.2338 15.18 54.2258 15.488 53.1898 15.754ZM60.3438 8.83796C60.2038 9.22996 60.0498 9.59396 59.8818 9.95796C60.3298 11.19 60.9178 12.324 61.6178 13.36C62.3178 12.072 62.7098 10.56 62.8078 8.83796H60.3438Z" fill="#fff"/>
  <defs>
    <linearGradient id="f16bwenr4__paint0_linear_176_1150" x1="0" y1="0" x2="3.7716" y2="33.1331" gradientUnits="userSpaceOnUse">
      <stop stop-color="#3473D1"/>
      <stop offset="1" stop-color="#3263FE"/>
    </linearGradient>
  </defs>
</svg>
