<svg xmlns="http://www.w3.org/2000/svg" fill="none" viewBox="0 0 90 24" class="design-iconfont">
  <path d="M0 0H80L90 12L80 24H0L10 12L0 0Z" fill="#EEF0F6"/>
  <path d="M35.816 12.058H27.136V15.908C27.136 16.44 27.402 16.706 27.934 16.706H34.92C35.172 16.706 35.41 16.622 35.606 16.454C35.83 16.244 35.97 15.404 36.054 13.934L37.356 14.354C37.188 16.118 36.95 17.168 36.656 17.49C36.32 17.798 35.872 17.966 35.298 17.994H27.57C26.38 17.994 25.792 17.378 25.792 16.146V8.866H27.136V10.784H34.458V7.452H25.218V6.178H35.816V12.058ZM45.532 7.886C45.868 8.474 46.19 9.132 46.498 9.846H47.688C48.024 9.216 48.318 8.558 48.584 7.872H43.572V6.668H46.484C46.344 6.304 46.19 5.954 46.022 5.632L47.408 5.408C47.548 5.786 47.688 6.206 47.828 6.668H50.894V7.872H49.074L49.872 8.152C49.634 8.768 49.368 9.342 49.088 9.846H51.146V11.12H43.25V9.846H45.224C44.972 9.314 44.72 8.824 44.454 8.39L45.532 7.886ZM40.282 18.316H39.064L38.77 17.028C39.134 17.07 39.484 17.098 39.82 17.098C40.156 17.098 40.324 16.93 40.324 16.608V13.584C39.82 13.78 39.302 13.962 38.784 14.13L38.448 12.8C39.092 12.646 39.708 12.464 40.324 12.24V9.37H38.728V8.096H40.324V5.562H41.668V8.096H42.718V9.37H41.668V11.68C42.018 11.512 42.368 11.33 42.704 11.148V12.492C42.354 12.674 42.004 12.842 41.668 13.01V16.944C41.668 17.854 41.206 18.316 40.282 18.316ZM45.84 11.344L47.114 11.484C46.988 11.806 46.862 12.114 46.736 12.408H51.37V13.696H49.914C49.704 14.62 49.312 15.418 48.752 16.076C49.62 16.468 50.474 16.902 51.3 17.364L50.572 18.428C49.816 17.952 48.892 17.462 47.8 16.958C46.848 17.602 45.406 18.12 43.46 18.512L42.942 17.308C44.398 17.056 45.546 16.734 46.386 16.314C45.574 15.964 44.72 15.6 43.796 15.236C44.146 14.704 44.454 14.186 44.734 13.696H43.068V12.408H45.392C45.56 12.03 45.714 11.68 45.84 11.344ZM48.668 13.696H46.064C45.868 14.046 45.644 14.382 45.42 14.704C46.148 14.956 46.848 15.236 47.548 15.544C48.066 15.04 48.444 14.424 48.668 13.696ZM53.19 15.754L52.798 14.634C53.022 14.55 53.148 14.41 53.148 14.228V6.752H54.45V14.172C55.038 13.99 55.612 13.794 56.186 13.57V5.59H57.488V17.168C58.874 16.496 59.994 15.614 60.834 14.55C60.148 13.556 59.574 12.492 59.112 11.372C58.874 11.736 58.622 12.058 58.37 12.366L57.558 11.358C58.664 9.902 59.42 7.942 59.812 5.478L61.142 5.702C61.03 6.346 60.89 6.962 60.75 7.536H65.174V8.838H64.068C63.956 11.022 63.41 12.912 62.458 14.508C63.326 15.6 64.362 16.58 65.538 17.448L64.628 18.526C63.48 17.658 62.486 16.692 61.646 15.642C60.736 16.734 59.588 17.658 58.188 18.414L57.488 17.28V18.344H56.186V14.844C55.234 15.18 54.226 15.488 53.19 15.754ZM60.344 8.838C60.204 9.23 60.05 9.594 59.882 9.958C60.33 11.19 60.918 12.324 61.618 13.36C62.318 12.072 62.71 10.56 62.808 8.838H60.344Z" fill="#A8AAB4"/>
</svg>
