<svg fill="none" xmlns="http://www.w3.org/2000/svg" viewBox="0 0 90 24" class="design-iconfont">
  <path d="M0 0H80L90 12L80 24H0L10 12L0 0Z" fill="url(#m30jcqyjr__paint0_linear_176_1151)"/>
  <path d="M35.8158 12.0579H27.1358V15.9079C27.1358 16.4399 27.4018 16.7059 27.9338 16.7059H34.9198C35.1718 16.7059 35.4098 16.6219 35.6058 16.4539C35.8298 16.2439 35.9698 15.4039 36.0538 13.9339L37.3558 14.3539C37.1878 16.1179 36.9498 17.1679 36.6558 17.4899C36.3198 17.7979 35.8718 17.9659 35.2978 17.9939H27.5698C26.3798 17.9939 25.7918 17.3779 25.7918 16.1459V8.86594H27.1358V10.7839H34.4578V7.45194H25.2178V6.17794H35.8158V12.0579ZM42.9698 9.60794H46.6378V5.50594H48.0098V9.60794H51.4818V10.9239H48.0098V18.4699H46.6378V10.9239H42.9698V9.60794ZM40.4218 5.63194C41.3318 6.31794 42.1018 7.00394 42.7318 7.70394L41.8218 8.62794C41.2618 7.96994 40.4918 7.26994 39.4978 6.54194L40.4218 5.63194ZM38.5738 9.69194H41.8078V15.6559C42.2558 15.2919 42.7178 14.8719 43.2078 14.4099L43.5578 15.7679C42.6618 16.6079 41.6958 17.3639 40.6738 18.0219L40.1698 16.8319C40.4078 16.6359 40.5338 16.3979 40.5338 16.1179V10.9659H38.5738V9.69194ZM55.1778 8.89394L54.9818 9.57994H56.6478C56.7038 9.35594 56.7458 9.13194 56.7738 8.89394H55.1778ZM58.0618 8.89394C58.0478 9.13194 58.0198 9.35594 57.9778 9.57994H59.8818V8.89394H58.0618ZM61.1698 8.89394V9.57994H64.8658C64.8658 10.6719 64.7538 11.3579 64.5298 11.6519C64.3058 11.9599 63.7878 12.1139 62.9758 12.1279C62.7518 12.1279 62.5278 12.1139 62.3178 12.0999L62.0798 11.1899C62.3318 11.2179 62.5838 11.2319 62.8218 11.2319C63.1858 11.2319 63.4098 11.1759 63.4938 11.0779C63.5638 10.9659 63.6058 10.8119 63.6058 10.5879H61.1698V12.0439H59.8818V10.5879H57.6278C57.4458 10.9239 57.2358 11.2319 56.9838 11.4839C56.6618 11.7919 56.2418 12.0579 55.7238 12.3099H63.7178V16.2019H62.4018V13.4859H55.9618V16.2019H54.6598V12.7019C54.3798 12.7859 54.0858 12.8699 53.7778 12.9399L53.1058 11.9039C54.5198 11.5959 55.4718 11.2039 55.9758 10.7279C56.0318 10.6719 56.0738 10.6159 56.1018 10.5879H53.5538L54.0998 7.87194H56.7878V7.18594H53.6798V6.10794H56.7878V5.49194H58.0758V6.10794H59.8818V5.49194H61.1698V6.10794H64.1378V8.89394H61.1698ZM58.0758 7.18594V7.87194H59.8818V7.18594H58.0758ZM61.1698 7.18594V7.87194H62.9058V7.18594H61.1698ZM60.0358 15.9219C61.8418 16.3419 63.4938 16.8459 64.9778 17.4479L64.2498 18.5539C62.6678 17.8539 61.0438 17.3219 59.3638 16.9299L60.0358 15.9219ZM58.4818 13.8359L59.7978 13.9619C59.6158 15.5719 59.1958 16.6359 58.5378 17.1679C57.8378 17.8399 56.1858 18.2879 53.5818 18.4839L53.0498 17.2939C55.2478 17.1959 56.7038 16.9019 57.4038 16.3979C58.0198 15.8939 58.3698 15.0399 58.4818 13.8359Z" fill="#fff"/>
  <defs>
    <linearGradient id="m30jcqyjr__paint0_linear_176_1151" x1="0" y1="0" x2="3.7716" y2="33.1331" gradientUnits="userSpaceOnUse">
      <stop stop-color="#3473D1"/>
      <stop offset="1" stop-color="#3263FE"/>
    </linearGradient>
  </defs>
</svg>
