<svg xmlns="http://www.w3.org/2000/svg" fill="none" viewBox="0 0 90 24" class="design-iconfont">
  <path d="M0 0H80L90 12L80 24H0L10 12L0 0Z" fill="#EEF0F6"/>
  <path d="M35.816 12.058H27.136V15.908C27.136 16.44 27.402 16.706 27.934 16.706H34.92C35.172 16.706 35.41 16.622 35.606 16.454C35.83 16.244 35.97 15.404 36.054 13.934L37.356 14.354C37.188 16.118 36.95 17.168 36.656 17.49C36.32 17.798 35.872 17.966 35.298 17.994H27.57C26.38 17.994 25.792 17.378 25.792 16.146V8.866H27.136V10.784H34.458V7.452H25.218V6.178H35.816V12.058ZM42.97 9.608H46.638V5.506H48.01V9.608H51.482V10.924H48.01V18.47H46.638V10.924H42.97V9.608ZM40.422 5.632C41.332 6.318 42.102 7.004 42.732 7.704L41.822 8.628C41.262 7.97 40.492 7.27 39.498 6.542L40.422 5.632ZM38.574 9.692H41.808V15.656C42.256 15.292 42.718 14.872 43.208 14.41L43.558 15.768C42.662 16.608 41.696 17.364 40.674 18.022L40.17 16.832C40.408 16.636 40.534 16.398 40.534 16.118V10.966H38.574V9.692ZM55.178 8.894L54.982 9.58H56.648C56.704 9.356 56.746 9.132 56.774 8.894H55.178ZM58.062 8.894C58.048 9.132 58.02 9.356 57.978 9.58H59.882V8.894H58.062ZM61.17 8.894V9.58H64.866C64.866 10.672 64.754 11.358 64.53 11.652C64.306 11.96 63.788 12.114 62.976 12.128C62.752 12.128 62.528 12.114 62.318 12.1L62.08 11.19C62.332 11.218 62.584 11.232 62.822 11.232C63.186 11.232 63.41 11.176 63.494 11.078C63.564 10.966 63.606 10.812 63.606 10.588H61.17V12.044H59.882V10.588H57.628C57.446 10.924 57.236 11.232 56.984 11.484C56.662 11.792 56.242 12.058 55.724 12.31H63.718V16.202H62.402V13.486H55.962V16.202H54.66V12.702C54.38 12.786 54.086 12.87 53.778 12.94L53.106 11.904C54.52 11.596 55.472 11.204 55.976 10.728C56.032 10.672 56.074 10.616 56.102 10.588H53.554L54.1 7.872H56.788V7.186H53.68V6.108H56.788V5.492H58.076V6.108H59.882V5.492H61.17V6.108H64.138V8.894H61.17ZM58.076 7.186V7.872H59.882V7.186H58.076ZM61.17 7.186V7.872H62.906V7.186H61.17ZM60.036 15.922C61.842 16.342 63.494 16.846 64.978 17.448L64.25 18.554C62.668 17.854 61.044 17.322 59.364 16.93L60.036 15.922ZM58.482 13.836L59.798 13.962C59.616 15.572 59.196 16.636 58.538 17.168C57.838 17.84 56.186 18.288 53.582 18.484L53.05 17.294C55.248 17.196 56.704 16.902 57.404 16.398C58.02 15.894 58.37 15.04 58.482 13.836Z" fill="#A8AAB4"/>
</svg>
