<svg xmlns="http://www.w3.org/2000/svg" fill="none" viewBox="0 0 80 24" class="design-iconfont">
  <path d="M0 0H80V12V24H0L10 12L0 0Z" fill="#EEF0F6"/>
  <path d="M35.816 12.058H27.136V15.908C27.136 16.44 27.402 16.706 27.934 16.706H34.92C35.172 16.706 35.41 16.622 35.606 16.454C35.83 16.244 35.97 15.404 36.054 13.934L37.356 14.354C37.188 16.118 36.95 17.168 36.656 17.49C36.32 17.798 35.872 17.966 35.298 17.994H27.57C26.38 17.994 25.792 17.378 25.792 16.146V8.866H27.136V10.784H34.458V7.452H25.218V6.178H35.816V12.058ZM43.46 10.994V12.31C42.956 12.562 42.466 12.786 41.962 12.996V17C41.962 17.924 41.514 18.4 40.618 18.4H39.302L38.994 17.126C39.4 17.182 39.778 17.21 40.142 17.21C40.478 17.21 40.66 17.028 40.66 16.678V13.514C40.044 13.738 39.428 13.948 38.812 14.144L38.476 12.828C39.218 12.66 39.946 12.464 40.66 12.212V9.258H38.742V7.984H40.66V5.562H41.962V7.984H43.418V9.258H41.962V11.708C42.466 11.484 42.97 11.246 43.46 10.994ZM45.294 12.226V18.442H44.034V6.01H50.488C50.488 7.662 50.39 8.754 50.222 9.3C50.04 9.832 49.48 10.098 48.542 10.098H47.492L47.128 8.95C47.338 8.95 47.604 8.964 47.94 8.964C48.262 8.964 48.514 8.95 48.682 8.922C48.822 8.88 48.948 8.782 49.032 8.642C49.13 8.432 49.186 7.956 49.214 7.214H45.294V11.008H50.586V12.156C50.362 13.598 49.914 14.83 49.242 15.838C49.886 16.426 50.642 16.958 51.538 17.434L50.642 18.47C49.802 17.938 49.088 17.392 48.486 16.804C47.842 17.49 47.058 18.05 46.162 18.484L45.518 17.322C46.33 16.93 47.016 16.426 47.576 15.81C46.68 14.704 46.134 13.514 45.91 12.226H45.294ZM47.1 12.226C47.282 13.178 47.688 14.046 48.318 14.844C48.78 14.088 49.116 13.206 49.34 12.226H47.1ZM63.732 13.122V18.428H62.388V17.756H55.696V18.428H54.352V13.122H63.732ZM55.696 16.51H62.388V14.382H55.696V16.51ZM55.374 8.656C54.898 9.3 54.352 9.874 53.722 10.392L52.924 9.342C54.156 8.348 54.996 7.13 55.444 5.674L56.76 5.842C56.592 6.388 56.396 6.906 56.158 7.382H58.51V5.506H59.84V7.382H64.306V8.656H59.84V10.588H65.37V11.89H52.63V10.588H58.51V8.656H55.374Z" fill="#A8AAB4"/>
</svg>
