<svg fill="none" xmlns="http://www.w3.org/2000/svg" viewBox="0 0 80 24" class="design-iconfont">
  <path d="M0 0H80V12V24H0L10 12L0 0Z" fill="url(#0r174soo6__paint0_linear_176_1152)"/>
  <path d="M35.8158 12.0581H27.1358V15.9081C27.1358 16.4401 27.4018 16.7061 27.9338 16.7061H34.9198C35.1718 16.7061 35.4098 16.6221 35.6058 16.4541C35.8298 16.2441 35.9698 15.4041 36.0538 13.9341L37.3558 14.3541C37.1878 16.1181 36.9498 17.1681 36.6558 17.4901C36.3198 17.7981 35.8718 17.9661 35.2978 17.9941H27.5698C26.3798 17.9941 25.7918 17.3781 25.7918 16.1461V8.8661H27.1358V10.7841H34.4578V7.4521H25.2178V6.1781H35.8158V12.0581ZM43.4598 10.9941V12.3101C42.9558 12.5621 42.4658 12.7861 41.9618 12.9961V17.0001C41.9618 17.9241 41.5138 18.4001 40.6178 18.4001H39.3018L38.9938 17.1261C39.3998 17.1821 39.7778 17.2101 40.1418 17.2101C40.4778 17.2101 40.6598 17.0281 40.6598 16.6781V13.5141C40.0438 13.7381 39.4278 13.9481 38.8118 14.1441L38.4758 12.8281C39.2178 12.6601 39.9458 12.4641 40.6598 12.2121V9.2581H38.7418V7.9841H40.6598V5.5621H41.9618V7.9841H43.4178V9.2581H41.9618V11.7081C42.4658 11.4841 42.9698 11.2461 43.4598 10.9941ZM45.2938 12.2261V18.4421H44.0338V6.0101H50.4878C50.4878 7.6621 50.3898 8.7541 50.2218 9.3001C50.0398 9.8321 49.4798 10.0981 48.5418 10.0981H47.4918L47.1278 8.9501C47.3378 8.9501 47.6038 8.9641 47.9398 8.9641C48.2618 8.9641 48.5138 8.9501 48.6818 8.9221C48.8218 8.8801 48.9478 8.7821 49.0318 8.6421C49.1298 8.4321 49.1858 7.9561 49.2138 7.2141H45.2938V11.0081H50.5858V12.1561C50.3618 13.5981 49.9138 14.8301 49.2418 15.8381C49.8858 16.4261 50.6418 16.9581 51.5378 17.4341L50.6418 18.4701C49.8018 17.9381 49.0878 17.3921 48.4858 16.8041C47.8418 17.4901 47.0578 18.0501 46.1618 18.4841L45.5178 17.3221C46.3298 16.9301 47.0158 16.4261 47.5758 15.8101C46.6798 14.7041 46.1338 13.5141 45.9098 12.2261H45.2938ZM47.0998 12.2261C47.2818 13.1781 47.6878 14.0461 48.3178 14.8441C48.7798 14.0881 49.1158 13.2061 49.3398 12.2261H47.0998ZM63.7318 13.1221V18.4281H62.3878V17.7561H55.6958V18.4281H54.3518V13.1221H63.7318ZM55.6958 16.5101H62.3878V14.3821H55.6958V16.5101ZM55.3738 8.6561C54.8978 9.3001 54.3518 9.8741 53.7218 10.3921L52.9238 9.3421C54.1558 8.3481 54.9958 7.1301 55.4438 5.6741L56.7598 5.8421C56.5918 6.3881 56.3958 6.9061 56.1578 7.3821H58.5098V5.5061H59.8398V7.3821H64.3058V8.6561H59.8398V10.5881H65.3698V11.8901H52.6298V10.5881H58.5098V8.6561H55.3738Z" fill="#fff"/>
  <defs>
    <linearGradient id="0r174soo6__paint0_linear_176_1152" x1="0" y1="0" x2="4.22868" y2="33.0209" gradientUnits="userSpaceOnUse">
      <stop stop-color="#3473D1"/>
      <stop offset="1" stop-color="#3263FE"/>
    </linearGradient>
  </defs>
</svg>
