<svg fill="none" xmlns="http://www.w3.org/2000/svg" viewBox="0 0 16 16" class="design-iconfont">
  <path d="M8.81611 0.6875C9.26411 0.6875 9.56811 0.794167 9.72811 1.0075C9.88811 1.22083 9.96811 1.56217 9.96811 2.0315C9.96811 2.24483 9.97077 2.58083 9.97611 3.0395C9.98144 3.49817 9.98411 3.98617 9.98411 4.5035C9.98411 5.02083 9.98677 5.52483 9.99211 6.0155C9.99744 6.50617 10.0001 6.8955 10.0001 7.1835C10.0001 7.58883 10.0401 7.9115 10.1201 8.1515C10.2001 8.3915 10.3841 8.50617 10.6721 8.4955C10.8748 8.4955 11.1254 8.50083 11.4241 8.5115C11.7228 8.52217 11.9788 8.5275 12.1921 8.5275C12.5654 8.5275 12.8028 8.62617 12.9041 8.8235C13.0054 9.02083 12.9334 9.2795 12.6881 9.5995C12.4321 9.9195 12.1334 10.2982 11.7921 10.7355C11.4508 11.1728 11.0961 11.6208 10.7281 12.0795C10.3601 12.5382 10.0001 12.9888 9.64811 13.4315C9.29611 13.8742 8.98677 14.2662 8.72011 14.6075C8.47477 14.9168 8.23744 15.0768 8.00811 15.0875C7.77877 15.0982 7.54144 14.9542 7.29611 14.6555C7.04011 14.3462 6.74144 13.9835 6.40011 13.5675C6.05877 13.1515 5.70944 12.7222 5.35211 12.2795C4.99477 11.8368 4.64277 11.3995 4.29611 10.9675C3.94944 10.5355 3.63744 10.1488 3.36011 9.8075C3.05077 9.43417 2.93344 9.1275 3.00811 8.8875C3.08277 8.6475 3.31211 8.5275 3.69611 8.5275H4.08011C4.22944 8.5275 4.38411 8.52483 4.54411 8.5195C4.70411 8.51417 4.86144 8.50617 5.01611 8.4955C5.17077 8.48483 5.30677 8.4795 5.42411 8.4795C5.70144 8.4795 5.87211 8.3995 5.93611 8.2395C6.00011 8.0795 6.03211 7.86083 6.03211 7.5835C6.03211 7.27417 6.02944 6.86883 6.02411 6.3675C6.01877 5.86617 6.01611 5.3435 6.01611 4.7995C6.01611 4.2555 6.01344 3.7275 6.00811 3.2155C6.00277 2.7035 6.00011 2.2875 6.00011 1.9675C6.00011 1.82883 6.01077 1.68483 6.03211 1.5355C6.05344 1.38617 6.10411 1.25017 6.18411 1.1275C6.26411 1.00483 6.37344 0.9035 6.51211 0.8235C6.65077 0.7435 6.84277 0.7035 7.08811 0.7035C7.37611 0.7035 7.65344 0.700833 7.92011 0.6955C8.18677 0.690167 8.48544 0.6875 8.81611 0.6875Z" fill="#3263FE"/>
</svg>
