<svg xmlns="http://www.w3.org/2000/svg" fill="none" viewBox="0 0 18 18" class="design-iconfont">
  <path d="M9 15.6094C12.6503 15.6094 15.6094 12.6503 15.6094 9C15.6094 5.34973 12.6503 2.39062 9 2.39062C5.34973 2.39062 2.39062 5.34973 2.39062 9C2.39062 12.6503 5.34973 15.6094 9 15.6094ZM9 16.875C4.65075 16.875 1.125 13.3492 1.125 9C1.125 4.65075 4.65075 1.125 9 1.125C13.3492 1.125 16.875 4.65075 16.875 9C16.875 13.3492 13.3492 16.875 9 16.875Z" fill="#3263FE"/>
  <path d="M4.21875 9C4.21875 9.29837 4.33728 9.58452 4.54826 9.79549C4.75923 10.0065 5.04538 10.125 5.34375 10.125C5.64212 10.125 5.92827 10.0065 6.13924 9.79549C6.35022 9.58452 6.46875 9.29837 6.46875 9C6.46875 8.70163 6.35022 8.41548 6.13924 8.20451C5.92827 7.99353 5.64212 7.875 5.34375 7.875C5.04538 7.875 4.75923 7.99353 4.54826 8.20451C4.33728 8.41548 4.21875 8.70163 4.21875 9Z" fill="#3263FE"/>
  <path d="M7.875 9C7.875 9.29837 7.99353 9.58452 8.20451 9.79549C8.41548 10.0065 8.70163 10.125 9 10.125C9.29837 10.125 9.58452 10.0065 9.79549 9.79549C10.0065 9.58452 10.125 9.29837 10.125 9C10.125 8.70163 10.0065 8.41548 9.79549 8.20451C9.58452 7.99353 9.29837 7.875 9 7.875C8.70163 7.875 8.41548 7.99353 8.20451 8.20451C7.99353 8.41548 7.875 8.70163 7.875 9Z" fill="#3263FE"/>
  <path d="M11.5312 9C11.5312 9.29837 11.6498 9.58452 11.8608 9.79549C12.0717 10.0065 12.3579 10.125 12.6562 10.125C12.9546 10.125 13.2408 10.0065 13.4517 9.79549C13.6627 9.58452 13.7812 9.29837 13.7812 9C13.7812 8.70163 13.6627 8.41548 13.4517 8.20451C13.2408 7.99353 12.9546 7.875 12.6562 7.875C12.3579 7.875 12.0717 7.99353 11.8608 8.20451C11.6498 8.41548 11.5312 8.70163 11.5312 9Z" fill="#3263FE"/>
</svg>
