<svg xmlns="http://www.w3.org/2000/svg" fill="none" viewBox="0 0 10 10" class="design-iconfont">
  <g clip-path="url(#gxwl0lfsz__clip0_1514_4938)">
    <path d="M1.7165 4.78073L1.76 4.8201L5 8.0601L8.24 4.8201C8.341 4.71906 8.47613 4.65942 8.61885 4.6529C8.76157 4.64638 8.90158 4.69344 9.01138 4.78485L9.04963 4.8201C9.25963 5.0301 9.27275 5.3616 9.089 5.5866L9.04963 5.6301L5.40463 9.2751C5.19538 9.48473 4.8635 9.49785 4.6385 9.3141L4.595 9.27473L0.950001 5.62973C0.846007 5.52595 0.78588 5.38617 0.782056 5.23931C0.778232 5.09244 0.831004 4.94972 0.929456 4.84067C1.02791 4.73162 1.16451 4.66459 1.311 4.65343C1.45749 4.64227 1.60267 4.68785 1.7165 4.78073ZM9.01138 0.659854L9.04963 0.695104C9.25963 0.905104 9.27275 1.2366 9.089 1.4616L9.04963 1.5051L5.40463 5.1501C5.19538 5.35973 4.8635 5.37285 4.6385 5.1891L4.595 5.14973L0.950001 1.5051C0.845232 1.40146 0.784456 1.26141 0.780316 1.1141C0.776177 0.966785 0.828994 0.823547 0.927778 0.714184C1.02656 0.604821 1.16371 0.537754 1.31068 0.526937C1.45766 0.516119 1.60314 0.562383 1.71688 0.656104L1.76 0.695104L5 3.9351L8.24 0.695104C8.341 0.594058 8.47613 0.53442 8.61885 0.527898C8.76157 0.521376 8.90158 0.568441 9.01138 0.659854Z" fill="#3263FE"/>
  </g>
  <defs>
    <clipPath id="gxwl0lfsz__clip0_1514_4938">
      <path fill="#fff" transform="translate(.5 .5)" d="M0 0H9V9H0z"/>
    </clipPath>
  </defs>
</svg>
