<svg xmlns="http://www.w3.org/2000/svg" fill="none" viewBox="0 0 12 12" class="design-iconfont">
  <g clip-path="url(#e89o74ehh__clip0_1514_4968)">
    <path d="M6.02944 6.3061C5.91754 6.30618 5.8068 6.28327 5.70412 6.23878L1.39528 4.3681C1.24895 4.30477 1.12437 4.19995 1.03695 4.0666C0.949527 3.93324 0.903091 3.7772 0.903378 3.61775C0.903665 3.4583 0.950663 3.30242 1.03856 3.16938C1.12647 3.03635 1.25142 2.93198 1.39798 2.86918L5.71318 0.903996C5.81409 0.861861 5.92239 0.840301 6.03174 0.840579C6.14108 0.840857 6.24928 0.862969 6.34996 0.905616L6.36046 0.910297L10.6038 2.87086C10.7494 2.93411 10.8734 3.03844 10.9605 3.17107C11.0477 3.3037 11.0943 3.45887 11.0946 3.61758C11.0949 3.77628 11.049 3.93164 10.9624 4.06463C10.8757 4.19761 10.7522 4.30245 10.6069 4.3663L6.3589 6.23674C6.25509 6.28248 6.14289 6.3061 6.02944 6.3061ZM6.00916 5.53696C6.01564 5.53977 6.02262 5.54122 6.02968 5.54122C6.03674 5.54122 6.04373 5.53977 6.0502 5.53696L10.2982 3.66652C10.3073 3.66249 10.3151 3.65589 10.3206 3.64751C10.326 3.63913 10.3289 3.62934 10.3288 3.61935C10.3288 3.60936 10.3258 3.5996 10.3203 3.59128C10.3147 3.58295 10.3069 3.57642 10.2977 3.5725L10.2871 3.56782L6.04702 1.60882C6.03584 1.60486 6.02364 1.60486 6.01246 1.60882L1.70092 3.57208C1.69168 3.57597 1.68379 3.5825 1.67822 3.59084C1.67265 3.59918 1.66965 3.60897 1.66959 3.619C1.66953 3.62903 1.67242 3.63885 1.67789 3.64726C1.68337 3.65566 1.69119 3.66227 1.70038 3.66628L6.00916 5.53696ZM6.03208 8.68996C5.91499 8.69001 5.79914 8.66601 5.6917 8.61946L1.01056 6.5872C0.964469 6.56716 0.922772 6.53825 0.887853 6.5021C0.852934 6.46595 0.825477 6.42328 0.807049 6.37652C0.769833 6.28209 0.771654 6.17674 0.812113 6.08365C0.852572 5.99056 0.928353 5.91735 1.02279 5.88013C1.11722 5.84292 1.22257 5.84474 1.31566 5.8852L5.99674 7.91728C6.00798 7.92216 6.0201 7.92468 6.03235 7.92468C6.04461 7.92468 6.05673 7.92216 6.06796 7.91728L10.6829 5.8852C10.7289 5.86461 10.7785 5.85333 10.8289 5.85199C10.8793 5.85065 10.9295 5.85929 10.9765 5.8774C11.0236 5.89552 11.0666 5.92275 11.1031 5.95754C11.1396 5.99233 11.1688 6.03399 11.1892 6.08012C11.2095 6.12626 11.2205 6.17595 11.2216 6.22636C11.2227 6.27677 11.2138 6.32689 11.1954 6.37384C11.177 6.4208 11.1496 6.46366 11.1146 6.49996C11.0796 6.53627 11.0378 6.5653 10.9916 6.5854L6.37666 8.61754C6.26806 8.66527 6.15071 8.68987 6.03208 8.68978V8.68996ZM6.03208 11.1003C5.91499 11.1004 5.79913 11.0764 5.6917 11.0298L1.01056 8.99752C0.917472 8.95706 0.844266 8.88128 0.807049 8.78684C0.769833 8.69241 0.771654 8.58706 0.812113 8.49397C0.852572 8.40088 0.928353 8.32767 1.02279 8.29045C1.11722 8.25324 1.22257 8.25506 1.31566 8.29552L5.99674 10.3275C6.00798 10.3324 6.0201 10.3349 6.03235 10.3349C6.04461 10.3349 6.05673 10.3324 6.06796 10.3275L10.6829 8.29546C10.7288 8.27519 10.7783 8.26417 10.8286 8.26304C10.8788 8.2619 10.9288 8.27067 10.9756 8.28885C11.0224 8.30702 11.0652 8.33424 11.1016 8.36896C11.1379 8.40368 11.167 8.4452 11.1873 8.49118C11.2076 8.53715 11.2186 8.58666 11.2197 8.63689C11.2208 8.68712 11.2121 8.73708 11.1939 8.78392C11.1757 8.83076 11.1485 8.87356 11.1138 8.90988C11.0791 8.9462 11.0375 8.97533 10.9916 8.9956L6.37666 11.0281C6.26804 11.0757 6.15069 11.1002 6.03208 11.1001V11.1003Z" fill="#3263FE"/>
  </g>
  <defs>
    <clipPath id="e89o74ehh__clip0_1514_4968">
      <path fill="#fff" d="M0 0H12V12H0z"/>
    </clipPath>
  </defs>
</svg>
