<svg xmlns="http://www.w3.org/2000/svg" fill="none" viewBox="0 0 12 12" class="design-iconfont">
  <g clip-path="url(#nve9940ek__clip0_1514_4913)" fill="#fff">
    <path d="M9.38462 11.0401H2.25536C1.91192 11.0397 1.58266 10.9031 1.33981 10.6602C1.09697 10.4173 0.960387 10.0881 0.960022 9.74461V2.61529C0.960451 2.27189 1.09707 1.94267 1.3399 1.69986C1.58273 1.45705 1.91196 1.32047 2.25536 1.32007H6.6803V2.11273H2.25536C2.12212 2.11289 1.99438 2.1659 1.90017 2.26013C1.80597 2.35435 1.75299 2.48211 1.75286 2.61535V9.74461C1.75299 9.87785 1.80597 10.0056 1.90018 10.0998C1.99439 10.194 2.12212 10.247 2.25536 10.2472H9.38462C9.51786 10.247 9.6456 10.194 9.73981 10.0998C9.83402 10.0056 9.88702 9.87785 9.88718 9.74461V5.46133H10.68V9.74461C10.6797 10.0881 10.5431 10.4173 10.3002 10.6602C10.0574 10.9031 9.72808 11.0397 9.38462 11.0401Z"/>
    <path d="M10.8615 2.19556L9.81201 1.1461C9.6929 1.02737 9.53157 0.960693 9.36339 0.960693C9.19521 0.960693 9.03388 1.02737 8.91477 1.1461L4.48077 5.58046C4.40638 5.6549 4.35162 5.74664 4.32141 5.84746L3.85839 7.3981C3.82506 7.50925 3.82286 7.62741 3.85204 7.73972C3.88121 7.85203 3.94064 7.95418 4.02385 8.03506C4.10707 8.11593 4.21087 8.17242 4.32397 8.19839C4.43707 8.22435 4.55512 8.21878 4.66527 8.1823L6.17517 7.6837C6.2692 7.6525 6.35466 7.5998 6.42477 7.5298L10.8614 3.09286C10.9802 2.97378 11.047 2.81244 11.047 2.64422C11.047 2.476 10.9803 2.31465 10.8615 2.19556ZM4.95543 6.44056L5.57739 7.06252L4.68135 7.35844L4.95543 6.44056ZM6.23463 6.62056L5.38713 5.77318L8.46513 2.69518L9.31269 3.5428L6.23463 6.62056ZM9.86199 2.99296L9.01437 2.14558L9.36339 1.79656L10.2109 2.64424L9.86199 2.99296Z"/>
  </g>
  <defs>
    <clipPath id="nve9940ek__clip0_1514_4913">
      <path fill="#fff" d="M0 0H12V12H0z"/>
    </clipPath>
  </defs>
</svg>
