<svg xmlns="http://www.w3.org/2000/svg" fill="none" viewBox="0 0 12 12" class="design-iconfont">
  <g clip-path="url(#of6wkbjz1__clip0_1503_4609)">
    <path d="M2.6958 6.55687C2.67928 6.77589 2.84346 6.96667 3.06248 6.98319H9.24846C9.44451 6.96843 9.60037 6.81257 9.61514 6.61651C9.63166 6.39749 9.46748 6.20671 9.24846 6.19019H3.06236C2.86631 6.20495 2.71045 6.36081 2.6958 6.55687ZM9.30072 8.96589H3.0101C2.81404 8.98065 2.65818 9.13651 2.64342 9.33257C2.6269 9.55159 2.79107 9.74237 3.0101 9.7589H9.30072C9.49678 9.74413 9.65264 9.58827 9.6674 9.39222C9.68381 9.17331 9.51963 8.98241 9.30072 8.96589Z" fill="#FF813B"/>
    <path d="M11.3787 4.08632C11.3787 3.9403 11.3605 3.82686 11.2624 3.73792L7.22084 0.0756927C7.15545 0.0103021 6.98741 0.0229583 6.81678 0.0229583C6.80741 0.0229583 6.79991 0.0230755 6.79182 0.0230755H2.24928C1.46881 0.0459271 0.855103 0.658349 0.877485 1.39229V10.6111C0.85522 11.345 1.46881 11.9575 2.2494 11.9803H9.98237C10.7628 11.9576 11.3765 11.345 11.3543 10.6111L11.3787 4.08632ZM7.34565 1.35913L9.83952 3.64194L8.27389 3.64335C7.74737 3.62448 7.33229 3.1821 7.34752 2.65487C7.34764 2.651 7.34764 2.64726 7.34764 2.64339L7.34565 1.35913ZM10.4529 11.0178C10.3326 11.1455 10.1569 11.2227 9.96948 11.2304H2.26206C2.07467 11.2227 1.89889 11.1456 1.77866 11.0178C1.70647 10.9412 1.62163 10.8124 1.62702 10.6339L1.62737 10.6226V1.38093L1.62702 1.36956C1.62163 1.19108 1.70647 1.06229 1.77866 0.985654C1.89889 0.858036 2.07467 0.78081 2.26206 0.773075H6.59459L6.59764 2.63917C6.57362 3.57843 7.31659 4.36464 8.25643 4.39311C8.2603 4.39323 8.26405 4.39323 8.26792 4.39323L10.6276 4.39112L10.6043 10.6083V10.621L10.6046 10.6338C10.61 10.8124 10.5251 10.9412 10.4529 11.0178Z" fill="#3263FE"/>
    <path d="M5.22024 3.37451H3.02216C2.81509 3.37451 2.64716 3.20658 2.64716 2.99951C2.64716 2.79244 2.81509 2.62451 3.02216 2.62451H5.22024C5.42731 2.62451 5.59524 2.79244 5.59524 2.99951C5.59524 3.20658 5.42731 3.37451 5.22024 3.37451Z" fill="#FF813B"/>
    <path d="M4.12115 4.47348C3.91408 4.47348 3.74615 4.30555 3.74615 4.09848V1.90039C3.74615 1.69332 3.91408 1.52539 4.12115 1.52539C4.32823 1.52539 4.49615 1.69332 4.49615 1.90039V4.09848C4.49615 4.30555 4.32834 4.47348 4.12115 4.47348Z" fill="#FF813B"/>
  </g>
  <defs>
    <clipPath id="of6wkbjz1__clip0_1503_4609">
      <path fill="#fff" d="M0 0H12V12H0z"/>
    </clipPath>
  </defs>
</svg>
