<svg xmlns="http://www.w3.org/2000/svg" fill="none" viewBox="0 0 16 16" class="design-iconfont">
  <path d="M13.8369 5.7913V2.6653C13.8356 2.36075 13.7136 2.06914 13.4976 1.85443C13.2816 1.63973 12.9892 1.51947 12.6847 1.52002H3.27531C2.97079 1.51953 2.67851 1.63982 2.46256 1.85452C2.2466 2.06921 2.1246 2.36079 2.12331 2.6653V3.71778C1.88168 3.78426 1.66845 3.928 1.51618 4.12704C1.36391 4.32609 1.28097 4.5695 1.28003 4.8201V13.4146C1.28128 13.7191 1.40326 14.0107 1.61922 14.2255C1.83518 14.4402 2.12749 14.5605 2.43203 14.56H13.568C13.8726 14.5605 14.1649 14.4402 14.3808 14.2255C14.5968 14.0107 14.7188 13.7191 14.72 13.4146V6.90402C14.7191 6.64635 14.6314 6.39649 14.4712 6.19466C14.3111 5.99283 14.0876 5.85075 13.8369 5.7913ZM3.27531 2.62938H12.6847C12.6942 2.62938 12.7034 2.63317 12.7102 2.63992C12.717 2.64666 12.7208 2.65582 12.7208 2.66538V5.7585H9.51203L7.61187 3.67466H3.23899V2.6653C3.23905 2.65573 3.24291 2.64656 3.24972 2.63983C3.25653 2.6331 3.26573 2.62934 3.27531 2.62938ZM13.6039 13.4146C13.6039 13.4242 13.6001 13.4333 13.5933 13.4401C13.5865 13.4469 13.5774 13.4507 13.5678 13.4507H2.43203C2.42245 13.4507 2.41327 13.4469 2.40649 13.4401C2.39971 13.4333 2.39589 13.4242 2.39587 13.4146V4.8201C2.39589 4.81053 2.39971 4.80135 2.40649 4.79458C2.41327 4.78782 2.42245 4.78402 2.43203 4.78402H7.11683L9.01691 6.86778H13.568C13.5728 6.86777 13.5775 6.86869 13.5818 6.8705C13.5862 6.8723 13.5902 6.87495 13.5936 6.87829C13.5969 6.88164 13.5996 6.88561 13.6014 6.88998C13.6032 6.89435 13.6042 6.89904 13.6042 6.90378V13.4146H13.6039ZM12.1058 3.67466H9.25603V4.78402H12.1062V3.67466H12.1058Z" fill="#3263FE"/>
  <path d="M8.94345 8.92638H6.95681V6.9519H5.84321V8.92662H3.85657V10.0335H5.84321V12.0079H6.95681V10.0333H8.94345V8.92638Z" fill="#FF813B"/>
</svg>
