<svg xmlns="http://www.w3.org/2000/svg" fill="none" viewBox="0 0 15 14" class="design-iconfont">
  <g clip-path="url(#j3fjxnl33__clip0_1844_758)" fill="#3263FE">
    <path d="M7.5 13.5625C3.87575 13.5625 0.9375 10.6243 0.9375 7C0.9375 3.37575 3.87575 0.4375 7.5 0.4375C11.1243 0.4375 14.0625 3.37575 14.0625 7C14.0625 10.6243 11.1243 13.5625 7.5 13.5625ZM7.5 12.6875C10.6412 12.6875 13.1875 10.1412 13.1875 7C13.1875 3.85875 10.6412 1.3125 7.5 1.3125C4.35875 1.3125 1.8125 3.85875 1.8125 7C1.8125 10.1412 4.35875 12.6875 7.5 12.6875Z"/>
    <path d="M4 7.4375C3.88397 7.4375 3.77269 7.39141 3.69064 7.30936C3.60859 7.22731 3.5625 7.11603 3.5625 7C3.5625 6.88397 3.60859 6.77269 3.69064 6.69064C3.77269 6.60859 3.88397 6.5625 4 6.5625H11C11.116 6.5625 11.2273 6.60859 11.3094 6.69064C11.3914 6.77269 11.4375 6.88397 11.4375 7C11.4375 7.11603 11.3914 7.22731 11.3094 7.30936C11.2273 7.39141 11.116 7.4375 11 7.4375H4Z"/>
    <path d="M7.0625 3.5C7.0625 3.38397 7.10859 3.27269 7.19064 3.19064C7.27269 3.10859 7.38397 3.0625 7.5 3.0625C7.61603 3.0625 7.72731 3.10859 7.80936 3.19064C7.89141 3.27269 7.9375 3.38397 7.9375 3.5V10.5C7.9375 10.616 7.89141 10.7273 7.80936 10.8094C7.72731 10.8914 7.61603 10.9375 7.5 10.9375C7.38397 10.9375 7.27269 10.8914 7.19064 10.8094C7.10859 10.7273 7.0625 10.616 7.0625 10.5V3.5Z"/>
  </g>
  <defs>
    <clipPath id="j3fjxnl33__clip0_1844_758">
      <path fill="#fff" transform="translate(.5)" d="M0 0H14V14H0z"/>
    </clipPath>
  </defs>
</svg>
