<svg xmlns="http://www.w3.org/2000/svg" fill="none" viewBox="0 0 17 16" class="design-iconfont">
  <g clip-path="url(#x91d8amz9__clip0_2304_1445)">
    <path d="M13.0096 13.1223H11.456C11.1912 13.1223 10.976 12.9071 10.976 12.6423C10.976 12.3775 11.1912 12.1623 11.456 12.1623H13.0096C14.216 12.1623 15.1976 11.1807 15.1976 9.97429C15.1976 8.76789 14.216 7.78629 13.0096 7.78629H12.9312C12.6696 7.78629 12.456 7.57669 12.4512 7.31509C12.4112 5.19589 10.6544 3.4719 8.53517 3.4719C6.41597 3.4719 4.65997 5.1967 4.61997 7.3159C4.61763 7.44165 4.56603 7.56147 4.47627 7.64959C4.38651 7.7377 4.26576 7.78708 4.13997 7.7871H4.06157C2.85517 7.7871 1.87357 8.76869 1.87357 9.97509C1.87357 11.1815 2.85517 12.1631 4.06157 12.1631H5.48077C5.74557 12.1631 5.96077 12.3783 5.96077 12.6431C5.96077 12.9079 5.74557 13.1231 5.48077 13.1231H4.06157C2.32557 13.1231 0.913574 11.7111 0.913574 9.97509C0.913574 8.36549 2.12797 7.0343 3.68877 6.8487C3.81117 5.7359 4.30957 4.7055 5.11757 3.9111C6.03517 3.0095 7.24877 2.5127 8.53517 2.5127C9.82157 2.5127 11.0352 3.0095 11.9528 3.9111C12.7608 4.7055 13.2592 5.7359 13.3816 6.8487C14.9424 7.0335 16.1568 8.36469 16.1568 9.97509C16.1576 11.7103 14.7456 13.1223 13.0096 13.1223Z" fill="#3263FE"/>
    <path d="M10.5792 9.92042L8.87278 8.23322C8.78269 8.14434 8.66118 8.09458 8.53462 8.09473C8.40806 8.09488 8.28667 8.14493 8.19678 8.23402L6.49758 9.92122C6.45283 9.96566 6.41727 10.0185 6.39292 10.0767C6.36858 10.1348 6.35594 10.1973 6.35572 10.2603C6.35549 10.3234 6.36769 10.3859 6.39162 10.4442C6.41555 10.5026 6.45074 10.5557 6.49518 10.6004C6.53962 10.6452 6.59244 10.6807 6.65062 10.7051C6.70881 10.7294 6.77122 10.7421 6.83429 10.7423C6.89736 10.7425 6.95985 10.7303 7.01821 10.7064C7.07656 10.6824 7.12963 10.6473 7.17438 10.6028L8.05918 9.72442V13.3364C8.05918 13.6012 8.27438 13.8164 8.53918 13.8164C8.80398 13.8164 9.01918 13.6012 9.01918 13.3364V9.72842L9.90478 10.6036C9.94964 10.648 10.0028 10.683 10.0612 10.7068C10.1196 10.7306 10.1821 10.7427 10.2452 10.7423C10.3083 10.742 10.3707 10.7292 10.4288 10.7047C10.4869 10.6802 10.5397 10.6445 10.584 10.5996C10.6732 10.5088 10.7229 10.3863 10.722 10.259C10.7211 10.1317 10.6697 10.0099 10.5792 9.92042Z" fill="#FF813B"/>
  </g>
  <defs>
    <clipPath id="x91d8amz9__clip0_2304_1445">
      <path fill="#fff" transform="translate(.5)" d="M0 0H16V16H0z"/>
    </clipPath>
  </defs>
</svg>
