<svg xmlns="http://www.w3.org/2000/svg" fill="none" viewBox="0 0 18 18" class="design-iconfont">
  <path fill="#F33D21" d="M9 0A9 9 0 1 0 9 18A9 9 0 1 0 9 0Z"/>
  <path d="M9 5C8.80302 5 8.60796 5.0388 8.42598 5.11418C8.24399 5.18956 8.07863 5.30005 7.93934 5.43934C7.80005 5.57863 7.68956 5.74399 7.61418 5.92597C7.5388 6.10796 7.5 6.30302 7.5 6.5C7.5 6.69698 7.5388 6.89204 7.61418 7.07403C7.68956 7.25601 7.80005 7.42137 7.93934 7.56066C8.07863 7.69995 8.24399 7.81044 8.42598 7.88582C8.60796 7.9612 8.80302 8 9 8C9.39783 8 9.77936 7.84196 10.0607 7.56066C10.342 7.27936 10.5 6.89782 10.5 6.5C10.5 6.10218 10.342 5.72064 10.0607 5.43934C9.77936 5.15804 9.39783 5 9 5ZM6.5 6.5C6.5 5.11925 7.61925 4 9 4C10.3808 4 11.5 5.11925 11.5 6.5C11.5 7.88075 10.3808 9 9 9C7.61925 9 6.5 7.88075 6.5 6.5ZM10.6905 9.3095C10.165 9.1095 9.5955 9 9 9C6.37675 9 4.25 11.1268 4.25 13.75H5.25C5.25 11.679 6.929 10 9 10C9.3075 10 9.60675 10.037 9.893 10.107L10.6905 9.3095ZM9.75 11.25H13.75V12.25H9.75V11.25Z" fill="#fff"/>
  <path d="M12.25 9.75V13.75H11.25V9.75H12.25Z" fill="#fff"/>
</svg>
