<svg fill="none" xmlns="http://www.w3.org/2000/svg" viewBox="0 0 15 14" class="design-iconfont">
  <path d="M5.12236 4.66738H8.25459C8.5376 4.66738 8.77002 4.43496 8.77002 4.15195V1.77031C8.77002 1.4873 8.5376 1.25488 8.25459 1.25488H5.12236C4.83936 1.25488 4.60693 1.4873 4.60693 1.77031V4.15059C4.60693 4.43496 4.83936 4.66738 5.12236 4.66738Z" fill="#fff"/>
  <path d="M11.0546 0.932617H9.92671V4.92617C9.92671 5.09434 9.78999 5.23106 9.62183 5.23106H3.67729C3.50913 5.23106 3.37241 5.09434 3.37241 4.9248L3.39702 0.932617H2.45093C1.99429 0.932617 1.62378 1.30312 1.62378 1.75977V12.1955C1.62378 12.6521 1.99429 13.0227 2.45093 13.0227H12.5367C12.9933 13.0227 13.3638 12.6521 13.3638 12.1955V3.53848L11.0546 0.932617ZM11.8339 11.3984C11.8339 11.6404 11.6357 11.84 11.3923 11.84H3.7853C3.54331 11.84 3.3437 11.6418 3.3437 11.3984V6.85527C3.3437 6.61328 3.54194 6.41367 3.7853 6.41367H11.3923C11.6343 6.41367 11.8339 6.61191 11.8339 6.85527V11.3984Z" fill="#fff"/>
  <path d="M10.3942 8.00781H4.63564C4.41689 8.00781 4.23779 8.18691 4.23779 8.40566C4.23779 8.62441 4.41689 8.80352 4.63564 8.80352H10.3942C10.613 8.80352 10.7921 8.62441 10.7921 8.40566C10.7921 8.18691 10.613 8.00781 10.3942 8.00781ZM10.3942 10.0764H4.63564C4.41689 10.0764 4.23779 10.2555 4.23779 10.4742C4.23779 10.693 4.41689 10.8721 4.63564 10.8721H10.3942C10.613 10.8721 10.7921 10.693 10.7921 10.4742C10.7921 10.2555 10.613 10.0764 10.3942 10.0764Z" fill="#fff"/>
</svg>
