<svg xmlns="http://www.w3.org/2000/svg" width="13" height="14" viewBox="0 0 13 14" fill="none">
  <path d="M5.28125 6.1875V7.88238L6.49919 9.10031L7.71875 7.87994V6.1875H11.7812V12.6875H7.71875V9.02881L6.49919 10.2492L5.28125 9.03125V12.6875H1.21875V6.1875H5.28125ZM4.46875 7H2.03125V11.875H4.46875V7ZM10.9688 7H8.53125V11.875H10.9688V7ZM3.25 1.3125C3.78872 1.3125 4.30538 1.52651 4.68631 1.90744C5.06724 2.28837 5.28125 2.80503 5.28125 3.34375C5.28125 3.88247 5.06724 4.39913 4.68631 4.78006C4.30538 5.16099 3.78872 5.375 3.25 5.375C2.71128 5.375 2.19462 5.16099 1.81369 4.78006C1.43276 4.39913 1.21875 3.88247 1.21875 3.34375C1.21875 2.80503 1.43276 2.28837 1.81369 1.90744C2.19462 1.52651 2.71128 1.3125 3.25 1.3125ZM9.75 1.3125C10.2887 1.3125 10.8054 1.52651 11.1863 1.90744C11.5672 2.28837 11.7812 2.80503 11.7812 3.34375C11.7812 3.88247 11.5672 4.39913 11.1863 4.78006C10.8054 5.16099 10.2887 5.375 9.75 5.375C9.21128 5.375 8.69462 5.16099 8.31369 4.78006C7.93276 4.39913 7.71875 3.88247 7.71875 3.34375C7.71875 2.80503 7.93276 2.28837 8.31369 1.90744C8.69462 1.52651 9.21128 1.3125 9.75 1.3125ZM3.25 2.125C3.08995 2.125 2.93147 2.15652 2.7836 2.21777C2.63574 2.27902 2.50139 2.36879 2.38821 2.48196C2.27504 2.59514 2.18527 2.72949 2.12402 2.87735C2.06277 3.02522 2.03125 3.1837 2.03125 3.34375C2.03125 3.5038 2.06277 3.66228 2.12402 3.81015C2.18527 3.95801 2.27504 4.09237 2.38821 4.20554C2.50139 4.31871 2.63574 4.40848 2.7836 4.46973C2.93147 4.53098 3.08995 4.5625 3.25 4.5625C3.57323 4.5625 3.88323 4.4341 4.11179 4.20554C4.34035 3.97698 4.46875 3.66698 4.46875 3.34375C4.46875 3.02052 4.34035 2.71052 4.11179 2.48196C3.88323 2.2534 3.57323 2.125 3.25 2.125ZM9.75 2.125C9.58995 2.125 9.43147 2.15652 9.2836 2.21777C9.13574 2.27902 9.00138 2.36879 8.88821 2.48196C8.77504 2.59514 8.68527 2.72949 8.62402 2.87735C8.56277 3.02522 8.53125 3.1837 8.53125 3.34375C8.53125 3.5038 8.56277 3.66228 8.62402 3.81015C8.68527 3.95801 8.77504 4.09237 8.88821 4.20554C9.00138 4.31871 9.13574 4.40848 9.2836 4.46973C9.43147 4.53098 9.58995 4.5625 9.75 4.5625C10.0732 4.5625 10.3832 4.4341 10.6118 4.20554C10.8403 3.97698 10.9688 3.66698 10.9688 3.34375C10.9688 3.02052 10.8403 2.71052 10.6118 2.48196C10.3832 2.2534 10.0732 2.125 9.75 2.125Z" fill="#3263FE"></path>
</svg>