<svg xmlns="http://www.w3.org/2000/svg" fill="none" viewBox="0 0 15 14" class="design-iconfont">
  <path d="M12.3173 5.1916H10.9821V2.64745C10.9826 2.24346 10.8228 1.85578 10.5378 1.56945C10.2528 1.28312 9.86589 1.12153 9.4619 1.12012H3.21006C2.80609 1.12153 2.41916 1.28312 2.13418 1.56945C1.8492 1.85579 1.68944 2.24347 1.68994 2.64745V11.2816C1.68944 11.6856 1.84921 12.0733 2.13421 12.3596C2.4192 12.6459 2.80614 12.8075 3.21013 12.8089H11.6575C11.6653 12.8089 11.6729 12.8101 11.6808 12.8101C11.6886 12.8101 11.6962 12.8091 11.7041 12.8089H11.7264V12.8078C12.1511 12.7946 12.5539 12.6166 12.8495 12.3114C13.1451 12.0063 13.3103 11.598 13.3099 11.1731V6.1891C13.3103 5.92528 13.206 5.67209 13.0199 5.48508C12.8338 5.29807 12.5812 5.19252 12.3173 5.1916ZM2.62031 11.2816V2.64745C2.62013 2.49073 2.68211 2.34033 2.79268 2.22926C2.90324 2.11819 3.05334 2.0555 3.21006 2.05497H9.4619C9.61862 2.0555 9.76873 2.11819 9.87929 2.22926C9.98985 2.34033 10.0518 2.49073 10.0517 2.64745V11.1739C10.052 11.4162 10.1064 11.6553 10.2108 11.8739H3.21006C3.05337 11.8734 2.90328 11.8107 2.79272 11.6997C2.68217 11.5887 2.62016 11.4383 2.62031 11.2816ZM12.3796 11.1731C12.3797 11.3547 12.3094 11.5292 12.1834 11.66C12.0574 11.7907 11.8856 11.8675 11.7041 11.8741H11.6575C11.476 11.8675 11.3042 11.7907 11.1782 11.6599C11.0523 11.5292 10.982 11.3547 10.9821 11.1731V6.1261H12.3173C12.3339 6.12615 12.3497 6.13277 12.3614 6.14448C12.373 6.1562 12.3796 6.17207 12.3796 6.18861V11.1726V11.1731ZM4.79192 8.87269H9.13892V7.93812H4.79192V8.87297V8.87269ZM6.56761 6.77318H9.13906V5.83812H6.56761V6.77318ZM3.34894 10.9312H9.1392V9.99612H3.34894V10.931V10.9312Z" fill="#3263FE"/>
  <path d="M6.65894 3.98938H5.51507V2.84082H4.58491V3.98938H3.44104V4.92332H4.58491V6.07188H5.51507V4.92332H6.65894V3.98938Z" fill="#FF813B"/>
</svg>
