<svg xmlns="http://www.w3.org/2000/svg" fill="none" viewBox="0 0 14 14" class="design-iconfont">
  <path d="M9.4011 6.54253H7.94167V5.09766H7.03867V6.54253H5.5791V7.43678H7.03846V8.88158H7.94146V7.43678H9.4011V6.54253Z" fill="#FF813B"/>
  <path d="M10.841 1.12013H4.14827C3.75812 1.11862 3.38329 1.27194 3.10604 1.54645C2.82879 1.82096 2.67175 2.19424 2.66938 2.58439V3.24022H1.67993V4.13622H2.66938V5.41491H1.67993V6.31091H2.66938V7.58953H1.67993V8.48553H2.66938V9.76408H1.67993V10.6601H2.66938V11.4156C2.6717 11.8058 2.82871 12.1791 3.10596 12.4537C3.38322 12.7283 3.75807 12.8816 4.14827 12.8801H10.841C11.2312 12.8816 11.606 12.7283 11.8833 12.4538C12.1605 12.1793 12.3175 11.806 12.3199 11.4159V2.58439C12.3175 2.19424 12.1605 1.82097 11.8833 1.54647C11.606 1.27196 11.2312 1.11864 10.841 1.12013ZM11.415 11.4159C11.4141 11.5673 11.3532 11.7121 11.2456 11.8187C11.1379 11.9252 10.9925 11.9846 10.841 11.984H4.14827C3.99686 11.9846 3.85137 11.9252 3.74375 11.8187C3.63613 11.7121 3.57518 11.5673 3.57427 11.4159V2.58439C3.5752 2.43299 3.63616 2.28814 3.74378 2.18164C3.85139 2.07514 3.99687 2.01569 4.14827 2.01634H10.841C10.9924 2.01569 11.1379 2.07514 11.2455 2.18164C11.3532 2.28814 11.4141 2.43299 11.415 2.58439V11.4159Z" fill="#3263FE"/>
</svg>
