<svg xmlns="http://www.w3.org/2000/svg" fill="none" viewBox="0 0 15 14" class="design-iconfont">
  <path d="M11.9264 12.8801H3.07388C2.68723 12.8785 2.31701 12.7235 2.04447 12.4492C1.77193 12.175 1.61932 11.8038 1.62012 11.4171V3.80651C1.61932 3.41985 1.77193 3.04866 2.04447 2.77439C2.31701 2.50012 2.68723 2.34516 3.07388 2.34351H3.7953V3.23902H3.07388C2.92389 3.23965 2.78027 3.29975 2.67454 3.40614C2.56881 3.51253 2.50959 3.65651 2.50989 3.80651V11.4171C2.50961 11.5671 2.56883 11.7111 2.67455 11.8175C2.78028 11.9239 2.92389 11.984 3.07388 11.9847H11.9264C12.0764 11.984 12.22 11.9239 12.3257 11.8175C12.4314 11.7111 12.4906 11.5671 12.4904 11.4171V3.80651C12.4906 3.65653 12.4314 3.51255 12.3257 3.40616C12.22 3.29978 12.0764 3.23967 11.9264 3.23902H11.0989V2.34365H11.9264C12.313 2.34531 12.6832 2.50026 12.9557 2.77451C13.2283 3.04875 13.3809 3.41989 13.3801 3.80651V11.4171C13.3809 11.8038 13.2283 12.1749 12.9558 12.4492C12.6833 12.7235 12.3131 12.8785 11.9264 12.8801ZM8.90495 4.23967H6.0122C5.60033 4.23691 5.20627 4.07136 4.91601 3.77914C4.62575 3.48693 4.46284 3.09177 4.46284 2.67989C4.46284 2.26801 4.62575 1.87286 4.91601 1.58064C5.20627 1.28843 5.60033 1.12288 6.0122 1.12012H8.90495C9.31682 1.12288 9.71088 1.28843 10.0011 1.58064C10.2914 1.87286 10.4543 2.26801 10.4543 2.67989C10.4543 3.09177 10.2914 3.48693 10.0011 3.77914C9.71088 4.07136 9.31682 4.23691 8.90495 4.23967ZM6.0122 2.01549C5.83717 2.01728 5.66992 2.08807 5.54678 2.21248C5.42365 2.33688 5.35458 2.50485 5.35458 2.67989C5.35458 2.85493 5.42365 3.0229 5.54678 3.1473C5.66992 3.27171 5.83717 3.3425 6.0122 3.3443H8.90495C9.07998 3.3425 9.24723 3.27171 9.37037 3.1473C9.4935 3.0229 9.56257 2.85493 9.56257 2.67989C9.56257 2.50485 9.4935 2.33688 9.37037 2.21248C9.24723 2.08807 9.07998 2.01728 8.90495 2.01549H6.0122Z" fill="#3263FE"/>
  <path d="M9.59997 7.60517H7.93915V6.02051H7.06198V7.60517H5.40088V8.49417H7.06198V10.0789H7.93915V8.49438H9.59997V7.60538V7.60517Z" fill="#FF813B"/>
</svg>
