<svg xmlns="http://www.w3.org/2000/svg" fill="none" viewBox="0 0 15 14" class="design-iconfont">
  <path d="M7.50012 12.8801C6.33717 12.8801 5.20033 12.5353 4.23337 11.8892C3.26641 11.2431 2.51275 10.3247 2.06771 9.2503C1.62266 8.17587 1.50622 6.9936 1.7331 5.85299C1.95998 4.71238 2.52 3.66466 3.34233 2.84233C4.16466 2.02 5.21238 1.45998 6.35299 1.2331C7.4936 1.00622 8.67587 1.12266 9.7503 1.56771C10.8247 2.01275 11.7431 2.76641 12.3892 3.73337C13.0353 4.70033 13.3801 5.83717 13.3801 7.00012C13.3784 8.55905 12.7583 10.0536 11.656 11.156C10.5536 12.2583 9.05905 12.8784 7.50012 12.8801ZM7.50012 2.01465C6.51409 2.01465 5.5502 2.30704 4.73034 2.85485C3.91048 3.40266 3.27148 4.18129 2.89415 5.09226C2.51681 6.00324 2.41808 7.00565 2.61044 7.97274C2.80281 8.93982 3.27763 9.82815 3.97486 10.5254C4.67209 11.2226 5.56042 11.6974 6.5275 11.8898C7.49459 12.0822 8.497 11.9834 9.40798 11.6061C10.319 11.2288 11.0976 10.5898 11.6454 9.7699C12.1932 8.95004 12.4856 7.98615 12.4856 7.00012C12.4841 5.67834 11.9584 4.41112 11.0238 3.47648C10.0891 2.54184 8.8219 2.01611 7.50012 2.01465Z" fill="#F33D21"/>
  <path d="M10.4399 7.49008H4.62988V6.58008H10.4399V7.49008Z" fill="#F33D21"/>
</svg>
