<svg xmlns="http://www.w3.org/2000/svg" fill="none" viewBox="0 0 15 14" class="design-iconfont">
  <path d="M6.22433 12.8798C6.04102 12.8803 5.85942 12.8445 5.69006 12.7743C5.5207 12.7041 5.36694 12.6011 5.23768 12.4711L2.02741 9.26082C1.76612 8.99894 1.61938 8.64411 1.61938 8.27417C1.61938 7.90423 1.76612 7.5494 2.02741 7.28752L7.78778 1.52722C8.04963 1.2659 8.40446 1.11914 8.7744 1.11914C9.14434 1.11914 9.49916 1.2659 9.76101 1.52722L12.9712 4.73749C13.1008 4.86705 13.2036 5.02088 13.2737 5.19017C13.3439 5.35947 13.38 5.54093 13.38 5.72418C13.38 5.90742 13.3439 6.08888 13.2737 6.25818C13.2036 6.42747 13.1008 6.5813 12.9712 6.71086L7.21098 12.4711C7.08173 12.6011 6.92797 12.7041 6.75861 12.7743C6.58925 12.8445 6.40765 12.8803 6.22433 12.8798ZM8.77443 1.97291C8.70334 1.97279 8.63293 1.9867 8.56723 2.01386C8.50154 2.04102 8.44185 2.08089 8.3916 2.13118L2.63123 7.89148C2.52987 7.9931 2.47294 8.13078 2.47294 8.27431C2.47294 8.41784 2.52987 8.55552 2.63123 8.65714L5.84164 11.8673C5.8919 11.9175 5.95157 11.9574 6.01724 11.9846C6.08291 12.0118 6.15329 12.0258 6.22437 12.0258C6.29545 12.0258 6.36583 12.0118 6.4315 11.9846C6.49717 11.9574 6.55683 11.9175 6.60709 11.8673L12.3674 6.10704C12.4689 6.00553 12.5259 5.86784 12.5259 5.72428C12.5259 5.58072 12.4689 5.44304 12.3674 5.34152L9.15719 2.13118C9.10696 2.0809 9.04728 2.04103 8.9816 2.01387C8.91591 1.98671 8.84551 1.97279 8.77443 1.97291ZM6.57776 6.98659C6.34188 6.98648 6.11333 6.90458 5.93107 6.75485C5.7488 6.60511 5.62409 6.39681 5.57819 6.16544C5.53229 5.93407 5.56804 5.69394 5.67934 5.48596C5.79064 5.27799 5.97061 5.11505 6.18859 5.02489C6.40656 4.93474 6.64905 4.92296 6.87474 4.99155C7.10043 5.06015 7.29535 5.20488 7.42629 5.40108C7.55723 5.59728 7.61609 5.83282 7.59284 6.06755C7.56958 6.30228 7.46565 6.52169 7.29876 6.68839C7.20412 6.7831 7.09172 6.85819 6.96799 6.90936C6.84426 6.96054 6.71165 6.98678 6.57776 6.98659ZM6.57776 5.80121C6.5394 5.80127 6.50225 5.81463 6.47263 5.83901C6.44301 5.86339 6.42276 5.89729 6.41533 5.93493C6.4079 5.97256 6.41375 6.01161 6.43188 6.04542C6.45002 6.07922 6.47931 6.1057 6.51477 6.12033C6.55023 6.13497 6.58967 6.13685 6.62637 6.12567C6.66306 6.11448 6.69475 6.09092 6.71602 6.059C6.73729 6.02708 6.74684 5.98877 6.74304 5.95059C6.73923 5.91242 6.72231 5.87675 6.69515 5.84965C6.67973 5.83426 6.66142 5.82205 6.64128 5.81374C6.62114 5.80543 6.59955 5.80117 6.57776 5.80121ZM10.6422 6.78898C10.4061 6.78908 10.1773 6.70732 9.9948 6.55763C9.81226 6.40795 9.68729 6.1996 9.64116 5.96809C9.59503 5.73658 9.63061 5.49624 9.74183 5.28803C9.85305 5.07981 10.033 4.91661 10.2511 4.82623C10.4692 4.73584 10.7118 4.72388 10.9377 4.79236C11.1636 4.86085 11.3588 5.00555 11.49 5.20182C11.6212 5.39808 11.6802 5.63375 11.6571 5.86867C11.634 6.10359 11.5301 6.32323 11.3632 6.49015C11.2687 6.58517 11.1564 6.66051 11.0326 6.71181C10.9089 6.76312 10.7761 6.78937 10.6422 6.78905V6.78898ZM10.6422 5.60297C10.6149 5.60296 10.588 5.60969 10.5639 5.62256C10.5398 5.63543 10.5193 5.65404 10.5041 5.67675C10.4889 5.69945 10.4796 5.72555 10.4769 5.75272C10.4742 5.7799 10.4783 5.80732 10.4887 5.83255C10.4992 5.85778 10.5157 5.88004 10.5368 5.89736C10.5579 5.91469 10.583 5.92654 10.6098 5.93186C10.6365 5.93719 10.6642 5.93583 10.6904 5.9279C10.7165 5.91997 10.7403 5.90571 10.7596 5.8864C10.7828 5.86319 10.7986 5.83361 10.8051 5.80139C10.8115 5.76918 10.8082 5.73578 10.7956 5.70543C10.7831 5.67508 10.7618 5.64915 10.7345 5.63091C10.7071 5.61267 10.675 5.60294 10.6422 5.60297ZM6.29433 11.1363C6.05849 11.1362 5.82998 11.0543 5.64775 10.9046C5.46552 10.7549 5.34084 10.5466 5.29495 10.3153C5.24906 10.0839 5.28481 9.84383 5.3961 9.6359C5.50738 9.42796 5.68733 9.26504 5.90527 9.1749C6.12321 9.08476 6.36566 9.07298 6.59132 9.14156C6.81697 9.21014 7.01186 9.35485 7.14279 9.55101C7.27371 9.74718 7.33257 9.98268 7.30933 10.2174C7.28609 10.4521 7.18219 10.6714 7.01533 10.8381C6.92069 10.9328 6.80829 11.0079 6.68456 11.0591C6.56084 11.1103 6.42822 11.1365 6.29433 11.1363ZM6.29433 9.95095C6.25593 9.95098 6.21873 9.96432 6.18907 9.98871C6.15941 10.0131 6.13912 10.047 6.13166 10.0847C6.1242 10.1223 6.13003 10.1614 6.14816 10.1953C6.16629 10.2291 6.19559 10.2556 6.23108 10.2703C6.26657 10.285 6.30604 10.2869 6.34278 10.2757C6.37951 10.2645 6.41124 10.241 6.43254 10.209C6.45385 10.1771 6.46342 10.1387 6.45962 10.1005C6.45583 10.0623 6.4389 10.0266 6.41172 9.99946C6.39631 9.98405 6.37801 9.97183 6.35786 9.96351C6.33772 9.95518 6.31613 9.95092 6.29433 9.95095Z" fill="#3263FE"/>
  <path d="M8.76704 4.80739C8.53068 4.8076 8.30157 4.72582 8.11876 4.57601C7.93595 4.4262 7.81075 4.21762 7.76451 3.98583C7.71827 3.75403 7.75386 3.51338 7.8652 3.30489C7.97653 3.0964 8.15674 2.93298 8.37508 2.84248C8.59343 2.75198 8.8364 2.74001 9.06259 2.80861C9.28877 2.87721 9.48416 3.02213 9.61545 3.21867C9.74674 3.41521 9.8058 3.6512 9.78257 3.88642C9.75934 4.12163 9.65525 4.3415 9.48804 4.50856C9.3935 4.60344 9.28112 4.67868 9.15738 4.72997C9.03364 4.78125 8.90099 4.80756 8.76704 4.80739ZM8.76704 3.61963C8.73971 3.61962 8.71279 3.62635 8.68868 3.63923C8.66457 3.6521 8.644 3.67073 8.6288 3.69345C8.6136 3.71617 8.60424 3.74229 8.60155 3.76949C8.59886 3.79669 8.60291 3.82414 8.61335 3.8494C8.6238 3.87466 8.64031 3.89696 8.66143 3.91431C8.68255 3.93167 8.70762 3.94355 8.73442 3.94891C8.76123 3.95426 8.78894 3.95292 8.81511 3.94501C8.84127 3.9371 8.86508 3.92286 8.88443 3.90355C8.90768 3.8803 8.92351 3.85069 8.92993 3.81844C8.93636 3.7862 8.93308 3.75278 8.92052 3.7224C8.90796 3.69202 8.88668 3.66604 8.85936 3.64775C8.83204 3.62946 8.79992 3.61967 8.76704 3.61963ZM4.42004 9.16342C4.18369 9.16364 3.95457 9.08189 3.77175 8.93209C3.58892 8.78229 3.46371 8.57372 3.41746 8.34193C3.3712 8.11015 3.40677 7.86949 3.51809 7.66099C3.62941 7.45249 3.8096 7.28906 4.02793 7.19854C4.24627 7.10803 4.48924 7.09604 4.71543 7.16462C4.94162 7.2332 5.13702 7.3781 5.26833 7.57463C5.39964 7.77115 5.45872 8.00714 5.43551 8.24235C5.4123 8.47756 5.30823 8.69745 5.14104 8.86452C5.04653 8.95945 4.93417 9.03474 4.81042 9.08604C4.68668 9.13734 4.554 9.16364 4.42004 9.16342ZM4.42004 7.97573C4.3816 7.97563 4.3443 7.98886 4.31452 8.01317C4.28474 8.03748 4.2643 8.07136 4.2567 8.10905C4.2491 8.14674 4.2548 8.18589 4.27283 8.21985C4.29086 8.2538 4.32011 8.28046 4.35559 8.29526C4.39106 8.31007 4.43058 8.31212 4.4674 8.30106C4.50422 8.29 4.53607 8.26652 4.55752 8.23461C4.57896 8.20271 4.58869 8.16435 4.58502 8.12608C4.58136 8.08781 4.56454 8.05199 4.53743 8.02473C4.52207 8.00922 4.50378 7.9969 4.48364 7.98849C4.46349 7.98008 4.44187 7.97574 4.42004 7.97573ZM8.5688 8.87936C8.33243 8.87957 8.10329 8.7978 7.92046 8.64798C7.73763 8.49816 7.61242 8.28956 7.56618 8.05775C7.51993 7.82594 7.55552 7.58527 7.66686 7.37676C7.77821 7.16826 7.95842 7.00482 8.17679 6.91432C8.39515 6.82381 8.63814 6.81184 8.86434 6.88045C9.09055 6.94906 9.28595 7.09399 9.41725 7.29055C9.54855 7.4871 9.60761 7.72311 9.58437 7.95834C9.56113 8.19357 9.45702 8.41347 9.2898 8.58053C9.19527 8.67541 9.08291 8.75066 8.95918 8.80194C8.83545 8.85323 8.70281 8.87954 8.56887 8.87936H8.5688ZM8.5688 7.69167C8.53029 7.69161 8.49295 7.70491 8.46315 7.72931C8.43335 7.7537 8.41294 7.78768 8.40539 7.82544C8.39784 7.86321 8.40362 7.90242 8.42176 7.9364C8.43989 7.97037 8.46924 7.99701 8.50482 8.01176C8.54039 8.02651 8.57998 8.02846 8.61683 8.01729C8.65369 8.00611 8.68552 7.9825 8.70691 7.95048C8.7283 7.91845 8.73792 7.88 8.73413 7.84168C8.73034 7.80335 8.71337 7.76753 8.68612 7.74032C8.67075 7.72488 8.65247 7.71264 8.63235 7.70429C8.61223 7.69594 8.59066 7.69165 8.56887 7.69167H8.5688Z" fill="#FF813B"/>
</svg>
