<svg xmlns="http://www.w3.org/2000/svg" width="13" height="14" viewBox="0 0 13 14" fill="none">
  <path d="M11.7463 5.03131L8.46869 1.75369C8.31635 1.6013 8.10972 1.51567 7.89425 1.51562H1.82812C1.61264 1.51562 1.40597 1.60123 1.2536 1.7536C1.10123 1.90597 1.01563 2.11264 1.01562 2.32812V11.6719C1.01563 11.8874 1.10123 12.094 1.2536 12.2464C1.40597 12.3988 1.61264 12.4844 1.82812 12.4844H11.1719C11.3874 12.4844 11.594 12.3988 11.7464 12.2464C11.8988 12.094 11.9844 11.8874 11.9844 11.6719V5.60575C11.9843 5.39028 11.8987 5.18365 11.7463 5.03131ZM3.65625 2.32812H6.09375V3.75H3.65625V2.32812ZM9.34375 11.6719H3.65625V9.84375H9.34375V11.6719ZM11.1719 11.6719H10.1562V9.4375C10.1562 9.32976 10.1134 9.22642 10.0373 9.15024C9.96108 9.07405 9.85774 9.03125 9.75 9.03125H3.25C3.14226 9.03125 3.03892 9.07405 2.96274 9.15024C2.88655 9.22642 2.84375 9.32976 2.84375 9.4375V11.6719H1.82812V2.32812H2.84375V4.15625C2.84375 4.26399 2.88655 4.36733 2.96274 4.44351C3.03892 4.5197 3.14226 4.5625 3.25 4.5625H6.5C6.60774 4.5625 6.71108 4.5197 6.78726 4.44351C6.86345 4.36733 6.90625 4.26399 6.90625 4.15625V2.32812H7.89425L11.1719 5.60575V11.6719Z" fill="#01B251"></path>
</svg>