<svg xmlns="http://www.w3.org/2000/svg" fill="none" viewBox="0 0 15 14" class="design-iconfont">
  <path d="M11.6436 2.06084L11.635 2.04516C11.4425 1.70916 10.9412 1.38716 10.2535 1.42489C9.64674 1.4587 8.54375 1.81465 7.53498 3.68239C6.52628 1.81444 5.42329 1.4587 4.81653 1.42489C4.12787 1.3873 3.62758 1.70888 3.43494 2.04516L3.4264 2.06084C3.32449 2.24256 3.26748 2.44599 3.2601 2.6542C3.25272 2.86241 3.29519 3.06937 3.38398 3.25784C3.89729 4.34984 5.96873 4.94554 7.15803 5.20385C7.20817 5.21471 7.25933 5.22018 7.31063 5.22016C7.3868 5.2201 7.46244 5.20769 7.53463 5.18341C7.60682 5.2077 7.68247 5.22011 7.75863 5.22016C7.81001 5.22015 7.86123 5.21466 7.91144 5.20377C9.10053 4.94596 11.172 4.35019 11.6854 3.25812C11.7743 3.06966 11.8169 2.86268 11.8096 2.65442C11.8023 2.44616 11.7454 2.24265 11.6436 2.06084ZM4.17631 2.88642C4.13431 2.79752 4.09931 2.67075 4.19731 2.47524C4.23665 2.41847 4.43741 2.27833 4.77439 2.29849C5.1239 2.32012 5.97755 2.56092 6.83498 4.2293C5.41867 3.86663 4.39737 3.35675 4.17631 2.88642ZM10.8937 2.88642C10.6726 3.35675 9.65143 3.86642 8.2347 4.2293C9.09241 2.56085 9.94606 2.32012 10.2954 2.29849C10.3182 2.29709 10.3403 2.29642 10.3618 2.29646C10.6575 2.29646 10.836 2.42246 10.8728 2.47531C10.9704 2.67082 10.9354 2.79752 10.8937 2.88642Z" fill="#FF813B"/>
  <path d="M12.4512 8.55354C12.837 8.27339 13.1239 7.87802 13.2706 7.42437C13.4173 6.97073 13.4163 6.48222 13.2676 6.02922C13.1189 5.57621 12.8303 5.18207 12.4433 4.90358C12.0563 4.62509 11.5909 4.47661 11.1142 4.47954H3.95624C3.47944 4.47654 3.01399 4.62496 2.62695 4.90343C2.2399 5.18189 1.95123 5.57602 1.80251 6.02905C1.6538 6.48207 1.65272 6.97061 1.79944 7.42429C1.94615 7.87797 2.23308 8.27337 2.61889 8.55354C2.23308 8.83371 1.94615 9.22911 1.79944 9.68279C1.65272 10.1365 1.6538 10.625 1.80251 11.078C1.95123 11.5311 2.2399 11.9252 2.62695 12.2036C3.01399 12.4821 3.47944 12.6305 3.95624 12.6275H11.1138C11.5906 12.6305 12.0561 12.4821 12.4431 12.2036C12.8302 11.9252 13.1188 11.5311 13.2675 11.078C13.4163 10.625 13.4173 10.1365 13.2706 9.68279C13.1239 9.22911 12.837 8.83371 12.4512 8.55354ZM2.56646 6.73459C2.56778 6.36703 2.71484 6.015 2.97539 5.75574C3.23593 5.49648 3.58868 5.35116 3.95624 5.35167H11.1138C11.4806 5.35167 11.8323 5.49737 12.0917 5.75671C12.351 6.01606 12.4967 6.36781 12.4967 6.73459C12.4967 7.10136 12.351 7.45311 12.0917 7.71246C11.8323 7.97181 11.4806 8.11751 11.1138 8.11751H3.95624C3.58868 8.11801 3.23593 7.97269 2.97539 7.71343C2.71484 7.45417 2.56778 7.10214 2.56646 6.73459ZM11.1139 11.7556H3.95624C3.7738 11.7569 3.59291 11.7221 3.42398 11.6532C3.25505 11.5843 3.10143 11.4826 2.97197 11.3541C2.8425 11.2255 2.73975 11.0726 2.66963 10.9042C2.59951 10.7357 2.56341 10.5551 2.56341 10.3727C2.56341 10.1902 2.59951 10.0096 2.66963 9.84114C2.73975 9.67271 2.8425 9.51982 2.97197 9.39127C3.10143 9.26272 3.25505 9.16106 3.42398 9.09214C3.59291 9.02322 3.7738 8.98841 3.95624 8.98971H11.1138C11.2966 8.98787 11.4779 9.02228 11.6473 9.09095C11.8167 9.15963 11.9708 9.2612 12.1007 9.3898C12.2306 9.5184 12.3337 9.67147 12.4041 9.84017C12.4745 10.0089 12.5107 10.1898 12.5107 10.3726C12.5107 10.5554 12.4745 10.7364 12.4041 10.9051C12.3337 11.0738 12.2306 11.2269 12.1007 11.3555C11.9708 11.4841 11.8167 11.5856 11.6473 11.6543C11.4779 11.723 11.2966 11.7574 11.1138 11.7555L11.1139 11.7556Z" fill="#3263FE"/>
  <path d="M7.976 12.6705H7.09351V4.48047H7.976V12.6705Z" fill="#FF813B"/>
</svg>
