<svg xmlns="http://www.w3.org/2000/svg" fill="none" viewBox="0 0 15 14" class="design-iconfont">
  <path d="M11.4488 12.88H3.13135C2.73066 12.8796 2.34652 12.7202 2.06321 12.4368C1.77989 12.1535 1.62054 11.7694 1.62012 11.3687V3.05113C1.62062 2.65049 1.78 2.26641 2.06331 1.98313C2.34661 1.69985 2.73071 1.5405 3.13135 1.54004H8.29378V2.46481H3.13135C2.9759 2.46499 2.82687 2.52684 2.71696 2.63677C2.60705 2.74671 2.54525 2.89575 2.5451 3.0512V11.3687C2.54525 11.5241 2.60706 11.6731 2.71697 11.7831C2.82687 11.893 2.9759 11.9548 3.13135 11.955H11.4488C11.6043 11.9548 11.7533 11.893 11.8632 11.7831C11.9731 11.6731 12.035 11.5241 12.0351 11.3687V6.37151H12.9601V11.3687C12.9597 11.7694 12.8003 12.1535 12.517 12.4369C12.2337 12.7202 11.8495 12.8796 11.4488 12.88Z" fill="#3263FE"/>
  <path d="M13.1717 2.56177L11.9473 1.3374C11.8083 1.19888 11.6201 1.12109 11.4239 1.12109C11.2277 1.12109 11.0395 1.19888 10.9005 1.3374L5.7275 6.51082C5.64071 6.59767 5.57683 6.7047 5.54158 6.82232L5.00139 8.6314C4.96251 8.76107 4.95995 8.89893 4.99398 9.02996C5.02802 9.16099 5.09736 9.28016 5.19444 9.37452C5.29152 9.46887 5.41262 9.53478 5.54457 9.56507C5.67652 9.59536 5.81424 9.58887 5.94275 9.5463L7.7043 8.9646C7.81401 8.9282 7.91371 8.86672 7.9955 8.78505L13.1716 3.60862C13.3102 3.4697 13.3881 3.28146 13.3881 3.08521C13.3881 2.88896 13.3103 2.70071 13.1717 2.56177ZM6.28127 7.51427L7.00689 8.23989L5.96151 8.58513L6.28127 7.51427ZM7.77367 7.72427L6.78492 6.73566L10.3759 3.14466L11.3647 4.13355L7.77367 7.72427ZM12.0056 3.49207L11.0167 2.50346L11.4239 2.09627L12.4127 3.08523L12.0056 3.49207Z" fill="#FF813B"/>
</svg>
