<svg fill="none" xmlns="http://www.w3.org/2000/svg" viewBox="0 0 17 16" class="design-iconfont">
  <path d="M10.7922 9.69336H6.20625C5.88594 9.69336 5.625 9.9543 5.625 10.2746C5.625 10.5949 5.88594 10.8559 6.20625 10.8559H10.7937C11.1141 10.8559 11.375 10.5949 11.375 10.2746C11.375 9.9543 11.1141 9.69336 10.7922 9.69336Z" fill="#FF813B"/>
  <path d="M14.4625 3.73164H12.75V2.01914C12.75 1.4457 12.2829 0.978516 11.7094 0.978516H5.28755C4.71411 0.978516 4.24692 1.4457 4.24692 2.01914V3.73164H2.53599C1.96255 3.73164 1.49536 4.19883 1.49536 4.77227V9.35977C1.49536 9.9332 1.96255 10.4004 2.53599 10.4004H3.78911V13.9473C3.78911 14.5207 4.2563 14.9879 4.82974 14.9879H12.1688C12.7422 14.9879 13.2094 14.5207 13.2094 13.9473V10.4004H14.4625C15.036 10.4004 15.5032 9.9332 15.5032 9.35977V4.77227C15.5032 4.19883 15.036 3.73164 14.4625 3.73164ZM5.41099 2.47852C5.41099 2.29258 5.56099 2.14258 5.74692 2.14258H11.2516C11.4375 2.14258 11.5875 2.29258 11.5875 2.47852V3.73164H5.41099V2.47852ZM12.0469 13.4879C12.0469 13.6738 11.8969 13.8238 11.711 13.8238H5.28911C5.10317 13.8238 4.95317 13.6738 4.95317 13.4879V8.90039C4.95317 8.71445 5.10317 8.56445 5.28911 8.56445H11.711C11.8969 8.56445 12.0469 8.71445 12.0469 8.90039V13.4879ZM14.3407 8.90039C14.3407 9.08633 14.1907 9.23633 14.0047 9.23633H13.2094V8.44102C13.2094 7.86758 12.7422 7.40039 12.1688 7.40039H4.82974C4.2563 7.40039 3.78911 7.86758 3.78911 8.44102V9.23633H2.9938C2.80786 9.23633 2.65786 9.08633 2.65786 8.90039V5.23008C2.65786 5.04414 2.80786 4.89414 2.9938 4.89414H14.0032C14.1891 4.89414 14.3391 5.04414 14.3391 5.23008V8.90039H14.3407Z" fill="#3263FE"/>
  <path d="M10.7922 11.5293H6.20625C5.88594 11.5293 5.625 11.7902 5.625 12.1105C5.625 12.4309 5.88594 12.6918 6.20625 12.6918H10.7937C11.1141 12.6918 11.375 12.4309 11.375 12.1105C11.375 11.7902 11.1141 11.5293 10.7922 11.5293Z" fill="#FF813B"/>
  <path d="M12.2671 6.12695C12.2671 6.22544 12.2865 6.32297 12.3242 6.41397C12.3619 6.50496 12.4171 6.58764 12.4868 6.65728C12.5564 6.72693 12.6391 6.78217 12.7301 6.81986C12.8211 6.85755 12.9186 6.87695 13.0171 6.87695C13.1156 6.87695 13.2131 6.85755 13.3041 6.81986C13.3951 6.78217 13.4778 6.72693 13.5474 6.65728C13.6171 6.58764 13.6723 6.50496 13.71 6.41397C13.7477 6.32297 13.7671 6.22544 13.7671 6.12695C13.7671 6.02846 13.7477 5.93093 13.71 5.83994C13.6723 5.74895 13.6171 5.66627 13.5474 5.59662C13.4778 5.52698 13.3951 5.47173 13.3041 5.43404C13.2131 5.39635 13.1156 5.37695 13.0171 5.37695C12.9186 5.37695 12.8211 5.39635 12.7301 5.43404C12.6391 5.47173 12.5564 5.52698 12.4868 5.59662C12.4171 5.66627 12.3619 5.74895 12.3242 5.83994C12.2865 5.93093 12.2671 6.02846 12.2671 6.12695Z" fill="#FF813B"/>
</svg>
