<svg xmlns="http://www.w3.org/2000/svg" fill="none" viewBox="0 0 22 22" class="design-iconfont">
  <path d="M11 2.75C13.3375 2.75 15.125 4.5375 15.125 6.875C15.125 9.2125 13.3375 11 11 11C8.6625 11 6.875 9.2125 6.875 6.875C6.875 4.5375 8.6625 2.75 11 2.75ZM11 4.125C9.4875 4.125 8.25 5.3625 8.25 6.875C8.25 8.3875 9.4875 9.625 11 9.625C12.5125 9.625 13.75 8.3875 13.75 6.875C13.75 5.3625 12.5125 4.125 11 4.125ZM11 11.825C15.125 11.825 19.25 13.75 19.25 16.6375V18.7C19.25 19.1125 18.975 19.3875 18.5625 19.3875H3.4375C3.025 19.25 2.75 18.975 2.75 18.5625V16.5C2.75 13.75 6.875 11.825 11 11.825ZM17.875 16.5C17.875 14.7125 14.85 13.0625 11 13.0625C7.15 13.0625 4.125 14.7125 4.125 16.5V17.875H17.875V16.5Z" fill="#212121"/>
</svg>
