<svg xmlns="http://www.w3.org/2000/svg" fill="none" viewBox="0 0 22 22" class="design-iconfont">
  <path d="M11 1.375C12.4561 1.37513 13.8812 1.79564 15.1042 2.58601C16.3271 3.37639 17.2959 4.50301 17.8941 5.83057C18.4923 7.15813 18.6946 8.63017 18.4765 10.0699C18.2585 11.5096 17.6295 12.8557 16.665 13.9466L11.9817 20.1108C11.4579 20.7969 10.6067 20.7969 10.0842 20.1108L5.42849 14.0525C4.43531 12.9709 3.7785 11.6236 3.53822 10.175C3.29794 8.72636 3.48459 7.23912 4.07539 5.89481C4.66618 4.5505 5.63557 3.40726 6.86522 2.60465C8.09487 1.80203 9.53158 1.37477 11 1.375ZM11 2.75C9.7985 2.74979 8.62294 3.0994 7.61682 3.75613C6.6107 4.41287 5.81755 5.34832 5.3342 6.4483C4.85085 7.54827 4.6982 8.76518 4.8949 9.95046C5.09159 11.1357 5.62912 12.2381 6.44186 13.123L6.52024 13.2151L11.0316 19.0891L15.5705 13.1148L15.6351 13.0364C16.4244 12.1438 16.9392 11.0424 17.1177 9.86434C17.2962 8.68631 17.1307 7.4818 16.6412 6.39552C16.1517 5.30923 15.359 4.38737 14.3583 3.74069C13.3576 3.09401 12.1915 2.75 11 2.75ZM11 4.8125C12.094 4.8125 13.1432 5.2471 13.9168 6.02068C14.6904 6.79427 15.125 7.84348 15.125 8.9375C15.125 10.0315 14.6904 11.0807 13.9168 11.8543C13.1432 12.6279 12.094 13.0625 11 13.0625C9.90597 13.0625 8.85676 12.6279 8.08317 11.8543C7.30959 11.0807 6.87499 10.0315 6.87499 8.9375C6.87499 7.84348 7.30959 6.79427 8.08317 6.02068C8.85676 5.2471 9.90597 4.8125 11 4.8125ZM11 6.1875C10.2706 6.1875 9.57117 6.47723 9.05545 6.99296C8.53972 7.50868 8.24999 8.20815 8.24999 8.9375C8.24999 9.66685 8.53972 10.3663 9.05545 10.882C9.57117 11.3978 10.2706 11.6875 11 11.6875C11.7293 11.6875 12.4288 11.3978 12.9445 10.882C13.4603 10.3663 13.75 9.66685 13.75 8.9375C13.75 8.20815 13.4603 7.50868 12.9445 6.99296C12.4288 6.47723 11.7293 6.1875 11 6.1875Z" fill="#212121"/>
</svg>
