<svg xmlns="http://www.w3.org/2000/svg" fill="none" viewBox="0 0 22 22" class="design-iconfont">
  <path d="M11 1.375C13.6579 1.375 15.8125 3.56125 15.8125 6.26037V8.25H17.3016C17.9988 8.25 18.5625 8.866 18.5625 9.625V19.25C18.5625 20.009 17.9988 20.625 17.3016 20.625H4.69838C4.00125 20.625 3.4375 20.009 3.4375 19.25V9.625C3.4375 8.866 4.00125 8.25 4.69838 8.25H6.1875V6.26037C6.1875 3.56125 8.34213 1.375 11 1.375ZM17.1875 9.625H4.8125V19.25H17.1875V9.625ZM9.625 14.4375V11.6875H12.375V14.4375H11.6875V17.1875H10.3125V14.4375H9.625ZM11 2.75C9.10663 2.75 7.5625 4.3175 7.5625 6.26037V8.25H14.4375V6.26037C14.4375 4.3175 12.8934 2.75 11 2.75Z" fill="#212121"/>
</svg>
