<svg fill="none" xmlns="http://www.w3.org/2000/svg" viewBox="0 0 16 16" class="design-iconfont">
  <path d="M6.49173 13.1404C6.3945 13.3265 6.35228 13.5286 6.35996 13.7282H2V11.9698C2 9.38245 4.19277 7.27755 6.8896 7.27755C7.74292 7.27755 8.54506 7.48939 9.24485 7.86041L6.49173 13.1404ZM6.8896 6.69102C5.54119 6.69102 4.4448 5.63796 4.4448 4.3449C4.4448 3.05184 5.54119 2 6.8896 2C8.23802 2 9.3344 3.05184 9.3344 4.34612C9.3344 5.63918 8.23802 6.69102 6.8896 6.69102ZM13.9643 13.5335C14.0756 13.7478 13.9131 14 13.6637 14H7.6137C7.36424 14 7.20176 13.7478 7.31306 13.5335L10.3387 7.72816C10.4628 7.49061 10.8159 7.49061 10.94 7.72816L13.9643 13.5335ZM10.3029 13.0327H10.9745V12.3873H10.3029V13.0327ZM10.3029 11.742H10.9745V10.1294H10.3029V11.742Z" fill="#333"/>
</svg>
