<svg fill="none" xmlns="http://www.w3.org/2000/svg" viewBox="0 0 16 16" class="design-iconfont">
  <path d="M11.9906 4.65085C11.9906 4.39642 11.8473 3.99063 11.6563 3.78773L9.54073 1.50593C9.32039 1.28531 9.02763 1.16132 8.72563 1.14844H2.95214C2.42518 1.14844 1.9922 1.60415 1.9922 2.16293V12.1339C1.98912 12.6911 2.42055 13.1436 2.95214 13.1484H7.86739C7.70252 12.7346 7.61623 12.2853 7.62394 11.8296C7.61777 10.9294 7.95213 10.0599 8.56538 9.41897C9.17247 8.78129 10.003 8.42702 10.8689 8.43829C11.2572 8.43346 11.6347 8.50432 11.9922 8.63958V4.65085H11.9906ZM3.16786 3.07597C3.23719 3.0019 3.33273 2.96486 3.42826 2.96647H7.18326C7.28187 2.96325 7.37586 3.00512 7.44366 3.07597C7.51454 3.15005 7.54998 3.24828 7.54844 3.35134V3.36905C7.54689 3.46728 7.50837 3.56229 7.44058 3.63153C7.37278 3.70077 7.28033 3.73781 7.18634 3.7362H3.4298C3.33118 3.73942 3.23719 3.69755 3.1694 3.6267C3.10006 3.55262 3.06308 3.4544 3.06462 3.35134C3.06154 3.24667 3.1016 3.14844 3.16786 3.07597ZM9.1093 7.38837C9.10313 7.59449 8.94135 7.75874 8.74412 7.75552H3.4298C3.33118 7.75874 3.23719 7.71688 3.1694 7.64602C3.10006 7.57195 3.06308 7.47372 3.06462 7.37066V7.35134C3.07078 7.14844 3.23565 6.98419 3.4298 6.98902H8.76261C8.95984 6.99546 9.11392 7.16776 9.1093 7.37066V7.38837ZM10.6948 5.37388C10.6917 5.58 10.5299 5.74747 10.3327 5.74425H3.4298C3.33118 5.74747 3.23719 5.7056 3.1694 5.63475C3.10006 5.56229 3.06308 5.46567 3.06462 5.36261C3.06154 5.25955 3.1016 5.16132 3.1694 5.08725C3.23874 5.01317 3.33427 4.97614 3.4298 4.97775H10.3466C10.5438 4.98419 10.701 5.15327 10.6948 5.35939V5.37388Z" fill="#333"/>
  <path fill-rule="evenodd" clip-rule="evenodd" d="M11.3511 9.56079C12.0543 9.55109 12.7285 9.82915 13.2248 10.3255C13.7227 10.825 13.9959 11.4991 13.9911 12.2024C14.0008 12.904 13.7243 13.5798 13.2248 14.0793C12.7333 14.5756 12.0543 14.852 11.3511 14.844C10.6478 14.8537 9.97209 14.5756 9.4774 14.0793C8.97947 13.5798 8.70303 12.904 8.71111 12.2024C8.70303 11.5008 8.97786 10.825 9.4774 10.3255C9.96886 9.82915 10.6478 9.55271 11.3511 9.56079ZM13.0278 11.7588C12.856 11.8271 12.7327 11.9916 12.7327 12.1872C12.7327 12.3828 12.8564 12.5473 13.0241 12.6124C12.9865 12.7736 12.9215 12.928 12.839 13.065C12.6709 12.9931 12.4688 13.0206 12.3282 13.1612C12.1875 13.3019 12.1564 13.5039 12.232 13.6721C12.0946 13.7509 11.9406 13.8159 11.7793 13.8572C11.7175 13.6854 11.5498 13.5621 11.3541 13.5621C11.1589 13.5621 10.9944 13.6858 10.9257 13.8572C10.7645 13.8196 10.6137 13.7545 10.4731 13.6721C10.545 13.5039 10.5175 13.3019 10.3769 13.1612C10.2362 13.0206 10.0342 12.9894 9.86603 13.065C9.78358 12.9244 9.72214 12.7736 9.68092 12.6124C9.85269 12.5473 9.97596 12.3864 9.97596 12.1908C9.97596 11.9956 9.85228 11.8311 9.68092 11.7624C9.72214 11.6011 9.78398 11.4468 9.86966 11.3097C10.0378 11.3817 10.2399 11.3506 10.3805 11.2136C10.5212 11.0765 10.5523 10.8708 10.4767 10.7027C10.6174 10.6166 10.7681 10.5552 10.9294 10.514C10.9944 10.6853 11.1658 10.8054 11.3578 10.8054C11.5498 10.8054 11.7179 10.6817 11.783 10.5103C11.9442 10.5515 12.095 10.6166 12.2356 10.6991C12.1637 10.8672 12.1912 11.0693 12.3318 11.2099C12.4724 11.3506 12.6745 11.3817 12.8427 11.3061C12.9215 11.4468 12.9865 11.5975 13.0278 11.7588ZM10.895 12.1872C10.895 12.441 11.1007 12.6467 11.3545 12.6467C11.6084 12.6467 11.8141 12.4414 11.8141 12.1876C11.8141 11.9338 11.6084 11.7281 11.3545 11.7281C11.1007 11.7281 10.895 11.9334 10.895 12.1872Z" fill="#333"/>
</svg>
