<svg fill="none" xmlns="http://www.w3.org/2000/svg" viewBox="0 0 16 16" class="design-iconfont">
  <path d="M1 6C1 5.44772 1.44772 5 2 5H14C14.5523 5 15 5.44772 15 6V9H1V6Z" fill="#fff"/>
  <path d="M13.4096 4.24186H11.5936V3.57011C11.5934 3.16366 11.426 2.77387 11.1281 2.48628C10.8301 2.19869 10.4261 2.0368 10.0045 2.03613H5.99748C5.57556 2.03647 5.17101 2.19817 4.8726 2.48576C4.5742 2.77334 4.40631 3.16332 4.40579 3.57011V4.24186H2.59037C2.1688 4.2422 1.76458 4.40377 1.46642 4.69112C1.16826 4.97847 1.00052 5.36812 1 5.77458V12.5015C1 13.3467 1.71308 14.0361 2.59037 14.0361H13.409C13.8308 14.0355 14.2352 13.8735 14.5335 13.5859C14.8317 13.2982 14.9995 12.9083 15 12.5015V5.77458C15 4.92938 14.2869 4.24186 13.4096 4.24186ZM5.27262 3.49253C5.27262 3.15067 5.56178 2.87124 5.91701 2.87124H10.0817C10.4382 2.87124 10.7267 3.15004 10.7267 3.49253V4.24186H5.27262V3.49253ZM2.44776 5.07697H13.5536C13.9094 5.07697 14.1979 5.35576 14.1979 5.69826V8.36065H12.13C12.1269 8.18424 12.0522 8.01601 11.922 7.89208C11.7917 7.76814 11.6163 7.69837 11.4333 7.69774C11.0519 7.69774 10.7405 7.99608 10.7346 8.36065H5.26673C5.26314 8.18417 5.18812 8.01604 5.05769 7.89217C4.92727 7.76831 4.75177 7.69853 4.56869 7.69774C4.3854 7.69804 4.20954 7.76764 4.0789 7.8916C3.94826 8.01555 3.87325 8.18396 3.87 8.36065H1.8014L1.81776 5.69826C1.81776 5.35576 2.09056 5.07697 2.44776 5.07697ZM13.5529 13.1991H2.46215C2.10692 13.1991 1.8014 12.921 1.8014 12.5785V9.24244H3.86935V9.90662C3.86935 10.2762 4.18336 10.5796 4.56804 10.5796C4.75301 10.5791 4.93026 10.5081 5.06105 10.382C5.19185 10.2559 5.26556 10.085 5.26607 9.90662V9.24244H10.7333V9.90662C10.7333 10.2762 11.0479 10.5796 11.432 10.5796C11.617 10.5793 11.7945 10.5083 11.9254 10.3822C12.0563 10.2561 12.1301 10.0851 12.1307 9.90662V9.24244H14.1966V12.5791C14.1967 12.6606 14.1801 12.7413 14.1478 12.8166C14.1155 12.8919 14.068 12.9603 14.0082 13.0179C13.9484 13.0755 13.8774 13.1212 13.7993 13.1523C13.7212 13.1834 13.6374 13.1993 13.5529 13.1991Z" fill="#fff"/>
</svg>
