<svg fill="none" xmlns="http://www.w3.org/2000/svg" viewBox="0 0 16 16" class="design-iconfont">
  <path d="M13.5598 4.19593H12.3095V2.4658C12.3095 2.19963 12.1121 2 11.8488 2H4.17157C3.90835 2 3.71094 2.19963 3.71094 2.4658V4.17375H2.46064C2.19742 4.17375 2 4.37338 2 4.63956V7.21257C2 7.94455 2.28516 8.63216 2.76773 9.12015C3.18449 9.54159 3.75481 9.82994 4.39092 9.91867C5.09284 11.0055 6.2554 11.7597 7.54957 11.8928V13.0684H5.53155C5.26833 13.0684 5.07091 13.268 5.07091 13.5342C5.07091 13.7782 5.29026 14 5.53155 14H10.4669C10.7302 14 10.9276 13.7782 10.9276 13.5342C10.9276 13.268 10.7082 13.0684 10.4669 13.0684H8.44891V11.8928C9.74308 11.7597 10.9056 11.0055 11.6076 9.91867C12.2217 9.85213 12.7701 9.56377 13.1869 9.14233L13.2088 9.12015C13.6914 8.63216 13.9985 7.94455 13.9985 7.21257V4.66174C14.0204 4.39556 13.8011 4.19593 13.5598 4.19593ZM3.44771 8.4769C3.11869 8.14418 2.94321 7.70055 2.94321 7.21257V5.12754H3.73287V7.67837C3.73287 8.07763 3.79868 8.45471 3.90835 8.83179C3.73287 8.74307 3.57933 8.63216 3.44771 8.4769ZM9.89662 6.48059L8.88761 7.21257L9.28244 8.41035C9.30438 8.49908 9.26051 8.60998 9.17277 8.63216C9.10696 8.65434 9.06309 8.63216 9.01922 8.60998L8.01021 7.878L7.0012 8.63216C6.93539 8.69871 6.82572 8.67653 6.75991 8.5878C6.71604 8.54344 6.71604 8.4769 6.73798 8.43253L7.13281 7.23475L6.12379 6.50277C6.05799 6.43623 6.03605 6.3475 6.07992 6.25878C6.10186 6.21442 6.16766 6.19224 6.21153 6.19224H7.46183L7.85666 4.99445C7.8786 4.90573 7.98827 4.86137 8.07601 4.88355C8.11988 4.90573 8.16375 4.95009 8.18569 4.99445L8.58052 6.19224H9.83082C9.91856 6.19224 10.0063 6.25878 10.0063 6.36969C9.98437 6.39187 9.96243 6.45841 9.89662 6.48059ZM13.0991 7.23475C13.0991 7.72274 12.9017 8.16636 12.5946 8.49908L12.5727 8.52126C12.4411 8.65434 12.2875 8.76525 12.134 8.83179C12.2437 8.45471 12.3095 8.05545 12.3095 7.67837V5.12754H13.0991V7.23475Z" fill="#fff"/>
</svg>
