<svg fill="none" xmlns="http://www.w3.org/2000/svg" viewBox="0 0 16 16" class="design-iconfont">
  <path d="M13.332 4.00033H7.9987L6.66536 2.66699H2.66536C2.49027 2.66699 2.31689 2.70148 2.15512 2.76849C1.99335 2.83549 1.84637 2.9337 1.72256 3.05752C1.59874 3.18133 1.50053 3.32831 1.43353 3.49008C1.36652 3.65185 1.33203 3.82523 1.33203 4.00033V12.0003C1.33203 12.1754 1.36652 12.3488 1.43353 12.5106C1.50053 12.6723 1.59874 12.8193 1.72256 12.9431C1.84637 13.0669 1.99335 13.1652 2.15512 13.2322C2.31689 13.2992 2.49027 13.3337 2.66536 13.3337H13.332C13.5071 13.3337 13.6805 13.2992 13.8423 13.2322C14.004 13.1652 14.151 13.0669 14.2748 12.9431C14.3987 12.8193 14.4969 12.6723 14.5639 12.5106C14.6309 12.3488 14.6654 12.1754 14.6654 12.0003V5.33366C14.6654 5.15856 14.6309 4.98518 14.5639 4.82341C14.4969 4.66165 14.3987 4.51466 14.2748 4.39085C14.151 4.26704 14.004 4.16883 13.8423 4.10182C13.6805 4.03481 13.5071 4.00033 13.332 4.00033ZM5.66536 5.33366C5.88423 5.33366 6.10096 5.37677 6.30317 5.46053C6.50538 5.54428 6.68911 5.66705 6.84388 5.82181C6.99864 5.97658 7.12141 6.16031 7.20516 6.36252C7.28892 6.56473 7.33203 6.78146 7.33203 7.00033C7.33203 7.21919 7.28892 7.43592 7.20516 7.63813C7.12141 7.84034 6.99864 8.02407 6.84388 8.17884C6.68911 8.3336 6.50538 8.45637 6.30317 8.54012C6.10096 8.62388 5.88423 8.66699 5.66536 8.66699C5.22334 8.66699 4.79941 8.4914 4.48685 8.17884C4.17429 7.86628 3.9987 7.44235 3.9987 7.00033C3.9987 6.5583 4.17429 6.13437 4.48685 5.82181C4.79941 5.50925 5.22334 5.33366 5.66536 5.33366ZM8.66536 12.0003H2.66536V11.3337C2.66536 10.8032 2.87608 10.2945 3.25115 9.91945C3.62622 9.54437 4.13493 9.33366 4.66536 9.33366H6.66536C7.1958 9.33366 7.70451 9.54437 8.07958 9.91945C8.45465 10.2945 8.66536 10.8032 8.66536 11.3337V12.0003ZM11.9987 9.33366H9.33203V8.00033H11.9987V9.33366ZM13.332 7.33366H9.33203V6.00033H13.332V7.33366Z" fill="#333"/>
</svg>
