<svg fill="none" xmlns="http://www.w3.org/2000/svg" viewBox="0 0 16 16" class="design-iconfont">
  <path d="M14.3 5.8035L8.61266 7.38988C8.43765 7.47808 8.17515 7.47808 8.00015 7.47808C7.82514 7.47808 7.56264 7.47808 7.38763 7.38988L1.78752 5.8035C1.26251 5.6271 1 5.18641 1 4.74571C1 4.30502 1.26251 3.86462 1.70001 3.68822L7.38763 2.10184C7.73764 2.01364 8.26265 1.92545 8.61266 2.10184L14.2128 3.68822C14.7375 3.86462 15 4.30502 15 4.74571C15 5.18641 14.7375 5.6271 14.3 5.8035ZM3.71256 6.94918L7.91264 8.18307C8.08765 8.27127 8.26265 8.27127 8.43765 8.18307L12.1999 6.94918C12.3752 6.94918 12.4624 6.94919 12.5502 7.03738C12.6377 7.12558 12.725 7.21348 12.725 7.38988V10.739C12.8125 11.7965 11.9377 12.6779 10.8877 12.6779H5.11259C4.06256 12.6779 3.18755 11.7965 3.18755 10.739V7.38988C3.18755 7.21348 3.27505 7.12558 3.36255 7.03738C3.45005 6.94919 3.62505 6.94918 3.71256 6.94918ZM13.6875 11.7965V6.50849C13.6875 6.24419 13.8628 6.0678 14.125 6.0678C14.3875 6.0678 14.5628 6.24419 14.5628 6.50849V11.7965C14.5628 12.0608 14.3875 12.2372 14.125 12.2372C13.8628 12.2372 13.6875 12.0608 13.6875 11.7965ZM14.125 12.5897C14.5117 12.5897 14.825 12.9053 14.825 13.2947C14.825 13.6841 14.5117 14 14.125 14C13.7385 14 13.425 13.6841 13.425 13.2947C13.425 12.9053 13.7385 12.5897 14.125 12.5897Z" fill="#fff"/>
</svg>
