<svg fill="none" xmlns="http://www.w3.org/2000/svg" viewBox="0 0 16 16" class="design-iconfont">
  <path d="M12.0347 1.04004H3.85395C3.56456 1.04004 3.27801 1.09709 3.01069 1.20793C2.74337 1.31877 2.50053 1.48123 2.29605 1.686C2.09157 1.89078 1.92947 2.13386 1.81901 2.40134C1.70856 2.66882 1.65193 2.95545 1.65235 3.24484V12.7552C1.65193 13.0446 1.70856 13.3313 1.81901 13.5987C1.92947 13.8662 2.09157 14.1093 2.29605 14.3141C2.50053 14.5189 2.74337 14.6813 3.01069 14.7921C3.27801 14.903 3.56456 14.96 3.85395 14.96H12.0347C12.6186 14.96 13.1786 14.7281 13.5915 14.3152C14.0044 13.9023 14.2363 13.3423 14.2363 12.7584V3.24484C14.2368 2.95545 14.1801 2.66882 14.0697 2.40134C13.9592 2.13386 13.7971 1.89078 13.5926 1.686C13.3882 1.48123 13.1453 1.31877 12.878 1.20793C12.6107 1.09709 12.3241 1.04004 12.0347 1.04004ZM8.96115 12.5024H4.65635C4.50782 12.5024 4.36539 12.4434 4.26037 12.3384C4.15535 12.2334 4.09635 12.091 4.09635 11.9424C4.09635 11.7939 4.15535 11.6515 4.26037 11.5465C4.36539 11.4414 4.50782 11.3824 4.65635 11.3824H8.96115C9.10967 11.3824 9.25211 11.4414 9.35713 11.5465C9.46215 11.6515 9.52115 11.7939 9.52115 11.9424C9.52115 12.091 9.46215 12.2334 9.35713 12.3384C9.25211 12.4434 9.10967 12.5024 8.96115 12.5024ZM11.2307 10.0368H4.65635C4.50782 10.0368 4.36539 9.97784 4.26037 9.87282C4.15535 9.7678 4.09635 9.62536 4.09635 9.47684C4.09635 9.32832 4.15535 9.18588 4.26037 9.08086C4.36539 8.97584 4.50782 8.91684 4.65635 8.91684H11.2323C11.3809 8.91684 11.5233 8.97584 11.6283 9.08086C11.7333 9.18588 11.7923 9.32832 11.7923 9.47684C11.7923 9.62536 11.7333 9.7678 11.6283 9.87282C11.5233 9.97784 11.3809 10.0368 11.2323 10.0368H11.2307ZM11.8475 4.00004L11.6875 6.18484C11.6772 6.32618 11.6137 6.45835 11.5098 6.5547C11.4058 6.65105 11.2693 6.70442 11.1275 6.70404H11.0851C10.9371 6.69299 10.7994 6.62358 10.7025 6.51106C10.6056 6.39854 10.5573 6.25213 10.5683 6.10404L10.6411 5.17844L8.12835 7.16324C8.06658 7.21212 7.99519 7.24741 7.91885 7.26682C7.84251 7.28623 7.76293 7.28932 7.68531 7.27588C7.6077 7.26244 7.53379 7.23278 7.46842 7.18883C7.40305 7.14488 7.34769 7.08764 7.30595 7.02084L6.62355 5.92884L4.73715 7.26324C4.67728 7.30806 4.60905 7.34043 4.53648 7.35845C4.4639 7.37647 4.38845 7.37977 4.31458 7.36816C4.24071 7.35655 4.16991 7.33026 4.10636 7.29084C4.04281 7.25143 3.9878 7.19968 3.94457 7.13866C3.90135 7.07764 3.87078 7.00858 3.85467 6.93556C3.83857 6.86253 3.83725 6.78702 3.8508 6.71348C3.86435 6.63994 3.89249 6.56986 3.93356 6.50737C3.97464 6.44488 4.02781 6.39125 4.08995 6.34964L6.46035 4.66964C6.52261 4.62532 6.59329 4.59421 6.66803 4.57823C6.74277 4.56225 6.81998 4.56174 6.89493 4.57673C6.96987 4.59172 7.04095 4.62189 7.1038 4.66538C7.16664 4.70888 7.21992 4.76478 7.26035 4.82964L7.92115 5.89684L9.84115 4.37684L9.06115 4.30084C8.98657 4.29556 8.9138 4.27541 8.84713 4.24156C8.78047 4.20772 8.72125 4.16086 8.67298 4.10376C8.62472 4.04667 8.58837 3.98048 8.56609 3.90911C8.54381 3.83774 8.53605 3.76263 8.54326 3.68822C8.55047 3.6138 8.57251 3.54158 8.60808 3.47582C8.64365 3.41005 8.69203 3.35208 8.75036 3.30531C8.8087 3.25854 8.87581 3.22393 8.94773 3.20352C9.01966 3.1831 9.09494 3.17729 9.16915 3.18644L11.3403 3.39764C11.4872 3.41107 11.6228 3.48185 11.7177 3.59463C11.8127 3.70741 11.8593 3.85308 11.8475 4.00004Z" fill="#fff"/>
</svg>
