<svg fill="none" xmlns="http://www.w3.org/2000/svg" viewBox="0 0 16 16" class="design-iconfont">
  <path d="M12.9368 15.549H4.01871C3.42889 15.549 2.95703 15.0771 2.95703 14.4873C2.95703 13.8975 3.42889 13.4256 4.01871 13.4256H6.27182C8.61931 12.0454 8.52494 10.4175 8.11206 9.39123C8.985 9.39123 9.68099 8.73063 9.79895 7.89309C11.1791 8.76602 10.8016 12.3403 10.6719 13.4256H12.9368C13.5266 13.4256 13.9985 13.8975 13.9985 14.4873C13.9985 15.0771 13.5266 15.549 12.9368 15.549ZM8.77266 7.64536C8.77266 8.03464 8.46596 8.34135 8.05308 8.34135C7.64021 8.34135 7.3335 8.03464 7.3335 7.62177C7.3335 7.20889 7.64021 6.92578 8.05308 6.92578C8.45416 6.92578 8.77266 7.26788 8.77266 7.64536Z" fill="#fff"/>
  <path d="M8.7712 5.94732C8.67682 5.91193 8.54706 5.85295 8.45269 5.85295C8.32293 5.81756 8.20497 5.81756 8.1106 5.81756C7.14329 5.81756 6.36473 6.59613 6.36473 7.56343C6.36473 7.69319 6.36473 7.81116 6.40012 7.94092C6.43551 8.07068 6.4591 8.16505 6.49449 8.25942L4.27676 10.5125C3.99365 10.7957 3.4982 10.7957 3.21509 10.5125L1.61077 8.92002C1.32766 8.63691 1.32766 8.14146 1.61077 7.85834L8.71221 0.662531C8.99533 0.379417 9.49078 0.379417 9.77389 0.662531L11.3664 2.25505C11.6495 2.53816 11.6495 3.03361 11.3664 3.31672L8.7712 5.94732Z" fill="#fff"/>
  <path d="M3.79452 7.89355C3.67656 7.89355 3.55859 7.98793 3.55859 8.12948C3.55859 8.24745 3.65297 8.36541 3.79452 8.36541C3.91249 8.36541 4.03045 8.27104 4.03045 8.12948C4.04225 7.98793 3.93608 7.89355 3.79452 7.89355Z" fill="#fff"/>
</svg>
