<svg fill="none" xmlns="http://www.w3.org/2000/svg" viewBox="0 0 16 16" class="design-iconfont">
  <path d="M12.38 0.944336C13.0627 0.944336 13.58 1.14434 13.932 1.54434C14.284 1.94434 14.46 2.43234 14.46 3.00834V11.5043C14.46 11.771 14.348 12.011 14.124 12.2243L11.452 14.7843C11.3133 14.9017 11.196 14.9763 11.1 15.0083C11.004 15.0403 10.8813 15.0563 10.732 15.0563H3.548C3.30267 15.0563 3.05733 15.0057 2.812 14.9043C2.56667 14.803 2.348 14.659 2.156 14.4723C1.964 14.2857 1.80667 14.0617 1.684 13.8003C1.56133 13.539 1.5 13.2483 1.5 12.9283V3.00834C1.5 2.379 1.67333 1.87767 2.02 1.50434C2.36667 1.131 2.86 0.944336 3.5 0.944336H12.38ZM9.02 10.9763C9.15867 10.9763 9.276 10.9283 9.372 10.8323C9.468 10.7363 9.516 10.619 9.516 10.4803C9.516 10.331 9.468 10.211 9.372 10.1203C9.276 10.0297 9.15867 9.98434 9.02 9.98434H4.012C3.87333 9.98434 3.756 10.0297 3.66 10.1203C3.564 10.211 3.516 10.331 3.516 10.4803C3.516 10.619 3.564 10.7363 3.66 10.8323C3.756 10.9283 3.87333 10.9763 4.012 10.9763H9.02ZM11.02 7.96834C11.1587 7.96834 11.276 7.92034 11.372 7.82434C11.468 7.72834 11.516 7.611 11.516 7.47234C11.516 7.33367 11.468 7.21634 11.372 7.12034C11.276 7.02434 11.1587 6.97634 11.02 6.97634H4.012C3.87333 6.97634 3.756 7.02434 3.66 7.12034C3.564 7.21634 3.516 7.33367 3.516 7.47234C3.516 7.611 3.564 7.72834 3.66 7.82434C3.756 7.92034 3.87333 7.96834 4.012 7.96834H11.02ZM12.012 4.97634C12.1507 4.97634 12.268 4.92834 12.364 4.83234C12.46 4.73634 12.508 4.61367 12.508 4.46434C12.508 4.32567 12.46 4.20834 12.364 4.11234C12.268 4.01634 12.1507 3.96834 12.012 3.96834H4.012C3.87333 3.96834 3.756 4.01634 3.66 4.11234C3.564 4.20834 3.516 4.32567 3.516 4.46434C3.516 4.61367 3.564 4.73634 3.66 4.83234C3.756 4.92834 3.87333 4.97634 4.012 4.97634H12.012Z" fill="#fff"/>
</svg>
