<svg fill="none" xmlns="http://www.w3.org/2000/svg" viewBox="0 0 16 16" class="design-iconfont">
  <path d="M2 13.8447C2 14.1338 2.33697 14.5 2.63651 14.5H13.3635C13.6537 14.5 14 14.1338 14 13.8447V5.40289H2V13.8447ZM8.87051 7.79281H11.9688V8.7083H8.87051V7.79281ZM8.87051 10.308H11.9688V11.2235H8.87051V10.308ZM4.02184 7.79281H7.12012V8.7083H4.02184V7.79281ZM4.02184 10.308H7.12012V11.2235H4.02184V10.308ZM13.3635 2.80096H11.4727V1.5H10.209V2.80096H5.79095V1.5H4.5273V2.80096H2.63651C2.34633 2.80096 2 3.16716 2 3.45626V4.75723H13.9906V3.58154C13.9906 3.29244 13.8222 2.80096 13.3635 2.80096Z" fill="#fff"/>
</svg>
