<svg fill="none" xmlns="http://www.w3.org/2000/svg" viewBox="0 0 16 16" class="design-iconfont">
  <path d="M1.53162 1H1V15H15V14.4608L1.54109 14.4329L1.53162 1ZM8.53845 1.56C8.53845 1.25047 8.29761 1 7.99999 1H6.38462C6.08751 1 5.84615 1.25047 5.84615 1.56V13.32H8.53847V1.56H8.53845ZM5.30769 4.92C5.30769 4.61075 5.06684 4.36 4.76923 4.36H3.15384C2.85675 4.36 2.61539 4.61075 2.61539 4.92V13.32H5.30771V4.92H5.30769ZM11.7692 8.28C11.7692 7.97046 11.5284 7.72 11.2308 7.72H9.61538C9.31828 7.72 9.07692 7.97046 9.07692 8.28V13.32H11.7692V8.28H11.7692ZM14.4615 11.08H12.8461C12.5491 11.08 12.3077 11.3305 12.3077 11.64V13.32H15V11.64C15 11.3305 14.7592 11.08 14.4615 11.08Z" fill="#fff"/>
</svg>
