<?xml version="1.0" standalone="no"?><!DOCTYPE svg PUBLIC "-//W3C//DTD SVG 1.1//EN" "http://www.w3.org/Graphics/SVG/1.1/DTD/svg11.dtd"><svg t="1743143467386" class="icon" viewBox="0 0 1024 1024" version="1.1" xmlns="http://www.w3.org/2000/svg" p-id="1709" width="128" height="128" xmlns:xlink="http://www.w3.org/1999/xlink"><path d="M512 512a32 32 0 0 1 0 64C317.6 576 160 733.6 160 928a32 32 0 0 1-64 0c0-229.76 186.24-416 416-416z m352.064 256a32 32 0 0 1 3.712 63.776l-3.712 0.224h-256l57.6 76.8a32 32 0 0 1-3.36 42.176l-3.04 2.624a32 32 0 0 1-42.208-3.328l-2.592-3.072-96-128a32 32 0 0 1 22.08-51.008l3.52-0.192h320z m-73.056-214.272l2.592 3.072 96 128a32 32 0 0 1-22.08 51.008L864 736H544a32 32 0 0 1-3.744-63.776L544 672h256l-57.6-76.8a32 32 0 0 1 3.328-42.208l3.072-2.592a32 32 0 0 1 42.208 3.328zM512 64a208 208 0 1 0 0 416 208 208 0 0 0 0-416z m0 64a144 144 0 1 1 0 288 144 144 0 0 1 0-288z" fill="#000000" p-id="1710"></path></svg>