<svg fill="none" xmlns="http://www.w3.org/2000/svg" viewBox="0 0 16 16" class="design-iconfont">
  <path d="M9.74285 4.27254C8.88479 4.24847 8.20231 3.52181 8.20599 2.63636C8.20153 2.42447 8.23787 2.21377 8.3129 2.01647C8.38793 1.81918 8.50017 1.6392 8.6431 1.48697C8.78606 1.33477 8.95689 1.21335 9.14567 1.12976C9.33445 1.04617 9.53743 1.00206 9.74285 1C10.6198 1 11.3308 1.73348 11.3308 2.63845C11.3308 3.54322 10.6198 4.27671 9.74285 4.27671V4.27254ZM2.0128 11.7074L2.77187 9.25306C2.77995 9.22131 2.79433 9.19164 2.81408 9.16591C2.83384 9.14018 2.85855 9.11895 2.88665 9.10356C2.91476 9.08817 2.94566 9.07894 2.97739 9.07646C3.00912 9.07398 3.04101 9.07831 3.07105 9.08916L3.53111 9.25306L3.57097 9.11247C3.63467 8.90755 3.74362 8.72069 3.88924 8.56661C4.03485 8.41253 4.21316 8.29544 4.41011 8.22456L4.78918 5.98052C4.81138 5.84785 4.86753 5.72369 4.95184 5.62092C5.03615 5.51815 5.14555 5.44049 5.26872 5.39597C5.30876 5.37267 5.34861 5.37267 5.38865 5.34936L7.98486 4.57779C8.16672 4.4854 8.36471 4.43162 8.56709 4.41964C8.76948 4.40767 8.97213 4.43773 9.16304 4.50806L9.44275 4.6011C9.64971 4.67821 9.83871 4.79922 9.99755 4.95633C10.1564 5.11345 10.2815 5.30317 10.3649 5.51326L11.5431 7.38402L13.4416 7.89789C13.8366 8.02276 14.0715 8.44075 13.9804 8.85648L13.96 8.94951C13.9398 9.04689 13.9006 9.13905 13.845 9.22045C13.7894 9.30185 13.7184 9.37082 13.6363 9.42322C13.5542 9.47564 13.4627 9.51041 13.3673 9.52546C13.2719 9.5405 13.1745 9.5355 13.081 9.51076L10.8435 8.92621C10.7185 8.87795 10.6032 8.80626 10.5034 8.71475C10.4394 8.66315 10.3852 8.59974 10.3436 8.52773L9.984 7.96648L9.50446 9.4632C9.42958 9.68609 9.31449 9.89234 9.16524 10.0711L11.1025 13.4611C11.3411 13.8974 11.2107 14.4498 10.8044 14.7242L10.7838 14.7475C10.6889 14.808 10.5831 14.8482 10.4728 14.8656C10.3625 14.883 10.25 14.8774 10.1418 14.849C10.0337 14.8205 9.93222 14.77 9.84344 14.7002C9.75467 14.6304 9.68042 14.543 9.62512 14.443L7.70717 11.0764L5.88967 14.5371C5.83936 14.6393 5.76944 14.7299 5.68417 14.8034C5.5989 14.8769 5.50004 14.9317 5.39361 14.9646C5.28715 14.9974 5.17534 15.0076 5.06497 14.9944C4.9546 14.9813 4.84796 14.9452 4.75153 14.8882L4.71168 14.8649C4.30248 14.6167 4.16052 14.0769 4.39211 13.6494L4.73225 12.9951L2.15256 12.0608C2.03117 11.9928 1.97276 11.8463 2.01225 11.7099L2.0128 11.7074ZM6.04743 10.0237L6.00758 10.1643L6.18793 10.234L6.44708 9.74363C6.32559 9.53039 6.25017 9.2926 6.22595 9.04652C6.20173 8.80044 6.2293 8.55186 6.30676 8.31778L6.82615 6.70491L6.21144 6.89193L5.91226 8.59783C5.9084 8.64691 5.89481 8.69485 5.87241 8.73843C5.99103 8.92656 6.06859 9.13905 6.0997 9.36117C6.13081 9.5833 6.11473 9.80974 6.05258 10.0248L6.04743 10.0237ZM5.64779 11.2392L5.80758 10.7013L5.5679 10.6082L4.989 12.478L5.64889 11.2392H5.64779ZM5.76772 10.0701L5.80776 9.92951C5.85633 9.77115 5.87231 9.60406 5.85466 9.43896C5.83701 9.27385 5.78613 9.11437 5.70528 8.97073C5.62302 9.05637 5.52196 9.12031 5.41068 9.15712C5.29939 9.19392 5.18115 9.20253 5.06596 9.1822L4.94621 9.15889C4.64391 9.08575 4.41948 8.82332 4.38678 8.50461C4.24849 8.56776 4.12506 8.66101 4.02495 8.77796C3.92485 8.89491 3.85042 9.0328 3.80679 9.1822L3.76693 9.32279L5.76478 10.0712L5.76772 10.0701ZM2.97077 11.941L3.61009 9.88309L3.37041 9.78892L2.73109 11.8469L2.97077 11.941Z" fill="#333"/>
</svg>
