<svg fill="none" xmlns="http://www.w3.org/2000/svg" viewBox="0 0 16 16" class="design-iconfont">
  <path d="M5.00439 2H2.74963C2.33616 2 2 2.33548 2 2.75073V13.2493C2 13.6633 2.33616 14 2.74963 14H5.00439C5.41786 14 5.75403 13.6633 5.75403 13.2493V2.75073C5.75403 2.33548 5.41786 2 5.00439 2ZM3.50512 12.129C3.50512 12.0258 3.54729 11.932 3.61523 11.8639C3.68316 11.7959 3.77687 11.7537 3.87994 11.7537C3.98302 11.7537 4.07672 11.7959 4.14466 11.8639C4.21259 11.932 4.25476 12.0258 4.25476 12.129C4.25476 12.2323 4.21259 12.3261 4.14466 12.3941C4.07672 12.4622 3.98302 12.5044 3.87994 12.5044C3.67262 12.5044 3.50512 12.3367 3.50512 12.129ZM4.25476 9.40762C4.25476 9.45924 4.21259 9.50147 4.16105 9.50147H3.59883C3.54729 9.50147 3.50512 9.45924 3.50512 9.40762V3.58944C3.50512 3.53783 3.54729 3.4956 3.59883 3.4956H4.16105C4.21259 3.4956 4.25476 3.53783 4.25476 3.58944V9.40762ZM9.12738 2H6.87262C6.45915 2 6.12299 2.33548 6.12299 2.75073V13.2493C6.12299 13.6633 6.45915 14 6.87262 14H9.12738C9.54085 14 9.87701 13.6633 9.87701 13.2493V2.75073C9.87701 2.33548 9.54085 2 9.12738 2ZM7.62811 12.129C7.62811 12.0258 7.67028 11.932 7.73821 11.8639C7.80615 11.7959 7.89985 11.7537 8.00293 11.7537C8.106 11.7537 8.19971 11.7959 8.26764 11.8639C8.33558 11.932 8.37775 12.0258 8.37775 12.129C8.37775 12.2323 8.33558 12.3261 8.26764 12.3941C8.19971 12.4622 8.106 12.5044 8.00293 12.5044C7.79561 12.5044 7.62811 12.3367 7.62811 12.129ZM8.37775 9.40762C8.37775 9.45924 8.33558 9.50147 8.28404 9.50147H7.72182C7.67028 9.50147 7.62811 9.45924 7.62811 9.40762V3.58944C7.62811 3.53783 7.67028 3.4956 7.72182 3.4956H8.28404C8.33558 3.4956 8.37775 3.53783 8.37775 3.58944V9.40762ZM13.2504 2H10.9956C10.5821 2 10.246 2.33548 10.246 2.75073V13.2493C10.246 13.6633 10.5821 14 10.9956 14H13.2504C13.6638 14 14 13.6633 14 13.2493V2.75073C14 2.33548 13.6638 2 13.2504 2ZM11.7511 12.129C11.7511 12.0258 11.7933 11.932 11.8612 11.8639C11.9291 11.7959 12.0228 11.7537 12.1259 11.7537C12.229 11.7537 12.3227 11.7959 12.3906 11.8639C12.4586 11.932 12.5007 12.0258 12.5007 12.129C12.5007 12.2323 12.4586 12.3261 12.3906 12.3941C12.3227 12.4622 12.229 12.5044 12.1259 12.5044C11.9186 12.5044 11.7511 12.3367 11.7511 12.129ZM12.5007 9.40762C12.5007 9.45924 12.4586 9.50147 12.407 9.50147H11.8448C11.7933 9.50147 11.7511 9.45924 11.7511 9.40762V3.58944C11.7511 3.53783 11.7933 3.4956 11.8448 3.4956H12.407C12.4586 3.4956 12.5007 3.53783 12.5007 3.58944V9.40762Z" fill="#333"/>
</svg>
