<svg fill="none" xmlns="http://www.w3.org/2000/svg" viewBox="0 0 16 16" class="design-iconfont">
  <path d="M2.26316 3H5.52934V5.44742H10.4706V3H13.7375C14.4324 3 15 3.56898 15 4.26472V12.7349C15 13.4307 14.4324 14 13.7375 14H2.26316C1.56831 14 1 13.4307 1 12.7349V4.26471C1 3.56898 1.56831 3 2.26316 3ZM9.2933 10.0096C8.96231 10.3086 8.53053 10.5077 8.0337 10.5077C7.53598 10.5077 7.10493 10.3086 6.73963 10.0096C5.9111 10.4415 5.3478 11.0062 5.3478 12.036H10.6529C10.6529 11.0062 10.0897 10.4748 9.2933 10.0096ZM8.0001 10.1092C8.82935 10.1092 9.49272 9.41164 9.49272 8.58127C9.49272 7.75055 8.82935 7.05304 8.0001 7.05304C7.1714 7.05304 6.508 7.75055 6.508 8.58127C6.508 9.44494 7.20428 10.1092 8.0001 10.1092Z" fill="#333"/>
  <path d="M7.04222 2H8.95846C9.25609 2 9.5 2.25272 9.5 2.56145V5H6.5V2.56143C6.5 2.25269 6.74391 2 7.04222 2Z" fill="#333"/>
</svg>
