<svg fill="none" xmlns="http://www.w3.org/2000/svg" viewBox="0 0 16 16" class="design-iconfont">
  <g clip-path="url(#9d1rgbtt7__clip0_1084_8142)">
    <path opacity=".01" d="M0 0H16V16H0V0Z" fill="#3473D1"/>
    <path d="M7.97861 1C9.94279 1.00652 11.859 1.62421 13.4742 2.77149L13.6059 2.86297L13.0734 7.69709C14.9603 9.9943 13.3813 14.4934 13.3813 14.4934H10.1067C9.47997 14.8261 8.78198 15 8.07329 15C7.3646 15 6.66662 14.8261 6.03988 14.4934H2.74106C1.16233 10.6953 2.52794 7.90105 2.98034 7.13708L2.4425 2.65345L2.57786 2.56004C4.19979 1.54738 6.06934 1.00733 7.97837 1H7.97861ZM7.49117 6.55174C6.61132 8.27133 4.60755 8.32105 3.81771 8.27133C3.72579 8.68167 3.67947 9.10168 3.67995 9.52288C3.67995 12.2797 5.61772 14.5173 8.00549 14.5173C10.3933 14.5173 12.3291 12.2797 12.32 9.53037C12.32 9.33123 12.3094 9.13209 12.2888 8.93416C11.1224 9.26485 8.11373 6.96643 7.59773 6.56139L7.49117 6.55174ZM6.25804 9.22888C6.72244 9.22888 7.10189 9.46206 7.10189 9.72419C7.10189 9.98609 6.72052 10.2041 6.25804 10.2041C5.79556 10.2041 5.41972 9.98609 5.41972 9.71647C5.41972 9.44685 5.79556 9.22888 6.25804 9.22888ZM9.60774 9.22888C10.0702 9.22888 10.4458 9.44685 10.4458 9.71647C10.4458 9.98609 10.0702 10.2041 9.60774 10.2041C9.14502 10.2041 8.76942 9.98609 8.76942 9.71647C8.76942 9.44685 9.14502 9.22888 9.60774 9.22888ZM7.61549 2.44828C7.38749 2.44828 7.20245 2.63414 7.20221 2.86369V3.60232H6.4678C6.36226 3.60804 6.26292 3.65424 6.19023 3.73141C6.11753 3.80857 6.07702 3.91083 6.07702 4.01713C6.07702 4.12343 6.11753 4.22568 6.19023 4.30285C6.26292 4.38001 6.36226 4.42621 6.4678 4.43194H7.20221V5.1708C7.20221 5.28101 7.24574 5.3867 7.32322 5.46463C7.4007 5.54256 7.50579 5.58634 7.61537 5.58634C7.72495 5.58634 7.83004 5.54256 7.90752 5.46463C7.985 5.3867 8.02853 5.28101 8.02853 5.1708V4.43218H8.7615C8.81753 4.43522 8.8736 4.42675 8.92626 4.40727C8.97893 4.3878 9.02711 4.35774 9.06784 4.31892C9.10858 4.2801 9.14102 4.23335 9.16319 4.1815C9.18536 4.12965 9.1968 4.07381 9.1968 4.01737C9.1968 3.96093 9.18536 3.90509 9.16319 3.85324C9.14102 3.80139 9.10858 3.75463 9.06784 3.71582C9.02711 3.677 8.97893 3.64694 8.92626 3.62746C8.8736 3.60799 8.81753 3.59952 8.7615 3.60256H8.02877V2.86345C8.02877 2.63414 7.84397 2.44804 7.61573 2.44804L7.61549 2.44828Z" fill="#fff"/>
  </g>
  <defs>
    <clipPath id="9d1rgbtt7__clip0_1084_8142">
      <path fill="#fff" d="M0 0H16V16H0z"/>
    </clipPath>
  </defs>
</svg>
