<svg xmlns="http://www.w3.org/2000/svg" fill="none" viewBox="0 0 16 16" class="design-iconfont">
  <path d="M13.0586 14.72H2.94141C2.49952 14.7181 2.07642 14.541 1.76495 14.2276C1.45347 13.9141 1.27906 13.4899 1.27997 13.048V4.35016C1.27906 3.90826 1.45347 3.48405 1.76495 3.1706C2.07642 2.85714 2.49952 2.68004 2.94141 2.67816H3.76589V3.7016H2.94141C2.76999 3.70232 2.60586 3.77101 2.48502 3.8926C2.36418 4.01418 2.29651 4.17874 2.29685 4.35016V13.048C2.29653 13.2194 2.36421 13.384 2.48504 13.5056C2.60587 13.6272 2.76999 13.6959 2.94141 13.6966H13.0586C13.23 13.6959 13.3941 13.6272 13.515 13.5056C13.6358 13.384 13.7034 13.2194 13.7031 13.048V4.35016C13.7034 4.17875 13.6358 4.01421 13.515 3.89262C13.3941 3.77104 13.23 3.70234 13.0586 3.7016H12.1129V2.67832H13.0586C13.5005 2.68022 13.9235 2.85731 14.235 3.17073C14.5464 3.48415 14.7208 3.90831 14.72 4.35016V13.048C14.7209 13.4899 14.5465 13.9141 14.235 14.2275C13.9236 14.541 13.5005 14.7181 13.0586 14.72ZM9.60549 4.8452H6.29949C5.82879 4.84205 5.37843 4.65285 5.0467 4.31889C4.71497 3.98493 4.52879 3.53332 4.52879 3.0626C4.52879 2.59188 4.71497 2.14027 5.0467 1.80631C5.37843 1.47235 5.82879 1.28315 6.29949 1.28H9.60549C10.0762 1.28315 10.5266 1.47235 10.8583 1.80631C11.19 2.14027 11.3762 2.59188 11.3762 3.0626C11.3762 3.53332 11.19 3.98493 10.8583 4.31889C10.5266 4.65285 10.0762 4.84205 9.60549 4.8452ZM6.29949 2.30328C6.09946 2.30533 5.90831 2.38624 5.76759 2.52841C5.62686 2.67059 5.54793 2.86255 5.54793 3.0626C5.54793 3.26264 5.62686 3.45461 5.76759 3.59678C5.90831 3.73896 6.09946 3.81987 6.29949 3.82192H9.60549C9.80553 3.81987 9.99667 3.73896 10.1374 3.59678C10.2781 3.45461 10.3571 3.26264 10.3571 3.0626C10.3571 2.86255 10.2781 2.67059 10.1374 2.52841C9.99667 2.38624 9.80553 2.30533 9.60549 2.30328H6.29949Z" fill="#3263FE"/>
  <path d="M10.4 8.69159H8.50189V6.88055H7.49941V8.69159H5.60101V9.70759H7.49941V11.5187H8.50189V9.70783H10.4V8.69183V8.69159Z" fill="#FF813B"/>
</svg>
