<svg xmlns="http://www.w3.org/2000/svg" fill="none" viewBox="0 0 16 16" class="design-iconfont">
  <path d="M13.7943 3.01432H11.017V2.208C11.017 1.98351 10.928 1.76818 10.7695 1.60922C10.611 1.45026 10.3959 1.36064 10.1714 1.36H5.88995C5.66543 1.36059 5.45032 1.4502 5.29177 1.60916C5.13322 1.76813 5.04419 1.98348 5.04419 2.208V3.01432H2.12579C1.90126 3.01491 1.68613 3.10453 1.52758 3.26351C1.36903 3.4225 1.28001 3.63787 1.28003 3.8624V5.624C1.28003 5.84852 1.36906 6.06387 1.52761 6.22284C1.68616 6.3818 1.90127 6.47141 2.12579 6.472H2.58179V13.4849C2.58164 13.7907 2.70283 14.0841 2.91876 14.3007C3.1347 14.5172 3.42773 14.6393 3.73355 14.64H12.296C12.6018 14.6393 12.8949 14.5173 13.1109 14.3008C13.3269 14.0843 13.4481 13.7909 13.448 13.4851V6.472H13.7943C14.0188 6.47141 14.2339 6.3818 14.3924 6.22284C14.551 6.06387 14.64 5.84852 14.64 5.624V3.8624C14.6401 3.63787 14.551 3.4225 14.3925 3.26351C14.2339 3.10453 14.0188 3.01491 13.7943 3.01432ZM12.3686 13.4851C12.3686 13.4946 12.3668 13.504 12.3632 13.5128C12.3596 13.5216 12.3543 13.5296 12.3476 13.5363C12.341 13.543 12.333 13.5484 12.3242 13.552C12.3155 13.5556 12.3061 13.5575 12.2966 13.5575H3.73355C3.71442 13.5574 3.69612 13.5497 3.68264 13.5362C3.66915 13.5226 3.66157 13.5042 3.66155 13.4851V6.48064H12.3686V13.4851ZM6.12363 2.44248H9.93755V3.01432H6.12363V2.44248ZM13.5606 5.38976H2.35947V4.0968H13.5606V5.38976Z" fill="#3263FE"/>
  <path d="M10.109 9.472H8.48622V8.064H7.40798V9.472H5.7851V10.5534H7.40798V11.9618H8.48622V10.5537H10.109V9.472Z" fill="#FF813B"/>
</svg>
