<svg xmlns="http://www.w3.org/2000/svg" fill="none" viewBox="0 0 16 16" class="design-iconfont">
  <path d="M12.5128 14.72H3.00715C2.54922 14.7195 2.11021 14.5373 1.78642 14.2135C1.46263 13.8897 1.28052 13.4506 1.28003 12.9927V3.48695C1.2806 3.02908 1.46275 2.59013 1.78653 2.26638C2.11031 1.94264 2.54928 1.76052 3.00715 1.75999H8.90707V2.81687H3.00715C2.82949 2.81709 2.65917 2.88777 2.53357 3.0134C2.40796 3.13904 2.33732 3.30938 2.33715 3.48703V12.9927C2.33732 13.1704 2.40796 13.3407 2.53357 13.4663C2.65918 13.5919 2.8295 13.6626 3.00715 13.6628H12.5128C12.6905 13.6626 12.8608 13.5919 12.9864 13.4663C13.112 13.3407 13.1827 13.1704 13.1829 12.9927V7.28167H14.24V12.9927C14.2395 13.4507 14.0574 13.8897 13.7336 14.2135C13.4098 14.5373 12.9708 14.7195 12.5128 14.72Z" fill="#3263FE"/>
  <path d="M14.482 2.92728L13.0827 1.528C12.9239 1.36969 12.7088 1.28079 12.4846 1.28079C12.2603 1.28079 12.0452 1.36969 11.8864 1.528L5.97442 7.44048C5.87523 7.53974 5.80222 7.66206 5.76194 7.79648L5.14458 9.864C5.10014 10.0122 5.09721 10.1697 5.13611 10.3195C5.17501 10.4692 5.25425 10.6054 5.3652 10.7133C5.47615 10.8211 5.61456 10.8964 5.76535 10.931C5.91615 10.9657 6.07355 10.9582 6.22042 10.9096L8.23362 10.2448C8.359 10.2032 8.47295 10.1329 8.56642 10.0396L14.4819 4.12368C14.6404 3.96491 14.7293 3.74978 14.7294 3.5255C14.7294 3.30121 14.6404 3.08607 14.482 2.92728ZM6.6073 8.58728L7.43658 9.41656L6.24186 9.81112L6.6073 8.58728ZM8.3129 8.82728L7.1829 7.69744L11.2869 3.59344L12.417 4.7236L8.3129 8.82728ZM13.1494 3.99048L12.0192 2.86064L12.4846 2.39528L13.6147 3.52552L13.1494 3.99048Z" fill="#FF813B"/>
</svg>
