<svg xmlns="http://www.w3.org/2000/svg" fill="none" viewBox="0 0 14 14" class="design-iconfont">
  <g clip-path="url(#hw4cyp665__clip0_1205_3298)">
    <path d="M7 13.9333C3.13333 13.9333 0.0666656 10.8 0.0666656 7C0.0666656 3.13333 3.2 0.0666656 7 0.0666656C10.8 0.0666656 13.9333 3.2 13.9333 7C13.9333 10.8667 10.8667 13.9333 7 13.9333ZM7 1.4C3.86667 1.4 1.4 3.93333 1.4 7C1.4 10.1333 3.93333 12.6 7 12.6C10.0667 12.6 12.6 10.0667 12.6 7C12.6 3.86667 10.1333 1.4 7 1.4Z" fill="#3263FE"/>
    <path d="M3 7C3 7.26522 3.10536 7.51957 3.29289 7.70711C3.48043 7.89464 3.73478 8 4 8C4.26522 8 4.51957 7.89464 4.70711 7.70711C4.89464 7.51957 5 7.26522 5 7C5 6.73478 4.89464 6.48043 4.70711 6.29289C4.51957 6.10536 4.26522 6 4 6C3.73478 6 3.48043 6.10536 3.29289 6.29289C3.10536 6.48043 3 6.73478 3 7Z" fill="#FF813B"/>
    <path d="M6 7C6 7.26522 6.10536 7.51957 6.29289 7.70711C6.48043 7.89464 6.73478 8 7 8C7.26522 8 7.51957 7.89464 7.70711 7.70711C7.89464 7.51957 8 7.26522 8 7C8 6.86868 7.97413 6.73864 7.92388 6.61732C7.87362 6.49599 7.79997 6.38575 7.70711 6.29289C7.61425 6.20003 7.50401 6.12638 7.38268 6.07612C7.26136 6.02587 7.13132 6 7 6C6.86868 6 6.73864 6.02587 6.61732 6.07612C6.49599 6.12638 6.38575 6.20003 6.29289 6.29289C6.20003 6.38575 6.12638 6.49599 6.07612 6.61732C6.02587 6.73864 6 6.86868 6 7Z" fill="#FF813B"/>
    <path d="M9.06667 7C9.06667 7.26522 9.17202 7.51957 9.35956 7.70711C9.5471 7.89464 9.80145 8 10.0667 8C10.3319 8 10.5862 7.89464 10.7738 7.70711C10.9613 7.51957 11.0667 7.26522 11.0667 7C11.0667 6.73478 10.9613 6.48043 10.7738 6.29289C10.5862 6.10536 10.3319 6 10.0667 6C9.80145 6 9.5471 6.10536 9.35956 6.29289C9.17202 6.48043 9.06667 6.73478 9.06667 7Z" fill="#FF813B"/>
  </g>
  <defs>
    <clipPath id="hw4cyp665__clip0_1205_3298">
      <path fill="#fff" d="M0 0H14V14H0z"/>
    </clipPath>
  </defs>
</svg>
