<svg xmlns="http://www.w3.org/2000/svg" fill="none" viewBox="0 0 16 16" class="design-iconfont">
  <path d="M13.5056 5.93312H11.9796V3.02552C11.9801 2.56382 11.7975 2.12076 11.4718 1.79352C11.1461 1.46629 10.7039 1.28161 10.2422 1.28H3.09727C2.63558 1.28161 2.19338 1.46629 1.86769 1.79353C1.542 2.12076 1.35941 2.56383 1.35999 3.02552V12.8931C1.35941 13.3548 1.54201 13.7979 1.86772 14.1251C2.19343 14.4524 2.63564 14.637 3.09735 14.6386H12.7514C12.7604 14.6386 12.7691 14.64 12.7781 14.64C12.787 14.64 12.7957 14.6388 12.8047 14.6386H12.8302V14.6374C13.3156 14.6223 13.7759 14.4188 14.1138 14.0701C14.4516 13.7213 14.6404 13.2547 14.64 12.7691V7.07312C14.6404 6.77161 14.5212 6.48225 14.3085 6.26853C14.0959 6.0548 13.8071 5.93418 13.5056 5.93312ZM2.42327 12.8931V3.02552C2.42305 2.84641 2.4939 2.67453 2.62025 2.54759C2.74661 2.42065 2.91816 2.34901 3.09727 2.3484H10.2422C10.4213 2.34901 10.5929 2.42065 10.7192 2.54759C10.8456 2.67453 10.9164 2.84641 10.9162 3.02552V12.7701C10.9167 13.0469 10.9788 13.3202 11.0981 13.5701H3.09727C2.91819 13.5695 2.74666 13.4979 2.62031 13.3709C2.49396 13.244 2.4231 13.0722 2.42327 12.8931ZM13.5767 12.7691C13.5769 12.9766 13.4965 13.1761 13.3525 13.3255C13.2085 13.475 13.0122 13.5627 12.8048 13.5702H12.7514C12.5441 13.5627 12.3477 13.4749 12.2038 13.3255C12.0598 13.1761 11.9794 12.9766 11.9796 12.7691V7.00112H13.5056C13.5245 7.00118 13.5426 7.00874 13.5559 7.02213C13.5693 7.03553 13.5767 7.05366 13.5767 7.07256V12.7686V12.7691ZM4.90511 10.1401H9.87311V9.072H4.90511V10.1404V10.1401ZM6.93447 7.74064H9.87327V6.672H6.93447V7.74064ZM3.25599 12.4927H9.87343V11.424H3.25599V12.4924V12.4927Z" fill="#3263FE"/>
  <path d="M7.03881 4.55912H5.73153V3.24648H4.66849V4.55912H3.36121V5.62648H4.66849V6.93912H5.73153V5.62648H7.03881V4.55912Z" fill="#FF813B"/>
</svg>
