<svg xmlns="http://www.w3.org/2000/svg" fill="none" viewBox="0 0 16 16" class="design-iconfont">
  <path d="M10.2922 9.69376H5.70625C5.38594 9.69376 5.125 9.95469 5.125 10.275C5.125 10.5953 5.38594 10.8563 5.70625 10.8563H10.2937C10.6141 10.8563 10.875 10.5953 10.875 10.275C10.875 9.95469 10.6141 9.69376 10.2922 9.69376Z" fill="#FF813B"/>
  <path d="M13.9625 3.73124H12.25V2.01874C12.25 1.44531 11.7828 0.978119 11.2094 0.978119H4.78749C4.21405 0.978119 3.74686 1.44531 3.74686 2.01874V3.73124H2.03593C1.46249 3.73124 0.9953 4.19843 0.9953 4.77187V9.35937C0.9953 9.93281 1.46249 10.4 2.03593 10.4H3.28905V13.9469C3.28905 14.5203 3.75624 14.9875 4.32968 14.9875H11.6687C12.2422 14.9875 12.7094 14.5203 12.7094 13.9469V10.4H13.9625C14.5359 10.4 15.0031 9.93281 15.0031 9.35937V4.77187C15.0031 4.19843 14.5359 3.73124 13.9625 3.73124ZM4.91093 2.47812C4.91093 2.29218 5.06093 2.14218 5.24686 2.14218H10.7515C10.9375 2.14218 11.0875 2.29218 11.0875 2.47812V3.73124H4.91093V2.47812ZM11.5469 13.4875C11.5469 13.6734 11.3969 13.8234 11.2109 13.8234H4.78905C4.60311 13.8234 4.45311 13.6734 4.45311 13.4875V8.89999C4.45311 8.71406 4.60311 8.56406 4.78905 8.56406H11.2109C11.3969 8.56406 11.5469 8.71406 11.5469 8.89999V13.4875ZM13.8406 8.89999C13.8406 9.08593 13.6906 9.23593 13.5047 9.23593H12.7094V8.44062C12.7094 7.86718 12.2422 7.39999 11.6687 7.39999H4.32968C3.75624 7.39999 3.28905 7.86718 3.28905 8.44062V9.23593H2.49374C2.3078 9.23593 2.1578 9.08593 2.1578 8.89999V5.22968C2.1578 5.04374 2.3078 4.89374 2.49374 4.89374H13.5031C13.6891 4.89374 13.8391 5.04374 13.8391 5.22968V8.89999H13.8406Z" fill="#3263FE"/>
  <path d="M10.2922 11.5297H5.70625C5.38594 11.5297 5.125 11.7906 5.125 12.1109C5.125 12.4313 5.38594 12.6922 5.70625 12.6922H10.2937C10.6141 12.6922 10.875 12.4313 10.875 12.1109C10.875 11.7906 10.6141 11.5297 10.2922 11.5297Z" fill="#FF813B"/>
  <path d="M11.7672 6.12656C11.7672 6.22505 11.7866 6.32257 11.8243 6.41357C11.862 6.50456 11.9172 6.58724 11.9869 6.65689C12.0565 6.72653 12.1392 6.78178 12.2302 6.81947C12.3212 6.85716 12.4187 6.87656 12.5172 6.87656C12.6157 6.87656 12.7132 6.85716 12.8042 6.81947C12.8952 6.78178 12.9779 6.72653 13.0475 6.65689C13.1172 6.58724 13.1724 6.50456 13.2101 6.41357C13.2478 6.32257 13.2672 6.22505 13.2672 6.12656C13.2672 6.02806 13.2478 5.93054 13.2101 5.83954C13.1724 5.74855 13.1172 5.66587 13.0475 5.59623C12.9779 5.52658 12.8952 5.47134 12.8042 5.43365C12.7132 5.39596 12.6157 5.37656 12.5172 5.37656C12.4187 5.37656 12.3212 5.39596 12.2302 5.43365C12.1392 5.47134 12.0565 5.52658 11.9869 5.59623C11.9172 5.66587 11.862 5.74855 11.8243 5.83954C11.7866 5.93054 11.7672 6.02806 11.7672 6.12656Z" fill="#FF813B"/>
</svg>
