<svg xmlns="http://www.w3.org/2000/svg" fill="none" viewBox="0 0 16 16" class="design-iconfont">
  <g clip-path="url(#pknf9zm7r__clip0_1201_1282)">
    <path d="M7.99999 0.800003C6.57597 0.800003 5.18392 1.22228 3.99989 2.01342C2.81585 2.80457 1.89301 3.92905 1.34806 5.24468C0.803108 6.56031 0.660523 8.00799 0.938337 9.40465C1.21615 10.8013 1.90188 12.0842 2.90882 13.0912C3.91576 14.0981 5.19868 14.7838 6.59534 15.0617C7.992 15.3395 9.43968 15.1969 10.7553 14.6519C12.0709 14.107 13.1954 13.1841 13.9866 12.0001C14.7777 10.8161 15.2 9.42403 15.2 8C15.1979 6.09109 14.4386 4.26098 13.0888 2.91117C11.739 1.56137 9.9089 0.802121 7.99999 0.800003ZM7.99999 14.1241C6.78876 14.1241 5.60473 13.7649 4.59763 13.092C3.59053 12.4191 2.8056 11.4626 2.34208 10.3436C1.87856 9.22456 1.75728 7.99321 1.99358 6.80525C2.22988 5.6173 2.81314 4.52609 3.66961 3.66962C4.52608 2.81316 5.61729 2.22989 6.80524 1.9936C7.9932 1.7573 9.22455 1.87857 10.3436 2.34209C11.4626 2.80561 12.4191 3.59055 13.092 4.59765C13.7649 5.60475 14.1241 6.78877 14.1241 8C14.1223 9.62365 13.4765 11.1803 12.3284 12.3284C11.1803 13.4765 9.62364 14.1223 7.99999 14.1241Z" fill="#3263FE"/>
    <path d="M9.69538 10.0224C9.35118 10.3114 8.93886 10.5077 8.49753 10.5926C8.05621 10.6775 7.60049 10.6483 7.17362 10.5078C6.74674 10.3672 6.36285 10.1199 6.05835 9.78933C5.75385 9.45878 5.53884 9.05592 5.4337 8.61896H6.05066C6.10708 8.61898 6.1624 8.60334 6.21046 8.57379C6.25852 8.54424 6.29744 8.50194 6.32289 8.45159C6.34835 8.40123 6.35933 8.34481 6.35463 8.28859C6.34993 8.23236 6.32972 8.17855 6.29626 8.13312L5.0969 6.50456C5.06856 6.46608 5.03157 6.43479 4.98891 6.41323C4.94626 6.39167 4.89913 6.38044 4.85134 6.38044C4.80354 6.38044 4.75642 6.39167 4.71376 6.41323C4.67111 6.43479 4.63412 6.46608 4.60578 6.50456L3.40642 8.13312C3.37296 8.17855 3.35275 8.23236 3.34805 8.28859C3.34334 8.34481 3.35433 8.40123 3.37978 8.45159C3.40524 8.50194 3.44416 8.54424 3.49222 8.57379C3.54028 8.60334 3.5956 8.61898 3.65202 8.61896H4.33666C4.44444 9.26493 4.72127 9.87086 5.13901 10.3752C5.55675 10.8796 6.10053 11.2644 6.71512 11.4906C7.32971 11.7168 7.99322 11.7763 8.63825 11.6631C9.28329 11.5499 9.88687 11.268 10.3877 10.846C10.4969 10.7542 10.5652 10.6228 10.5775 10.4806C10.5898 10.3385 10.5451 10.1973 10.4533 10.088C10.3615 9.97883 10.2301 9.91055 10.088 9.89824C9.94581 9.88594 9.8046 9.9306 9.69538 10.0224ZM11.6695 7.42768C11.5682 6.77698 11.2958 6.16489 10.8802 5.65411C10.4645 5.14334 9.92052 4.75224 9.30397 4.52089C8.68741 4.28954 8.02043 4.22626 7.37137 4.33752C6.7223 4.44879 6.11448 4.7306 5.61018 5.15408C5.55607 5.19953 5.51145 5.25519 5.47886 5.31788C5.44626 5.38058 5.42634 5.44908 5.42022 5.51947C5.41409 5.58986 5.4219 5.66078 5.44318 5.72815C5.46446 5.79553 5.49881 5.85806 5.54426 5.91216C5.58971 5.96627 5.64537 6.01089 5.70806 6.04349C5.77075 6.07608 5.83925 6.09601 5.90965 6.10213C5.98004 6.10825 6.05095 6.10044 6.11833 6.07916C6.18571 6.05788 6.24823 6.02353 6.30234 5.97808C6.64965 5.68649 7.06625 5.48934 7.51195 5.40565C7.95764 5.32195 8.41739 5.35455 8.84682 5.50029C9.27625 5.64603 9.66087 5.89999 9.96356 6.23766C10.2663 6.57534 10.4768 6.98533 10.5749 7.42808H9.92474C9.86832 7.42807 9.813 7.44371 9.76494 7.47326C9.71688 7.50281 9.67796 7.54511 9.6525 7.59546C9.62705 7.64581 9.61606 7.70224 9.62077 7.75846C9.62547 7.81468 9.64568 7.8685 9.67914 7.91392L10.8785 9.54256C10.9068 9.58105 10.9438 9.61233 10.9865 9.63389C11.0291 9.65546 11.0763 9.66669 11.1241 9.66669C11.1719 9.66669 11.219 9.65546 11.2616 9.63389C11.3043 9.61233 11.3413 9.58105 11.3696 9.54256L12.569 7.91392C12.6024 7.8685 12.6226 7.81468 12.6274 7.75846C12.6321 7.70224 12.6211 7.64581 12.5956 7.59546C12.5702 7.54511 12.5312 7.50281 12.4832 7.47326C12.4351 7.44371 12.3798 7.42807 12.3234 7.42808H11.6695V7.42768Z" fill="#FF813B"/>
  </g>
  <defs>
    <clipPath id="pknf9zm7r__clip0_1201_1282">
      <path fill="#fff" d="M0 0H16V16H0z"/>
    </clipPath>
  </defs>
</svg>
