<svg fill="none" xmlns="http://www.w3.org/2000/svg" viewBox="0 0 16 16" class="design-iconfont">
  <path d="M13.756 3.8312L12.2144 2.308C11.8954 1.99085 11.4635 1.81332 11.0136 1.8144H3.6488C2.7064 1.8144 1.94 2.5808 1.94 3.5232V12.8384C1.94 13.7808 2.7064 14.5472 3.6488 14.5472H12.5552C13.4976 14.5472 14.264 13.7808 14.264 12.8384V5.0464C14.264 4.5928 14.0792 4.1504 13.756 3.8312ZM10.3584 2.9344V6.58C10.3584 6.7376 10.2304 6.8648 10.0736 6.8648H6.22C6.0632 6.8648 5.9352 6.7368 5.9352 6.58V2.9344H10.3584ZM13.144 12.8384C13.144 13.1632 12.88 13.4272 12.5552 13.4272H3.6488C3.324 13.4272 3.06 13.1632 3.06 12.8384V3.5232C3.06 3.1984 3.324 2.9344 3.6488 2.9344H4.8144V6.58C4.8144 7.3552 5.4448 7.9848 6.2192 7.9848H10.0728C10.848 7.9848 11.4776 7.3544 11.4776 6.58V3.1552L12.968 4.628C13.0233 4.68279 13.0672 4.74795 13.0973 4.81974C13.1273 4.89154 13.143 4.96856 13.1432 5.0464L13.144 12.8384Z" fill="#3263FE"/>
  <path d="M9.10402 6.008H8.24402C7.93442 6.008 7.68402 5.7576 7.68402 5.448C7.68402 5.1384 7.93442 4.888 8.24402 4.888H9.10402C9.41362 4.888 9.66402 5.1384 9.66402 5.448C9.66402 5.7576 9.41362 6.008 9.10402 6.008Z" fill="#FF813B"/>
</svg>
