<svg xmlns="http://www.w3.org/2000/svg" fill="none" viewBox="0 0 16 16" class="design-iconfont">
  <path d="M10.744 7.47672H9.07606V5.82544H8.04406V7.47672H6.37598V8.49872H8.04382V10.1499H9.07582V8.49872H10.744V7.47672Z" fill="#FF813B"/>
  <path d="M12.3898 1.28H4.74094C4.29505 1.27827 3.86668 1.45349 3.54982 1.76722C3.23296 2.08094 3.05349 2.50755 3.05078 2.95344V3.70296H1.91998V4.72696H3.05078V6.18832H1.91998V7.21232H3.05078V8.6736H1.91998V9.6976H3.05078V11.1588H1.91998V12.1828H3.05078V13.0462C3.05343 13.4922 3.23287 13.9188 3.54973 14.2326C3.8666 14.5464 4.295 14.7217 4.74094 14.72H12.3898C12.8357 14.7217 13.2641 14.5465 13.5809 14.2327C13.8978 13.919 14.0773 13.4924 14.08 13.0466V2.95344C14.0773 2.50756 13.8978 2.08096 13.5809 1.76724C13.2641 1.45352 12.8357 1.27829 12.3898 1.28ZM13.0458 13.0466C13.0448 13.2196 12.9751 13.3852 12.8521 13.5069C12.7291 13.6286 12.5629 13.6966 12.3898 13.6958H4.74094C4.5679 13.6966 4.40163 13.6286 4.27863 13.5069C4.15564 13.3852 4.08598 13.2196 4.08494 13.0466V2.95344C4.086 2.7804 4.15567 2.61486 4.27866 2.49315C4.40165 2.37143 4.56791 2.30349 4.74094 2.30424H12.3898C12.5629 2.30349 12.7291 2.37143 12.8521 2.49315C12.9751 2.61486 13.0448 2.7804 13.0458 2.95344V13.0466Z" fill="#3263FE"/>
</svg>
