<svg xmlns="http://www.w3.org/2000/svg" fill="none" viewBox="0 0 16 16" class="design-iconfont">
  <path d="M14.5207 6.23199L14.5247 6.22743L12.656 4.54967V2.77175C12.6563 2.48295 12.542 2.20583 12.3383 2.00116C12.1345 1.79649 11.8579 1.68099 11.5691 1.67999H4.51086C4.22207 1.68099 3.94545 1.79649 3.7417 2.00116C3.53795 2.20583 3.42369 2.48295 3.42399 2.77175V4.61767L1.55031 6.23503L1.55423 6.23959C1.43022 6.36848 1.36066 6.54018 1.35999 6.71903V13.3883C1.36376 13.6811 1.48349 13.9604 1.69292 14.1651C1.90235 14.3697 2.18439 14.483 2.47719 14.48H13.6028C13.8956 14.483 14.1776 14.3698 14.3871 14.1651C14.5965 13.9605 14.7162 13.6811 14.72 13.3883V6.71815C14.7203 6.628 14.7029 6.53866 14.6687 6.45525C14.6345 6.37183 14.5842 6.29597 14.5207 6.23199ZM13.1532 6.40799L12.656 6.69135V5.96191L13.1532 6.40799ZM4.51086 2.73295H11.5691C11.5794 2.733 11.5892 2.7371 11.5964 2.74437C11.6037 2.75165 11.6077 2.76149 11.6077 2.77175V7.28911L8.02374 9.33239L4.47199 7.29655V2.77175C4.47197 2.76665 4.47297 2.76159 4.47492 2.75687C4.47688 2.75216 4.47974 2.74787 4.48335 2.74426C4.48697 2.74066 4.49126 2.7378 4.49598 2.73586C4.5007 2.73392 4.50576 2.73293 4.51086 2.73295ZM3.42399 6.69551L2.94399 6.42047L3.42399 6.00631V6.69543V6.69551ZM13.672 13.3883C13.6664 13.4014 13.6566 13.4123 13.6442 13.4193C13.6318 13.4263 13.6174 13.429 13.6033 13.427H2.47719C2.46306 13.4291 2.44867 13.4264 2.43624 13.4194C2.42382 13.4123 2.41405 13.4014 2.40847 13.3883V7.32591L8.02238 10.544L13.6715 7.32351V13.3884L13.672 13.3883Z" fill="#3263FE"/>
  <path d="M9.83897 5.04896H8.5389V3.744H7.49089V5.04896H6.19073V6.10056H7.49089V7.40512H8.5389V6.10056H9.83897V5.04896Z" fill="#FF813B"/>
</svg>
