<svg xmlns="http://www.w3.org/2000/svg" fill="none" viewBox="0 0 18 18" class="design-iconfont">
  <g clip-path="url(#u2hli4zma__clip0_662_118)">
    <path d="M9 18C13.9706 18 18 13.9706 18 9C18 4.02944 13.9706 0 9 0C4.02944 0 0 4.02944 0 9C0 13.9706 4.02944 18 9 18Z" fill="#D1E3F9"/>
    <mask id="u2hli4zma__nvgpbbvs2a" style="mask-type:alpha" maskUnits="userSpaceOnUse" x="0" y="0" width="18" height="18">
      <path d="M9 18C13.9706 18 18 13.9706 18 9C18 4.02944 13.9706 0 9 0C4.02944 0 0 4.02944 0 9C0 13.9706 4.02944 18 9 18Z" fill="#E6ECF3"/>
    </mask>
    <g mask="url(#u2hli4zma__nvgpbbvs2a)">
      <path d="M9 18.5625C12.4173 18.5625 15.1875 17.4292 15.1875 16.0312C15.1875 14.6333 12.4173 13.5 9 13.5C5.58274 13.5 2.8125 14.6333 2.8125 16.0312C2.8125 17.4292 5.58274 18.5625 9 18.5625Z" fill="#ABBDD2"/>
      <path d="M8.25781 13.7332V12.1562H9.98323V13.7332H8.25781Z" fill="snow"/>
      <path d="M9.53692 13.5576H8.6075L8.44629 15.2927L8.91721 16.1974H9.37576L9.80236 15.2927L9.53692 13.5576Z" fill="#9DAFBF"/>
      <path d="M5.52979 8.4734C5.52979 8.27777 5.6884 8.11914 5.88404 8.11914H6.45757V10.2953C5.94519 10.2953 5.52979 9.87988 5.52979 9.3675V8.4734Z" fill="snow"/>
      <path d="M12.4703 8.4734C12.4703 8.27777 12.3116 8.11914 12.116 8.11914H11.5425V10.2953C12.0549 10.2953 12.4703 9.87988 12.4703 9.3675V8.4734Z" fill="snow"/>
      <path d="M11.9969 8.56643C11.9969 10.5932 10.6747 12.523 9.1156 12.523C7.55651 12.523 6.05346 10.6009 6.05346 8.57413C6.05346 6.54739 5.78914 5.57129 9.05935 5.57129C12.3296 5.57129 11.9969 6.53963 11.9969 8.56643Z" fill="#FFF9F9"/>
      <path d="M8.03736 12.7275L7.49219 13.2976L8.32615 14.9973C8.3734 15.0936 8.51577 15.0755 8.53737 14.9704L8.85535 13.4215L8.03736 12.7275Z" fill="#fff"/>
      <path d="M10.231 12.7275L10.7762 13.2976L9.94223 14.9973C9.89504 15.0936 9.75261 15.0755 9.73107 14.9704L9.41309 13.4215L10.231 12.7275Z" fill="#fff"/>
      <path d="M5.53467 7.43662C5.5724 8.04204 5.9539 9.16063 6.17469 9.55471C6.01685 7.5998 6.67514 6.78103 6.90644 6.63264C7.85234 7.59434 10.3905 7.23176 11.3049 6.63264C11.9103 7.02363 11.9139 8.70866 11.8875 9.55471C12.7073 7.48949 12.5661 6.63264 11.9828 5.93891C11.9197 5.24521 11.5992 4.56739 11.4468 4.31519H10.3905C10.2539 4.12601 9.94276 3.7035 9.79145 3.52688C8.87705 3.35347 6.68572 4.63044 6.5123 4.83536C6.37359 5.04977 6.45447 5.35562 6.5123 5.48175L5.78701 5.93891C5.68717 6.1859 5.49693 6.83126 5.53467 7.43662Z" fill="#1A233D"/>
    </g>
    <g clip-path="url(#u2hli4zma__clip1_662_118)">
      <path d="M9 18C13.9706 18 18 13.9706 18 9C18 4.02944 13.9706 0 9 0C4.02944 0 0 4.02944 0 9C0 13.9706 4.02944 18 9 18Z" fill="#F9C7BD"/>
      <mask id="u2hli4zma__cmbdwzq6sb" style="mask-type:alpha" maskUnits="userSpaceOnUse" x="0" y="0" width="18" height="18">
        <path d="M9 18C13.9706 18 18 13.9706 18 9C18 4.02944 13.9706 0 9 0C4.02944 0 0 4.02944 0 9C0 13.9706 4.02944 18 9 18Z" fill="#E6ECF3"/>
      </mask>
      <g mask="url(#u2hli4zma__cmbdwzq6sb)">
        <path d="M4.58898 12.8482L9.20102 12.9645L13.4365 12.5781L14.6208 18.4417H3.54248L4.58898 12.8482Z" fill="#9F84EC"/>
        <path d="M10.2159 12.9313C10.2159 13.4896 9.85744 13.9974 9.1303 13.9974C8.4031 13.9974 8.125 13.4896 8.125 12.9313C8.125 12.373 8.66067 11.9756 9.1303 11.9756C9.59993 11.9756 10.2159 12.373 10.2159 12.9313Z" fill="#F5C39F"/>
        <path d="M8.21387 10.1875H10.1943L10.5112 12.9865H7.65137L8.21387 10.1875Z" fill="#FFF2F2"/>
        <path d="M9.12981 11.3179C10.4719 11.3179 11.5599 9.92459 11.5599 8.20583C11.5599 6.48708 10.4719 5.09375 9.12981 5.09375C7.7877 5.09375 6.69971 6.48708 6.69971 8.20583C6.69971 9.92459 7.7877 11.3179 9.12981 11.3179Z" fill="#FFF9F9"/>
        <path d="M7.92953 7.51285C7.93791 7.89884 7.15159 8.45695 6.75739 8.68769C6.85622 10.18 7.9347 10.9128 8.4616 11.0926C8.2047 13.0316 8.05193 15.8718 6.1887 16.3003C4.6648 16.6508 4.0413 16.2126 3.65492 15.6514C3.26015 15.0781 3.58319 13.5476 3.71153 13.4102C3.54863 13.333 3.35366 13.0313 3.3816 12.5427C3.38416 12.4979 3.43706 12.4764 3.47454 12.5009C3.74614 12.6793 4.03623 12.6492 4.16077 12.6492C5.64229 12.4658 5.42594 11.1609 5.13257 10.5314C5.09895 10.5222 4.98221 10.3774 4.78415 9.8713C4.6283 9.22955 5.63037 7.36182 5.70535 6.9868C5.78039 6.61173 5.79912 6.55548 6.46889 4.99003C7.46721 3.12832 9.39929 3.1979 9.53969 3.81577C10.1632 3.4338 10.5563 3.96779 10.8829 4.29076C12.7941 6.0175 12.8977 9.9343 12.7385 10.7837C12.5792 11.6331 13.6144 12.7125 14.1541 13.385C14.6938 14.0574 14.6865 14.6411 14.4556 15.3463C14.205 16.1113 13.3057 16.5278 12.6685 16.5576C10.1799 16.6742 9.86779 11.925 9.86779 11.0926C10.9499 10.7527 11.3959 9.34143 11.4837 8.67824C11.2704 8.48581 10.8517 7.9214 10.8829 7.20353C10.9219 6.30618 10.5005 5.39326 9.68121 5.33084C8.86193 5.26842 8.27412 5.941 8.20217 6.06543C8.12877 6.06543 7.91901 7.03034 7.92953 7.51285Z" fill="#1A233D"/>
      </g>
    </g>
  </g>
  <defs>
    <clipPath id="u2hli4zma__clip0_662_118">
      <path fill="#fff" d="M0 0H18V18H0z"/>
    </clipPath>
    <clipPath id="u2hli4zma__clip1_662_118">
      <path fill="#fff" d="M0 0H18V18H0z"/>
    </clipPath>
  </defs>
</svg>
