<svg fill="none" xmlns="http://www.w3.org/2000/svg" viewBox="0 0 32 32" class="design-iconfont">
  <path d="M16.064 1.69629C18.048 1.69629 19.9093 2.07496 21.648 2.83229C23.3867 3.58962 24.9067 4.61362 26.208 5.90429C27.5093 7.19496 28.5333 8.70962 29.28 10.4483C30.0267 12.187 30.4 14.0483 30.4 16.0323C30.4 18.0163 30.0267 19.8723 29.28 21.6003C28.5333 23.3283 27.5093 24.843 26.208 26.1443C24.9067 27.4456 23.3867 28.4696 21.648 29.2163C19.9093 29.963 18.048 30.3363 16.064 30.3363C14.08 30.3363 12.224 29.963 10.496 29.2163C8.76801 28.4696 7.25334 27.4456 5.95201 26.1443C4.65068 24.843 3.62668 23.3283 2.88001 21.6003C2.13334 19.8723 1.76001 18.0163 1.76001 16.0323C1.76001 14.0483 2.13334 12.187 2.88001 10.4483C3.62668 8.70962 4.65068 7.19496 5.95201 5.90429C7.25334 4.61362 8.76801 3.58962 10.496 2.83229C12.224 2.07496 14.08 1.69629 16.064 1.69629ZM16.096 25.8243C16.6507 25.8243 17.1147 25.6376 17.488 25.2643C17.8613 24.891 18.048 24.4376 18.048 23.9043C18.048 23.3496 17.8613 22.8856 17.488 22.5123C17.1147 22.139 16.6507 21.9523 16.096 21.9523C15.5413 21.9523 15.0773 22.139 14.704 22.5123C14.3307 22.8856 14.144 23.3496 14.144 23.9043C14.144 24.4376 14.3307 24.891 14.704 25.2643C15.0773 25.6376 15.5413 25.8243 16.096 25.8243ZM17.728 17.9523C17.7067 17.611 17.92 17.2483 18.368 16.8643C18.816 16.4803 19.3173 16.0536 19.872 15.5843C20.4267 15.115 20.9387 14.587 21.408 14.0003C21.8773 13.4136 22.1333 12.7363 22.176 11.9683C22.2187 11.1363 22.1333 10.3576 21.92 9.63229C21.7067 8.90696 21.3547 8.28296 20.864 7.76029C20.3733 7.23762 19.7387 6.82162 18.96 6.51229C18.1813 6.20296 17.2693 6.04829 16.224 6.04829C14.9227 6.04829 13.84 6.27762 12.976 6.73629C12.112 7.19496 11.4133 7.74962 10.88 8.40029C10.3467 9.05096 9.97334 9.72296 9.76001 10.4163C9.54668 11.1096 9.45068 11.691 9.47201 12.1603C9.49334 12.715 9.66934 13.1203 10 13.3763C10.3307 13.6323 10.688 13.7656 11.072 13.7763C11.456 13.787 11.808 13.6803 12.128 13.4563C12.448 13.2323 12.608 12.907 12.608 12.4803C12.608 12.2243 12.688 11.9096 12.848 11.5363C13.008 11.163 13.2267 10.8056 13.504 10.4643C13.7813 10.123 14.1173 9.83496 14.512 9.60029C14.9067 9.36562 15.3493 9.24829 15.84 9.24829C16.8 9.24829 17.568 9.48829 18.144 9.96829C18.72 10.4483 18.9867 11.051 18.944 11.7763C18.944 12.139 18.8373 12.475 18.624 12.7843C18.4107 13.0936 18.1387 13.3923 17.808 13.6803C17.4773 13.9683 17.1253 14.2563 16.752 14.5443C16.3787 14.8323 16.0267 15.131 15.696 15.4403C15.3653 15.7496 15.088 16.0856 14.864 16.4483C14.64 16.811 14.5173 17.2056 14.496 17.6323L14.528 18.8483C14.528 19.1683 14.6773 19.4723 14.976 19.7603C15.2747 20.0483 15.6693 20.203 16.16 20.2243C16.6507 20.203 17.04 20.043 17.328 19.7443C17.616 19.4456 17.7493 19.1043 17.728 18.7203V17.9523Z" fill="#fff"/>
</svg>
