<svg xmlns="http://www.w3.org/2000/svg" fill="none" viewBox="0 0 18 18" class="design-iconfont">
  <g clip-path="url(#nmojvzi3a__clip0_662_24)">
    <path d="M9 18C13.9706 18 18 13.9706 18 9C18 4.02944 13.9706 0 9 0C4.02944 0 0 4.02944 0 9C0 13.9706 4.02944 18 9 18Z" fill="#D1E3F9"/>
    <mask id="nmojvzi3a__o4hqar432a" style="mask-type:alpha" maskUnits="userSpaceOnUse" x="0" y="0" width="18" height="18">
      <path d="M9 18C13.9706 18 18 13.9706 18 9C18 4.02944 13.9706 0 9 0C4.02944 0 0 4.02944 0 9C0 13.9706 4.02944 18 9 18Z" fill="#E6ECF3"/>
    </mask>
    <g mask="url(#nmojvzi3a__o4hqar432a)">
      <path d="M9 18.5625C12.4173 18.5625 15.1875 17.4292 15.1875 16.0312C15.1875 14.6333 12.4173 13.5 9 13.5C5.58274 13.5 2.8125 14.6333 2.8125 16.0312C2.8125 17.4292 5.58274 18.5625 9 18.5625Z" fill="#ABBDD2"/>
      <path d="M8.25781 13.7332V12.1562H9.98323V13.7332H8.25781Z" fill="snow"/>
      <path d="M9.53668 13.5576H8.60726L8.44604 15.2927L8.91697 16.1974H9.37552L9.80212 15.2927L9.53668 13.5576Z" fill="#9DAFBF"/>
      <path d="M5.52979 8.4734C5.52979 8.27777 5.6884 8.11914 5.88404 8.11914H6.45757V10.2953C5.94519 10.2953 5.52979 9.87988 5.52979 9.3675V8.4734Z" fill="snow"/>
      <path d="M12.4703 8.4734C12.4703 8.27777 12.3116 8.11914 12.116 8.11914H11.5425V10.2953C12.0549 10.2953 12.4703 9.87988 12.4703 9.3675V8.4734Z" fill="snow"/>
      <path d="M11.9967 8.56643C11.9967 10.5932 10.6744 12.523 9.11535 12.523C7.55627 12.523 6.05321 10.6009 6.05321 8.57413C6.05321 6.54739 5.7889 5.57129 9.0591 5.57129C12.3293 5.57129 11.9967 6.53963 11.9967 8.56643Z" fill="#FFF9F9"/>
      <path d="M8.03712 12.7275L7.49194 13.2976L8.32591 14.9973C8.37316 15.0936 8.51552 15.0755 8.53712 14.9704L8.85511 13.4215L8.03712 12.7275Z" fill="#fff"/>
      <path d="M10.2308 12.7275L10.776 13.2976L9.94199 14.9973C9.89479 15.0936 9.75237 15.0755 9.73082 14.9704L9.41284 13.4215L10.2308 12.7275Z" fill="#fff"/>
      <path d="M5.53467 7.43662C5.5724 8.04204 5.9539 9.16063 6.17469 9.55471C6.01685 7.5998 6.67514 6.78103 6.90644 6.63264C7.85234 7.59434 10.3905 7.23176 11.3049 6.63264C11.9103 7.02363 11.9139 8.70866 11.8875 9.55471C12.7073 7.48949 12.5661 6.63264 11.9828 5.93891C11.9197 5.24521 11.5992 4.56739 11.4468 4.31519H10.3905C10.2539 4.12601 9.94276 3.7035 9.79145 3.52688C8.87705 3.35347 6.68572 4.63044 6.5123 4.83536C6.37359 5.04977 6.45447 5.35562 6.5123 5.48175L5.78701 5.93891C5.68717 6.1859 5.49693 6.83126 5.53467 7.43662Z" fill="#1A233D"/>
    </g>
  </g>
  <defs>
    <clipPath id="nmojvzi3a__clip0_662_24">
      <path fill="#fff" d="M0 0H18V18H0z"/>
    </clipPath>
  </defs>
</svg>
