<svg fill="none" xmlns="http://www.w3.org/2000/svg" viewBox="0 0 32 32" class="design-iconfont">
  <path d="M29.4375 9.65625C29.869 9.65625 30.2188 10.006 30.2188 10.4375V29.125C30.2188 29.5565 29.869 29.9062 29.4375 29.9062H2.5625C2.13103 29.9062 1.78125 29.5565 1.78125 29.125V10.4375C1.78125 10.006 2.13103 9.65625 2.5625 9.65625H7.6875V11.4062L2.625 11.4062L15.654 24.4353C15.7761 24.5573 15.9739 24.5573 16.096 24.4353L29.125 11.4062L24.3125 11.4062V9.65625H29.4375Z" fill="#fff"/>
  <path d="M23.0625 2.09375C23.7528 2.09375 24.3125 2.65341 24.3125 3.34375V13.9273C24.3125 14.0982 24.2775 14.2673 24.2095 14.4242C24.1416 14.581 24.0422 14.7222 23.9176 14.8391L16.8705 21.4479C16.3903 21.8982 15.6433 21.8989 15.1622 21.4496L8.08431 14.8394C7.95909 14.7224 7.85925 14.581 7.79098 14.4238C7.72272 14.2667 7.6875 14.0972 7.6875 13.9258V3.34375C7.6875 2.65341 8.24716 2.09375 8.9375 2.09375H23.0625ZM17.7656 13.7812H14.2344C13.7598 13.7812 13.375 14.166 13.375 14.6406C13.375 15.1152 13.7598 15.5 14.2344 15.5H17.7656C18.2402 15.5 18.625 15.1152 18.625 14.6406C18.625 14.166 18.2402 13.7812 17.7656 13.7812ZM20.7344 9.46875H11.2656C10.791 9.46875 10.4062 9.8535 10.4062 10.3281C10.4062 10.8027 10.791 11.1875 11.2656 11.1875H20.7344C21.209 11.1875 21.5938 10.8027 21.5938 10.3281C21.5938 9.8535 21.209 9.46875 20.7344 9.46875ZM20.7344 5.15625H11.2656C10.791 5.15625 10.4062 5.541 10.4062 6.01562C10.4062 6.49025 10.791 6.875 11.2656 6.875H20.7344C21.209 6.875 21.5938 6.49025 21.5938 6.01562C21.5938 5.541 21.209 5.15625 20.7344 5.15625Z" fill="#fff"/>
</svg>
