<svg fill="none" xmlns="http://www.w3.org/2000/svg" viewBox="0 0 17 17" class="design-iconfont">
  <path d="M8.5522 14.9559C8.19907 14.9559 7.86782 14.8184 7.61782 14.5684L2.48345 9.43398C2.23345 9.18398 2.09595 8.85273 2.09595 8.49961C2.09595 8.14648 2.23345 7.81523 2.48345 7.56523L7.61626 2.43242C7.86626 2.18242 8.19751 2.04492 8.55063 2.04492C8.90376 2.04492 9.23501 2.18242 9.48501 2.43242L14.6178 7.56523C14.8678 7.81523 15.0053 8.14648 15.0053 8.49961C15.0053 8.85273 14.8678 9.18398 14.6178 9.43398L9.48657 14.5684C9.23657 14.8184 8.90532 14.9559 8.5522 14.9559ZM8.5522 2.82461C8.40845 2.82461 8.27251 2.88086 8.16938 2.98242L3.03657 8.1168C2.93501 8.21836 2.87876 8.3543 2.87876 8.49961C2.87876 8.64336 2.93501 8.7793 3.03657 8.88242L8.16938 14.0152C8.27095 14.1168 8.40688 14.173 8.5522 14.173C8.69751 14.173 8.83188 14.1168 8.93501 14.0152L14.0678 8.88242C14.1694 8.78086 14.2256 8.64492 14.2256 8.49961C14.2256 8.35586 14.1694 8.21992 14.0678 8.1168L8.93501 2.98398C8.83188 2.88086 8.69595 2.82461 8.5522 2.82461Z" fill="#3263FE"/>
  <path d="M5.98975 7.875H11.1304V9.125H5.98975V7.875Z" fill="#3263FE"/>
  <path d="M7.92725 10.9844V5.92188H9.17725V10.9844H7.92725Z" fill="#3263FE"/>
</svg>
