<svg fill="none" xmlns="http://www.w3.org/2000/svg" viewBox="0 0 15 15" class="design-iconfont">
  <path d="M13.2043 10.468C13.1156 10.3492 12.9745 10.2939 12.8366 10.3077C12.8419 9.46035 12.5134 8.64209 11.8961 8.02494C11.2551 7.384 10.4083 7.07338 9.5664 7.08869V1.89611C9.5664 1.67094 9.38374 1.48828 9.15856 1.48828H2.22692C2.00175 1.48828 1.81909 1.67094 1.81909 1.89611V12.609C1.81909 12.8342 2.00175 13.0168 2.22692 13.0168H7.83403C7.86001 13.0168 7.88517 13.0138 7.90991 13.0092C8.42917 13.3396 9.02376 13.5113 9.62409 13.5113C10.2047 13.5113 10.7902 13.3526 11.3146 13.0278C11.5062 12.9092 11.5654 12.6579 11.4467 12.4664C11.3282 12.2748 11.0771 12.2159 10.8853 12.3343C9.93608 12.9217 8.72175 12.78 7.93151 11.9896C7.61597 11.6741 7.40022 11.2791 7.2981 10.8534C7.31177 10.8547 7.3253 10.8568 7.33884 10.8568C7.45696 10.8568 7.57413 10.8057 7.65466 10.7072C7.79726 10.5329 7.77155 10.2759 7.5971 10.1334L7.04489 9.68184C6.9819 9.62979 6.90465 9.598 6.82327 9.59064C6.69284 9.57875 6.55899 9.62961 6.46999 9.73857L6.01745 10.2919C5.87485 10.4662 5.90056 10.7231 6.07474 10.8657C6.14749 10.9253 6.23866 10.9579 6.33272 10.9578C6.38372 10.9578 6.4339 10.9465 6.48161 10.9278C6.57417 11.3875 6.76599 11.822 7.04599 12.2013H2.63476V2.30395H8.75101V7.20832C8.23954 7.35228 7.75651 7.6234 7.35483 8.02508C7.19556 8.18422 7.19556 8.44248 7.35483 8.60176C7.51411 8.76103 7.77224 8.76103 7.93151 8.60176C8.86571 7.66769 10.3853 7.66797 11.3197 8.60176C11.7503 9.03269 11.991 9.59543 12.0172 10.184C11.8925 10.1385 11.7482 10.1543 11.6334 10.2396C11.4531 10.3743 11.4158 10.6298 11.5506 10.8103L11.9778 11.3829C11.978 11.383 11.978 11.3833 11.9781 11.3834C12.0357 11.4608 12.1189 11.5151 12.2129 11.5368C12.2431 11.5438 12.2742 11.5474 12.3053 11.5474C12.39 11.5474 12.4755 11.521 12.5488 11.4664L13.1216 11.0389C13.302 10.9041 13.3392 10.6486 13.2043 10.468Z" fill="#3263FE"/>
  <path d="M3.48047 5.8424V7.71148C3.48047 7.93666 3.66313 8.11932 3.8883 8.11932C4.11348 8.11932 4.29613 7.93666 4.29613 7.71148V5.8424C4.29613 5.61723 4.11348 5.43457 3.8883 5.43457C3.66313 5.43457 3.48047 5.61723 3.48047 5.8424Z" fill="#3263FE"/>
</svg>
