<svg fill="none" xmlns="http://www.w3.org/2000/svg" viewBox="0 0 24 24" class="design-iconfont">
  <path d="M12.0398 6.47456C7.67064 6.47456 4.12926 9.9505 4.12926 14.2375C4.12926 18.5245 7.67064 22 12.0398 22C16.4085 22 19.9503 18.5245 19.9503 14.2375C19.9503 9.95009 16.4085 6.47497 12.0398 6.47497M16.1071 13.545L14.5475 15.037L14.9159 17.1437C15.0393 17.851 14.6279 18.1601 13.9677 17.8196L12.0398 16.8251L10.1118 17.8196C9.4647 18.1534 9.03776 17.8651 9.16407 17.1437L9.53206 15.037L7.97211 13.5454C7.44875 13.0443 7.59654 12.5567 8.3342 12.4518L10.4899 12.144L11.4541 10.2277C11.7775 9.58403 12.2958 9.57122 12.6259 10.2277L13.5901 12.144L15.7454 12.4518C16.4687 12.5551 16.6414 13.0344 16.1075 13.545M19.4345 2H14.5433C14.2797 2 14.0675 2.18179 14.0056 2.42143L12.4983 5.33836C12.4983 5.33836 15.7264 5.52924 17.6333 7.33146L19.8859 2.87177C19.9524 2.78088 20 2.6747 20 2.55405C19.9996 2.24831 19.747 2 19.4345 2ZM11.5017 5.33877L9.99395 2.42184C9.93163 2.18138 9.72027 2.00041 9.45628 2.00041H4.56504C4.25305 2 4 2.2479 4 2.55405C4 2.67511 4.04758 2.78088 4.1141 2.87219L6.36625 7.33105C8.27357 5.52924 11.5017 5.33836 11.5017 5.33836" fill="#3473D1"/>
</svg>
