<svg fill="none" xmlns="http://www.w3.org/2000/svg" viewBox="0 0 24 24" class="design-iconfont">
  <path d="M19.1219 2H4.79058C3.80441 2 3 2.79783 3 3.76853V19.9579C3 20.9319 3.62603 21.2843 4.52132 20.7524L10.5224 16.8596C11.3269 16.3277 12.6732 16.3277 13.4776 16.8596L19.4787 20.7524C20.2865 21.2843 21 20.9286 21 19.9579V3.76853C20.9125 2.79451 20.1047 2 19.1219 2ZM16.5236 9.07744L15.1806 10.4038C14.8239 10.7562 14.6421 11.3779 14.733 11.9064L15.0898 13.7647C15.1806 14.2068 14.9114 14.4728 14.4637 14.2068L12.8515 13.3226C12.4039 13.0566 11.687 13.0566 11.2393 13.3226L9.62715 14.2068C9.17951 14.4728 8.91025 14.2068 9.00112 13.7647L9.35789 11.9064C9.44877 11.4643 9.17951 10.7562 8.91025 10.4038L7.38893 9.07744C7.03216 8.72506 7.11967 8.36936 7.65819 8.36936L9.53964 8.10342C9.98729 8.01366 10.6133 7.66128 10.7951 7.21915L11.5995 5.53706C11.7779 5.09492 12.138 5.09492 12.4073 5.53706L13.2117 7.21915C13.3901 7.66128 14.0161 8.10342 14.4637 8.10342L16.3452 8.36936C16.7928 8.45579 16.8803 8.72174 16.5236 9.07744Z" fill="#3473D1"/>
</svg>
