<svg fill="none" xmlns="http://www.w3.org/2000/svg" viewBox="0 0 24 24" class="design-iconfont">
  <path d="M12 3C12.5006 3.00181 12.9959 3.09922 13.4576 3.28665C13.9193 3.47408 14.3384 3.74786 14.6909 4.09235C15.0434 4.43683 15.3224 4.84527 15.512 5.29431C15.7016 5.74336 15.798 6.22421 15.7957 6.70938V6.68169L15.9014 6.74123C17.0426 7.3857 17.9984 8.29786 18.6809 9.39386C19.3633 10.4899 19.7506 11.7346 19.8071 13.0135L19.8114 13.1201C20.4677 13.4215 21.022 13.8976 21.4096 14.4929C21.7971 15.0882 22.0019 15.7781 22 16.482C22 18.5312 20.3 20.19 18.2043 20.19C17.4386 20.19 16.7243 19.9685 16.1271 19.5863L16.3414 19.7137C15.0599 20.5543 13.5474 21.0024 12 21C10.4895 21.0023 9.01134 20.5753 7.74859 19.7718L7.66002 19.7123C7.10859 20.0169 6.47145 20.19 5.79431 20.19C5.29397 20.188 4.79894 20.0905 4.33748 19.9031C3.87602 19.7157 3.45716 19.442 3.10483 19.0976C2.7525 18.7533 2.47359 18.3451 2.28403 17.8963C2.09447 17.4475 1.99796 16.9669 2.00003 16.482C2.00003 14.9077 3.00289 13.5632 4.4186 13.0246L4.1886 13.1201L4.19288 13.0149C4.24953 11.736 4.63687 10.4913 5.31933 9.39535C6.00179 8.29936 6.95748 7.38718 8.09859 6.74261L8.2043 6.68446C8.20656 5.70891 8.60701 4.77386 9.31819 4.08353C10.0294 3.39319 10.9935 3.00366 12 3ZM15.5071 8.13138L15.5 8.14523C15.2132 8.81668 14.7279 9.39086 14.105 9.79544C13.4822 10.2 12.7498 10.4169 12 10.4188C11.208 10.417 10.4364 10.1754 9.79303 9.72782C9.14964 9.28023 8.6666 8.64898 8.41145 7.92231L8.49288 8.13277L8.24859 8.29892C7.50957 8.82266 6.89372 9.49255 6.44181 10.2643C5.9899 11.036 5.71223 11.8919 5.62717 12.7754L5.79574 12.7712C6.2962 12.7732 6.79134 12.8708 7.2529 13.0583C7.71445 13.2458 8.13337 13.5196 8.48572 13.8641C8.83807 14.2085 9.11695 14.6169 9.30643 15.0659C9.49591 15.5148 9.59227 15.9956 9.59002 16.4806C9.59002 17.4221 9.23145 18.2834 8.63859 18.9383L8.7843 18.7652L9.0843 18.9272C9.98507 19.3803 10.9852 19.6163 12 19.6154C13.1443 19.6154 14.2471 19.3191 15.2157 18.7666C14.6916 18.113 14.408 17.3084 14.41 16.4806C14.4079 15.982 14.5099 15.4882 14.71 15.0288C14.9101 14.5695 15.2041 14.1542 15.5743 13.808C15.9444 13.4618 16.3831 13.1918 16.8638 13.0143C17.3446 12.8368 17.8574 12.7556 18.3714 12.7754L18.3757 12.81C18.2914 11.8711 17.9897 10.9626 17.4931 10.1523C16.9964 9.34207 16.3176 8.65079 15.5071 8.13V8.13138Z" fill="#3473D1"/>
</svg>
