<svg fill="none" xmlns="http://www.w3.org/2000/svg" viewBox="0 0 24 24" class="design-iconfont">
  <path d="M9.75885 5.34329C9.75885 3.7686 8.47755 2.4873 6.90286 2.4873C5.32817 2.4873 4.04688 3.7686 4.04688 5.34329C4.04688 6.91798 5.32817 8.19928 6.90286 8.19928C8.47755 8.19928 9.75885 6.92028 9.75885 5.34329Z" fill="#3473D1"/>
  <path d="M5.42673 8.43268C3.35465 9.09052 2 11.0915 2 13.2668V16.7141C2 16.8837 2.13753 17.0213 2.30714 17.0213H3.96435V21.1861C3.96435 21.3282 4.07896 21.4428 4.22107 21.4428H9.60298C9.7451 21.4428 9.8597 21.3282 9.8597 21.1861V17.0213H11.1387C11.5169 17.0213 11.8241 16.7118 11.8241 16.3359V12.9619C11.8263 9.84692 8.6082 7.42185 5.42673 8.43268ZM20.2339 6.29642C20.2339 4.72173 18.9526 3.44043 17.3779 3.44043C15.8032 3.44043 14.5219 4.72173 14.5219 6.29642C14.5219 7.87111 15.8032 9.15241 17.3779 9.15241C18.9526 9.15241 20.2339 7.87111 20.2339 6.29642ZM21.93 17.4912L20.486 11.8204C20.172 10.2756 18.7898 9.15241 17.1968 9.15241C15.6038 9.15241 14.2216 10.2755 13.9191 11.7677L12.4636 17.4912C12.3925 17.7731 12.4544 18.0688 12.6309 18.3003C12.8074 18.5318 13.0778 18.667 13.3667 18.6739C13.3667 18.6739 14.0749 18.6877 14.6342 18.6922C14.8153 19.2309 15.0835 20.0263 15.3264 20.7964C15.4479 21.1838 15.8078 21.4451 16.2135 21.4451H18.1824C18.5835 21.4451 18.9411 21.1861 19.0626 20.801C19.3056 20.0285 19.576 19.2126 19.7571 18.6716C20.3164 18.6693 21.0246 18.6647 21.0246 18.6647C21.3135 18.6579 21.5862 18.5272 21.7604 18.2957C21.9392 18.0642 22.0011 17.7731 21.93 17.4912Z" fill="#3473D1"/>
</svg>
