<svg fill="none" xmlns="http://www.w3.org/2000/svg" viewBox="0 0 24 24" class="design-iconfont">
  <path d="M12 16.3663C11.8314 16.3663 11.6628 16.3223 11.514 16.2343L6 13V16.7259C6 16.9251 6.11157 17.1089 6.28264 17.1942L11.8562 19.9499C11.9926 20.0171 12.1488 20.0171 12.2851 19.9473L17.7198 17.1968C17.8909 17.1114 18 16.9303 18 16.7311V13L12.486 16.2343C12.3372 16.3223 12.1686 16.3663 12 16.3663Z" fill="#3473D1"/>
  <path d="M21.7261 9.03472L12.2469 4.06097C12.0936 3.97968 11.909 3.97968 11.7557 4.06097L2.27391 9.03472C1.91263 9.22523 1.90743 9.7282 2.26611 9.92633L5.71001 11.8188L11.7453 15.1338C11.9038 15.2202 12.0962 15.2202 12.2547 15.1338L18.29 11.8188L20.1458 10.8002L20.1666 10.8357V18.492C20.1666 18.7714 20.4005 19 20.6864 19C20.9723 19 21.2063 18.7714 21.2063 18.492V10.2159L21.7339 9.92633C22.0926 9.7282 22.0874 9.22523 21.7261 9.03472Z" fill="#3473D1"/>
</svg>
